%TF.GenerationSoftware,KiCad,Pcbnew,7.0.7*%
%TF.CreationDate,2023-09-16T11:16:50-05:00*%
%TF.ProjectId,giga_pad,67696761-5f70-4616-942e-6b696361645f,rev?*%
%TF.SameCoordinates,Original*%
%TF.FileFunction,Soldermask,Top*%
%TF.FilePolarity,Negative*%
%FSLAX46Y46*%
G04 Gerber Fmt 4.6, Leading zero omitted, Abs format (unit mm)*
G04 Created by KiCad (PCBNEW 7.0.7) date 2023-09-16 11:16:50*
%MOMM*%
%LPD*%
G01*
G04 APERTURE LIST*
G04 Aperture macros list*
%AMRoundRect*
0 Rectangle with rounded corners*
0 $1 Rounding radius*
0 $2 $3 $4 $5 $6 $7 $8 $9 X,Y pos of 4 corners*
0 Add a 4 corners polygon primitive as box body*
4,1,4,$2,$3,$4,$5,$6,$7,$8,$9,$2,$3,0*
0 Add four circle primitives for the rounded corners*
1,1,$1+$1,$2,$3*
1,1,$1+$1,$4,$5*
1,1,$1+$1,$6,$7*
1,1,$1+$1,$8,$9*
0 Add four rect primitives between the rounded corners*
20,1,$1+$1,$2,$3,$4,$5,0*
20,1,$1+$1,$4,$5,$6,$7,0*
20,1,$1+$1,$6,$7,$8,$9,0*
20,1,$1+$1,$8,$9,$2,$3,0*%
G04 Aperture macros list end*
%ADD10C,2.500000*%
%ADD11C,1.700000*%
%ADD12C,4.000000*%
%ADD13C,2.200000*%
%ADD14C,1.550000*%
%ADD15RoundRect,1.200000X0.000000X1.300000X0.000000X1.300000X0.000000X-1.300000X0.000000X-1.300000X0*%
%ADD16R,1.550000X1.550000*%
%ADD17O,1.800000X2.750000*%
G04 APERTURE END LIST*
D10*
%TO.C,H1*%
X133985000Y-40640000D03*
%TD*%
D11*
%TO.C,SW2*%
X116840000Y-52705000D03*
D12*
X121920000Y-52705000D03*
D11*
X127000000Y-52705000D03*
D13*
X124460000Y-47625000D03*
X118110000Y-50165000D03*
%TD*%
D11*
%TO.C,SW3*%
X97790000Y-52705000D03*
D12*
X102870000Y-52705000D03*
D11*
X107950000Y-52705000D03*
D13*
X105410000Y-47625000D03*
X99060000Y-50165000D03*
%TD*%
D10*
%TO.C,H4*%
X133985000Y-90170000D03*
%TD*%
D11*
%TO.C,SW4*%
X78740000Y-52705000D03*
D12*
X83820000Y-52705000D03*
D11*
X88900000Y-52705000D03*
D13*
X86360000Y-47625000D03*
X80010000Y-50165000D03*
%TD*%
D10*
%TO.C,H3*%
X71755000Y-90170000D03*
%TD*%
%TO.C,H2*%
X71755000Y-40640000D03*
%TD*%
D14*
%TO.C,SW1*%
X105330000Y-84985000D03*
X100330000Y-84985000D03*
D15*
X108530000Y-77985000D03*
X97130000Y-77985000D03*
D16*
X105330000Y-70485000D03*
D14*
X100330000Y-70485000D03*
X102830000Y-70485000D03*
%TD*%
D17*
%TO.C,U1*%
X71120000Y-66200000D03*
X73660000Y-66200000D03*
X76200000Y-66200000D03*
X78740000Y-66200000D03*
X81280000Y-66200000D03*
X83820000Y-66200000D03*
X86360000Y-66200000D03*
X86360000Y-82390000D03*
X83820000Y-82390000D03*
X81280000Y-82390000D03*
X78740000Y-82390000D03*
X76200000Y-82390000D03*
X73660000Y-82390000D03*
X71120000Y-82390000D03*
%TD*%
M02*
