%TF.GenerationSoftware,KiCad,Pcbnew,7.0.7*%
%TF.CreationDate,2023-09-16T11:16:50-05:00*%
%TF.ProjectId,giga_pad,67696761-5f70-4616-942e-6b696361645f,rev?*%
%TF.SameCoordinates,Original*%
%TF.FileFunction,Copper,L1,Top*%
%TF.FilePolarity,Positive*%
%FSLAX46Y46*%
G04 Gerber Fmt 4.6, Leading zero omitted, Abs format (unit mm)*
G04 Created by KiCad (PCBNEW 7.0.7) date 2023-09-16 11:16:50*
%MOMM*%
%LPD*%
G01*
G04 APERTURE LIST*
G04 Aperture macros list*
%AMRoundRect*
0 Rectangle with rounded corners*
0 $1 Rounding radius*
0 $2 $3 $4 $5 $6 $7 $8 $9 X,Y pos of 4 corners*
0 Add a 4 corners polygon primitive as box body*
4,1,4,$2,$3,$4,$5,$6,$7,$8,$9,$2,$3,0*
0 Add four circle primitives for the rounded corners*
1,1,$1+$1,$2,$3*
1,1,$1+$1,$4,$5*
1,1,$1+$1,$6,$7*
1,1,$1+$1,$8,$9*
0 Add four rect primitives between the rounded corners*
20,1,$1+$1,$2,$3,$4,$5,0*
20,1,$1+$1,$4,$5,$6,$7,0*
20,1,$1+$1,$6,$7,$8,$9,0*
20,1,$1+$1,$8,$9,$2,$3,0*%
G04 Aperture macros list end*
%TA.AperFunction,ComponentPad*%
%ADD10C,2.200000*%
%TD*%
%TA.AperFunction,ComponentPad*%
%ADD11C,1.550000*%
%TD*%
%TA.AperFunction,ComponentPad*%
%ADD12RoundRect,1.200000X0.000000X1.300000X0.000000X1.300000X0.000000X-1.300000X0.000000X-1.300000X0*%
%TD*%
%TA.AperFunction,ComponentPad*%
%ADD13R,1.550000X1.550000*%
%TD*%
%TA.AperFunction,ComponentPad*%
%ADD14O,1.800000X2.750000*%
%TD*%
G04 APERTURE END LIST*
D10*
%TO.P,SW2,1,1*%
%TO.N,SW_2*%
X124460000Y-47625000D03*
%TO.P,SW2,2,2*%
%TO.N,GND*%
X118110000Y-50165000D03*
%TD*%
%TO.P,SW3,1,1*%
%TO.N,SW_3*%
X105410000Y-47625000D03*
%TO.P,SW3,2,2*%
%TO.N,GND*%
X99060000Y-50165000D03*
%TD*%
%TO.P,SW4,1,1*%
%TO.N,SW_4*%
X86360000Y-47625000D03*
%TO.P,SW4,2,2*%
%TO.N,GND*%
X80010000Y-50165000D03*
%TD*%
D11*
%TO.P,SW1,1,1*%
%TO.N,ROT_SW*%
X105330000Y-84985000D03*
%TO.P,SW1,2,2*%
%TO.N,GND*%
X100330000Y-84985000D03*
D12*
%TO.P,SW1,3*%
%TO.N,N/C*%
X108530000Y-77985000D03*
%TO.P,SW1,4*%
X97130000Y-77985000D03*
D13*
%TO.P,SW1,A,A*%
%TO.N,ROT_A*%
X105330000Y-70485000D03*
D11*
%TO.P,SW1,B,B*%
%TO.N,ROT_B*%
X100330000Y-70485000D03*
%TO.P,SW1,C,C*%
%TO.N,GND*%
X102830000Y-70485000D03*
%TD*%
D14*
%TO.P,U1,1,PA02_A0_D0*%
%TO.N,ROT_SW*%
X71120000Y-66200000D03*
%TO.P,U1,2,PA4_A1_D1*%
%TO.N,ROT_A*%
X73660000Y-66200000D03*
%TO.P,U1,3,PA10_A2_D2*%
%TO.N,ROT_B*%
X76200000Y-66200000D03*
%TO.P,U1,4,PA11_A3_D3*%
%TO.N,SW_2*%
X78740000Y-66200000D03*
%TO.P,U1,5,PA8_A4_D4_SDA*%
%TO.N,SW_3*%
X81280000Y-66200000D03*
%TO.P,U1,6,PA9_A5_D5_SCL*%
%TO.N,SW_4*%
X83820000Y-66200000D03*
%TO.P,U1,7,PB08_A6_D6_TX*%
%TO.N,unconnected-(U1-PB08_A6_D6_TX-Pad7)*%
X86360000Y-66200000D03*
%TO.P,U1,8,PB09_A7_D7_RX*%
%TO.N,unconnected-(U1-PB09_A7_D7_RX-Pad8)*%
X86360000Y-82390000D03*
%TO.P,U1,9,PA7_A8_D8_SCK*%
%TO.N,unconnected-(U1-PA7_A8_D8_SCK-Pad9)*%
X83820000Y-82390000D03*
%TO.P,U1,10,PA5_A9_D9_MISO*%
%TO.N,unconnected-(U1-PA5_A9_D9_MISO-Pad10)*%
X81280000Y-82390000D03*
%TO.P,U1,11,PA6_A10_D10_MOSI*%
%TO.N,unconnected-(U1-PA6_A10_D10_MOSI-Pad11)*%
X78740000Y-82390000D03*
%TO.P,U1,12,3V3*%
%TO.N,unconnected-(U1-3V3-Pad12)*%
X76200000Y-82390000D03*
%TO.P,U1,13,GND*%
%TO.N,GND*%
X73660000Y-82390000D03*
%TO.P,U1,14,5V*%
%TO.N,unconnected-(U1-5V-Pad14)*%
X71120000Y-82390000D03*
%TD*%
%TA.AperFunction,Conductor*%
%TO.N,GND*%
G36*
X134621620Y-36830584D02*
G01*
X134753351Y-36837488D01*
X134956006Y-36848869D01*
X134962186Y-36849530D01*
X135064042Y-36865663D01*
X135120727Y-36874642D01*
X135253232Y-36897154D01*
X135295876Y-36904400D01*
X135301525Y-36905633D01*
X135461701Y-36948552D01*
X135627734Y-36996386D01*
X135632742Y-36998065D01*
X135788940Y-37058024D01*
X135789689Y-37058312D01*
X135947619Y-37123729D01*
X135952042Y-37125768D01*
X136102931Y-37202649D01*
X136251880Y-37284970D01*
X136255627Y-37287219D01*
X136398351Y-37379905D01*
X136536852Y-37478177D01*
X136539977Y-37480548D01*
X136671463Y-37587024D01*
X136673759Y-37588977D01*
X136799267Y-37701137D01*
X136801795Y-37703527D01*
X136921471Y-37823203D01*
X136923861Y-37825731D01*
X137036021Y-37951239D01*
X137037974Y-37953535D01*
X137144450Y-38085021D01*
X137146829Y-38088157D01*
X137146833Y-38088163D01*
X137245096Y-38226651D01*
X137275277Y-38273125D01*
X137337768Y-38369352D01*
X137340035Y-38373130D01*
X137422349Y-38522066D01*
X137499231Y-38672956D01*
X137501269Y-38677378D01*
X137566687Y-38835310D01*
X137626925Y-38992234D01*
X137628621Y-38997292D01*
X137676456Y-39163334D01*
X137719362Y-39323462D01*
X137720599Y-39329126D01*
X137750357Y-39504272D01*
X137775464Y-39662783D01*
X137776130Y-39669010D01*
X137787517Y-39871758D01*
X137794415Y-40003377D01*
X137794500Y-40006623D01*
X137794500Y-90803376D01*
X137794415Y-90806622D01*
X137787517Y-90938241D01*
X137776130Y-91140988D01*
X137775464Y-91147215D01*
X137750357Y-91305727D01*
X137720599Y-91480872D01*
X137719362Y-91486536D01*
X137676456Y-91646665D01*
X137628620Y-91812706D01*
X137626925Y-91817763D01*
X137566687Y-91974689D01*
X137501269Y-92132620D01*
X137499231Y-92137041D01*
X137422349Y-92287933D01*
X137340035Y-92436868D01*
X137337768Y-92440646D01*
X137245099Y-92583344D01*
X137146833Y-92721836D01*
X137144450Y-92724977D01*
X137037974Y-92856463D01*
X137036021Y-92858759D01*
X136923861Y-92984267D01*
X136921471Y-92986795D01*
X136801795Y-93106471D01*
X136799267Y-93108861D01*
X136673759Y-93221021D01*
X136671463Y-93222974D01*
X136539977Y-93329450D01*
X136536836Y-93331833D01*
X136398344Y-93430099D01*
X136255646Y-93522768D01*
X136251868Y-93525035D01*
X136102933Y-93607349D01*
X135952041Y-93684231D01*
X135947620Y-93686269D01*
X135789689Y-93751687D01*
X135632763Y-93811925D01*
X135627706Y-93813620D01*
X135461665Y-93861456D01*
X135301536Y-93904362D01*
X135295872Y-93905599D01*
X135120727Y-93935357D01*
X134962215Y-93960464D01*
X134955988Y-93961130D01*
X134753242Y-93972517D01*
X134651979Y-93977824D01*
X134621620Y-93979415D01*
X134618377Y-93979500D01*
X71121623Y-93979500D01*
X71118379Y-93979415D01*
X71088020Y-93977824D01*
X70986758Y-93972517D01*
X70784010Y-93961130D01*
X70777783Y-93960464D01*
X70619272Y-93935357D01*
X70444126Y-93905599D01*
X70438462Y-93904362D01*
X70278334Y-93861456D01*
X70112292Y-93813621D01*
X70107234Y-93811925D01*
X69950310Y-93751687D01*
X69792378Y-93686269D01*
X69787956Y-93684231D01*
X69637066Y-93607349D01*
X69488130Y-93525035D01*
X69484352Y-93522768D01*
X69341651Y-93430096D01*
X69203162Y-93331833D01*
X69200021Y-93329450D01*
X69068535Y-93222974D01*
X69066239Y-93221021D01*
X68940731Y-93108861D01*
X68938203Y-93106471D01*
X68818527Y-92986795D01*
X68816137Y-92984267D01*
X68703977Y-92858759D01*
X68702024Y-92856463D01*
X68595548Y-92724977D01*
X68593177Y-92721852D01*
X68494905Y-92583351D01*
X68402219Y-92440627D01*
X68399970Y-92436880D01*
X68317649Y-92287931D01*
X68240768Y-92137042D01*
X68238729Y-92132619D01*
X68173312Y-91974689D01*
X68161746Y-91944559D01*
X68113065Y-91817742D01*
X68111386Y-91812734D01*
X68063552Y-91646701D01*
X68020633Y-91486525D01*
X68019399Y-91480871D01*
X67989642Y-91305727D01*
X67971271Y-91189744D01*
X67964530Y-91147186D01*
X67963869Y-91141006D01*
X67952488Y-90938351D01*
X67945584Y-90806620D01*
X67945500Y-90803378D01*
X67945500Y-90294334D01*
X70254500Y-90294334D01*
X70295429Y-90539616D01*
X70376169Y-90774802D01*
X70376172Y-90774811D01*
X70494524Y-90993506D01*
X70494526Y-90993509D01*
X70647262Y-91189744D01*
X70773253Y-91305727D01*
X70830217Y-91358166D01*
X71038393Y-91494173D01*
X71266118Y-91594063D01*
X71507175Y-91655107D01*
X71507179Y-91655108D01*
X71507181Y-91655108D01*
X71507186Y-91655109D01*
X71640376Y-91666145D01*
X71692933Y-91670500D01*
X71692935Y-91670500D01*
X71817065Y-91670500D01*
X71817067Y-91670500D01*
X71878284Y-91665427D01*
X72002813Y-91655109D01*
X72002816Y-91655108D01*
X72002821Y-91655108D01*
X72243881Y-91594063D01*
X72471607Y-91494173D01*
X72679785Y-91358164D01*
X72862738Y-91189744D01*
X73015474Y-90993509D01*
X73133828Y-90774810D01*
X73214571Y-90539614D01*
X73255500Y-90294335D01*
X73255500Y-90294334D01*
X132484500Y-90294334D01*
X132525429Y-90539616D01*
X132606169Y-90774802D01*
X132606172Y-90774811D01*
X132724524Y-90993506D01*
X132724526Y-90993509D01*
X132877262Y-91189744D01*
X133003253Y-91305727D01*
X133060217Y-91358166D01*
X133268393Y-91494173D01*
X133496118Y-91594063D01*
X133737175Y-91655107D01*
X133737179Y-91655108D01*
X133737181Y-91655108D01*
X133737186Y-91655109D01*
X133870376Y-91666145D01*
X133922933Y-91670500D01*
X133922935Y-91670500D01*
X134047065Y-91670500D01*
X134047067Y-91670500D01*
X134108284Y-91665427D01*
X134232813Y-91655109D01*
X134232816Y-91655108D01*
X134232821Y-91655108D01*
X134473881Y-91594063D01*
X134701607Y-91494173D01*
X134909785Y-91358164D01*
X135092738Y-91189744D01*
X135245474Y-90993509D01*
X135363828Y-90774810D01*
X135444571Y-90539614D01*
X135485500Y-90294335D01*
X135485500Y-90045665D01*
X135444571Y-89800386D01*
X135363828Y-89565190D01*
X135245474Y-89346491D01*
X135092738Y-89150256D01*
X134909785Y-88981836D01*
X134909782Y-88981833D01*
X134701606Y-88845826D01*
X134473881Y-88745936D01*
X134232824Y-88684892D01*
X134232813Y-88684890D01*
X134067548Y-88671197D01*
X134047067Y-88669500D01*
X133922933Y-88669500D01*
X133903521Y-88671108D01*
X133737186Y-88684890D01*
X133737175Y-88684892D01*
X133496118Y-88745936D01*
X133268393Y-88845826D01*
X133060217Y-88981833D01*
X132877261Y-89150257D01*
X132724524Y-89346493D01*
X132606172Y-89565188D01*
X132606169Y-89565197D01*
X132525429Y-89800383D01*
X132484500Y-90045665D01*
X132484500Y-90294334D01*
X73255500Y-90294334D01*
X73255500Y-90045665D01*
X73214571Y-89800386D01*
X73133828Y-89565190D01*
X73015474Y-89346491D01*
X72862738Y-89150256D01*
X72679785Y-88981836D01*
X72679782Y-88981833D01*
X72471606Y-88845826D01*
X72243881Y-88745936D01*
X72002824Y-88684892D01*
X72002813Y-88684890D01*
X71837548Y-88671197D01*
X71817067Y-88669500D01*
X71692933Y-88669500D01*
X71673521Y-88671108D01*
X71507186Y-88684890D01*
X71507175Y-88684892D01*
X71266118Y-88745936D01*
X71038393Y-88845826D01*
X70830217Y-88981833D01*
X70647261Y-89150257D01*
X70494524Y-89346493D01*
X70376172Y-89565188D01*
X70376169Y-89565197D01*
X70295429Y-89800383D01*
X70254500Y-90045665D01*
X70254500Y-90294334D01*
X67945500Y-90294334D01*
X67945500Y-84985001D01*
X99050130Y-84985001D01*
X99069573Y-85207241D01*
X99069574Y-85207248D01*
X99127314Y-85422736D01*
X99127318Y-85422747D01*
X99221600Y-85624935D01*
X99221601Y-85624937D01*
X99268923Y-85692521D01*
X99268924Y-85692522D01*
X99721050Y-85240395D01*
X99782373Y-85206910D01*
X99852064Y-85211894D01*
X99907998Y-85253765D01*
X99913039Y-85261025D01*
X99913048Y-85261039D01*
X99948239Y-85315798D01*
X100063602Y-85415759D01*
X100061293Y-85418422D01*
X100096006Y-85458499D01*
X100105935Y-85527660D01*
X100076898Y-85591210D01*
X100070882Y-85597669D01*
X99622476Y-86046074D01*
X99622477Y-86046075D01*
X99690062Y-86093398D01*
X99690064Y-86093399D01*
X99892252Y-86187681D01*
X99892263Y-86187685D01*
X100107751Y-86245425D01*
X100107758Y-86245426D01*
X100329998Y-86264870D01*
X100330002Y-86264870D01*
X100552241Y-86245426D01*
X100552248Y-86245425D01*
X100767736Y-86187685D01*
X100767747Y-86187681D01*
X100969931Y-86093401D01*
X100969933Y-86093400D01*
X101037522Y-86046074D01*
X100589116Y-85597669D01*
X100555631Y-85536346D01*
X100560615Y-85466655D01*
X100597640Y-85417193D01*
X100596398Y-85415759D01*
X100603100Y-85409952D01*
X100711761Y-85315798D01*
X100746954Y-85261037D01*
X100799755Y-85215283D01*
X100868914Y-85205339D01*
X100932470Y-85234363D01*
X100938949Y-85240396D01*
X101391074Y-85692522D01*
X101438400Y-85624933D01*
X101438401Y-85624931D01*
X101532681Y-85422747D01*
X101532685Y-85422736D01*
X101590425Y-85207248D01*
X101590426Y-85207241D01*
X101609870Y-84985001D01*
X101609870Y-84985000D01*
X104049628Y-84985000D01*
X104069079Y-85207329D01*
X104069081Y-85207339D01*
X104126841Y-85422905D01*
X104126843Y-85422909D01*
X104126844Y-85422913D01*
X104221165Y-85625186D01*
X104349178Y-85808007D01*
X104506993Y-85965822D01*
X104689814Y-86093835D01*
X104892087Y-86188156D01*
X105107666Y-86245920D01*
X105285533Y-86261481D01*
X105329999Y-86265372D01*
X105330000Y-86265372D01*
X105330001Y-86265372D01*
X105367055Y-86262130D01*
X105552334Y-86245920D01*
X105767913Y-86188156D01*
X105970186Y-86093835D01*
X106153007Y-85965822D01*
X106310822Y-85808007D01*
X106438835Y-85625186D01*
X106533156Y-85422913D01*
X106590920Y-85207334D01*
X106610372Y-84985000D01*
X106590920Y-84762666D01*
X106533156Y-84547087D01*
X106438835Y-84344814D01*
X106310822Y-84161993D01*
X106153007Y-84004178D01*
X105970186Y-83876165D01*
X105767913Y-83781844D01*
X105767909Y-83781843D01*
X105767905Y-83781841D01*
X105552339Y-83724081D01*
X105552329Y-83724079D01*
X105330001Y-83704628D01*
X105329999Y-83704628D01*
X105107670Y-83724079D01*
X105107660Y-83724081D01*
X104892094Y-83781841D01*
X104892087Y-83781843D01*
X104892087Y-83781844D01*
X104689814Y-83876165D01*
X104506993Y-84004178D01*
X104506991Y-84004179D01*
X104506988Y-84004182D01*
X104349182Y-84161988D01*
X104349179Y-84161991D01*
X104349178Y-84161993D01*
X104281127Y-84259180D01*
X104221165Y-84344814D01*
X104126845Y-84547085D01*
X104126841Y-84547094D01*
X104069081Y-84762660D01*
X104069079Y-84762670D01*
X104049628Y-84984999D01*
X104049628Y-84985000D01*
X101609870Y-84985000D01*
X101609870Y-84984998D01*
X101590426Y-84762758D01*
X101590425Y-84762751D01*
X101532685Y-84547263D01*
X101532681Y-84547252D01*
X101438399Y-84345064D01*
X101438398Y-84345062D01*
X101391075Y-84277477D01*
X101391074Y-84277476D01*
X100938949Y-84729602D01*
X100877626Y-84763087D01*
X100807934Y-84758103D01*
X100752001Y-84716231D01*
X100746953Y-84708961D01*
X100711761Y-84654202D01*
X100596398Y-84554241D01*
X100598708Y-84551574D01*
X100564005Y-84511528D01*
X100554058Y-84442370D01*
X100583080Y-84378813D01*
X100589116Y-84372330D01*
X101037522Y-83923924D01*
X101037521Y-83923923D01*
X100969937Y-83876601D01*
X100969935Y-83876600D01*
X100767747Y-83782318D01*
X100767736Y-83782314D01*
X100552248Y-83724574D01*
X100552241Y-83724573D01*
X100330002Y-83705130D01*
X100329998Y-83705130D01*
X100107758Y-83724573D01*
X100107751Y-83724574D01*
X99892263Y-83782314D01*
X99892252Y-83782318D01*
X99690066Y-83876598D01*
X99622477Y-83923924D01*
X100070883Y-84372330D01*
X100104368Y-84433653D01*
X100099384Y-84503345D01*
X100062357Y-84552805D01*
X100063602Y-84554241D01*
X99948238Y-84654202D01*
X99913046Y-84708962D01*
X99860242Y-84754717D01*
X99791083Y-84764660D01*
X99727528Y-84735634D01*
X99721050Y-84729603D01*
X99268924Y-84277477D01*
X99221598Y-84345066D01*
X99127318Y-84547252D01*
X99127314Y-84547263D01*
X99069574Y-84762751D01*
X99069573Y-84762758D01*
X99050130Y-84984998D01*
X99050130Y-84985001D01*
X67945500Y-84985001D01*
X67945500Y-82924502D01*
X69719500Y-82924502D01*
X69734652Y-83102536D01*
X69794724Y-83333248D01*
X69892919Y-83550480D01*
X69892924Y-83550488D01*
X70026413Y-83747993D01*
X70026418Y-83747998D01*
X70026421Y-83748003D01*
X70191379Y-83920118D01*
X70383053Y-84061879D01*
X70595926Y-84169207D01*
X70823877Y-84239016D01*
X71060346Y-84269298D01*
X71298532Y-84259180D01*
X71531581Y-84208954D01*
X71752790Y-84120064D01*
X71955795Y-83995069D01*
X72134755Y-83837564D01*
X72284523Y-83652080D01*
X72284798Y-83651586D01*
X72284971Y-83651416D01*
X72287472Y-83647717D01*
X72288224Y-83648225D01*
X72334672Y-83602656D01*
X72403084Y-83588456D01*
X72468312Y-83613497D01*
X72495793Y-83642612D01*
X72566815Y-83747692D01*
X72731706Y-83919736D01*
X72923316Y-84061450D01*
X73136115Y-84168741D01*
X73363987Y-84238526D01*
X73363985Y-84238526D01*
X73410000Y-84244418D01*
X73410000Y-82527301D01*
X73429685Y-82460262D01*
X73482489Y-82414507D01*
X73551647Y-82404563D01*
X73624237Y-82415000D01*
X73624238Y-82415000D01*
X73695762Y-82415000D01*
X73695763Y-82415000D01*
X73768353Y-82404563D01*
X73837512Y-82414507D01*
X73890315Y-82460262D01*
X73910000Y-82527301D01*
X73910000Y-84243264D01*
X74071434Y-84208473D01*
X74292562Y-84119616D01*
X74495494Y-83994666D01*
X74674389Y-83837219D01*
X74674396Y-83837213D01*
X74824102Y-83651805D01*
X74824104Y-83651803D01*
X74824210Y-83651614D01*
X74824275Y-83651549D01*
X74827056Y-83647436D01*
X74827892Y-83648001D01*
X74874084Y-83602682D01*
X74942495Y-83588481D01*
X75007724Y-83613520D01*
X75035206Y-83642638D01*
X75106413Y-83747992D01*
X75106414Y-83747993D01*
X75106421Y-83748003D01*
X75271379Y-83920118D01*
X75463053Y-84061879D01*
X75675926Y-84169207D01*
X75903877Y-84239016D01*
X76140346Y-84269298D01*
X76378532Y-84259180D01*
X76611581Y-84208954D01*
X76832790Y-84120064D01*
X77035795Y-83995069D01*
X77214755Y-83837564D01*
X77364523Y-83652080D01*
X77364529Y-83652070D01*
X77367472Y-83647717D01*
X77368357Y-83648315D01*
X77414401Y-83603144D01*
X77482813Y-83588945D01*
X77548041Y-83613987D01*
X77575520Y-83643102D01*
X77646413Y-83747993D01*
X77646418Y-83747998D01*
X77646421Y-83748003D01*
X77811379Y-83920118D01*
X78003053Y-84061879D01*
X78215926Y-84169207D01*
X78443877Y-84239016D01*
X78680346Y-84269298D01*
X78918532Y-84259180D01*
X79151581Y-84208954D01*
X79372790Y-84120064D01*
X79575795Y-83995069D01*
X79754755Y-83837564D01*
X79904523Y-83652080D01*
X79904529Y-83652070D01*
X79907472Y-83647717D01*
X79908357Y-83648315D01*
X79954401Y-83603144D01*
X80022813Y-83588945D01*
X80088041Y-83613987D01*
X80115520Y-83643102D01*
X80186413Y-83747993D01*
X80186418Y-83747998D01*
X80186421Y-83748003D01*
X80351379Y-83920118D01*
X80543053Y-84061879D01*
X80755926Y-84169207D01*
X80983877Y-84239016D01*
X81220346Y-84269298D01*
X81458532Y-84259180D01*
X81691581Y-84208954D01*
X81912790Y-84120064D01*
X82115795Y-83995069D01*
X82294755Y-83837564D01*
X82444523Y-83652080D01*
X82444529Y-83652070D01*
X82447472Y-83647717D01*
X82448357Y-83648315D01*
X82494401Y-83603144D01*
X82562813Y-83588945D01*
X82628041Y-83613987D01*
X82655520Y-83643102D01*
X82726413Y-83747993D01*
X82726418Y-83747998D01*
X82726421Y-83748003D01*
X82891379Y-83920118D01*
X83083053Y-84061879D01*
X83295926Y-84169207D01*
X83523877Y-84239016D01*
X83760346Y-84269298D01*
X83998532Y-84259180D01*
X84231581Y-84208954D01*
X84452790Y-84120064D01*
X84655795Y-83995069D01*
X84834755Y-83837564D01*
X84984523Y-83652080D01*
X84984529Y-83652070D01*
X84987472Y-83647717D01*
X84988357Y-83648315D01*
X85034401Y-83603144D01*
X85102813Y-83588945D01*
X85168041Y-83613987D01*
X85195520Y-83643102D01*
X85266413Y-83747993D01*
X85266418Y-83747998D01*
X85266421Y-83748003D01*
X85431379Y-83920118D01*
X85623053Y-84061879D01*
X85835926Y-84169207D01*
X86063877Y-84239016D01*
X86300346Y-84269298D01*
X86538532Y-84259180D01*
X86771581Y-84208954D01*
X86992790Y-84120064D01*
X87195795Y-83995069D01*
X87374755Y-83837564D01*
X87524523Y-83652080D01*
X87640790Y-83443954D01*
X87720211Y-83219171D01*
X87740210Y-83102536D01*
X87760499Y-82984209D01*
X87760499Y-82984205D01*
X87760500Y-82984200D01*
X87760500Y-81855503D01*
X87754045Y-81779669D01*
X87745347Y-81677463D01*
X87685275Y-81446751D01*
X87587080Y-81229519D01*
X87587075Y-81229511D01*
X87453586Y-81032006D01*
X87453582Y-81032001D01*
X87453579Y-81031997D01*
X87288621Y-80859882D01*
X87281149Y-80854356D01*
X87187824Y-80785333D01*
X87096947Y-80718121D01*
X86884074Y-80610793D01*
X86754283Y-80571045D01*
X86656121Y-80540983D01*
X86419647Y-80510701D01*
X86181471Y-80520819D01*
X86181467Y-80520819D01*
X85948419Y-80571045D01*
X85727211Y-80659935D01*
X85524203Y-80784932D01*
X85345245Y-80942435D01*
X85195471Y-81127928D01*
X85195458Y-81127952D01*
X85195449Y-81127960D01*
X85192522Y-81132291D01*
X85191640Y-81131695D01*
X85145570Y-81176870D01*
X85077154Y-81191051D01*
X85011933Y-81165993D01*
X84984479Y-81136897D01*
X84913586Y-81032006D01*
X84913582Y-81032001D01*
X84913579Y-81031997D01*
X84748621Y-80859882D01*
X84741149Y-80854356D01*
X84647824Y-80785333D01*
X84556947Y-80718121D01*
X84344074Y-80610793D01*
X84214283Y-80571045D01*
X84116121Y-80540983D01*
X83879647Y-80510701D01*
X83641471Y-80520819D01*
X83641467Y-80520819D01*
X83408419Y-80571045D01*
X83187211Y-80659935D01*
X82984203Y-80784932D01*
X82805245Y-80942435D01*
X82655471Y-81127928D01*
X82655458Y-81127952D01*
X82655449Y-81127960D01*
X82652522Y-81132291D01*
X82651640Y-81131695D01*
X82605570Y-81176870D01*
X82537154Y-81191051D01*
X82471933Y-81165993D01*
X82444479Y-81136897D01*
X82373586Y-81032006D01*
X82373582Y-81032001D01*
X82373579Y-81031997D01*
X82208621Y-80859882D01*
X82201149Y-80854356D01*
X82107824Y-80785333D01*
X82016947Y-80718121D01*
X81804074Y-80610793D01*
X81674283Y-80571045D01*
X81576121Y-80540983D01*
X81339647Y-80510701D01*
X81101471Y-80520819D01*
X81101467Y-80520819D01*
X80868419Y-80571045D01*
X80647211Y-80659935D01*
X80444203Y-80784932D01*
X80265245Y-80942435D01*
X80115471Y-81127928D01*
X80115458Y-81127952D01*
X80115449Y-81127960D01*
X80112522Y-81132291D01*
X80111640Y-81131695D01*
X80065570Y-81176870D01*
X79997154Y-81191051D01*
X79931933Y-81165993D01*
X79904479Y-81136897D01*
X79833586Y-81032006D01*
X79833582Y-81032001D01*
X79833579Y-81031997D01*
X79668621Y-80859882D01*
X79661149Y-80854356D01*
X79567824Y-80785333D01*
X79476947Y-80718121D01*
X79264074Y-80610793D01*
X79134283Y-80571045D01*
X79036121Y-80540983D01*
X78799647Y-80510701D01*
X78561471Y-80520819D01*
X78561467Y-80520819D01*
X78328419Y-80571045D01*
X78107211Y-80659935D01*
X77904203Y-80784932D01*
X77725245Y-80942435D01*
X77575471Y-81127928D01*
X77575458Y-81127952D01*
X77575449Y-81127960D01*
X77572522Y-81132291D01*
X77571640Y-81131695D01*
X77525570Y-81176870D01*
X77457154Y-81191051D01*
X77391933Y-81165993D01*
X77364479Y-81136897D01*
X77293586Y-81032006D01*
X77293582Y-81032001D01*
X77293579Y-81031997D01*
X77128621Y-80859882D01*
X77121149Y-80854356D01*
X77027824Y-80785333D01*
X76936947Y-80718121D01*
X76724074Y-80610793D01*
X76594283Y-80571045D01*
X76496121Y-80540983D01*
X76259647Y-80510701D01*
X76021471Y-80520819D01*
X76021467Y-80520819D01*
X75788419Y-80571045D01*
X75567211Y-80659935D01*
X75364203Y-80784932D01*
X75185245Y-80942435D01*
X75035471Y-81127928D01*
X75035187Y-81128437D01*
X75035009Y-81128610D01*
X75032522Y-81132291D01*
X75031773Y-81131784D01*
X74985301Y-81177357D01*
X74916886Y-81191541D01*
X74851664Y-81166485D01*
X74824206Y-81137386D01*
X74753187Y-81032311D01*
X74753185Y-81032309D01*
X74588293Y-80860263D01*
X74396683Y-80718549D01*
X74183884Y-80611257D01*
X73956013Y-80541473D01*
X73956016Y-80541473D01*
X73909999Y-80535581D01*
X73909999Y-81302698D01*
X73890314Y-81369737D01*
X73837510Y-81415492D01*
X73768353Y-81425436D01*
X73695764Y-81415000D01*
X73695763Y-81415000D01*
X73624237Y-81415000D01*
X73624233Y-81415000D01*
X73551645Y-81425436D01*
X73482487Y-81415492D01*
X73429684Y-81369736D01*
X73410000Y-81302698D01*
X73410000Y-80536734D01*
X73409999Y-80536734D01*
X73248566Y-80571525D01*
X73027437Y-80660383D01*
X72824505Y-80785333D01*
X72645610Y-80942780D01*
X72495893Y-81128201D01*
X72495885Y-81128213D01*
X72495770Y-81128420D01*
X72495698Y-81128490D01*
X72492945Y-81132564D01*
X72492115Y-81132003D01*
X72445881Y-81177337D01*
X72377465Y-81191516D01*
X72312244Y-81166456D01*
X72284793Y-81137362D01*
X72213579Y-81031997D01*
X72048621Y-80859882D01*
X72041149Y-80854356D01*
X71947824Y-80785333D01*
X71856947Y-80718121D01*
X71644074Y-80610793D01*
X71514283Y-80571045D01*
X71416121Y-80540983D01*
X71179647Y-80510701D01*
X70941471Y-80520819D01*
X70941467Y-80520819D01*
X70708419Y-80571045D01*
X70487211Y-80659935D01*
X70284203Y-80784932D01*
X70105245Y-80942435D01*
X70032676Y-81032311D01*
X69955477Y-81127920D01*
X69953196Y-81132003D01*
X69839210Y-81336044D01*
X69759788Y-81560829D01*
X69719500Y-81795790D01*
X69719500Y-82924502D01*
X67945500Y-82924502D01*
X67945500Y-79389410D01*
X95429500Y-79389410D01*
X95432313Y-79448104D01*
X95477107Y-79705343D01*
X95560643Y-79952730D01*
X95665450Y-80154587D01*
X95680966Y-80184470D01*
X95835244Y-80395113D01*
X95835248Y-80395118D01*
X96019881Y-80579751D01*
X96019886Y-80579755D01*
X96230529Y-80734033D01*
X96230532Y-80734034D01*
X96230534Y-80734036D01*
X96462270Y-80854357D01*
X96709657Y-80937893D01*
X96966896Y-80982687D01*
X97020867Y-80985273D01*
X97025588Y-80985500D01*
X97025590Y-80985500D01*
X97234412Y-80985500D01*
X97238950Y-80985282D01*
X97293104Y-80982687D01*
X97550343Y-80937893D01*
X97797730Y-80854357D01*
X98029466Y-80734036D01*
X98240119Y-80579751D01*
X98424751Y-80395119D01*
X98579036Y-80184466D01*
X98699357Y-79952730D01*
X98782893Y-79705343D01*
X98827687Y-79448104D01*
X98830500Y-79389410D01*
X106829500Y-79389410D01*
X106832313Y-79448104D01*
X106877107Y-79705343D01*
X106960643Y-79952730D01*
X107065450Y-80154587D01*
X107080966Y-80184470D01*
X107235244Y-80395113D01*
X107235248Y-80395118D01*
X107419881Y-80579751D01*
X107419886Y-80579755D01*
X107630529Y-80734033D01*
X107630532Y-80734034D01*
X107630534Y-80734036D01*
X107862270Y-80854357D01*
X108109657Y-80937893D01*
X108366896Y-80982687D01*
X108420867Y-80985273D01*
X108425588Y-80985500D01*
X108425590Y-80985500D01*
X108634412Y-80985500D01*
X108638950Y-80985282D01*
X108693104Y-80982687D01*
X108950343Y-80937893D01*
X109197730Y-80854357D01*
X109429466Y-80734036D01*
X109640119Y-80579751D01*
X109824751Y-80395119D01*
X109979036Y-80184466D01*
X110099357Y-79952730D01*
X110182893Y-79705343D01*
X110227687Y-79448104D01*
X110230500Y-79389410D01*
X110230500Y-76580590D01*
X110227687Y-76521896D01*
X110182893Y-76264657D01*
X110099357Y-76017270D01*
X109979036Y-75785534D01*
X109979034Y-75785532D01*
X109979033Y-75785529D01*
X109824755Y-75574886D01*
X109824751Y-75574881D01*
X109640118Y-75390248D01*
X109640113Y-75390244D01*
X109429470Y-75235966D01*
X109399587Y-75220450D01*
X109197730Y-75115643D01*
X108950343Y-75032107D01*
X108693104Y-74987313D01*
X108657887Y-74985625D01*
X108634412Y-74984500D01*
X108634410Y-74984500D01*
X108425590Y-74984500D01*
X108425588Y-74984500D01*
X108396243Y-74985906D01*
X108366896Y-74987313D01*
X108195403Y-75017175D01*
X108109656Y-75032107D01*
X108109655Y-75032107D01*
X107862270Y-75115643D01*
X107630529Y-75235966D01*
X107419886Y-75390244D01*
X107419881Y-75390248D01*
X107235248Y-75574881D01*
X107235244Y-75574886D01*
X107080966Y-75785529D01*
X106960643Y-76017270D01*
X106877107Y-76264655D01*
X106877107Y-76264656D01*
X106877107Y-76264657D01*
X106832313Y-76521896D01*
X106829500Y-76580590D01*
X106829500Y-79389410D01*
X98830500Y-79389410D01*
X98830500Y-76580590D01*
X98827687Y-76521896D01*
X98782893Y-76264657D01*
X98699357Y-76017270D01*
X98579036Y-75785534D01*
X98579034Y-75785532D01*
X98579033Y-75785529D01*
X98424755Y-75574886D01*
X98424751Y-75574881D01*
X98240118Y-75390248D01*
X98240113Y-75390244D01*
X98029470Y-75235966D01*
X97999587Y-75220450D01*
X97797730Y-75115643D01*
X97550343Y-75032107D01*
X97293104Y-74987313D01*
X97257887Y-74985625D01*
X97234412Y-74984500D01*
X97234410Y-74984500D01*
X97025590Y-74984500D01*
X97025588Y-74984500D01*
X96996243Y-74985906D01*
X96966896Y-74987313D01*
X96795403Y-75017175D01*
X96709656Y-75032107D01*
X96709655Y-75032107D01*
X96462270Y-75115643D01*
X96230529Y-75235966D01*
X96019886Y-75390244D01*
X96019881Y-75390248D01*
X95835248Y-75574881D01*
X95835244Y-75574886D01*
X95680966Y-75785529D01*
X95560643Y-76017270D01*
X95477107Y-76264655D01*
X95477107Y-76264656D01*
X95477107Y-76264657D01*
X95432313Y-76521896D01*
X95429500Y-76580590D01*
X95429500Y-79389410D01*
X67945500Y-79389410D01*
X67945500Y-70485000D01*
X99049628Y-70485000D01*
X99069079Y-70707329D01*
X99069081Y-70707339D01*
X99126841Y-70922905D01*
X99126843Y-70922909D01*
X99126844Y-70922913D01*
X99221165Y-71125186D01*
X99349178Y-71308007D01*
X99506993Y-71465822D01*
X99689814Y-71593835D01*
X99892087Y-71688156D01*
X100107666Y-71745920D01*
X100274291Y-71760498D01*
X100329999Y-71765372D01*
X100330000Y-71765372D01*
X100330001Y-71765372D01*
X100385686Y-71760500D01*
X100552334Y-71745920D01*
X100767913Y-71688156D01*
X100970186Y-71593835D01*
X101153007Y-71465822D01*
X101310822Y-71308007D01*
X101438835Y-71125186D01*
X101467895Y-71062865D01*
X101514066Y-71010428D01*
X101581259Y-70991276D01*
X101648140Y-71011491D01*
X101692658Y-71062868D01*
X101721600Y-71124936D01*
X101721601Y-71124937D01*
X101768923Y-71192521D01*
X101768924Y-71192522D01*
X102221050Y-70740395D01*
X102282373Y-70706910D01*
X102352064Y-70711894D01*
X102407998Y-70753765D01*
X102413039Y-70761025D01*
X102413048Y-70761039D01*
X102448239Y-70815798D01*
X102563602Y-70915759D01*
X102561293Y-70918422D01*
X102596006Y-70958499D01*
X102605935Y-71027660D01*
X102576898Y-71091210D01*
X102570882Y-71097669D01*
X102122476Y-71546074D01*
X102122477Y-71546075D01*
X102190062Y-71593398D01*
X102190064Y-71593399D01*
X102392252Y-71687681D01*
X102392263Y-71687685D01*
X102607751Y-71745425D01*
X102607758Y-71745426D01*
X102829998Y-71764870D01*
X102830002Y-71764870D01*
X103052241Y-71745426D01*
X103052248Y-71745425D01*
X103267736Y-71687685D01*
X103267747Y-71687681D01*
X103469931Y-71593401D01*
X103469933Y-71593400D01*
X103537522Y-71546074D01*
X103089116Y-71097669D01*
X103055631Y-71036346D01*
X103060615Y-70966655D01*
X103097640Y-70917193D01*
X103096398Y-70915759D01*
X103103100Y-70909952D01*
X103211761Y-70815798D01*
X103246954Y-70761037D01*
X103299755Y-70715283D01*
X103368914Y-70705339D01*
X103432470Y-70734363D01*
X103438949Y-70740396D01*
X103891074Y-71192522D01*
X103919818Y-71190007D01*
X103988318Y-71203773D01*
X104038501Y-71252388D01*
X104053779Y-71304610D01*
X104054146Y-71304571D01*
X104054365Y-71306613D01*
X104054448Y-71306895D01*
X104054499Y-71307863D01*
X104060908Y-71367483D01*
X104111202Y-71502328D01*
X104111206Y-71502335D01*
X104197452Y-71617544D01*
X104197455Y-71617547D01*
X104312664Y-71703793D01*
X104312671Y-71703797D01*
X104447517Y-71754091D01*
X104447516Y-71754091D01*
X104454444Y-71754835D01*
X104507127Y-71760500D01*
X106152872Y-71760499D01*
X106212483Y-71754091D01*
X106347331Y-71703796D01*
X106462546Y-71617546D01*
X106548796Y-71502331D01*
X106599091Y-71367483D01*
X106605500Y-71307873D01*
X106605499Y-69662128D01*
X106599091Y-69602517D01*
X106562414Y-69504182D01*
X106548797Y-69467671D01*
X106548793Y-69467664D01*
X106462547Y-69352455D01*
X106462544Y-69352452D01*
X106347335Y-69266206D01*
X106347328Y-69266202D01*
X106212482Y-69215908D01*
X106212483Y-69215908D01*
X106152883Y-69209501D01*
X106152881Y-69209500D01*
X106152873Y-69209500D01*
X106152864Y-69209500D01*
X104507129Y-69209500D01*
X104507123Y-69209501D01*
X104447516Y-69215908D01*
X104312671Y-69266202D01*
X104312664Y-69266206D01*
X104197455Y-69352452D01*
X104197452Y-69352455D01*
X104111206Y-69467664D01*
X104111202Y-69467671D01*
X104060908Y-69602517D01*
X104054500Y-69662125D01*
X104054446Y-69663130D01*
X104054368Y-69663349D01*
X104054145Y-69665428D01*
X104053653Y-69665375D01*
X104031185Y-69729014D01*
X103975997Y-69771864D01*
X103919818Y-69779991D01*
X103891074Y-69777476D01*
X103438949Y-70229602D01*
X103377626Y-70263087D01*
X103307934Y-70258103D01*
X103252001Y-70216231D01*
X103246953Y-70208961D01*
X103211761Y-70154202D01*
X103096398Y-70054241D01*
X103098708Y-70051574D01*
X103064005Y-70011528D01*
X103054058Y-69942370D01*
X103083080Y-69878813D01*
X103089116Y-69872330D01*
X103537522Y-69423924D01*
X103537521Y-69423923D01*
X103469937Y-69376601D01*
X103469935Y-69376600D01*
X103267747Y-69282318D01*
X103267736Y-69282314D01*
X103052248Y-69224574D01*
X103052241Y-69224573D01*
X102830002Y-69205130D01*
X102829998Y-69205130D01*
X102607758Y-69224573D01*
X102607751Y-69224574D01*
X102392263Y-69282314D01*
X102392252Y-69282318D01*
X102190066Y-69376598D01*
X102122477Y-69423924D01*
X102570883Y-69872330D01*
X102604368Y-69933653D01*
X102599384Y-70003345D01*
X102562357Y-70052805D01*
X102563602Y-70054241D01*
X102448238Y-70154202D01*
X102413046Y-70208962D01*
X102360242Y-70254717D01*
X102291083Y-70264660D01*
X102227528Y-70235634D01*
X102221050Y-70229603D01*
X101768924Y-69777477D01*
X101721600Y-69845065D01*
X101692658Y-69907132D01*
X101646486Y-69959571D01*
X101579292Y-69978723D01*
X101512411Y-69958507D01*
X101467894Y-69907132D01*
X101438835Y-69844814D01*
X101310822Y-69661993D01*
X101153007Y-69504178D01*
X100970186Y-69376165D01*
X100767913Y-69281844D01*
X100767909Y-69281843D01*
X100767905Y-69281841D01*
X100552339Y-69224081D01*
X100552329Y-69224079D01*
X100330001Y-69204628D01*
X100329999Y-69204628D01*
X100107670Y-69224079D01*
X100107660Y-69224081D01*
X99892094Y-69281841D01*
X99892087Y-69281843D01*
X99892087Y-69281844D01*
X99689814Y-69376165D01*
X99506993Y-69504178D01*
X99506991Y-69504179D01*
X99506988Y-69504182D01*
X99349182Y-69661988D01*
X99349179Y-69661991D01*
X99349178Y-69661993D01*
X99272245Y-69771864D01*
X99221165Y-69844814D01*
X99126845Y-70047085D01*
X99126841Y-70047094D01*
X99069081Y-70262660D01*
X99069079Y-70262670D01*
X99049628Y-70484999D01*
X99049628Y-70485000D01*
X67945500Y-70485000D01*
X67945500Y-66734502D01*
X69719500Y-66734502D01*
X69734652Y-66912536D01*
X69794724Y-67143248D01*
X69892919Y-67360480D01*
X69892924Y-67360488D01*
X70026413Y-67557993D01*
X70026418Y-67557998D01*
X70026421Y-67558003D01*
X70191379Y-67730118D01*
X70383053Y-67871879D01*
X70595926Y-67979207D01*
X70823877Y-68049016D01*
X71060346Y-68079298D01*
X71298532Y-68069180D01*
X71531581Y-68018954D01*
X71752790Y-67930064D01*
X71955795Y-67805069D01*
X72134755Y-67647564D01*
X72284523Y-67462080D01*
X72284529Y-67462070D01*
X72287472Y-67457717D01*
X72288357Y-67458315D01*
X72334401Y-67413144D01*
X72402813Y-67398945D01*
X72468041Y-67423987D01*
X72495520Y-67453102D01*
X72566413Y-67557993D01*
X72566418Y-67557998D01*
X72566421Y-67558003D01*
X72731379Y-67730118D01*
X72923053Y-67871879D01*
X73135926Y-67979207D01*
X73363877Y-68049016D01*
X73600346Y-68079298D01*
X73838532Y-68069180D01*
X74071581Y-68018954D01*
X74292790Y-67930064D01*
X74495795Y-67805069D01*
X74674755Y-67647564D01*
X74824523Y-67462080D01*
X74824529Y-67462070D01*
X74827472Y-67457717D01*
X74828357Y-67458315D01*
X74874401Y-67413144D01*
X74942813Y-67398945D01*
X75008041Y-67423987D01*
X75035520Y-67453102D01*
X75106413Y-67557993D01*
X75106418Y-67557998D01*
X75106421Y-67558003D01*
X75271379Y-67730118D01*
X75463053Y-67871879D01*
X75675926Y-67979207D01*
X75903877Y-68049016D01*
X76140346Y-68079298D01*
X76378532Y-68069180D01*
X76611581Y-68018954D01*
X76832790Y-67930064D01*
X77035795Y-67805069D01*
X77214755Y-67647564D01*
X77364523Y-67462080D01*
X77364529Y-67462070D01*
X77367472Y-67457717D01*
X77368357Y-67458315D01*
X77414401Y-67413144D01*
X77482813Y-67398945D01*
X77548041Y-67423987D01*
X77575520Y-67453102D01*
X77646413Y-67557993D01*
X77646418Y-67557998D01*
X77646421Y-67558003D01*
X77811379Y-67730118D01*
X78003053Y-67871879D01*
X78215926Y-67979207D01*
X78443877Y-68049016D01*
X78680346Y-68079298D01*
X78918532Y-68069180D01*
X79151581Y-68018954D01*
X79372790Y-67930064D01*
X79575795Y-67805069D01*
X79754755Y-67647564D01*
X79904523Y-67462080D01*
X79904529Y-67462070D01*
X79907472Y-67457717D01*
X79908357Y-67458315D01*
X79954401Y-67413144D01*
X80022813Y-67398945D01*
X80088041Y-67423987D01*
X80115520Y-67453102D01*
X80186413Y-67557993D01*
X80186418Y-67557998D01*
X80186421Y-67558003D01*
X80351379Y-67730118D01*
X80543053Y-67871879D01*
X80755926Y-67979207D01*
X80983877Y-68049016D01*
X81220346Y-68079298D01*
X81458532Y-68069180D01*
X81691581Y-68018954D01*
X81912790Y-67930064D01*
X82115795Y-67805069D01*
X82294755Y-67647564D01*
X82444523Y-67462080D01*
X82444529Y-67462070D01*
X82447472Y-67457717D01*
X82448357Y-67458315D01*
X82494401Y-67413144D01*
X82562813Y-67398945D01*
X82628041Y-67423987D01*
X82655520Y-67453102D01*
X82726413Y-67557993D01*
X82726418Y-67557998D01*
X82726421Y-67558003D01*
X82891379Y-67730118D01*
X83083053Y-67871879D01*
X83295926Y-67979207D01*
X83523877Y-68049016D01*
X83760346Y-68079298D01*
X83998532Y-68069180D01*
X84231581Y-68018954D01*
X84452790Y-67930064D01*
X84655795Y-67805069D01*
X84834755Y-67647564D01*
X84984523Y-67462080D01*
X84984529Y-67462070D01*
X84987472Y-67457717D01*
X84988357Y-67458315D01*
X85034401Y-67413144D01*
X85102813Y-67398945D01*
X85168041Y-67423987D01*
X85195520Y-67453102D01*
X85266413Y-67557993D01*
X85266418Y-67557998D01*
X85266421Y-67558003D01*
X85431379Y-67730118D01*
X85623053Y-67871879D01*
X85835926Y-67979207D01*
X86063877Y-68049016D01*
X86300346Y-68079298D01*
X86538532Y-68069180D01*
X86771581Y-68018954D01*
X86992790Y-67930064D01*
X87195795Y-67805069D01*
X87374755Y-67647564D01*
X87524523Y-67462080D01*
X87640790Y-67253954D01*
X87720211Y-67029171D01*
X87740210Y-66912536D01*
X87760499Y-66794209D01*
X87760499Y-66794205D01*
X87760500Y-66794200D01*
X87760500Y-65665503D01*
X87754045Y-65589669D01*
X87745347Y-65487463D01*
X87685275Y-65256751D01*
X87587080Y-65039519D01*
X87587075Y-65039511D01*
X87453586Y-64842006D01*
X87453582Y-64842001D01*
X87453579Y-64841997D01*
X87288621Y-64669882D01*
X87096947Y-64528121D01*
X86884074Y-64420793D01*
X86754283Y-64381045D01*
X86656121Y-64350983D01*
X86419647Y-64320701D01*
X86181471Y-64330819D01*
X86181467Y-64330819D01*
X85948419Y-64381045D01*
X85727211Y-64469935D01*
X85524203Y-64594932D01*
X85345245Y-64752435D01*
X85195471Y-64937928D01*
X85195458Y-64937952D01*
X85195449Y-64937960D01*
X85192522Y-64942291D01*
X85191640Y-64941695D01*
X85145570Y-64986870D01*
X85077154Y-65001051D01*
X85011933Y-64975993D01*
X84984479Y-64946897D01*
X84913586Y-64842006D01*
X84913582Y-64842001D01*
X84913579Y-64841997D01*
X84748621Y-64669882D01*
X84556947Y-64528121D01*
X84344074Y-64420793D01*
X84214283Y-64381045D01*
X84116121Y-64350983D01*
X83879647Y-64320701D01*
X83641471Y-64330819D01*
X83641467Y-64330819D01*
X83408419Y-64381045D01*
X83187211Y-64469935D01*
X82984203Y-64594932D01*
X82805245Y-64752435D01*
X82655471Y-64937928D01*
X82655458Y-64937952D01*
X82655449Y-64937960D01*
X82652522Y-64942291D01*
X82651640Y-64941695D01*
X82605570Y-64986870D01*
X82537154Y-65001051D01*
X82471933Y-64975993D01*
X82444479Y-64946897D01*
X82373586Y-64842006D01*
X82373582Y-64842001D01*
X82373579Y-64841997D01*
X82208621Y-64669882D01*
X82016947Y-64528121D01*
X81804074Y-64420793D01*
X81674283Y-64381045D01*
X81576121Y-64350983D01*
X81339647Y-64320701D01*
X81101471Y-64330819D01*
X81101467Y-64330819D01*
X80868419Y-64381045D01*
X80647211Y-64469935D01*
X80444203Y-64594932D01*
X80265245Y-64752435D01*
X80115471Y-64937928D01*
X80115458Y-64937952D01*
X80115449Y-64937960D01*
X80112522Y-64942291D01*
X80111640Y-64941695D01*
X80065570Y-64986870D01*
X79997154Y-65001051D01*
X79931933Y-64975993D01*
X79904479Y-64946897D01*
X79833586Y-64842006D01*
X79833582Y-64842001D01*
X79833579Y-64841997D01*
X79668621Y-64669882D01*
X79476947Y-64528121D01*
X79264074Y-64420793D01*
X79134283Y-64381045D01*
X79036121Y-64350983D01*
X78799647Y-64320701D01*
X78561471Y-64330819D01*
X78561467Y-64330819D01*
X78328419Y-64381045D01*
X78107211Y-64469935D01*
X77904203Y-64594932D01*
X77725245Y-64752435D01*
X77575471Y-64937928D01*
X77575458Y-64937952D01*
X77575449Y-64937960D01*
X77572522Y-64942291D01*
X77571640Y-64941695D01*
X77525570Y-64986870D01*
X77457154Y-65001051D01*
X77391933Y-64975993D01*
X77364479Y-64946897D01*
X77293586Y-64842006D01*
X77293582Y-64842001D01*
X77293579Y-64841997D01*
X77128621Y-64669882D01*
X76936947Y-64528121D01*
X76724074Y-64420793D01*
X76594283Y-64381045D01*
X76496121Y-64350983D01*
X76259647Y-64320701D01*
X76021471Y-64330819D01*
X76021467Y-64330819D01*
X75788419Y-64381045D01*
X75567211Y-64469935D01*
X75364203Y-64594932D01*
X75185245Y-64752435D01*
X75035471Y-64937928D01*
X75035458Y-64937952D01*
X75035449Y-64937960D01*
X75032522Y-64942291D01*
X75031640Y-64941695D01*
X74985570Y-64986870D01*
X74917154Y-65001051D01*
X74851933Y-64975993D01*
X74824479Y-64946897D01*
X74753586Y-64842006D01*
X74753582Y-64842001D01*
X74753579Y-64841997D01*
X74588621Y-64669882D01*
X74396947Y-64528121D01*
X74184074Y-64420793D01*
X74054283Y-64381045D01*
X73956121Y-64350983D01*
X73719647Y-64320701D01*
X73481471Y-64330819D01*
X73481467Y-64330819D01*
X73248419Y-64381045D01*
X73027211Y-64469935D01*
X72824203Y-64594932D01*
X72645245Y-64752435D01*
X72495471Y-64937928D01*
X72495458Y-64937952D01*
X72495449Y-64937960D01*
X72492522Y-64942291D01*
X72491640Y-64941695D01*
X72445570Y-64986870D01*
X72377154Y-65001051D01*
X72311933Y-64975993D01*
X72284479Y-64946897D01*
X72213586Y-64842006D01*
X72213582Y-64842001D01*
X72213579Y-64841997D01*
X72048621Y-64669882D01*
X71856947Y-64528121D01*
X71644074Y-64420793D01*
X71514283Y-64381045D01*
X71416121Y-64350983D01*
X71179647Y-64320701D01*
X70941471Y-64330819D01*
X70941467Y-64330819D01*
X70708419Y-64381045D01*
X70487211Y-64469935D01*
X70284203Y-64594932D01*
X70105245Y-64752435D01*
X70032929Y-64841997D01*
X69955477Y-64937920D01*
X69955475Y-64937922D01*
X69955476Y-64937922D01*
X69839210Y-65146044D01*
X69759788Y-65370829D01*
X69719500Y-65605790D01*
X69719500Y-66734502D01*
X67945500Y-66734502D01*
X67945500Y-52652401D01*
X77635746Y-52652401D01*
X77645745Y-52862327D01*
X77695296Y-53066578D01*
X77695298Y-53066582D01*
X77782598Y-53257743D01*
X77782601Y-53257748D01*
X77782602Y-53257750D01*
X77782604Y-53257753D01*
X77904514Y-53428952D01*
X77904515Y-53428953D01*
X77904520Y-53428959D01*
X78056620Y-53573985D01*
X78151578Y-53635011D01*
X78233428Y-53687613D01*
X78428543Y-53765725D01*
X78531728Y-53785612D01*
X78634914Y-53805500D01*
X78634915Y-53805500D01*
X78792419Y-53805500D01*
X78792425Y-53805500D01*
X78949218Y-53790528D01*
X79150875Y-53731316D01*
X79337682Y-53635011D01*
X79502886Y-53505092D01*
X79640519Y-53346256D01*
X79745604Y-53164244D01*
X79814344Y-52965633D01*
X79840980Y-52780373D01*
X81565723Y-52780373D01*
X81595881Y-53080160D01*
X81595882Y-53080162D01*
X81665728Y-53373252D01*
X81665733Y-53373266D01*
X81774020Y-53654427D01*
X81774024Y-53654436D01*
X81918825Y-53918665D01*
X81918829Y-53918671D01*
X82097551Y-54161234D01*
X82097554Y-54161238D01*
X82097561Y-54161245D01*
X82307019Y-54377823D01*
X82543478Y-54564553D01*
X82543480Y-54564554D01*
X82543485Y-54564558D01*
X82802730Y-54718109D01*
X83080128Y-54835736D01*
X83370729Y-54915340D01*
X83669347Y-54955500D01*
X83669351Y-54955500D01*
X83895252Y-54955500D01*
X84059164Y-54944526D01*
X84120634Y-54940412D01*
X84415903Y-54880396D01*
X84700537Y-54781560D01*
X84969459Y-54645668D01*
X85217869Y-54475144D01*
X85441333Y-54273032D01*
X85635865Y-54042939D01*
X85797993Y-53788970D01*
X85924823Y-53515658D01*
X86014093Y-53227879D01*
X86064209Y-52930770D01*
X86073516Y-52652401D01*
X87795746Y-52652401D01*
X87805745Y-52862327D01*
X87855296Y-53066578D01*
X87855298Y-53066582D01*
X87942598Y-53257743D01*
X87942601Y-53257748D01*
X87942602Y-53257750D01*
X87942604Y-53257753D01*
X88064514Y-53428952D01*
X88064515Y-53428953D01*
X88064520Y-53428959D01*
X88216620Y-53573985D01*
X88311578Y-53635011D01*
X88393428Y-53687613D01*
X88588543Y-53765725D01*
X88691728Y-53785612D01*
X88794914Y-53805500D01*
X88794915Y-53805500D01*
X88952419Y-53805500D01*
X88952425Y-53805500D01*
X89109218Y-53790528D01*
X89310875Y-53731316D01*
X89497682Y-53635011D01*
X89662886Y-53505092D01*
X89800519Y-53346256D01*
X89905604Y-53164244D01*
X89974344Y-52965633D01*
X90004254Y-52757602D01*
X89999243Y-52652401D01*
X96685746Y-52652401D01*
X96695745Y-52862327D01*
X96745296Y-53066578D01*
X96745298Y-53066582D01*
X96832598Y-53257743D01*
X96832601Y-53257748D01*
X96832602Y-53257750D01*
X96832604Y-53257753D01*
X96954514Y-53428952D01*
X96954515Y-53428953D01*
X96954520Y-53428959D01*
X97106620Y-53573985D01*
X97201578Y-53635011D01*
X97283428Y-53687613D01*
X97478543Y-53765725D01*
X97581728Y-53785612D01*
X97684914Y-53805500D01*
X97684915Y-53805500D01*
X97842419Y-53805500D01*
X97842425Y-53805500D01*
X97999218Y-53790528D01*
X98200875Y-53731316D01*
X98387682Y-53635011D01*
X98552886Y-53505092D01*
X98690519Y-53346256D01*
X98795604Y-53164244D01*
X98864344Y-52965633D01*
X98890980Y-52780373D01*
X100615723Y-52780373D01*
X100645881Y-53080160D01*
X100645882Y-53080162D01*
X100715728Y-53373252D01*
X100715733Y-53373266D01*
X100824020Y-53654427D01*
X100824024Y-53654436D01*
X100968825Y-53918665D01*
X100968829Y-53918671D01*
X101147551Y-54161234D01*
X101147554Y-54161238D01*
X101147561Y-54161245D01*
X101357019Y-54377823D01*
X101593478Y-54564553D01*
X101593480Y-54564554D01*
X101593485Y-54564558D01*
X101852730Y-54718109D01*
X102130128Y-54835736D01*
X102420729Y-54915340D01*
X102719347Y-54955500D01*
X102719351Y-54955500D01*
X102945252Y-54955500D01*
X103109164Y-54944526D01*
X103170634Y-54940412D01*
X103465903Y-54880396D01*
X103750537Y-54781560D01*
X104019459Y-54645668D01*
X104267869Y-54475144D01*
X104491333Y-54273032D01*
X104685865Y-54042939D01*
X104847993Y-53788970D01*
X104974823Y-53515658D01*
X105064093Y-53227879D01*
X105114209Y-52930770D01*
X105123516Y-52652401D01*
X106845746Y-52652401D01*
X106855745Y-52862327D01*
X106905296Y-53066578D01*
X106905298Y-53066582D01*
X106992598Y-53257743D01*
X106992601Y-53257748D01*
X106992602Y-53257750D01*
X106992604Y-53257753D01*
X107114514Y-53428952D01*
X107114515Y-53428953D01*
X107114520Y-53428959D01*
X107266620Y-53573985D01*
X107361578Y-53635011D01*
X107443428Y-53687613D01*
X107638543Y-53765725D01*
X107741728Y-53785612D01*
X107844914Y-53805500D01*
X107844915Y-53805500D01*
X108002419Y-53805500D01*
X108002425Y-53805500D01*
X108159218Y-53790528D01*
X108360875Y-53731316D01*
X108547682Y-53635011D01*
X108712886Y-53505092D01*
X108850519Y-53346256D01*
X108955604Y-53164244D01*
X109024344Y-52965633D01*
X109054254Y-52757602D01*
X109049243Y-52652401D01*
X115735746Y-52652401D01*
X115745745Y-52862327D01*
X115795296Y-53066578D01*
X115795298Y-53066582D01*
X115882598Y-53257743D01*
X115882601Y-53257748D01*
X115882602Y-53257750D01*
X115882604Y-53257753D01*
X116004514Y-53428952D01*
X116004515Y-53428953D01*
X116004520Y-53428959D01*
X116156620Y-53573985D01*
X116251578Y-53635011D01*
X116333428Y-53687613D01*
X116528543Y-53765725D01*
X116631729Y-53785612D01*
X116734914Y-53805500D01*
X116734915Y-53805500D01*
X116892419Y-53805500D01*
X116892425Y-53805500D01*
X117049218Y-53790528D01*
X117250875Y-53731316D01*
X117437682Y-53635011D01*
X117602886Y-53505092D01*
X117740519Y-53346256D01*
X117845604Y-53164244D01*
X117914344Y-52965633D01*
X117940980Y-52780373D01*
X119665723Y-52780373D01*
X119695881Y-53080160D01*
X119695882Y-53080162D01*
X119765728Y-53373252D01*
X119765733Y-53373266D01*
X119874020Y-53654427D01*
X119874024Y-53654436D01*
X120018825Y-53918665D01*
X120018829Y-53918671D01*
X120197551Y-54161234D01*
X120197554Y-54161238D01*
X120197561Y-54161245D01*
X120407019Y-54377823D01*
X120643478Y-54564553D01*
X120643480Y-54564554D01*
X120643485Y-54564558D01*
X120902730Y-54718109D01*
X121180128Y-54835736D01*
X121470729Y-54915340D01*
X121769347Y-54955500D01*
X121769351Y-54955500D01*
X121995252Y-54955500D01*
X122159164Y-54944526D01*
X122220634Y-54940412D01*
X122515903Y-54880396D01*
X122800537Y-54781560D01*
X123069459Y-54645668D01*
X123317869Y-54475144D01*
X123541333Y-54273032D01*
X123735865Y-54042939D01*
X123897993Y-53788970D01*
X124024823Y-53515658D01*
X124114093Y-53227879D01*
X124164209Y-52930770D01*
X124173516Y-52652401D01*
X125895746Y-52652401D01*
X125905745Y-52862327D01*
X125955296Y-53066578D01*
X125955298Y-53066582D01*
X126042598Y-53257743D01*
X126042601Y-53257748D01*
X126042602Y-53257750D01*
X126042604Y-53257753D01*
X126164514Y-53428952D01*
X126164515Y-53428953D01*
X126164520Y-53428959D01*
X126316620Y-53573985D01*
X126411578Y-53635011D01*
X126493428Y-53687613D01*
X126688543Y-53765725D01*
X126791729Y-53785612D01*
X126894914Y-53805500D01*
X126894915Y-53805500D01*
X127052419Y-53805500D01*
X127052425Y-53805500D01*
X127209218Y-53790528D01*
X127410875Y-53731316D01*
X127597682Y-53635011D01*
X127762886Y-53505092D01*
X127900519Y-53346256D01*
X128005604Y-53164244D01*
X128074344Y-52965633D01*
X128104254Y-52757602D01*
X128094254Y-52547670D01*
X128044704Y-52343424D01*
X128038500Y-52329839D01*
X127957401Y-52152256D01*
X127957398Y-52152251D01*
X127957397Y-52152250D01*
X127957396Y-52152247D01*
X127835486Y-51981048D01*
X127835484Y-51981046D01*
X127835479Y-51981040D01*
X127683379Y-51836014D01*
X127506574Y-51722388D01*
X127311455Y-51644274D01*
X127105086Y-51604500D01*
X127105085Y-51604500D01*
X126947575Y-51604500D01*
X126797181Y-51618861D01*
X126790782Y-51619472D01*
X126790778Y-51619473D01*
X126589127Y-51678683D01*
X126402313Y-51774991D01*
X126237116Y-51904905D01*
X126237112Y-51904909D01*
X126099478Y-52063746D01*
X125994398Y-52245750D01*
X125925656Y-52444365D01*
X125925656Y-52444367D01*
X125899020Y-52629631D01*
X125895746Y-52652401D01*
X124173516Y-52652401D01*
X124174277Y-52629631D01*
X124144118Y-52329838D01*
X124074269Y-52036739D01*
X123965977Y-51755566D01*
X123821175Y-51491335D01*
X123642446Y-51248762D01*
X123432980Y-51032176D01*
X123432979Y-51032176D01*
X123196521Y-50845446D01*
X123196517Y-50845443D01*
X123196515Y-50845442D01*
X122937270Y-50691891D01*
X122659872Y-50574264D01*
X122659863Y-50574261D01*
X122369272Y-50494660D01*
X122294616Y-50484620D01*
X122070653Y-50454500D01*
X121844756Y-50454500D01*
X121844748Y-50454500D01*
X121619368Y-50469587D01*
X121619359Y-50469589D01*
X121324094Y-50529604D01*
X121039464Y-50628439D01*
X121039459Y-50628441D01*
X120770546Y-50764328D01*
X120522125Y-50934860D01*
X120298665Y-51136969D01*
X120104132Y-51367064D01*
X119942006Y-51621030D01*
X119942005Y-51621032D01*
X119842244Y-51836014D01*
X119815177Y-51894342D01*
X119811899Y-51904909D01*
X119725907Y-52182118D01*
X119681672Y-52444365D01*
X119675791Y-52479230D01*
X119670002Y-52652398D01*
X119665723Y-52780373D01*
X117940980Y-52780373D01*
X117944254Y-52757602D01*
X117934254Y-52547670D01*
X117884704Y-52343424D01*
X117878500Y-52329839D01*
X117797401Y-52152256D01*
X117797398Y-52152251D01*
X117797397Y-52152250D01*
X117797396Y-52152247D01*
X117675486Y-51981048D01*
X117675484Y-51981046D01*
X117675479Y-51981040D01*
X117623496Y-51931475D01*
X117588561Y-51870967D01*
X117591885Y-51801176D01*
X117632413Y-51744262D01*
X117697277Y-51718294D01*
X117738012Y-51721158D01*
X117858927Y-51750187D01*
X118110000Y-51769947D01*
X118361072Y-51750187D01*
X118605956Y-51691396D01*
X118838631Y-51595019D01*
X119053360Y-51463432D01*
X119053371Y-51463424D01*
X119054179Y-51462732D01*
X118545875Y-50954428D01*
X118512390Y-50893105D01*
X118517374Y-50823413D01*
X118559246Y-50767480D01*
X118565398Y-50763159D01*
X118595373Y-50743445D01*
X118715688Y-50615918D01*
X118715687Y-50615918D01*
X118720645Y-50610664D01*
X118721842Y-50611793D01*
X118770629Y-50575052D01*
X118840306Y-50569866D01*
X118901726Y-50603173D01*
X119407732Y-51109179D01*
X119408424Y-51108371D01*
X119408432Y-51108360D01*
X119540019Y-50893631D01*
X119636396Y-50660956D01*
X119695187Y-50416072D01*
X119714947Y-50165000D01*
X119695187Y-49913927D01*
X119636396Y-49669043D01*
X119540019Y-49436368D01*
X119408432Y-49221638D01*
X119408430Y-49221636D01*
X119407732Y-49220819D01*
X118898331Y-49730220D01*
X118837008Y-49763705D01*
X118767316Y-49758721D01*
X118711383Y-49716849D01*
X118711291Y-49716726D01*
X118659244Y-49646815D01*
X118553773Y-49558313D01*
X118515072Y-49500144D01*
X118513964Y-49430283D01*
X118545799Y-49375645D01*
X119054178Y-48867266D01*
X119054178Y-48867264D01*
X119053374Y-48866577D01*
X119053358Y-48866566D01*
X118838631Y-48734980D01*
X118605956Y-48638603D01*
X118361072Y-48579812D01*
X118110000Y-48560052D01*
X117858927Y-48579812D01*
X117614043Y-48638603D01*
X117381368Y-48734980D01*
X117166637Y-48866568D01*
X117165820Y-48867266D01*
X117674124Y-49375571D01*
X117707609Y-49436894D01*
X117702625Y-49506586D01*
X117660753Y-49562519D01*
X117654583Y-49566852D01*
X117624627Y-49586554D01*
X117499355Y-49719335D01*
X117498163Y-49718210D01*
X117449324Y-49754962D01*
X117379646Y-49760122D01*
X117318238Y-49726791D01*
X117318018Y-49726571D01*
X116812266Y-49220820D01*
X116811568Y-49221637D01*
X116679980Y-49436368D01*
X116583603Y-49669043D01*
X116524812Y-49913927D01*
X116505052Y-50164999D01*
X116524812Y-50416072D01*
X116583603Y-50660956D01*
X116679980Y-50893631D01*
X116811566Y-51108358D01*
X116811577Y-51108374D01*
X116812264Y-51109178D01*
X116812266Y-51109178D01*
X117321667Y-50599778D01*
X117382990Y-50566293D01*
X117452682Y-50571277D01*
X117508615Y-50613149D01*
X117508811Y-50613411D01*
X117560756Y-50683185D01*
X117666223Y-50771683D01*
X117704925Y-50829854D01*
X117706033Y-50899715D01*
X117674198Y-50954353D01*
X117165819Y-51462732D01*
X117166971Y-51492274D01*
X117149912Y-51560029D01*
X117098929Y-51607805D01*
X117030210Y-51620434D01*
X117019598Y-51618861D01*
X116945086Y-51604500D01*
X116945085Y-51604500D01*
X116787575Y-51604500D01*
X116637181Y-51618861D01*
X116630782Y-51619472D01*
X116630778Y-51619473D01*
X116429127Y-51678683D01*
X116242313Y-51774991D01*
X116077116Y-51904905D01*
X116077112Y-51904909D01*
X115939478Y-52063746D01*
X115834398Y-52245750D01*
X115765656Y-52444365D01*
X115765656Y-52444367D01*
X115739020Y-52629631D01*
X115735746Y-52652401D01*
X109049243Y-52652401D01*
X109044254Y-52547670D01*
X108994704Y-52343424D01*
X108988500Y-52329839D01*
X108907401Y-52152256D01*
X108907398Y-52152251D01*
X108907397Y-52152250D01*
X108907396Y-52152247D01*
X108785486Y-51981048D01*
X108785484Y-51981046D01*
X108785479Y-51981040D01*
X108633379Y-51836014D01*
X108456574Y-51722388D01*
X108261455Y-51644274D01*
X108055086Y-51604500D01*
X108055085Y-51604500D01*
X107897575Y-51604500D01*
X107747181Y-51618861D01*
X107740782Y-51619472D01*
X107740778Y-51619473D01*
X107539127Y-51678683D01*
X107352313Y-51774991D01*
X107187116Y-51904905D01*
X107187112Y-51904909D01*
X107049478Y-52063746D01*
X106944398Y-52245750D01*
X106875656Y-52444365D01*
X106875656Y-52444367D01*
X106849020Y-52629631D01*
X106845746Y-52652401D01*
X105123516Y-52652401D01*
X105124277Y-52629631D01*
X105094118Y-52329838D01*
X105024269Y-52036739D01*
X104915977Y-51755566D01*
X104771175Y-51491335D01*
X104592446Y-51248762D01*
X104382980Y-51032176D01*
X104382979Y-51032176D01*
X104146521Y-50845446D01*
X104146517Y-50845443D01*
X104146515Y-50845442D01*
X103887270Y-50691891D01*
X103609872Y-50574264D01*
X103609863Y-50574261D01*
X103319272Y-50494660D01*
X103244616Y-50484620D01*
X103020653Y-50454500D01*
X102794756Y-50454500D01*
X102794748Y-50454500D01*
X102569368Y-50469587D01*
X102569359Y-50469589D01*
X102274094Y-50529604D01*
X101989464Y-50628439D01*
X101989459Y-50628441D01*
X101720546Y-50764328D01*
X101472125Y-50934860D01*
X101248665Y-51136969D01*
X101054132Y-51367064D01*
X100892006Y-51621030D01*
X100892005Y-51621032D01*
X100792244Y-51836014D01*
X100765177Y-51894342D01*
X100761899Y-51904909D01*
X100675907Y-52182118D01*
X100631672Y-52444365D01*
X100625791Y-52479230D01*
X100620002Y-52652398D01*
X100615723Y-52780373D01*
X98890980Y-52780373D01*
X98894254Y-52757602D01*
X98884254Y-52547670D01*
X98834704Y-52343424D01*
X98828500Y-52329839D01*
X98747401Y-52152256D01*
X98747398Y-52152251D01*
X98747397Y-52152250D01*
X98747396Y-52152247D01*
X98625486Y-51981048D01*
X98625484Y-51981046D01*
X98625479Y-51981040D01*
X98573496Y-51931475D01*
X98538561Y-51870967D01*
X98541885Y-51801176D01*
X98582413Y-51744262D01*
X98647277Y-51718294D01*
X98688012Y-51721158D01*
X98808927Y-51750187D01*
X99059999Y-51769947D01*
X99311072Y-51750187D01*
X99555956Y-51691396D01*
X99788631Y-51595019D01*
X100003360Y-51463432D01*
X100003371Y-51463424D01*
X100004179Y-51462732D01*
X99495875Y-50954428D01*
X99462390Y-50893105D01*
X99467374Y-50823413D01*
X99509246Y-50767480D01*
X99515398Y-50763159D01*
X99545373Y-50743445D01*
X99665688Y-50615918D01*
X99665687Y-50615918D01*
X99670645Y-50610664D01*
X99671842Y-50611793D01*
X99720629Y-50575052D01*
X99790306Y-50569866D01*
X99851726Y-50603173D01*
X100357732Y-51109179D01*
X100358424Y-51108371D01*
X100358432Y-51108360D01*
X100490019Y-50893631D01*
X100586396Y-50660956D01*
X100645187Y-50416072D01*
X100664947Y-50165000D01*
X100645187Y-49913927D01*
X100586396Y-49669043D01*
X100490019Y-49436368D01*
X100358432Y-49221638D01*
X100358430Y-49221636D01*
X100357732Y-49220819D01*
X100357731Y-49220819D01*
X99848331Y-49730220D01*
X99787008Y-49763705D01*
X99717316Y-49758721D01*
X99661383Y-49716849D01*
X99661291Y-49716726D01*
X99609244Y-49646815D01*
X99503773Y-49558313D01*
X99465072Y-49500144D01*
X99463964Y-49430283D01*
X99495799Y-49375645D01*
X100004178Y-48867266D01*
X100004178Y-48867264D01*
X100003374Y-48866577D01*
X100003358Y-48866566D01*
X99788631Y-48734980D01*
X99555956Y-48638603D01*
X99311072Y-48579812D01*
X99060000Y-48560052D01*
X98808927Y-48579812D01*
X98564043Y-48638603D01*
X98331368Y-48734980D01*
X98116637Y-48866568D01*
X98115820Y-48867266D01*
X98624124Y-49375571D01*
X98657609Y-49436894D01*
X98652625Y-49506586D01*
X98610753Y-49562519D01*
X98604583Y-49566852D01*
X98574627Y-49586554D01*
X98449355Y-49719335D01*
X98448163Y-49718210D01*
X98399324Y-49754962D01*
X98329646Y-49760122D01*
X98268238Y-49726791D01*
X98268018Y-49726571D01*
X97762266Y-49220820D01*
X97761568Y-49221637D01*
X97629980Y-49436368D01*
X97533603Y-49669043D01*
X97474812Y-49913927D01*
X97455052Y-50164999D01*
X97474812Y-50416072D01*
X97533603Y-50660956D01*
X97629980Y-50893631D01*
X97761566Y-51108358D01*
X97761577Y-51108374D01*
X97762264Y-51109178D01*
X97762266Y-51109178D01*
X98271667Y-50599778D01*
X98332990Y-50566293D01*
X98402682Y-50571277D01*
X98458615Y-50613149D01*
X98458811Y-50613411D01*
X98510756Y-50683185D01*
X98616223Y-50771683D01*
X98654925Y-50829854D01*
X98656033Y-50899715D01*
X98624198Y-50954353D01*
X98115819Y-51462732D01*
X98116971Y-51492274D01*
X98099912Y-51560029D01*
X98048929Y-51607805D01*
X97980210Y-51620434D01*
X97969598Y-51618861D01*
X97895086Y-51604500D01*
X97895085Y-51604500D01*
X97737575Y-51604500D01*
X97587181Y-51618861D01*
X97580782Y-51619472D01*
X97580778Y-51619473D01*
X97379127Y-51678683D01*
X97192313Y-51774991D01*
X97027116Y-51904905D01*
X97027112Y-51904909D01*
X96889478Y-52063746D01*
X96784398Y-52245750D01*
X96715656Y-52444365D01*
X96715656Y-52444367D01*
X96689020Y-52629631D01*
X96685746Y-52652401D01*
X89999243Y-52652401D01*
X89994254Y-52547670D01*
X89944704Y-52343424D01*
X89938500Y-52329839D01*
X89857401Y-52152256D01*
X89857398Y-52152251D01*
X89857397Y-52152250D01*
X89857396Y-52152247D01*
X89735486Y-51981048D01*
X89735484Y-51981046D01*
X89735479Y-51981040D01*
X89583379Y-51836014D01*
X89406574Y-51722388D01*
X89211455Y-51644274D01*
X89005086Y-51604500D01*
X89005085Y-51604500D01*
X88847575Y-51604500D01*
X88697181Y-51618861D01*
X88690782Y-51619472D01*
X88690778Y-51619473D01*
X88489127Y-51678683D01*
X88302313Y-51774991D01*
X88137116Y-51904905D01*
X88137112Y-51904909D01*
X87999478Y-52063746D01*
X87894398Y-52245750D01*
X87825656Y-52444365D01*
X87825656Y-52444367D01*
X87799020Y-52629631D01*
X87795746Y-52652401D01*
X86073516Y-52652401D01*
X86074277Y-52629631D01*
X86044118Y-52329838D01*
X85974269Y-52036739D01*
X85865977Y-51755566D01*
X85721175Y-51491335D01*
X85542446Y-51248762D01*
X85332980Y-51032176D01*
X85332979Y-51032176D01*
X85096521Y-50845446D01*
X85096517Y-50845443D01*
X85096515Y-50845442D01*
X84837270Y-50691891D01*
X84559872Y-50574264D01*
X84559863Y-50574261D01*
X84269272Y-50494660D01*
X84194616Y-50484620D01*
X83970653Y-50454500D01*
X83744756Y-50454500D01*
X83744748Y-50454500D01*
X83519368Y-50469587D01*
X83519359Y-50469589D01*
X83224094Y-50529604D01*
X82939464Y-50628439D01*
X82939459Y-50628441D01*
X82670546Y-50764328D01*
X82422125Y-50934860D01*
X82198665Y-51136969D01*
X82004132Y-51367064D01*
X81842006Y-51621030D01*
X81842005Y-51621032D01*
X81742244Y-51836014D01*
X81715177Y-51894342D01*
X81711899Y-51904909D01*
X81625907Y-52182118D01*
X81581672Y-52444365D01*
X81575791Y-52479230D01*
X81570002Y-52652398D01*
X81565723Y-52780373D01*
X79840980Y-52780373D01*
X79844254Y-52757602D01*
X79834254Y-52547670D01*
X79784704Y-52343424D01*
X79778500Y-52329839D01*
X79697401Y-52152256D01*
X79697398Y-52152251D01*
X79697397Y-52152250D01*
X79697396Y-52152247D01*
X79575486Y-51981048D01*
X79575484Y-51981046D01*
X79575479Y-51981040D01*
X79523496Y-51931475D01*
X79488561Y-51870967D01*
X79491885Y-51801176D01*
X79532413Y-51744262D01*
X79597277Y-51718294D01*
X79638012Y-51721158D01*
X79758927Y-51750187D01*
X80009999Y-51769947D01*
X80261072Y-51750187D01*
X80505956Y-51691396D01*
X80738631Y-51595019D01*
X80953360Y-51463432D01*
X80953371Y-51463424D01*
X80954179Y-51462732D01*
X80445875Y-50954428D01*
X80412390Y-50893105D01*
X80417374Y-50823413D01*
X80459246Y-50767480D01*
X80465398Y-50763159D01*
X80495373Y-50743445D01*
X80615688Y-50615918D01*
X80615687Y-50615918D01*
X80620645Y-50610664D01*
X80621842Y-50611793D01*
X80670629Y-50575052D01*
X80740306Y-50569866D01*
X80801726Y-50603173D01*
X81307732Y-51109179D01*
X81308424Y-51108371D01*
X81308432Y-51108360D01*
X81440019Y-50893631D01*
X81536396Y-50660956D01*
X81595187Y-50416072D01*
X81614947Y-50165000D01*
X81595187Y-49913927D01*
X81536396Y-49669043D01*
X81440019Y-49436368D01*
X81308432Y-49221638D01*
X81308430Y-49221636D01*
X81307732Y-49220819D01*
X80798331Y-49730220D01*
X80737008Y-49763705D01*
X80667316Y-49758721D01*
X80611383Y-49716849D01*
X80611291Y-49716726D01*
X80559244Y-49646815D01*
X80453773Y-49558313D01*
X80415072Y-49500144D01*
X80413964Y-49430283D01*
X80445799Y-49375645D01*
X80954178Y-48867266D01*
X80954178Y-48867264D01*
X80953374Y-48866577D01*
X80953358Y-48866566D01*
X80738631Y-48734980D01*
X80505956Y-48638603D01*
X80261072Y-48579812D01*
X80009999Y-48560052D01*
X79758927Y-48579812D01*
X79514043Y-48638603D01*
X79281368Y-48734980D01*
X79066637Y-48866568D01*
X79065820Y-48867266D01*
X79574124Y-49375571D01*
X79607609Y-49436894D01*
X79602625Y-49506586D01*
X79560753Y-49562519D01*
X79554583Y-49566852D01*
X79524627Y-49586554D01*
X79399355Y-49719335D01*
X79398163Y-49718210D01*
X79349324Y-49754962D01*
X79279646Y-49760122D01*
X79218238Y-49726791D01*
X79218018Y-49726571D01*
X78712266Y-49220820D01*
X78711568Y-49221637D01*
X78579980Y-49436368D01*
X78483603Y-49669043D01*
X78424812Y-49913927D01*
X78405052Y-50164999D01*
X78424812Y-50416072D01*
X78483603Y-50660956D01*
X78579980Y-50893631D01*
X78711566Y-51108358D01*
X78711577Y-51108374D01*
X78712264Y-51109178D01*
X78712266Y-51109178D01*
X79221667Y-50599778D01*
X79282990Y-50566293D01*
X79352682Y-50571277D01*
X79408615Y-50613149D01*
X79408811Y-50613411D01*
X79460756Y-50683185D01*
X79566223Y-50771683D01*
X79604925Y-50829854D01*
X79606033Y-50899715D01*
X79574198Y-50954353D01*
X79065819Y-51462732D01*
X79066971Y-51492274D01*
X79049912Y-51560029D01*
X78998929Y-51607805D01*
X78930210Y-51620434D01*
X78919598Y-51618861D01*
X78845086Y-51604500D01*
X78845085Y-51604500D01*
X78687575Y-51604500D01*
X78537181Y-51618861D01*
X78530782Y-51619472D01*
X78530778Y-51619473D01*
X78329127Y-51678683D01*
X78142313Y-51774991D01*
X77977116Y-51904905D01*
X77977112Y-51904909D01*
X77839478Y-52063746D01*
X77734398Y-52245750D01*
X77665656Y-52444365D01*
X77665656Y-52444367D01*
X77639020Y-52629631D01*
X77635746Y-52652401D01*
X67945500Y-52652401D01*
X67945500Y-47625000D01*
X84754551Y-47625000D01*
X84774317Y-47876151D01*
X84833126Y-48121110D01*
X84929533Y-48353859D01*
X85061160Y-48568653D01*
X85061161Y-48568656D01*
X85116604Y-48633571D01*
X85224776Y-48760224D01*
X85350104Y-48867264D01*
X85416343Y-48923838D01*
X85416346Y-48923839D01*
X85631140Y-49055466D01*
X85863888Y-49151873D01*
X85863889Y-49151873D01*
X86108852Y-49210683D01*
X86360000Y-49230449D01*
X86611148Y-49210683D01*
X86856111Y-49151873D01*
X87088859Y-49055466D01*
X87303659Y-48923836D01*
X87495224Y-48760224D01*
X87658836Y-48568659D01*
X87790466Y-48353859D01*
X87886873Y-48121111D01*
X87945683Y-47876148D01*
X87965449Y-47625000D01*
X103804551Y-47625000D01*
X103824317Y-47876151D01*
X103883126Y-48121110D01*
X103979533Y-48353859D01*
X104111160Y-48568653D01*
X104111161Y-48568656D01*
X104166604Y-48633571D01*
X104274776Y-48760224D01*
X104400104Y-48867264D01*
X104466343Y-48923838D01*
X104466346Y-48923839D01*
X104681140Y-49055466D01*
X104913889Y-49151873D01*
X105158852Y-49210683D01*
X105410000Y-49230449D01*
X105661148Y-49210683D01*
X105906111Y-49151873D01*
X106138859Y-49055466D01*
X106353659Y-48923836D01*
X106545224Y-48760224D01*
X106708836Y-48568659D01*
X106840466Y-48353859D01*
X106936873Y-48121111D01*
X106995683Y-47876148D01*
X107015449Y-47625000D01*
X122854551Y-47625000D01*
X122874317Y-47876151D01*
X122933126Y-48121110D01*
X123029533Y-48353859D01*
X123161160Y-48568653D01*
X123161161Y-48568656D01*
X123216604Y-48633571D01*
X123324776Y-48760224D01*
X123450104Y-48867264D01*
X123516343Y-48923838D01*
X123516346Y-48923839D01*
X123731140Y-49055466D01*
X123963888Y-49151873D01*
X123963889Y-49151873D01*
X124208852Y-49210683D01*
X124460000Y-49230449D01*
X124711148Y-49210683D01*
X124956111Y-49151873D01*
X125188859Y-49055466D01*
X125403659Y-48923836D01*
X125595224Y-48760224D01*
X125758836Y-48568659D01*
X125890466Y-48353859D01*
X125986873Y-48121111D01*
X126045683Y-47876148D01*
X126065449Y-47625000D01*
X126045683Y-47373852D01*
X125986873Y-47128889D01*
X125890466Y-46896141D01*
X125890466Y-46896140D01*
X125758839Y-46681346D01*
X125758838Y-46681343D01*
X125721875Y-46638066D01*
X125595224Y-46489776D01*
X125468571Y-46381604D01*
X125403656Y-46326161D01*
X125403653Y-46326160D01*
X125188859Y-46194533D01*
X124956110Y-46098126D01*
X124711151Y-46039317D01*
X124460000Y-46019551D01*
X124208848Y-46039317D01*
X123963889Y-46098126D01*
X123731140Y-46194533D01*
X123516346Y-46326160D01*
X123516343Y-46326161D01*
X123324776Y-46489776D01*
X123161161Y-46681343D01*
X123161160Y-46681346D01*
X123029533Y-46896140D01*
X122933126Y-47128889D01*
X122874317Y-47373848D01*
X122854551Y-47625000D01*
X107015449Y-47625000D01*
X106995683Y-47373852D01*
X106936873Y-47128889D01*
X106840466Y-46896141D01*
X106840466Y-46896140D01*
X106708839Y-46681346D01*
X106708838Y-46681343D01*
X106671875Y-46638066D01*
X106545224Y-46489776D01*
X106418571Y-46381604D01*
X106353656Y-46326161D01*
X106353653Y-46326160D01*
X106138859Y-46194533D01*
X105906110Y-46098126D01*
X105661151Y-46039317D01*
X105410000Y-46019551D01*
X105158848Y-46039317D01*
X104913889Y-46098126D01*
X104681140Y-46194533D01*
X104466346Y-46326160D01*
X104466343Y-46326161D01*
X104274776Y-46489776D01*
X104111161Y-46681343D01*
X104111160Y-46681346D01*
X103979533Y-46896140D01*
X103883126Y-47128889D01*
X103824317Y-47373848D01*
X103804551Y-47625000D01*
X87965449Y-47625000D01*
X87945683Y-47373852D01*
X87886873Y-47128889D01*
X87790466Y-46896141D01*
X87790466Y-46896140D01*
X87658839Y-46681346D01*
X87658838Y-46681343D01*
X87621875Y-46638066D01*
X87495224Y-46489776D01*
X87368571Y-46381604D01*
X87303656Y-46326161D01*
X87303653Y-46326160D01*
X87088859Y-46194533D01*
X86856110Y-46098126D01*
X86611151Y-46039317D01*
X86422786Y-46024492D01*
X86360000Y-46019551D01*
X86359999Y-46019551D01*
X86108848Y-46039317D01*
X85863889Y-46098126D01*
X85631140Y-46194533D01*
X85416346Y-46326160D01*
X85416343Y-46326161D01*
X85224776Y-46489776D01*
X85061161Y-46681343D01*
X85061160Y-46681346D01*
X84929533Y-46896140D01*
X84833126Y-47128889D01*
X84774317Y-47373848D01*
X84754551Y-47625000D01*
X67945500Y-47625000D01*
X67945500Y-40764334D01*
X70254500Y-40764334D01*
X70295429Y-41009616D01*
X70376169Y-41244802D01*
X70376172Y-41244811D01*
X70494524Y-41463506D01*
X70494526Y-41463509D01*
X70647262Y-41659744D01*
X70806744Y-41806557D01*
X70830217Y-41828166D01*
X71038393Y-41964173D01*
X71266118Y-42064063D01*
X71507175Y-42125107D01*
X71507179Y-42125108D01*
X71507181Y-42125108D01*
X71507186Y-42125109D01*
X71640376Y-42136145D01*
X71692933Y-42140500D01*
X71692935Y-42140500D01*
X71817065Y-42140500D01*
X71817067Y-42140500D01*
X71878284Y-42135427D01*
X72002813Y-42125109D01*
X72002816Y-42125108D01*
X72002821Y-42125108D01*
X72243881Y-42064063D01*
X72471607Y-41964173D01*
X72679785Y-41828164D01*
X72862738Y-41659744D01*
X73015474Y-41463509D01*
X73133828Y-41244810D01*
X73214571Y-41009614D01*
X73255500Y-40764335D01*
X73255500Y-40764334D01*
X132484500Y-40764334D01*
X132525429Y-41009616D01*
X132606169Y-41244802D01*
X132606172Y-41244811D01*
X132724524Y-41463506D01*
X132724526Y-41463509D01*
X132877262Y-41659744D01*
X133036744Y-41806557D01*
X133060217Y-41828166D01*
X133268393Y-41964173D01*
X133496118Y-42064063D01*
X133737175Y-42125107D01*
X133737179Y-42125108D01*
X133737181Y-42125108D01*
X133737186Y-42125109D01*
X133870376Y-42136145D01*
X133922933Y-42140500D01*
X133922935Y-42140500D01*
X134047065Y-42140500D01*
X134047067Y-42140500D01*
X134108284Y-42135427D01*
X134232813Y-42125109D01*
X134232816Y-42125108D01*
X134232821Y-42125108D01*
X134473881Y-42064063D01*
X134701607Y-41964173D01*
X134909785Y-41828164D01*
X135092738Y-41659744D01*
X135245474Y-41463509D01*
X135363828Y-41244810D01*
X135444571Y-41009614D01*
X135485500Y-40764335D01*
X135485500Y-40515665D01*
X135444571Y-40270386D01*
X135363828Y-40035190D01*
X135347489Y-40004999D01*
X135245475Y-39816493D01*
X135245474Y-39816491D01*
X135092738Y-39620256D01*
X134909785Y-39451836D01*
X134909782Y-39451833D01*
X134701606Y-39315826D01*
X134473881Y-39215936D01*
X134232824Y-39154892D01*
X134232813Y-39154890D01*
X134067548Y-39141197D01*
X134047067Y-39139500D01*
X133922933Y-39139500D01*
X133903521Y-39141108D01*
X133737186Y-39154890D01*
X133737175Y-39154892D01*
X133496118Y-39215936D01*
X133268393Y-39315826D01*
X133060217Y-39451833D01*
X132877261Y-39620257D01*
X132724524Y-39816493D01*
X132606172Y-40035188D01*
X132606169Y-40035197D01*
X132525429Y-40270383D01*
X132484500Y-40515665D01*
X132484500Y-40764334D01*
X73255500Y-40764334D01*
X73255500Y-40515665D01*
X73214571Y-40270386D01*
X73133828Y-40035190D01*
X73117489Y-40004999D01*
X73015475Y-39816493D01*
X73015474Y-39816491D01*
X72862738Y-39620256D01*
X72679785Y-39451836D01*
X72679782Y-39451833D01*
X72471606Y-39315826D01*
X72243881Y-39215936D01*
X72002824Y-39154892D01*
X72002813Y-39154890D01*
X71837548Y-39141197D01*
X71817067Y-39139500D01*
X71692933Y-39139500D01*
X71673521Y-39141108D01*
X71507186Y-39154890D01*
X71507175Y-39154892D01*
X71266118Y-39215936D01*
X71038393Y-39315826D01*
X70830217Y-39451833D01*
X70647261Y-39620257D01*
X70494524Y-39816493D01*
X70376172Y-40035188D01*
X70376169Y-40035197D01*
X70295429Y-40270383D01*
X70254500Y-40515665D01*
X70254500Y-40764334D01*
X67945500Y-40764334D01*
X67945500Y-40006621D01*
X67945585Y-40003376D01*
X67952482Y-39871767D01*
X67955586Y-39816493D01*
X67963870Y-39668989D01*
X67964530Y-39662817D01*
X67982898Y-39546846D01*
X67989642Y-39504272D01*
X67998551Y-39451833D01*
X68019405Y-39329094D01*
X68020631Y-39323483D01*
X68063547Y-39163319D01*
X68065976Y-39154890D01*
X68111390Y-38997251D01*
X68113060Y-38992271D01*
X68173317Y-38835297D01*
X68238736Y-38677361D01*
X68240762Y-38672968D01*
X68317666Y-38522033D01*
X68399984Y-38373094D01*
X68402203Y-38369396D01*
X68494904Y-38226649D01*
X68593188Y-38088131D01*
X68595520Y-38085056D01*
X68702024Y-37953535D01*
X68703977Y-37951239D01*
X68816155Y-37825711D01*
X68818492Y-37823239D01*
X68938239Y-37703492D01*
X68940711Y-37701155D01*
X69066243Y-37588973D01*
X69068535Y-37587024D01*
X69075795Y-37581144D01*
X69200056Y-37480520D01*
X69203131Y-37478188D01*
X69341649Y-37379904D01*
X69484396Y-37287203D01*
X69488094Y-37284984D01*
X69637033Y-37202666D01*
X69787968Y-37125762D01*
X69792361Y-37123736D01*
X69950277Y-37058324D01*
X70107271Y-36998060D01*
X70112251Y-36996390D01*
X70278321Y-36948546D01*
X70438483Y-36905631D01*
X70444094Y-36904405D01*
X70569290Y-36883133D01*
X70619272Y-36874642D01*
X70661846Y-36867898D01*
X70777817Y-36849530D01*
X70783989Y-36848870D01*
X70986576Y-36837492D01*
X71118379Y-36830584D01*
X71121622Y-36830500D01*
X132079901Y-36830500D01*
X134618378Y-36830500D01*
X134621620Y-36830584D01*
G37*
%TD.AperFunction*%
%TD*%
M02*
