  0
SECTION
  2
HEADER
  9
$ANGBASE
  50
0.0
  9
$ANGDIR
  70
1
  9
$MEASUREMENT
  70
0
  0
ENDSEC
  0
SECTION
  2
TABLES
  0
TABLE
  2
LTYPE
  70
4
  0
LTYPE
  5
40F
  2
CONTINUOUS
  70
0
  3
Solid line
  72
65
  73
0
  40
0.0
  0
LTYPE
  5
410
  2
DASHDOT
 70
0
  3
Dash Dot ____ _ ____ _
 72
65
 73
4
 40
2.0
 49
1.25
 49
-0.25
 49
0.25
 49
-0.25
  0
LTYPE
  5
411
  2
DASHED
 70
0
  3
Dashed __ __ __ __ __
 72
65
 73
2
 40
0.75
 49
0.5
 49
-0.25
  0
LTYPE
  5
43B
  2
DOTTED
 70
0
  3
Dotted .  .  .  .
 72
65
 73
2
 40
0.2
 49
0.0
 49
-0.2
  0
ENDTAB
  0
TABLE
  2
STYLE
  70
4
  0
STYLE
  2
KICAD
  70
0
  40
0
  41
1
  42
1
  50
0
  71
0
  3
isocp.shx
  0
STYLE
  2
KICADB
  70
0
  40
0
  41
1
  42
1
  50
0
  71
0
  3
isocp.shx
  0
STYLE
  2
KICADI
  70
0
  40
0
  41
1
  42
1
  50
15
  71
0
  3
isocp.shx
  0
STYLE
  2
KICADBI
  70
0
  40
0
  41
1
  42
1
  50
15
  71
0
  3
isocp.shx
  0
ENDTAB
  0
TABLE
  2
LAYER
  70
1
  0
LAYER
  2
BLACK
  70
0
  62
7
  6
CONTINUOUS
  0
ENDTAB
  0
ENDSEC
  0
SECTION
  2
ENTITIES
0
LINE
8
BLACK
6
CONTINUOUS
10
2.83355
20
-3.50154
11
2.84183
21
-3.50376
0
LINE
8
BLACK
6
CONTINUOUS
10
2.84183
20
-3.50376
11
2.84961
21
-3.50738
0
LINE
8
BLACK
6
CONTINUOUS
10
2.84961
20
-3.50738
11
2.85663
21
-3.5123
0
LINE
8
BLACK
6
CONTINUOUS
10
2.85663
20
-3.5123
11
2.8627
21
-3.51837
0
LINE
8
BLACK
6
CONTINUOUS
10
2.8627
20
-3.51837
11
2.86762
21
-3.52539
0
LINE
8
BLACK
6
CONTINUOUS
10
2.86762
20
-3.52539
11
2.87124
21
-3.53317
0
LINE
8
BLACK
6
CONTINUOUS
10
2.87124
20
-3.53317
11
2.87346
21
-3.54145
0
LINE
8
BLACK
6
CONTINUOUS
10
2.87346
20
-3.54145
11
2.87421
21
-3.55
0
LINE
8
BLACK
6
CONTINUOUS
10
2.87421
20
-3.55
11
2.87346
21
-3.55855
0
LINE
8
BLACK
6
CONTINUOUS
10
2.87346
20
-3.55855
11
2.87124
21
-3.56683
0
LINE
8
BLACK
6
CONTINUOUS
10
2.87124
20
-3.56683
11
2.86762
21
-3.57461
0
LINE
8
BLACK
6
CONTINUOUS
10
2.86762
20
-3.57461
11
2.8627
21
-3.58163
0
LINE
8
BLACK
6
CONTINUOUS
10
2.8627
20
-3.58163
11
2.85663
21
-3.5877
0
LINE
8
BLACK
6
CONTINUOUS
10
2.85663
20
-3.5877
11
2.84961
21
-3.59262
0
LINE
8
BLACK
6
CONTINUOUS
10
2.84961
20
-3.59262
11
2.84183
21
-3.59624
0
LINE
8
BLACK
6
CONTINUOUS
10
2.84183
20
-3.59624
11
2.83355
21
-3.59846
0
LINE
8
BLACK
6
CONTINUOUS
10
2.83355
20
-3.59846
11
2.825
21
-3.59921
0
LINE
8
BLACK
6
CONTINUOUS
10
2.825
20
-3.59921
11
2.81645
21
-3.59846
0
LINE
8
BLACK
6
CONTINUOUS
10
2.81645
20
-3.59846
11
2.80817
21
-3.59624
0
LINE
8
BLACK
6
CONTINUOUS
10
2.80817
20
-3.59624
11
2.80039
21
-3.59262
0
LINE
8
BLACK
6
CONTINUOUS
10
2.80039
20
-3.59262
11
2.79337
21
-3.5877
0
LINE
8
BLACK
6
CONTINUOUS
10
2.79337
20
-3.5877
11
2.7873
21
-3.58163
0
LINE
8
BLACK
6
CONTINUOUS
10
2.7873
20
-3.58163
11
2.78238
21
-3.57461
0
LINE
8
BLACK
6
CONTINUOUS
10
2.78238
20
-3.57461
11
2.77876
21
-3.56683
0
LINE
8
BLACK
6
CONTINUOUS
10
2.77876
20
-3.56683
11
2.77654
21
-3.55855
0
LINE
8
BLACK
6
CONTINUOUS
10
2.77654
20
-3.55855
11
2.77579
21
-3.55
0
LINE
8
BLACK
6
CONTINUOUS
10
2.77579
20
-3.55
11
2.77654
21
-3.54145
0
LINE
8
BLACK
6
CONTINUOUS
10
2.77654
20
-3.54145
11
2.77876
21
-3.53317
0
LINE
8
BLACK
6
CONTINUOUS
10
2.77876
20
-3.53317
11
2.78238
21
-3.52539
0
LINE
8
BLACK
6
CONTINUOUS
10
2.78238
20
-3.52539
11
2.7873
21
-3.51837
0
LINE
8
BLACK
6
CONTINUOUS
10
2.7873
20
-3.51837
11
2.79337
21
-3.5123
0
LINE
8
BLACK
6
CONTINUOUS
10
2.79337
20
-3.5123
11
2.80039
21
-3.50738
0
LINE
8
BLACK
6
CONTINUOUS
10
2.80039
20
-3.50738
11
2.80817
21
-3.50376
0
LINE
8
BLACK
6
CONTINUOUS
10
2.80817
20
-3.50376
11
2.81645
21
-3.50154
0
LINE
8
BLACK
6
CONTINUOUS
10
2.81645
20
-3.50154
11
2.825
21
-3.50079
0
LINE
8
BLACK
6
CONTINUOUS
10
2.825
20
-3.50079
11
2.83355
21
-3.50154
0
LINE
8
BLACK
6
CONTINUOUS
10
5.28355
20
-3.50154
11
5.29183
21
-3.50376
0
LINE
8
BLACK
6
CONTINUOUS
10
5.29183
20
-3.50376
11
5.29961
21
-3.50738
0
LINE
8
BLACK
6
CONTINUOUS
10
5.29961
20
-3.50738
11
5.30663
21
-3.5123
0
LINE
8
BLACK
6
CONTINUOUS
10
5.30663
20
-3.5123
11
5.3127
21
-3.51837
0
LINE
8
BLACK
6
CONTINUOUS
10
5.3127
20
-3.51837
11
5.31762
21
-3.52539
0
LINE
8
BLACK
6
CONTINUOUS
10
5.31762
20
-3.52539
11
5.32124
21
-3.53317
0
LINE
8
BLACK
6
CONTINUOUS
10
5.32124
20
-3.53317
11
5.32346
21
-3.54145
0
LINE
8
BLACK
6
CONTINUOUS
10
5.32346
20
-3.54145
11
5.32421
21
-3.55
0
LINE
8
BLACK
6
CONTINUOUS
10
5.32421
20
-3.55
11
5.32346
21
-3.55855
0
LINE
8
BLACK
6
CONTINUOUS
10
5.32346
20
-3.55855
11
5.32124
21
-3.56683
0
LINE
8
BLACK
6
CONTINUOUS
10
5.32124
20
-3.56683
11
5.31762
21
-3.57461
0
LINE
8
BLACK
6
CONTINUOUS
10
5.31762
20
-3.57461
11
5.3127
21
-3.58163
0
LINE
8
BLACK
6
CONTINUOUS
10
5.3127
20
-3.58163
11
5.30663
21
-3.5877
0
LINE
8
BLACK
6
CONTINUOUS
10
5.30663
20
-3.5877
11
5.29961
21
-3.59262
0
LINE
8
BLACK
6
CONTINUOUS
10
5.29961
20
-3.59262
11
5.29183
21
-3.59624
0
LINE
8
BLACK
6
CONTINUOUS
10
5.29183
20
-3.59624
11
5.28355
21
-3.59846
0
LINE
8
BLACK
6
CONTINUOUS
10
5.28355
20
-3.59846
11
5.275
21
-3.59921
0
LINE
8
BLACK
6
CONTINUOUS
10
5.275
20
-3.59921
11
5.26645
21
-3.59846
0
LINE
8
BLACK
6
CONTINUOUS
10
5.26645
20
-3.59846
11
5.25817
21
-3.59624
0
LINE
8
BLACK
6
CONTINUOUS
10
5.25817
20
-3.59624
11
5.25039
21
-3.59262
0
LINE
8
BLACK
6
CONTINUOUS
10
5.25039
20
-3.59262
11
5.24337
21
-3.5877
0
LINE
8
BLACK
6
CONTINUOUS
10
5.24337
20
-3.5877
11
5.2373
21
-3.58163
0
LINE
8
BLACK
6
CONTINUOUS
10
5.2373
20
-3.58163
11
5.23238
21
-3.57461
0
LINE
8
BLACK
6
CONTINUOUS
10
5.23238
20
-3.57461
11
5.22876
21
-3.56683
0
LINE
8
BLACK
6
CONTINUOUS
10
5.22876
20
-3.56683
11
5.22654
21
-3.55855
0
LINE
8
BLACK
6
CONTINUOUS
10
5.22654
20
-3.55855
11
5.22579
21
-3.55
0
LINE
8
BLACK
6
CONTINUOUS
10
5.22579
20
-3.55
11
5.22654
21
-3.54145
0
LINE
8
BLACK
6
CONTINUOUS
10
5.22654
20
-3.54145
11
5.22876
21
-3.53317
0
LINE
8
BLACK
6
CONTINUOUS
10
5.22876
20
-3.53317
11
5.23238
21
-3.52539
0
LINE
8
BLACK
6
CONTINUOUS
10
5.23238
20
-3.52539
11
5.2373
21
-3.51837
0
LINE
8
BLACK
6
CONTINUOUS
10
5.2373
20
-3.51837
11
5.24337
21
-3.5123
0
LINE
8
BLACK
6
CONTINUOUS
10
5.24337
20
-3.5123
11
5.25039
21
-3.50738
0
LINE
8
BLACK
6
CONTINUOUS
10
5.25039
20
-3.50738
11
5.25817
21
-3.50376
0
LINE
8
BLACK
6
CONTINUOUS
10
5.25817
20
-3.50376
11
5.26645
21
-3.50154
0
LINE
8
BLACK
6
CONTINUOUS
10
5.26645
20
-3.50154
11
5.275
21
-3.50079
0
LINE
8
BLACK
6
CONTINUOUS
10
5.275
20
-3.50079
11
5.28355
21
-3.50154
0
LINE
8
BLACK
6
CONTINUOUS
10
3.95679
20
-3.31612
11
3.96324
21
-3.31838
0
LINE
8
BLACK
6
CONTINUOUS
10
3.96324
20
-3.31838
11
3.96902
21
-3.32201
0
LINE
8
BLACK
6
CONTINUOUS
10
3.96902
20
-3.32201
11
3.97386
21
-3.32684
0
LINE
8
BLACK
6
CONTINUOUS
10
3.97386
20
-3.32684
11
3.97749
21
-3.33263
0
LINE
8
BLACK
6
CONTINUOUS
10
3.97749
20
-3.33263
11
3.97975
21
-3.33908
0
LINE
8
BLACK
6
CONTINUOUS
10
3.97975
20
-3.33908
11
3.98051
21
-3.34587
0
LINE
8
BLACK
6
CONTINUOUS
10
3.98051
20
-3.34587
11
3.97975
21
-3.35266
0
LINE
8
BLACK
6
CONTINUOUS
10
3.97975
20
-3.35266
11
3.97749
21
-3.3591
0
LINE
8
BLACK
6
CONTINUOUS
10
3.97749
20
-3.3591
11
3.97386
21
-3.36489
0
LINE
8
BLACK
6
CONTINUOUS
10
3.97386
20
-3.36489
11
3.96902
21
-3.36972
0
LINE
8
BLACK
6
CONTINUOUS
10
3.96902
20
-3.36972
11
3.96324
21
-3.37336
0
LINE
8
BLACK
6
CONTINUOUS
10
3.96324
20
-3.37336
11
3.95679
21
-3.37561
0
LINE
8
BLACK
6
CONTINUOUS
10
3.95679
20
-3.37561
11
3.95
21
-3.37638
0
LINE
8
BLACK
6
CONTINUOUS
10
3.95
20
-3.37638
11
3.94321
21
-3.37561
0
LINE
8
BLACK
6
CONTINUOUS
10
3.94321
20
-3.37561
11
3.93676
21
-3.37336
0
LINE
8
BLACK
6
CONTINUOUS
10
3.93676
20
-3.37336
11
3.93098
21
-3.36972
0
LINE
8
BLACK
6
CONTINUOUS
10
3.93098
20
-3.36972
11
3.92614
21
-3.36489
0
LINE
8
BLACK
6
CONTINUOUS
10
3.92614
20
-3.36489
11
3.92251
21
-3.3591
0
LINE
8
BLACK
6
CONTINUOUS
10
3.92251
20
-3.3591
11
3.92025
21
-3.35266
0
LINE
8
BLACK
6
CONTINUOUS
10
3.92025
20
-3.35266
11
3.91949
21
-3.34587
0
LINE
8
BLACK
6
CONTINUOUS
10
3.91949
20
-3.34587
11
3.92025
21
-3.33908
0
LINE
8
BLACK
6
CONTINUOUS
10
3.92025
20
-3.33908
11
3.92251
21
-3.33263
0
LINE
8
BLACK
6
CONTINUOUS
10
3.92251
20
-3.33263
11
3.92614
21
-3.32684
0
LINE
8
BLACK
6
CONTINUOUS
10
3.92614
20
-3.32684
11
3.93098
21
-3.32201
0
LINE
8
BLACK
6
CONTINUOUS
10
3.93098
20
-3.32201
11
3.93676
21
-3.31838
0
LINE
8
BLACK
6
CONTINUOUS
10
3.93676
20
-3.31838
11
3.94321
21
-3.31612
0
LINE
8
BLACK
6
CONTINUOUS
10
3.94321
20
-3.31612
11
3.95
21
-3.31535
0
LINE
8
BLACK
6
CONTINUOUS
10
3.95
20
-3.31535
11
3.95679
21
-3.31612
0
LINE
8
BLACK
6
CONTINUOUS
10
4.15364
20
-3.31612
11
4.16009
21
-3.31838
0
LINE
8
BLACK
6
CONTINUOUS
10
4.16009
20
-3.31838
11
4.16587
21
-3.32201
0
LINE
8
BLACK
6
CONTINUOUS
10
4.16587
20
-3.32201
11
4.17071
21
-3.32684
0
LINE
8
BLACK
6
CONTINUOUS
10
4.17071
20
-3.32684
11
4.17434
21
-3.33263
0
LINE
8
BLACK
6
CONTINUOUS
10
4.17434
20
-3.33263
11
4.1766
21
-3.33908
0
LINE
8
BLACK
6
CONTINUOUS
10
4.1766
20
-3.33908
11
4.17736
21
-3.34587
0
LINE
8
BLACK
6
CONTINUOUS
10
4.17736
20
-3.34587
11
4.1766
21
-3.35266
0
LINE
8
BLACK
6
CONTINUOUS
10
4.1766
20
-3.35266
11
4.17434
21
-3.3591
0
LINE
8
BLACK
6
CONTINUOUS
10
4.17434
20
-3.3591
11
4.17071
21
-3.36489
0
LINE
8
BLACK
6
CONTINUOUS
10
4.17071
20
-3.36489
11
4.16587
21
-3.36972
0
LINE
8
BLACK
6
CONTINUOUS
10
4.16587
20
-3.36972
11
4.16009
21
-3.37336
0
LINE
8
BLACK
6
CONTINUOUS
10
4.16009
20
-3.37336
11
4.15364
21
-3.37561
0
LINE
8
BLACK
6
CONTINUOUS
10
4.15364
20
-3.37561
11
4.14685
21
-3.37638
0
LINE
8
BLACK
6
CONTINUOUS
10
4.14685
20
-3.37638
11
4.14006
21
-3.37561
0
LINE
8
BLACK
6
CONTINUOUS
10
4.14006
20
-3.37561
11
4.13361
21
-3.37336
0
LINE
8
BLACK
6
CONTINUOUS
10
4.13361
20
-3.37336
11
4.12783
21
-3.36972
0
LINE
8
BLACK
6
CONTINUOUS
10
4.12783
20
-3.36972
11
4.123
21
-3.36489
0
LINE
8
BLACK
6
CONTINUOUS
10
4.123
20
-3.36489
11
4.11936
21
-3.3591
0
LINE
8
BLACK
6
CONTINUOUS
10
4.11936
20
-3.3591
11
4.1171
21
-3.35266
0
LINE
8
BLACK
6
CONTINUOUS
10
4.1171
20
-3.35266
11
4.11634
21
-3.34587
0
LINE
8
BLACK
6
CONTINUOUS
10
4.11634
20
-3.34587
11
4.1171
21
-3.33908
0
LINE
8
BLACK
6
CONTINUOUS
10
4.1171
20
-3.33908
11
4.11936
21
-3.33263
0
LINE
8
BLACK
6
CONTINUOUS
10
4.11936
20
-3.33263
11
4.123
21
-3.32684
0
LINE
8
BLACK
6
CONTINUOUS
10
4.123
20
-3.32684
11
4.12783
21
-3.32201
0
LINE
8
BLACK
6
CONTINUOUS
10
4.12783
20
-3.32201
11
4.13361
21
-3.31838
0
LINE
8
BLACK
6
CONTINUOUS
10
4.13361
20
-3.31838
11
4.14006
21
-3.31612
0
LINE
8
BLACK
6
CONTINUOUS
10
4.14006
20
-3.31612
11
4.14685
21
-3.31535
0
LINE
8
BLACK
6
CONTINUOUS
10
4.14685
20
-3.31535
11
4.15364
21
-3.31612
0
LINE
8
BLACK
6
CONTINUOUS
10
2.81095
20
-3.1913
11
2.81772
21
-3.19431
0
LINE
8
BLACK
6
CONTINUOUS
10
2.81772
20
-3.19431
11
2.82371
21
-3.19867
0
LINE
8
BLACK
6
CONTINUOUS
10
2.82371
20
-3.19867
11
2.82867
21
-3.20417
0
LINE
8
BLACK
6
CONTINUOUS
10
2.82867
20
-3.20417
11
2.83237
21
-3.21059
0
LINE
8
BLACK
6
CONTINUOUS
10
2.83237
20
-3.21059
11
2.83466
21
-3.21763
0
LINE
8
BLACK
6
CONTINUOUS
10
2.83466
20
-3.21763
11
2.83543
21
-3.225
0
LINE
8
BLACK
6
CONTINUOUS
10
2.83543
20
-3.225
11
2.83543
21
-3.2624
0
LINE
8
BLACK
6
CONTINUOUS
10
2.83543
20
-3.2624
11
2.83466
21
-3.26977
0
LINE
8
BLACK
6
CONTINUOUS
10
2.83466
20
-3.26977
11
2.83237
21
-3.27681
0
LINE
8
BLACK
6
CONTINUOUS
10
2.83237
20
-3.27681
11
2.82867
21
-3.28323
0
LINE
8
BLACK
6
CONTINUOUS
10
2.82867
20
-3.28323
11
2.82371
21
-3.28873
0
LINE
8
BLACK
6
CONTINUOUS
10
2.82371
20
-3.28873
11
2.81772
21
-3.29309
0
LINE
8
BLACK
6
CONTINUOUS
10
2.81772
20
-3.29309
11
2.81095
21
-3.2961
0
LINE
8
BLACK
6
CONTINUOUS
10
2.81095
20
-3.2961
11
2.8037
21
-3.29764
0
LINE
8
BLACK
6
CONTINUOUS
10
2.8037
20
-3.29764
11
2.7963
21
-3.29764
0
LINE
8
BLACK
6
CONTINUOUS
10
2.7963
20
-3.29764
11
2.78905
21
-3.2961
0
LINE
8
BLACK
6
CONTINUOUS
10
2.78905
20
-3.2961
11
2.78228
21
-3.29309
0
LINE
8
BLACK
6
CONTINUOUS
10
2.78228
20
-3.29309
11
2.77629
21
-3.28873
0
LINE
8
BLACK
6
CONTINUOUS
10
2.77629
20
-3.28873
11
2.77133
21
-3.28323
0
LINE
8
BLACK
6
CONTINUOUS
10
2.77133
20
-3.28323
11
2.76763
21
-3.27681
0
LINE
8
BLACK
6
CONTINUOUS
10
2.76763
20
-3.27681
11
2.76534
21
-3.26977
0
LINE
8
BLACK
6
CONTINUOUS
10
2.76534
20
-3.26977
11
2.76457
21
-3.2624
0
LINE
8
BLACK
6
CONTINUOUS
10
2.76457
20
-3.2624
11
2.76457
21
-3.225
0
LINE
8
BLACK
6
CONTINUOUS
10
2.76457
20
-3.225
11
2.76534
21
-3.21763
0
LINE
8
BLACK
6
CONTINUOUS
10
2.76534
20
-3.21763
11
2.76763
21
-3.21059
0
LINE
8
BLACK
6
CONTINUOUS
10
2.76763
20
-3.21059
11
2.77133
21
-3.20417
0
LINE
8
BLACK
6
CONTINUOUS
10
2.77133
20
-3.20417
11
2.77629
21
-3.19867
0
LINE
8
BLACK
6
CONTINUOUS
10
2.77629
20
-3.19867
11
2.78228
21
-3.19431
0
LINE
8
BLACK
6
CONTINUOUS
10
2.78228
20
-3.19431
11
2.78905
21
-3.1913
0
LINE
8
BLACK
6
CONTINUOUS
10
2.78905
20
-3.1913
11
2.7963
21
-3.18976
0
LINE
8
BLACK
6
CONTINUOUS
10
2.7963
20
-3.18976
11
2.8037
21
-3.18976
0
LINE
8
BLACK
6
CONTINUOUS
10
2.8037
20
-3.18976
11
2.81095
21
-3.1913
0
LINE
8
BLACK
6
CONTINUOUS
10
2.91095
20
-3.1913
11
2.91772
21
-3.19431
0
LINE
8
BLACK
6
CONTINUOUS
10
2.91772
20
-3.19431
11
2.92371
21
-3.19867
0
LINE
8
BLACK
6
CONTINUOUS
10
2.92371
20
-3.19867
11
2.92867
21
-3.20417
0
LINE
8
BLACK
6
CONTINUOUS
10
2.92867
20
-3.20417
11
2.93237
21
-3.21059
0
LINE
8
BLACK
6
CONTINUOUS
10
2.93237
20
-3.21059
11
2.93466
21
-3.21763
0
LINE
8
BLACK
6
CONTINUOUS
10
2.93466
20
-3.21763
11
2.93543
21
-3.225
0
LINE
8
BLACK
6
CONTINUOUS
10
2.93543
20
-3.225
11
2.93543
21
-3.2624
0
LINE
8
BLACK
6
CONTINUOUS
10
2.93543
20
-3.2624
11
2.93466
21
-3.26977
0
LINE
8
BLACK
6
CONTINUOUS
10
2.93466
20
-3.26977
11
2.93237
21
-3.27681
0
LINE
8
BLACK
6
CONTINUOUS
10
2.93237
20
-3.27681
11
2.92867
21
-3.28323
0
LINE
8
BLACK
6
CONTINUOUS
10
2.92867
20
-3.28323
11
2.92371
21
-3.28873
0
LINE
8
BLACK
6
CONTINUOUS
10
2.92371
20
-3.28873
11
2.91772
21
-3.29309
0
LINE
8
BLACK
6
CONTINUOUS
10
2.91772
20
-3.29309
11
2.91095
21
-3.2961
0
LINE
8
BLACK
6
CONTINUOUS
10
2.91095
20
-3.2961
11
2.9037
21
-3.29764
0
LINE
8
BLACK
6
CONTINUOUS
10
2.9037
20
-3.29764
11
2.8963
21
-3.29764
0
LINE
8
BLACK
6
CONTINUOUS
10
2.8963
20
-3.29764
11
2.88905
21
-3.2961
0
LINE
8
BLACK
6
CONTINUOUS
10
2.88905
20
-3.2961
11
2.88228
21
-3.29309
0
LINE
8
BLACK
6
CONTINUOUS
10
2.88228
20
-3.29309
11
2.87629
21
-3.28873
0
LINE
8
BLACK
6
CONTINUOUS
10
2.87629
20
-3.28873
11
2.87133
21
-3.28323
0
LINE
8
BLACK
6
CONTINUOUS
10
2.87133
20
-3.28323
11
2.86763
21
-3.27681
0
LINE
8
BLACK
6
CONTINUOUS
10
2.86763
20
-3.27681
11
2.86534
21
-3.26977
0
LINE
8
BLACK
6
CONTINUOUS
10
2.86534
20
-3.26977
11
2.86457
21
-3.2624
0
LINE
8
BLACK
6
CONTINUOUS
10
2.86457
20
-3.2624
11
2.86457
21
-3.225
0
LINE
8
BLACK
6
CONTINUOUS
10
2.86457
20
-3.225
11
2.86534
21
-3.21763
0
LINE
8
BLACK
6
CONTINUOUS
10
2.86534
20
-3.21763
11
2.86763
21
-3.21059
0
LINE
8
BLACK
6
CONTINUOUS
10
2.86763
20
-3.21059
11
2.87133
21
-3.20417
0
LINE
8
BLACK
6
CONTINUOUS
10
2.87133
20
-3.20417
11
2.87629
21
-3.19867
0
LINE
8
BLACK
6
CONTINUOUS
10
2.87629
20
-3.19867
11
2.88228
21
-3.19431
0
LINE
8
BLACK
6
CONTINUOUS
10
2.88228
20
-3.19431
11
2.88905
21
-3.1913
0
LINE
8
BLACK
6
CONTINUOUS
10
2.88905
20
-3.1913
11
2.8963
21
-3.18976
0
LINE
8
BLACK
6
CONTINUOUS
10
2.8963
20
-3.18976
11
2.9037
21
-3.18976
0
LINE
8
BLACK
6
CONTINUOUS
10
2.9037
20
-3.18976
11
2.91095
21
-3.1913
0
LINE
8
BLACK
6
CONTINUOUS
10
3.01095
20
-3.1913
11
3.01772
21
-3.19431
0
LINE
8
BLACK
6
CONTINUOUS
10
3.01772
20
-3.19431
11
3.02371
21
-3.19867
0
LINE
8
BLACK
6
CONTINUOUS
10
3.02371
20
-3.19867
11
3.02867
21
-3.20417
0
LINE
8
BLACK
6
CONTINUOUS
10
3.02867
20
-3.20417
11
3.03237
21
-3.21059
0
LINE
8
BLACK
6
CONTINUOUS
10
3.03237
20
-3.21059
11
3.03466
21
-3.21763
0
LINE
8
BLACK
6
CONTINUOUS
10
3.03466
20
-3.21763
11
3.03543
21
-3.225
0
LINE
8
BLACK
6
CONTINUOUS
10
3.03543
20
-3.225
11
3.03543
21
-3.2624
0
LINE
8
BLACK
6
CONTINUOUS
10
3.03543
20
-3.2624
11
3.03466
21
-3.26977
0
LINE
8
BLACK
6
CONTINUOUS
10
3.03466
20
-3.26977
11
3.03237
21
-3.27681
0
LINE
8
BLACK
6
CONTINUOUS
10
3.03237
20
-3.27681
11
3.02867
21
-3.28323
0
LINE
8
BLACK
6
CONTINUOUS
10
3.02867
20
-3.28323
11
3.02371
21
-3.28873
0
LINE
8
BLACK
6
CONTINUOUS
10
3.02371
20
-3.28873
11
3.01772
21
-3.29309
0
LINE
8
BLACK
6
CONTINUOUS
10
3.01772
20
-3.29309
11
3.01095
21
-3.2961
0
LINE
8
BLACK
6
CONTINUOUS
10
3.01095
20
-3.2961
11
3.0037
21
-3.29764
0
LINE
8
BLACK
6
CONTINUOUS
10
3.0037
20
-3.29764
11
2.9963
21
-3.29764
0
LINE
8
BLACK
6
CONTINUOUS
10
2.9963
20
-3.29764
11
2.98905
21
-3.2961
0
LINE
8
BLACK
6
CONTINUOUS
10
2.98905
20
-3.2961
11
2.98228
21
-3.29309
0
LINE
8
BLACK
6
CONTINUOUS
10
2.98228
20
-3.29309
11
2.97629
21
-3.28873
0
LINE
8
BLACK
6
CONTINUOUS
10
2.97629
20
-3.28873
11
2.97133
21
-3.28323
0
LINE
8
BLACK
6
CONTINUOUS
10
2.97133
20
-3.28323
11
2.96763
21
-3.27681
0
LINE
8
BLACK
6
CONTINUOUS
10
2.96763
20
-3.27681
11
2.96534
21
-3.26977
0
LINE
8
BLACK
6
CONTINUOUS
10
2.96534
20
-3.26977
11
2.96457
21
-3.2624
0
LINE
8
BLACK
6
CONTINUOUS
10
2.96457
20
-3.2624
11
2.96457
21
-3.225
0
LINE
8
BLACK
6
CONTINUOUS
10
2.96457
20
-3.225
11
2.96534
21
-3.21763
0
LINE
8
BLACK
6
CONTINUOUS
10
2.96534
20
-3.21763
11
2.96763
21
-3.21059
0
LINE
8
BLACK
6
CONTINUOUS
10
2.96763
20
-3.21059
11
2.97133
21
-3.20417
0
LINE
8
BLACK
6
CONTINUOUS
10
2.97133
20
-3.20417
11
2.97629
21
-3.19867
0
LINE
8
BLACK
6
CONTINUOUS
10
2.97629
20
-3.19867
11
2.98228
21
-3.19431
0
LINE
8
BLACK
6
CONTINUOUS
10
2.98228
20
-3.19431
11
2.98905
21
-3.1913
0
LINE
8
BLACK
6
CONTINUOUS
10
2.98905
20
-3.1913
11
2.9963
21
-3.18976
0
LINE
8
BLACK
6
CONTINUOUS
10
2.9963
20
-3.18976
11
3.0037
21
-3.18976
0
LINE
8
BLACK
6
CONTINUOUS
10
3.0037
20
-3.18976
11
3.01095
21
-3.1913
0
LINE
8
BLACK
6
CONTINUOUS
10
3.11095
20
-3.1913
11
3.11772
21
-3.19431
0
LINE
8
BLACK
6
CONTINUOUS
10
3.11772
20
-3.19431
11
3.12371
21
-3.19867
0
LINE
8
BLACK
6
CONTINUOUS
10
3.12371
20
-3.19867
11
3.12867
21
-3.20417
0
LINE
8
BLACK
6
CONTINUOUS
10
3.12867
20
-3.20417
11
3.13237
21
-3.21059
0
LINE
8
BLACK
6
CONTINUOUS
10
3.13237
20
-3.21059
11
3.13466
21
-3.21763
0
LINE
8
BLACK
6
CONTINUOUS
10
3.13466
20
-3.21763
11
3.13543
21
-3.225
0
LINE
8
BLACK
6
CONTINUOUS
10
3.13543
20
-3.225
11
3.13543
21
-3.2624
0
LINE
8
BLACK
6
CONTINUOUS
10
3.13543
20
-3.2624
11
3.13466
21
-3.26977
0
LINE
8
BLACK
6
CONTINUOUS
10
3.13466
20
-3.26977
11
3.13237
21
-3.27681
0
LINE
8
BLACK
6
CONTINUOUS
10
3.13237
20
-3.27681
11
3.12867
21
-3.28323
0
LINE
8
BLACK
6
CONTINUOUS
10
3.12867
20
-3.28323
11
3.12371
21
-3.28873
0
LINE
8
BLACK
6
CONTINUOUS
10
3.12371
20
-3.28873
11
3.11772
21
-3.29309
0
LINE
8
BLACK
6
CONTINUOUS
10
3.11772
20
-3.29309
11
3.11095
21
-3.2961
0
LINE
8
BLACK
6
CONTINUOUS
10
3.11095
20
-3.2961
11
3.1037
21
-3.29764
0
LINE
8
BLACK
6
CONTINUOUS
10
3.1037
20
-3.29764
11
3.0963
21
-3.29764
0
LINE
8
BLACK
6
CONTINUOUS
10
3.0963
20
-3.29764
11
3.08905
21
-3.2961
0
LINE
8
BLACK
6
CONTINUOUS
10
3.08905
20
-3.2961
11
3.08228
21
-3.29309
0
LINE
8
BLACK
6
CONTINUOUS
10
3.08228
20
-3.29309
11
3.07629
21
-3.28873
0
LINE
8
BLACK
6
CONTINUOUS
10
3.07629
20
-3.28873
11
3.07133
21
-3.28323
0
LINE
8
BLACK
6
CONTINUOUS
10
3.07133
20
-3.28323
11
3.06763
21
-3.27681
0
LINE
8
BLACK
6
CONTINUOUS
10
3.06763
20
-3.27681
11
3.06534
21
-3.26977
0
LINE
8
BLACK
6
CONTINUOUS
10
3.06534
20
-3.26977
11
3.06457
21
-3.2624
0
LINE
8
BLACK
6
CONTINUOUS
10
3.06457
20
-3.2624
11
3.06457
21
-3.225
0
LINE
8
BLACK
6
CONTINUOUS
10
3.06457
20
-3.225
11
3.06534
21
-3.21763
0
LINE
8
BLACK
6
CONTINUOUS
10
3.06534
20
-3.21763
11
3.06763
21
-3.21059
0
LINE
8
BLACK
6
CONTINUOUS
10
3.06763
20
-3.21059
11
3.07133
21
-3.20417
0
LINE
8
BLACK
6
CONTINUOUS
10
3.07133
20
-3.20417
11
3.07629
21
-3.19867
0
LINE
8
BLACK
6
CONTINUOUS
10
3.07629
20
-3.19867
11
3.08228
21
-3.19431
0
LINE
8
BLACK
6
CONTINUOUS
10
3.08228
20
-3.19431
11
3.08905
21
-3.1913
0
LINE
8
BLACK
6
CONTINUOUS
10
3.08905
20
-3.1913
11
3.0963
21
-3.18976
0
LINE
8
BLACK
6
CONTINUOUS
10
3.0963
20
-3.18976
11
3.1037
21
-3.18976
0
LINE
8
BLACK
6
CONTINUOUS
10
3.1037
20
-3.18976
11
3.11095
21
-3.1913
0
LINE
8
BLACK
6
CONTINUOUS
10
3.21095
20
-3.1913
11
3.21772
21
-3.19431
0
LINE
8
BLACK
6
CONTINUOUS
10
3.21772
20
-3.19431
11
3.22371
21
-3.19867
0
LINE
8
BLACK
6
CONTINUOUS
10
3.22371
20
-3.19867
11
3.22867
21
-3.20417
0
LINE
8
BLACK
6
CONTINUOUS
10
3.22867
20
-3.20417
11
3.23237
21
-3.21059
0
LINE
8
BLACK
6
CONTINUOUS
10
3.23237
20
-3.21059
11
3.23466
21
-3.21763
0
LINE
8
BLACK
6
CONTINUOUS
10
3.23466
20
-3.21763
11
3.23543
21
-3.225
0
LINE
8
BLACK
6
CONTINUOUS
10
3.23543
20
-3.225
11
3.23543
21
-3.2624
0
LINE
8
BLACK
6
CONTINUOUS
10
3.23543
20
-3.2624
11
3.23466
21
-3.26977
0
LINE
8
BLACK
6
CONTINUOUS
10
3.23466
20
-3.26977
11
3.23237
21
-3.27681
0
LINE
8
BLACK
6
CONTINUOUS
10
3.23237
20
-3.27681
11
3.22867
21
-3.28323
0
LINE
8
BLACK
6
CONTINUOUS
10
3.22867
20
-3.28323
11
3.22371
21
-3.28873
0
LINE
8
BLACK
6
CONTINUOUS
10
3.22371
20
-3.28873
11
3.21772
21
-3.29309
0
LINE
8
BLACK
6
CONTINUOUS
10
3.21772
20
-3.29309
11
3.21095
21
-3.2961
0
LINE
8
BLACK
6
CONTINUOUS
10
3.21095
20
-3.2961
11
3.2037
21
-3.29764
0
LINE
8
BLACK
6
CONTINUOUS
10
3.2037
20
-3.29764
11
3.1963
21
-3.29764
0
LINE
8
BLACK
6
CONTINUOUS
10
3.1963
20
-3.29764
11
3.18905
21
-3.2961
0
LINE
8
BLACK
6
CONTINUOUS
10
3.18905
20
-3.2961
11
3.18228
21
-3.29309
0
LINE
8
BLACK
6
CONTINUOUS
10
3.18228
20
-3.29309
11
3.17629
21
-3.28873
0
LINE
8
BLACK
6
CONTINUOUS
10
3.17629
20
-3.28873
11
3.17133
21
-3.28323
0
LINE
8
BLACK
6
CONTINUOUS
10
3.17133
20
-3.28323
11
3.16763
21
-3.27681
0
LINE
8
BLACK
6
CONTINUOUS
10
3.16763
20
-3.27681
11
3.16534
21
-3.26977
0
LINE
8
BLACK
6
CONTINUOUS
10
3.16534
20
-3.26977
11
3.16457
21
-3.2624
0
LINE
8
BLACK
6
CONTINUOUS
10
3.16457
20
-3.2624
11
3.16457
21
-3.225
0
LINE
8
BLACK
6
CONTINUOUS
10
3.16457
20
-3.225
11
3.16534
21
-3.21763
0
LINE
8
BLACK
6
CONTINUOUS
10
3.16534
20
-3.21763
11
3.16763
21
-3.21059
0
LINE
8
BLACK
6
CONTINUOUS
10
3.16763
20
-3.21059
11
3.17133
21
-3.20417
0
LINE
8
BLACK
6
CONTINUOUS
10
3.17133
20
-3.20417
11
3.17629
21
-3.19867
0
LINE
8
BLACK
6
CONTINUOUS
10
3.17629
20
-3.19867
11
3.18228
21
-3.19431
0
LINE
8
BLACK
6
CONTINUOUS
10
3.18228
20
-3.19431
11
3.18905
21
-3.1913
0
LINE
8
BLACK
6
CONTINUOUS
10
3.18905
20
-3.1913
11
3.1963
21
-3.18976
0
LINE
8
BLACK
6
CONTINUOUS
10
3.1963
20
-3.18976
11
3.2037
21
-3.18976
0
LINE
8
BLACK
6
CONTINUOUS
10
3.2037
20
-3.18976
11
3.21095
21
-3.1913
0
LINE
8
BLACK
6
CONTINUOUS
10
3.31095
20
-3.1913
11
3.31772
21
-3.19431
0
LINE
8
BLACK
6
CONTINUOUS
10
3.31772
20
-3.19431
11
3.32371
21
-3.19867
0
LINE
8
BLACK
6
CONTINUOUS
10
3.32371
20
-3.19867
11
3.32867
21
-3.20417
0
LINE
8
BLACK
6
CONTINUOUS
10
3.32867
20
-3.20417
11
3.33237
21
-3.21059
0
LINE
8
BLACK
6
CONTINUOUS
10
3.33237
20
-3.21059
11
3.33466
21
-3.21763
0
LINE
8
BLACK
6
CONTINUOUS
10
3.33466
20
-3.21763
11
3.33543
21
-3.225
0
LINE
8
BLACK
6
CONTINUOUS
10
3.33543
20
-3.225
11
3.33543
21
-3.2624
0
LINE
8
BLACK
6
CONTINUOUS
10
3.33543
20
-3.2624
11
3.33466
21
-3.26977
0
LINE
8
BLACK
6
CONTINUOUS
10
3.33466
20
-3.26977
11
3.33237
21
-3.27681
0
LINE
8
BLACK
6
CONTINUOUS
10
3.33237
20
-3.27681
11
3.32867
21
-3.28323
0
LINE
8
BLACK
6
CONTINUOUS
10
3.32867
20
-3.28323
11
3.32371
21
-3.28873
0
LINE
8
BLACK
6
CONTINUOUS
10
3.32371
20
-3.28873
11
3.31772
21
-3.29309
0
LINE
8
BLACK
6
CONTINUOUS
10
3.31772
20
-3.29309
11
3.31095
21
-3.2961
0
LINE
8
BLACK
6
CONTINUOUS
10
3.31095
20
-3.2961
11
3.3037
21
-3.29764
0
LINE
8
BLACK
6
CONTINUOUS
10
3.3037
20
-3.29764
11
3.2963
21
-3.29764
0
LINE
8
BLACK
6
CONTINUOUS
10
3.2963
20
-3.29764
11
3.28905
21
-3.2961
0
LINE
8
BLACK
6
CONTINUOUS
10
3.28905
20
-3.2961
11
3.28228
21
-3.29309
0
LINE
8
BLACK
6
CONTINUOUS
10
3.28228
20
-3.29309
11
3.27629
21
-3.28873
0
LINE
8
BLACK
6
CONTINUOUS
10
3.27629
20
-3.28873
11
3.27133
21
-3.28323
0
LINE
8
BLACK
6
CONTINUOUS
10
3.27133
20
-3.28323
11
3.26763
21
-3.27681
0
LINE
8
BLACK
6
CONTINUOUS
10
3.26763
20
-3.27681
11
3.26534
21
-3.26977
0
LINE
8
BLACK
6
CONTINUOUS
10
3.26534
20
-3.26977
11
3.26457
21
-3.2624
0
LINE
8
BLACK
6
CONTINUOUS
10
3.26457
20
-3.2624
11
3.26457
21
-3.225
0
LINE
8
BLACK
6
CONTINUOUS
10
3.26457
20
-3.225
11
3.26534
21
-3.21763
0
LINE
8
BLACK
6
CONTINUOUS
10
3.26534
20
-3.21763
11
3.26763
21
-3.21059
0
LINE
8
BLACK
6
CONTINUOUS
10
3.26763
20
-3.21059
11
3.27133
21
-3.20417
0
LINE
8
BLACK
6
CONTINUOUS
10
3.27133
20
-3.20417
11
3.27629
21
-3.19867
0
LINE
8
BLACK
6
CONTINUOUS
10
3.27629
20
-3.19867
11
3.28228
21
-3.19431
0
LINE
8
BLACK
6
CONTINUOUS
10
3.28228
20
-3.19431
11
3.28905
21
-3.1913
0
LINE
8
BLACK
6
CONTINUOUS
10
3.28905
20
-3.1913
11
3.2963
21
-3.18976
0
LINE
8
BLACK
6
CONTINUOUS
10
3.2963
20
-3.18976
11
3.3037
21
-3.18976
0
LINE
8
BLACK
6
CONTINUOUS
10
3.3037
20
-3.18976
11
3.31095
21
-3.1913
0
LINE
8
BLACK
6
CONTINUOUS
10
3.41095
20
-3.1913
11
3.41772
21
-3.19431
0
LINE
8
BLACK
6
CONTINUOUS
10
3.41772
20
-3.19431
11
3.42371
21
-3.19867
0
LINE
8
BLACK
6
CONTINUOUS
10
3.42371
20
-3.19867
11
3.42867
21
-3.20417
0
LINE
8
BLACK
6
CONTINUOUS
10
3.42867
20
-3.20417
11
3.43237
21
-3.21059
0
LINE
8
BLACK
6
CONTINUOUS
10
3.43237
20
-3.21059
11
3.43466
21
-3.21763
0
LINE
8
BLACK
6
CONTINUOUS
10
3.43466
20
-3.21763
11
3.43543
21
-3.225
0
LINE
8
BLACK
6
CONTINUOUS
10
3.43543
20
-3.225
11
3.43543
21
-3.2624
0
LINE
8
BLACK
6
CONTINUOUS
10
3.43543
20
-3.2624
11
3.43466
21
-3.26977
0
LINE
8
BLACK
6
CONTINUOUS
10
3.43466
20
-3.26977
11
3.43237
21
-3.27681
0
LINE
8
BLACK
6
CONTINUOUS
10
3.43237
20
-3.27681
11
3.42867
21
-3.28323
0
LINE
8
BLACK
6
CONTINUOUS
10
3.42867
20
-3.28323
11
3.42371
21
-3.28873
0
LINE
8
BLACK
6
CONTINUOUS
10
3.42371
20
-3.28873
11
3.41772
21
-3.29309
0
LINE
8
BLACK
6
CONTINUOUS
10
3.41772
20
-3.29309
11
3.41095
21
-3.2961
0
LINE
8
BLACK
6
CONTINUOUS
10
3.41095
20
-3.2961
11
3.4037
21
-3.29764
0
LINE
8
BLACK
6
CONTINUOUS
10
3.4037
20
-3.29764
11
3.3963
21
-3.29764
0
LINE
8
BLACK
6
CONTINUOUS
10
3.3963
20
-3.29764
11
3.38905
21
-3.2961
0
LINE
8
BLACK
6
CONTINUOUS
10
3.38905
20
-3.2961
11
3.38228
21
-3.29309
0
LINE
8
BLACK
6
CONTINUOUS
10
3.38228
20
-3.29309
11
3.37629
21
-3.28873
0
LINE
8
BLACK
6
CONTINUOUS
10
3.37629
20
-3.28873
11
3.37133
21
-3.28323
0
LINE
8
BLACK
6
CONTINUOUS
10
3.37133
20
-3.28323
11
3.36763
21
-3.27681
0
LINE
8
BLACK
6
CONTINUOUS
10
3.36763
20
-3.27681
11
3.36534
21
-3.26977
0
LINE
8
BLACK
6
CONTINUOUS
10
3.36534
20
-3.26977
11
3.36457
21
-3.2624
0
LINE
8
BLACK
6
CONTINUOUS
10
3.36457
20
-3.2624
11
3.36457
21
-3.225
0
LINE
8
BLACK
6
CONTINUOUS
10
3.36457
20
-3.225
11
3.36534
21
-3.21763
0
LINE
8
BLACK
6
CONTINUOUS
10
3.36534
20
-3.21763
11
3.36763
21
-3.21059
0
LINE
8
BLACK
6
CONTINUOUS
10
3.36763
20
-3.21059
11
3.37133
21
-3.20417
0
LINE
8
BLACK
6
CONTINUOUS
10
3.37133
20
-3.20417
11
3.37629
21
-3.19867
0
LINE
8
BLACK
6
CONTINUOUS
10
3.37629
20
-3.19867
11
3.38228
21
-3.19431
0
LINE
8
BLACK
6
CONTINUOUS
10
3.38228
20
-3.19431
11
3.38905
21
-3.1913
0
LINE
8
BLACK
6
CONTINUOUS
10
3.38905
20
-3.1913
11
3.3963
21
-3.18976
0
LINE
8
BLACK
6
CONTINUOUS
10
3.3963
20
-3.18976
11
3.4037
21
-3.18976
0
LINE
8
BLACK
6
CONTINUOUS
10
3.4037
20
-3.18976
11
3.41095
21
-3.1913
0
LINE
8
BLACK
6
CONTINUOUS
10
3.83054
20
-2.9723
11
3.83903
21
-2.9743
0
LINE
8
BLACK
6
CONTINUOUS
10
3.83903
20
-2.9743
11
3.847
21
-2.97782
0
LINE
8
BLACK
6
CONTINUOUS
10
3.847
20
-2.97782
11
3.8542
21
-2.98275
0
LINE
8
BLACK
6
CONTINUOUS
10
3.8542
20
-2.98275
11
3.86036
21
-2.98891
0
LINE
8
BLACK
6
CONTINUOUS
10
3.86036
20
-2.98891
11
3.86529
21
-2.99611
0
LINE
8
BLACK
6
CONTINUOUS
10
3.86529
20
-2.99611
11
3.86881
21
-3.00408
0
LINE
8
BLACK
6
CONTINUOUS
10
3.86881
20
-3.00408
11
3.87081
21
-3.01257
0
LINE
8
BLACK
6
CONTINUOUS
10
3.87081
20
-3.01257
11
3.87126
21
-3.01909
0
LINE
8
BLACK
6
CONTINUOUS
10
3.87126
20
-3.01909
11
3.87126
21
-3.12146
0
LINE
8
BLACK
6
CONTINUOUS
10
3.87126
20
-3.12146
11
3.87081
21
-3.12798
0
LINE
8
BLACK
6
CONTINUOUS
10
3.87081
20
-3.12798
11
3.86881
21
-3.13647
0
LINE
8
BLACK
6
CONTINUOUS
10
3.86881
20
-3.13647
11
3.86529
21
-3.14445
0
LINE
8
BLACK
6
CONTINUOUS
10
3.86529
20
-3.14445
11
3.86036
21
-3.15164
0
LINE
8
BLACK
6
CONTINUOUS
10
3.86036
20
-3.15164
11
3.8542
21
-3.1578
0
LINE
8
BLACK
6
CONTINUOUS
10
3.8542
20
-3.1578
11
3.847
21
-3.16273
0
LINE
8
BLACK
6
CONTINUOUS
10
3.847
20
-3.16273
11
3.83903
21
-3.16625
0
LINE
8
BLACK
6
CONTINUOUS
10
3.83903
20
-3.16625
11
3.83054
21
-3.16825
0
LINE
8
BLACK
6
CONTINUOUS
10
3.83054
20
-3.16825
11
3.82402
21
-3.1687
0
LINE
8
BLACK
6
CONTINUOUS
10
3.82402
20
-3.1687
11
3.81749
21
-3.16825
0
LINE
8
BLACK
6
CONTINUOUS
10
3.81749
20
-3.16825
11
3.809
21
-3.16625
0
LINE
8
BLACK
6
CONTINUOUS
10
3.809
20
-3.16625
11
3.80103
21
-3.16273
0
LINE
8
BLACK
6
CONTINUOUS
10
3.80103
20
-3.16273
11
3.79383
21
-3.1578
0
LINE
8
BLACK
6
CONTINUOUS
10
3.79383
20
-3.1578
11
3.78767
21
-3.15164
0
LINE
8
BLACK
6
CONTINUOUS
10
3.78767
20
-3.15164
11
3.78274
21
-3.14445
0
LINE
8
BLACK
6
CONTINUOUS
10
3.78274
20
-3.14445
11
3.77922
21
-3.13647
0
LINE
8
BLACK
6
CONTINUOUS
10
3.77922
20
-3.13647
11
3.77722
21
-3.12798
0
LINE
8
BLACK
6
CONTINUOUS
10
3.77722
20
-3.12798
11
3.77677
21
-3.12146
0
LINE
8
BLACK
6
CONTINUOUS
10
3.77677
20
-3.12146
11
3.77677
21
-3.01909
0
LINE
8
BLACK
6
CONTINUOUS
10
3.77677
20
-3.01909
11
3.77722
21
-3.01257
0
LINE
8
BLACK
6
CONTINUOUS
10
3.77722
20
-3.01257
11
3.77922
21
-3.00408
0
LINE
8
BLACK
6
CONTINUOUS
10
3.77922
20
-3.00408
11
3.78274
21
-2.99611
0
LINE
8
BLACK
6
CONTINUOUS
10
3.78274
20
-2.99611
11
3.78767
21
-2.98891
0
LINE
8
BLACK
6
CONTINUOUS
10
3.78767
20
-2.98891
11
3.79383
21
-2.98275
0
LINE
8
BLACK
6
CONTINUOUS
10
3.79383
20
-2.98275
11
3.80103
21
-2.97782
0
LINE
8
BLACK
6
CONTINUOUS
10
3.80103
20
-2.97782
11
3.809
21
-2.9743
0
LINE
8
BLACK
6
CONTINUOUS
10
3.809
20
-2.9743
11
3.81749
21
-2.9723
0
LINE
8
BLACK
6
CONTINUOUS
10
3.81749
20
-2.9723
11
3.82402
21
-2.97185
0
LINE
8
BLACK
6
CONTINUOUS
10
3.82402
20
-2.97185
11
3.83054
21
-2.9723
0
LINE
8
BLACK
6
CONTINUOUS
10
4.27936
20
-2.9723
11
4.28785
21
-2.9743
0
LINE
8
BLACK
6
CONTINUOUS
10
4.28785
20
-2.9743
11
4.29582
21
-2.97782
0
LINE
8
BLACK
6
CONTINUOUS
10
4.29582
20
-2.97782
11
4.30302
21
-2.98275
0
LINE
8
BLACK
6
CONTINUOUS
10
4.30302
20
-2.98275
11
4.30918
21
-2.98891
0
LINE
8
BLACK
6
CONTINUOUS
10
4.30918
20
-2.98891
11
4.31411
21
-2.99611
0
LINE
8
BLACK
6
CONTINUOUS
10
4.31411
20
-2.99611
11
4.31763
21
-3.00408
0
LINE
8
BLACK
6
CONTINUOUS
10
4.31763
20
-3.00408
11
4.31963
21
-3.01257
0
LINE
8
BLACK
6
CONTINUOUS
10
4.31963
20
-3.01257
11
4.32008
21
-3.01909
0
LINE
8
BLACK
6
CONTINUOUS
10
4.32008
20
-3.01909
11
4.32008
21
-3.12146
0
LINE
8
BLACK
6
CONTINUOUS
10
4.32008
20
-3.12146
11
4.31963
21
-3.12798
0
LINE
8
BLACK
6
CONTINUOUS
10
4.31963
20
-3.12798
11
4.31763
21
-3.13647
0
LINE
8
BLACK
6
CONTINUOUS
10
4.31763
20
-3.13647
11
4.31411
21
-3.14445
0
LINE
8
BLACK
6
CONTINUOUS
10
4.31411
20
-3.14445
11
4.30918
21
-3.15164
0
LINE
8
BLACK
6
CONTINUOUS
10
4.30918
20
-3.15164
11
4.30302
21
-3.1578
0
LINE
8
BLACK
6
CONTINUOUS
10
4.30302
20
-3.1578
11
4.29582
21
-3.16273
0
LINE
8
BLACK
6
CONTINUOUS
10
4.29582
20
-3.16273
11
4.28785
21
-3.16625
0
LINE
8
BLACK
6
CONTINUOUS
10
4.28785
20
-3.16625
11
4.27936
21
-3.16825
0
LINE
8
BLACK
6
CONTINUOUS
10
4.27936
20
-3.16825
11
4.27283
21
-3.1687
0
LINE
8
BLACK
6
CONTINUOUS
10
4.27283
20
-3.1687
11
4.26631
21
-3.16825
0
LINE
8
BLACK
6
CONTINUOUS
10
4.26631
20
-3.16825
11
4.25782
21
-3.16625
0
LINE
8
BLACK
6
CONTINUOUS
10
4.25782
20
-3.16625
11
4.24985
21
-3.16273
0
LINE
8
BLACK
6
CONTINUOUS
10
4.24985
20
-3.16273
11
4.24265
21
-3.1578
0
LINE
8
BLACK
6
CONTINUOUS
10
4.24265
20
-3.1578
11
4.23649
21
-3.15164
0
LINE
8
BLACK
6
CONTINUOUS
10
4.23649
20
-3.15164
11
4.23156
21
-3.14445
0
LINE
8
BLACK
6
CONTINUOUS
10
4.23156
20
-3.14445
11
4.22804
21
-3.13647
0
LINE
8
BLACK
6
CONTINUOUS
10
4.22804
20
-3.13647
11
4.22604
21
-3.12798
0
LINE
8
BLACK
6
CONTINUOUS
10
4.22604
20
-3.12798
11
4.22559
21
-3.12146
0
LINE
8
BLACK
6
CONTINUOUS
10
4.22559
20
-3.12146
11
4.22559
21
-3.01909
0
LINE
8
BLACK
6
CONTINUOUS
10
4.22559
20
-3.01909
11
4.22604
21
-3.01257
0
LINE
8
BLACK
6
CONTINUOUS
10
4.22604
20
-3.01257
11
4.22804
21
-3.00408
0
LINE
8
BLACK
6
CONTINUOUS
10
4.22804
20
-3.00408
11
4.23156
21
-2.99611
0
LINE
8
BLACK
6
CONTINUOUS
10
4.23156
20
-2.99611
11
4.23649
21
-2.98891
0
LINE
8
BLACK
6
CONTINUOUS
10
4.23649
20
-2.98891
11
4.24265
21
-2.98275
0
LINE
8
BLACK
6
CONTINUOUS
10
4.24265
20
-2.98275
11
4.24985
21
-2.97782
0
LINE
8
BLACK
6
CONTINUOUS
10
4.24985
20
-2.97782
11
4.25782
21
-2.9743
0
LINE
8
BLACK
6
CONTINUOUS
10
4.25782
20
-2.9743
11
4.26631
21
-2.9723
0
LINE
8
BLACK
6
CONTINUOUS
10
4.26631
20
-2.9723
11
4.27283
21
-2.97185
0
LINE
8
BLACK
6
CONTINUOUS
10
4.27283
20
-2.97185
11
4.27936
21
-2.9723
0
LINE
8
BLACK
6
CONTINUOUS
10
3.95679
20
-2.74525
11
3.96324
21
-2.74751
0
LINE
8
BLACK
6
CONTINUOUS
10
3.96324
20
-2.74751
11
3.96902
21
-2.75114
0
LINE
8
BLACK
6
CONTINUOUS
10
3.96902
20
-2.75114
11
3.97386
21
-2.75598
0
LINE
8
BLACK
6
CONTINUOUS
10
3.97386
20
-2.75598
11
3.97749
21
-2.76176
0
LINE
8
BLACK
6
CONTINUOUS
10
3.97749
20
-2.76176
11
3.97975
21
-2.76821
0
LINE
8
BLACK
6
CONTINUOUS
10
3.97975
20
-2.76821
11
3.98051
21
-2.775
0
LINE
8
BLACK
6
CONTINUOUS
10
3.98051
20
-2.775
11
3.97975
21
-2.78179
0
LINE
8
BLACK
6
CONTINUOUS
10
3.97975
20
-2.78179
11
3.97749
21
-2.78824
0
LINE
8
BLACK
6
CONTINUOUS
10
3.97749
20
-2.78824
11
3.97386
21
-2.79402
0
LINE
8
BLACK
6
CONTINUOUS
10
3.97386
20
-2.79402
11
3.96902
21
-2.79886
0
LINE
8
BLACK
6
CONTINUOUS
10
3.96902
20
-2.79886
11
3.96324
21
-2.80249
0
LINE
8
BLACK
6
CONTINUOUS
10
3.96324
20
-2.80249
11
3.95679
21
-2.80475
0
LINE
8
BLACK
6
CONTINUOUS
10
3.95679
20
-2.80475
11
3.95
21
-2.80551
0
LINE
8
BLACK
6
CONTINUOUS
10
3.95
20
-2.80551
11
3.94321
21
-2.80475
0
LINE
8
BLACK
6
CONTINUOUS
10
3.94321
20
-2.80475
11
3.93676
21
-2.80249
0
LINE
8
BLACK
6
CONTINUOUS
10
3.93676
20
-2.80249
11
3.93098
21
-2.79886
0
LINE
8
BLACK
6
CONTINUOUS
10
3.93098
20
-2.79886
11
3.92614
21
-2.79402
0
LINE
8
BLACK
6
CONTINUOUS
10
3.92614
20
-2.79402
11
3.92251
21
-2.78824
0
LINE
8
BLACK
6
CONTINUOUS
10
3.92251
20
-2.78824
11
3.92025
21
-2.78179
0
LINE
8
BLACK
6
CONTINUOUS
10
3.92025
20
-2.78179
11
3.91949
21
-2.775
0
LINE
8
BLACK
6
CONTINUOUS
10
3.91949
20
-2.775
11
3.92025
21
-2.76821
0
LINE
8
BLACK
6
CONTINUOUS
10
3.92025
20
-2.76821
11
3.92251
21
-2.76176
0
LINE
8
BLACK
6
CONTINUOUS
10
3.92251
20
-2.76176
11
3.92614
21
-2.75598
0
LINE
8
BLACK
6
CONTINUOUS
10
3.92614
20
-2.75598
11
3.93098
21
-2.75114
0
LINE
8
BLACK
6
CONTINUOUS
10
3.93098
20
-2.75114
11
3.93676
21
-2.74751
0
LINE
8
BLACK
6
CONTINUOUS
10
3.93676
20
-2.74751
11
3.94321
21
-2.74525
0
LINE
8
BLACK
6
CONTINUOUS
10
3.94321
20
-2.74525
11
3.95
21
-2.74449
0
LINE
8
BLACK
6
CONTINUOUS
10
3.95
20
-2.74449
11
3.95679
21
-2.74525
0
LINE
8
BLACK
6
CONTINUOUS
10
4.05521
20
-2.74525
11
4.06166
21
-2.74751
0
LINE
8
BLACK
6
CONTINUOUS
10
4.06166
20
-2.74751
11
4.06745
21
-2.75114
0
LINE
8
BLACK
6
CONTINUOUS
10
4.06745
20
-2.75114
11
4.07228
21
-2.75598
0
LINE
8
BLACK
6
CONTINUOUS
10
4.07228
20
-2.75598
11
4.07592
21
-2.76176
0
LINE
8
BLACK
6
CONTINUOUS
10
4.07592
20
-2.76176
11
4.07817
21
-2.76821
0
LINE
8
BLACK
6
CONTINUOUS
10
4.07817
20
-2.76821
11
4.07894
21
-2.775
0
LINE
8
BLACK
6
CONTINUOUS
10
4.07894
20
-2.775
11
4.07817
21
-2.78179
0
LINE
8
BLACK
6
CONTINUOUS
10
4.07817
20
-2.78179
11
4.07592
21
-2.78824
0
LINE
8
BLACK
6
CONTINUOUS
10
4.07592
20
-2.78824
11
4.07228
21
-2.79402
0
LINE
8
BLACK
6
CONTINUOUS
10
4.07228
20
-2.79402
11
4.06745
21
-2.79886
0
LINE
8
BLACK
6
CONTINUOUS
10
4.06745
20
-2.79886
11
4.06166
21
-2.80249
0
LINE
8
BLACK
6
CONTINUOUS
10
4.06166
20
-2.80249
11
4.05521
21
-2.80475
0
LINE
8
BLACK
6
CONTINUOUS
10
4.05521
20
-2.80475
11
4.04843
21
-2.80551
0
LINE
8
BLACK
6
CONTINUOUS
10
4.04843
20
-2.80551
11
4.04164
21
-2.80475
0
LINE
8
BLACK
6
CONTINUOUS
10
4.04164
20
-2.80475
11
4.03519
21
-2.80249
0
LINE
8
BLACK
6
CONTINUOUS
10
4.03519
20
-2.80249
11
4.0294
21
-2.79886
0
LINE
8
BLACK
6
CONTINUOUS
10
4.0294
20
-2.79886
11
4.02457
21
-2.79402
0
LINE
8
BLACK
6
CONTINUOUS
10
4.02457
20
-2.79402
11
4.02093
21
-2.78824
0
LINE
8
BLACK
6
CONTINUOUS
10
4.02093
20
-2.78824
11
4.01868
21
-2.78179
0
LINE
8
BLACK
6
CONTINUOUS
10
4.01868
20
-2.78179
11
4.01791
21
-2.775
0
LINE
8
BLACK
6
CONTINUOUS
10
4.01791
20
-2.775
11
4.01868
21
-2.76821
0
LINE
8
BLACK
6
CONTINUOUS
10
4.01868
20
-2.76821
11
4.02093
21
-2.76176
0
LINE
8
BLACK
6
CONTINUOUS
10
4.02093
20
-2.76176
11
4.02457
21
-2.75598
0
LINE
8
BLACK
6
CONTINUOUS
10
4.02457
20
-2.75598
11
4.0294
21
-2.75114
0
LINE
8
BLACK
6
CONTINUOUS
10
4.0294
20
-2.75114
11
4.03519
21
-2.74751
0
LINE
8
BLACK
6
CONTINUOUS
10
4.03519
20
-2.74751
11
4.04164
21
-2.74525
0
LINE
8
BLACK
6
CONTINUOUS
10
4.04164
20
-2.74525
11
4.04843
21
-2.74449
0
LINE
8
BLACK
6
CONTINUOUS
10
4.04843
20
-2.74449
11
4.05521
21
-2.74525
0
LINE
8
BLACK
6
CONTINUOUS
10
4.17736
20
-2.80551
11
4.11634
21
-2.80551
0
LINE
8
BLACK
6
CONTINUOUS
10
4.11634
20
-2.80551
11
4.11634
21
-2.74449
0
LINE
8
BLACK
6
CONTINUOUS
10
4.11634
20
-2.74449
11
4.17736
21
-2.74449
0
LINE
8
BLACK
6
CONTINUOUS
10
4.17736
20
-2.74449
11
4.17736
21
-2.80551
0
LINE
8
BLACK
6
CONTINUOUS
10
2.81095
20
-2.5539
11
2.81772
21
-2.55691
0
LINE
8
BLACK
6
CONTINUOUS
10
2.81772
20
-2.55691
11
2.82371
21
-2.56127
0
LINE
8
BLACK
6
CONTINUOUS
10
2.82371
20
-2.56127
11
2.82867
21
-2.56677
0
LINE
8
BLACK
6
CONTINUOUS
10
2.82867
20
-2.56677
11
2.83237
21
-2.57319
0
LINE
8
BLACK
6
CONTINUOUS
10
2.83237
20
-2.57319
11
2.83466
21
-2.58023
0
LINE
8
BLACK
6
CONTINUOUS
10
2.83466
20
-2.58023
11
2.83543
21
-2.5876
0
LINE
8
BLACK
6
CONTINUOUS
10
2.83543
20
-2.5876
11
2.83543
21
-2.625
0
LINE
8
BLACK
6
CONTINUOUS
10
2.83543
20
-2.625
11
2.83466
21
-2.63237
0
LINE
8
BLACK
6
CONTINUOUS
10
2.83466
20
-2.63237
11
2.83237
21
-2.63941
0
LINE
8
BLACK
6
CONTINUOUS
10
2.83237
20
-2.63941
11
2.82867
21
-2.64583
0
LINE
8
BLACK
6
CONTINUOUS
10
2.82867
20
-2.64583
11
2.82371
21
-2.65133
0
LINE
8
BLACK
6
CONTINUOUS
10
2.82371
20
-2.65133
11
2.81772
21
-2.65569
0
LINE
8
BLACK
6
CONTINUOUS
10
2.81772
20
-2.65569
11
2.81095
21
-2.6587
0
LINE
8
BLACK
6
CONTINUOUS
10
2.81095
20
-2.6587
11
2.8037
21
-2.66024
0
LINE
8
BLACK
6
CONTINUOUS
10
2.8037
20
-2.66024
11
2.7963
21
-2.66024
0
LINE
8
BLACK
6
CONTINUOUS
10
2.7963
20
-2.66024
11
2.78905
21
-2.6587
0
LINE
8
BLACK
6
CONTINUOUS
10
2.78905
20
-2.6587
11
2.78228
21
-2.65569
0
LINE
8
BLACK
6
CONTINUOUS
10
2.78228
20
-2.65569
11
2.77629
21
-2.65133
0
LINE
8
BLACK
6
CONTINUOUS
10
2.77629
20
-2.65133
11
2.77133
21
-2.64583
0
LINE
8
BLACK
6
CONTINUOUS
10
2.77133
20
-2.64583
11
2.76763
21
-2.63941
0
LINE
8
BLACK
6
CONTINUOUS
10
2.76763
20
-2.63941
11
2.76534
21
-2.63237
0
LINE
8
BLACK
6
CONTINUOUS
10
2.76534
20
-2.63237
11
2.76457
21
-2.625
0
LINE
8
BLACK
6
CONTINUOUS
10
2.76457
20
-2.625
11
2.76457
21
-2.5876
0
LINE
8
BLACK
6
CONTINUOUS
10
2.76457
20
-2.5876
11
2.76534
21
-2.58023
0
LINE
8
BLACK
6
CONTINUOUS
10
2.76534
20
-2.58023
11
2.76763
21
-2.57319
0
LINE
8
BLACK
6
CONTINUOUS
10
2.76763
20
-2.57319
11
2.77133
21
-2.56677
0
LINE
8
BLACK
6
CONTINUOUS
10
2.77133
20
-2.56677
11
2.77629
21
-2.56127
0
LINE
8
BLACK
6
CONTINUOUS
10
2.77629
20
-2.56127
11
2.78228
21
-2.55691
0
LINE
8
BLACK
6
CONTINUOUS
10
2.78228
20
-2.55691
11
2.78905
21
-2.5539
0
LINE
8
BLACK
6
CONTINUOUS
10
2.78905
20
-2.5539
11
2.7963
21
-2.55236
0
LINE
8
BLACK
6
CONTINUOUS
10
2.7963
20
-2.55236
11
2.8037
21
-2.55236
0
LINE
8
BLACK
6
CONTINUOUS
10
2.8037
20
-2.55236
11
2.81095
21
-2.5539
0
LINE
8
BLACK
6
CONTINUOUS
10
2.91095
20
-2.5539
11
2.91772
21
-2.55691
0
LINE
8
BLACK
6
CONTINUOUS
10
2.91772
20
-2.55691
11
2.92371
21
-2.56127
0
LINE
8
BLACK
6
CONTINUOUS
10
2.92371
20
-2.56127
11
2.92867
21
-2.56677
0
LINE
8
BLACK
6
CONTINUOUS
10
2.92867
20
-2.56677
11
2.93237
21
-2.57319
0
LINE
8
BLACK
6
CONTINUOUS
10
2.93237
20
-2.57319
11
2.93466
21
-2.58023
0
LINE
8
BLACK
6
CONTINUOUS
10
2.93466
20
-2.58023
11
2.93543
21
-2.5876
0
LINE
8
BLACK
6
CONTINUOUS
10
2.93543
20
-2.5876
11
2.93543
21
-2.625
0
LINE
8
BLACK
6
CONTINUOUS
10
2.93543
20
-2.625
11
2.93466
21
-2.63237
0
LINE
8
BLACK
6
CONTINUOUS
10
2.93466
20
-2.63237
11
2.93237
21
-2.63941
0
LINE
8
BLACK
6
CONTINUOUS
10
2.93237
20
-2.63941
11
2.92867
21
-2.64583
0
LINE
8
BLACK
6
CONTINUOUS
10
2.92867
20
-2.64583
11
2.92371
21
-2.65133
0
LINE
8
BLACK
6
CONTINUOUS
10
2.92371
20
-2.65133
11
2.91772
21
-2.65569
0
LINE
8
BLACK
6
CONTINUOUS
10
2.91772
20
-2.65569
11
2.91095
21
-2.6587
0
LINE
8
BLACK
6
CONTINUOUS
10
2.91095
20
-2.6587
11
2.9037
21
-2.66024
0
LINE
8
BLACK
6
CONTINUOUS
10
2.9037
20
-2.66024
11
2.8963
21
-2.66024
0
LINE
8
BLACK
6
CONTINUOUS
10
2.8963
20
-2.66024
11
2.88905
21
-2.6587
0
LINE
8
BLACK
6
CONTINUOUS
10
2.88905
20
-2.6587
11
2.88228
21
-2.65569
0
LINE
8
BLACK
6
CONTINUOUS
10
2.88228
20
-2.65569
11
2.87629
21
-2.65133
0
LINE
8
BLACK
6
CONTINUOUS
10
2.87629
20
-2.65133
11
2.87133
21
-2.64583
0
LINE
8
BLACK
6
CONTINUOUS
10
2.87133
20
-2.64583
11
2.86763
21
-2.63941
0
LINE
8
BLACK
6
CONTINUOUS
10
2.86763
20
-2.63941
11
2.86534
21
-2.63237
0
LINE
8
BLACK
6
CONTINUOUS
10
2.86534
20
-2.63237
11
2.86457
21
-2.625
0
LINE
8
BLACK
6
CONTINUOUS
10
2.86457
20
-2.625
11
2.86457
21
-2.5876
0
LINE
8
BLACK
6
CONTINUOUS
10
2.86457
20
-2.5876
11
2.86534
21
-2.58023
0
LINE
8
BLACK
6
CONTINUOUS
10
2.86534
20
-2.58023
11
2.86763
21
-2.57319
0
LINE
8
BLACK
6
CONTINUOUS
10
2.86763
20
-2.57319
11
2.87133
21
-2.56677
0
LINE
8
BLACK
6
CONTINUOUS
10
2.87133
20
-2.56677
11
2.87629
21
-2.56127
0
LINE
8
BLACK
6
CONTINUOUS
10
2.87629
20
-2.56127
11
2.88228
21
-2.55691
0
LINE
8
BLACK
6
CONTINUOUS
10
2.88228
20
-2.55691
11
2.88905
21
-2.5539
0
LINE
8
BLACK
6
CONTINUOUS
10
2.88905
20
-2.5539
11
2.8963
21
-2.55236
0
LINE
8
BLACK
6
CONTINUOUS
10
2.8963
20
-2.55236
11
2.9037
21
-2.55236
0
LINE
8
BLACK
6
CONTINUOUS
10
2.9037
20
-2.55236
11
2.91095
21
-2.5539
0
LINE
8
BLACK
6
CONTINUOUS
10
3.01095
20
-2.5539
11
3.01772
21
-2.55691
0
LINE
8
BLACK
6
CONTINUOUS
10
3.01772
20
-2.55691
11
3.02371
21
-2.56127
0
LINE
8
BLACK
6
CONTINUOUS
10
3.02371
20
-2.56127
11
3.02867
21
-2.56677
0
LINE
8
BLACK
6
CONTINUOUS
10
3.02867
20
-2.56677
11
3.03237
21
-2.57319
0
LINE
8
BLACK
6
CONTINUOUS
10
3.03237
20
-2.57319
11
3.03466
21
-2.58023
0
LINE
8
BLACK
6
CONTINUOUS
10
3.03466
20
-2.58023
11
3.03543
21
-2.5876
0
LINE
8
BLACK
6
CONTINUOUS
10
3.03543
20
-2.5876
11
3.03543
21
-2.625
0
LINE
8
BLACK
6
CONTINUOUS
10
3.03543
20
-2.625
11
3.03466
21
-2.63237
0
LINE
8
BLACK
6
CONTINUOUS
10
3.03466
20
-2.63237
11
3.03237
21
-2.63941
0
LINE
8
BLACK
6
CONTINUOUS
10
3.03237
20
-2.63941
11
3.02867
21
-2.64583
0
LINE
8
BLACK
6
CONTINUOUS
10
3.02867
20
-2.64583
11
3.02371
21
-2.65133
0
LINE
8
BLACK
6
CONTINUOUS
10
3.02371
20
-2.65133
11
3.01772
21
-2.65569
0
LINE
8
BLACK
6
CONTINUOUS
10
3.01772
20
-2.65569
11
3.01095
21
-2.6587
0
LINE
8
BLACK
6
CONTINUOUS
10
3.01095
20
-2.6587
11
3.0037
21
-2.66024
0
LINE
8
BLACK
6
CONTINUOUS
10
3.0037
20
-2.66024
11
2.9963
21
-2.66024
0
LINE
8
BLACK
6
CONTINUOUS
10
2.9963
20
-2.66024
11
2.98905
21
-2.6587
0
LINE
8
BLACK
6
CONTINUOUS
10
2.98905
20
-2.6587
11
2.98228
21
-2.65569
0
LINE
8
BLACK
6
CONTINUOUS
10
2.98228
20
-2.65569
11
2.97629
21
-2.65133
0
LINE
8
BLACK
6
CONTINUOUS
10
2.97629
20
-2.65133
11
2.97133
21
-2.64583
0
LINE
8
BLACK
6
CONTINUOUS
10
2.97133
20
-2.64583
11
2.96763
21
-2.63941
0
LINE
8
BLACK
6
CONTINUOUS
10
2.96763
20
-2.63941
11
2.96534
21
-2.63237
0
LINE
8
BLACK
6
CONTINUOUS
10
2.96534
20
-2.63237
11
2.96457
21
-2.625
0
LINE
8
BLACK
6
CONTINUOUS
10
2.96457
20
-2.625
11
2.96457
21
-2.5876
0
LINE
8
BLACK
6
CONTINUOUS
10
2.96457
20
-2.5876
11
2.96534
21
-2.58023
0
LINE
8
BLACK
6
CONTINUOUS
10
2.96534
20
-2.58023
11
2.96763
21
-2.57319
0
LINE
8
BLACK
6
CONTINUOUS
10
2.96763
20
-2.57319
11
2.97133
21
-2.56677
0
LINE
8
BLACK
6
CONTINUOUS
10
2.97133
20
-2.56677
11
2.97629
21
-2.56127
0
LINE
8
BLACK
6
CONTINUOUS
10
2.97629
20
-2.56127
11
2.98228
21
-2.55691
0
LINE
8
BLACK
6
CONTINUOUS
10
2.98228
20
-2.55691
11
2.98905
21
-2.5539
0
LINE
8
BLACK
6
CONTINUOUS
10
2.98905
20
-2.5539
11
2.9963
21
-2.55236
0
LINE
8
BLACK
6
CONTINUOUS
10
2.9963
20
-2.55236
11
3.0037
21
-2.55236
0
LINE
8
BLACK
6
CONTINUOUS
10
3.0037
20
-2.55236
11
3.01095
21
-2.5539
0
LINE
8
BLACK
6
CONTINUOUS
10
3.11095
20
-2.5539
11
3.11772
21
-2.55691
0
LINE
8
BLACK
6
CONTINUOUS
10
3.11772
20
-2.55691
11
3.12371
21
-2.56127
0
LINE
8
BLACK
6
CONTINUOUS
10
3.12371
20
-2.56127
11
3.12867
21
-2.56677
0
LINE
8
BLACK
6
CONTINUOUS
10
3.12867
20
-2.56677
11
3.13237
21
-2.57319
0
LINE
8
BLACK
6
CONTINUOUS
10
3.13237
20
-2.57319
11
3.13466
21
-2.58023
0
LINE
8
BLACK
6
CONTINUOUS
10
3.13466
20
-2.58023
11
3.13543
21
-2.5876
0
LINE
8
BLACK
6
CONTINUOUS
10
3.13543
20
-2.5876
11
3.13543
21
-2.625
0
LINE
8
BLACK
6
CONTINUOUS
10
3.13543
20
-2.625
11
3.13466
21
-2.63237
0
LINE
8
BLACK
6
CONTINUOUS
10
3.13466
20
-2.63237
11
3.13237
21
-2.63941
0
LINE
8
BLACK
6
CONTINUOUS
10
3.13237
20
-2.63941
11
3.12867
21
-2.64583
0
LINE
8
BLACK
6
CONTINUOUS
10
3.12867
20
-2.64583
11
3.12371
21
-2.65133
0
LINE
8
BLACK
6
CONTINUOUS
10
3.12371
20
-2.65133
11
3.11772
21
-2.65569
0
LINE
8
BLACK
6
CONTINUOUS
10
3.11772
20
-2.65569
11
3.11095
21
-2.6587
0
LINE
8
BLACK
6
CONTINUOUS
10
3.11095
20
-2.6587
11
3.1037
21
-2.66024
0
LINE
8
BLACK
6
CONTINUOUS
10
3.1037
20
-2.66024
11
3.0963
21
-2.66024
0
LINE
8
BLACK
6
CONTINUOUS
10
3.0963
20
-2.66024
11
3.08905
21
-2.6587
0
LINE
8
BLACK
6
CONTINUOUS
10
3.08905
20
-2.6587
11
3.08228
21
-2.65569
0
LINE
8
BLACK
6
CONTINUOUS
10
3.08228
20
-2.65569
11
3.07629
21
-2.65133
0
LINE
8
BLACK
6
CONTINUOUS
10
3.07629
20
-2.65133
11
3.07133
21
-2.64583
0
LINE
8
BLACK
6
CONTINUOUS
10
3.07133
20
-2.64583
11
3.06763
21
-2.63941
0
LINE
8
BLACK
6
CONTINUOUS
10
3.06763
20
-2.63941
11
3.06534
21
-2.63237
0
LINE
8
BLACK
6
CONTINUOUS
10
3.06534
20
-2.63237
11
3.06457
21
-2.625
0
LINE
8
BLACK
6
CONTINUOUS
10
3.06457
20
-2.625
11
3.06457
21
-2.5876
0
LINE
8
BLACK
6
CONTINUOUS
10
3.06457
20
-2.5876
11
3.06534
21
-2.58023
0
LINE
8
BLACK
6
CONTINUOUS
10
3.06534
20
-2.58023
11
3.06763
21
-2.57319
0
LINE
8
BLACK
6
CONTINUOUS
10
3.06763
20
-2.57319
11
3.07133
21
-2.56677
0
LINE
8
BLACK
6
CONTINUOUS
10
3.07133
20
-2.56677
11
3.07629
21
-2.56127
0
LINE
8
BLACK
6
CONTINUOUS
10
3.07629
20
-2.56127
11
3.08228
21
-2.55691
0
LINE
8
BLACK
6
CONTINUOUS
10
3.08228
20
-2.55691
11
3.08905
21
-2.5539
0
LINE
8
BLACK
6
CONTINUOUS
10
3.08905
20
-2.5539
11
3.0963
21
-2.55236
0
LINE
8
BLACK
6
CONTINUOUS
10
3.0963
20
-2.55236
11
3.1037
21
-2.55236
0
LINE
8
BLACK
6
CONTINUOUS
10
3.1037
20
-2.55236
11
3.11095
21
-2.5539
0
LINE
8
BLACK
6
CONTINUOUS
10
3.21095
20
-2.5539
11
3.21772
21
-2.55691
0
LINE
8
BLACK
6
CONTINUOUS
10
3.21772
20
-2.55691
11
3.22371
21
-2.56127
0
LINE
8
BLACK
6
CONTINUOUS
10
3.22371
20
-2.56127
11
3.22867
21
-2.56677
0
LINE
8
BLACK
6
CONTINUOUS
10
3.22867
20
-2.56677
11
3.23237
21
-2.57319
0
LINE
8
BLACK
6
CONTINUOUS
10
3.23237
20
-2.57319
11
3.23466
21
-2.58023
0
LINE
8
BLACK
6
CONTINUOUS
10
3.23466
20
-2.58023
11
3.23543
21
-2.5876
0
LINE
8
BLACK
6
CONTINUOUS
10
3.23543
20
-2.5876
11
3.23543
21
-2.625
0
LINE
8
BLACK
6
CONTINUOUS
10
3.23543
20
-2.625
11
3.23466
21
-2.63237
0
LINE
8
BLACK
6
CONTINUOUS
10
3.23466
20
-2.63237
11
3.23237
21
-2.63941
0
LINE
8
BLACK
6
CONTINUOUS
10
3.23237
20
-2.63941
11
3.22867
21
-2.64583
0
LINE
8
BLACK
6
CONTINUOUS
10
3.22867
20
-2.64583
11
3.22371
21
-2.65133
0
LINE
8
BLACK
6
CONTINUOUS
10
3.22371
20
-2.65133
11
3.21772
21
-2.65569
0
LINE
8
BLACK
6
CONTINUOUS
10
3.21772
20
-2.65569
11
3.21095
21
-2.6587
0
LINE
8
BLACK
6
CONTINUOUS
10
3.21095
20
-2.6587
11
3.2037
21
-2.66024
0
LINE
8
BLACK
6
CONTINUOUS
10
3.2037
20
-2.66024
11
3.1963
21
-2.66024
0
LINE
8
BLACK
6
CONTINUOUS
10
3.1963
20
-2.66024
11
3.18905
21
-2.6587
0
LINE
8
BLACK
6
CONTINUOUS
10
3.18905
20
-2.6587
11
3.18228
21
-2.65569
0
LINE
8
BLACK
6
CONTINUOUS
10
3.18228
20
-2.65569
11
3.17629
21
-2.65133
0
LINE
8
BLACK
6
CONTINUOUS
10
3.17629
20
-2.65133
11
3.17133
21
-2.64583
0
LINE
8
BLACK
6
CONTINUOUS
10
3.17133
20
-2.64583
11
3.16763
21
-2.63941
0
LINE
8
BLACK
6
CONTINUOUS
10
3.16763
20
-2.63941
11
3.16534
21
-2.63237
0
LINE
8
BLACK
6
CONTINUOUS
10
3.16534
20
-2.63237
11
3.16457
21
-2.625
0
LINE
8
BLACK
6
CONTINUOUS
10
3.16457
20
-2.625
11
3.16457
21
-2.5876
0
LINE
8
BLACK
6
CONTINUOUS
10
3.16457
20
-2.5876
11
3.16534
21
-2.58023
0
LINE
8
BLACK
6
CONTINUOUS
10
3.16534
20
-2.58023
11
3.16763
21
-2.57319
0
LINE
8
BLACK
6
CONTINUOUS
10
3.16763
20
-2.57319
11
3.17133
21
-2.56677
0
LINE
8
BLACK
6
CONTINUOUS
10
3.17133
20
-2.56677
11
3.17629
21
-2.56127
0
LINE
8
BLACK
6
CONTINUOUS
10
3.17629
20
-2.56127
11
3.18228
21
-2.55691
0
LINE
8
BLACK
6
CONTINUOUS
10
3.18228
20
-2.55691
11
3.18905
21
-2.5539
0
LINE
8
BLACK
6
CONTINUOUS
10
3.18905
20
-2.5539
11
3.1963
21
-2.55236
0
LINE
8
BLACK
6
CONTINUOUS
10
3.1963
20
-2.55236
11
3.2037
21
-2.55236
0
LINE
8
BLACK
6
CONTINUOUS
10
3.2037
20
-2.55236
11
3.21095
21
-2.5539
0
LINE
8
BLACK
6
CONTINUOUS
10
3.31095
20
-2.5539
11
3.31772
21
-2.55691
0
LINE
8
BLACK
6
CONTINUOUS
10
3.31772
20
-2.55691
11
3.32371
21
-2.56127
0
LINE
8
BLACK
6
CONTINUOUS
10
3.32371
20
-2.56127
11
3.32867
21
-2.56677
0
LINE
8
BLACK
6
CONTINUOUS
10
3.32867
20
-2.56677
11
3.33237
21
-2.57319
0
LINE
8
BLACK
6
CONTINUOUS
10
3.33237
20
-2.57319
11
3.33466
21
-2.58023
0
LINE
8
BLACK
6
CONTINUOUS
10
3.33466
20
-2.58023
11
3.33543
21
-2.5876
0
LINE
8
BLACK
6
CONTINUOUS
10
3.33543
20
-2.5876
11
3.33543
21
-2.625
0
LINE
8
BLACK
6
CONTINUOUS
10
3.33543
20
-2.625
11
3.33466
21
-2.63237
0
LINE
8
BLACK
6
CONTINUOUS
10
3.33466
20
-2.63237
11
3.33237
21
-2.63941
0
LINE
8
BLACK
6
CONTINUOUS
10
3.33237
20
-2.63941
11
3.32867
21
-2.64583
0
LINE
8
BLACK
6
CONTINUOUS
10
3.32867
20
-2.64583
11
3.32371
21
-2.65133
0
LINE
8
BLACK
6
CONTINUOUS
10
3.32371
20
-2.65133
11
3.31772
21
-2.65569
0
LINE
8
BLACK
6
CONTINUOUS
10
3.31772
20
-2.65569
11
3.31095
21
-2.6587
0
LINE
8
BLACK
6
CONTINUOUS
10
3.31095
20
-2.6587
11
3.3037
21
-2.66024
0
LINE
8
BLACK
6
CONTINUOUS
10
3.3037
20
-2.66024
11
3.2963
21
-2.66024
0
LINE
8
BLACK
6
CONTINUOUS
10
3.2963
20
-2.66024
11
3.28905
21
-2.6587
0
LINE
8
BLACK
6
CONTINUOUS
10
3.28905
20
-2.6587
11
3.28228
21
-2.65569
0
LINE
8
BLACK
6
CONTINUOUS
10
3.28228
20
-2.65569
11
3.27629
21
-2.65133
0
LINE
8
BLACK
6
CONTINUOUS
10
3.27629
20
-2.65133
11
3.27133
21
-2.64583
0
LINE
8
BLACK
6
CONTINUOUS
10
3.27133
20
-2.64583
11
3.26763
21
-2.63941
0
LINE
8
BLACK
6
CONTINUOUS
10
3.26763
20
-2.63941
11
3.26534
21
-2.63237
0
LINE
8
BLACK
6
CONTINUOUS
10
3.26534
20
-2.63237
11
3.26457
21
-2.625
0
LINE
8
BLACK
6
CONTINUOUS
10
3.26457
20
-2.625
11
3.26457
21
-2.5876
0
LINE
8
BLACK
6
CONTINUOUS
10
3.26457
20
-2.5876
11
3.26534
21
-2.58023
0
LINE
8
BLACK
6
CONTINUOUS
10
3.26534
20
-2.58023
11
3.26763
21
-2.57319
0
LINE
8
BLACK
6
CONTINUOUS
10
3.26763
20
-2.57319
11
3.27133
21
-2.56677
0
LINE
8
BLACK
6
CONTINUOUS
10
3.27133
20
-2.56677
11
3.27629
21
-2.56127
0
LINE
8
BLACK
6
CONTINUOUS
10
3.27629
20
-2.56127
11
3.28228
21
-2.55691
0
LINE
8
BLACK
6
CONTINUOUS
10
3.28228
20
-2.55691
11
3.28905
21
-2.5539
0
LINE
8
BLACK
6
CONTINUOUS
10
3.28905
20
-2.5539
11
3.2963
21
-2.55236
0
LINE
8
BLACK
6
CONTINUOUS
10
3.2963
20
-2.55236
11
3.3037
21
-2.55236
0
LINE
8
BLACK
6
CONTINUOUS
10
3.3037
20
-2.55236
11
3.31095
21
-2.5539
0
LINE
8
BLACK
6
CONTINUOUS
10
3.41095
20
-2.5539
11
3.41772
21
-2.55691
0
LINE
8
BLACK
6
CONTINUOUS
10
3.41772
20
-2.55691
11
3.42371
21
-2.56127
0
LINE
8
BLACK
6
CONTINUOUS
10
3.42371
20
-2.56127
11
3.42867
21
-2.56677
0
LINE
8
BLACK
6
CONTINUOUS
10
3.42867
20
-2.56677
11
3.43237
21
-2.57319
0
LINE
8
BLACK
6
CONTINUOUS
10
3.43237
20
-2.57319
11
3.43466
21
-2.58023
0
LINE
8
BLACK
6
CONTINUOUS
10
3.43466
20
-2.58023
11
3.43543
21
-2.5876
0
LINE
8
BLACK
6
CONTINUOUS
10
3.43543
20
-2.5876
11
3.43543
21
-2.625
0
LINE
8
BLACK
6
CONTINUOUS
10
3.43543
20
-2.625
11
3.43466
21
-2.63237
0
LINE
8
BLACK
6
CONTINUOUS
10
3.43466
20
-2.63237
11
3.43237
21
-2.63941
0
LINE
8
BLACK
6
CONTINUOUS
10
3.43237
20
-2.63941
11
3.42867
21
-2.64583
0
LINE
8
BLACK
6
CONTINUOUS
10
3.42867
20
-2.64583
11
3.42371
21
-2.65133
0
LINE
8
BLACK
6
CONTINUOUS
10
3.42371
20
-2.65133
11
3.41772
21
-2.65569
0
LINE
8
BLACK
6
CONTINUOUS
10
3.41772
20
-2.65569
11
3.41095
21
-2.6587
0
LINE
8
BLACK
6
CONTINUOUS
10
3.41095
20
-2.6587
11
3.4037
21
-2.66024
0
LINE
8
BLACK
6
CONTINUOUS
10
3.4037
20
-2.66024
11
3.3963
21
-2.66024
0
LINE
8
BLACK
6
CONTINUOUS
10
3.3963
20
-2.66024
11
3.38905
21
-2.6587
0
LINE
8
BLACK
6
CONTINUOUS
10
3.38905
20
-2.6587
11
3.38228
21
-2.65569
0
LINE
8
BLACK
6
CONTINUOUS
10
3.38228
20
-2.65569
11
3.37629
21
-2.65133
0
LINE
8
BLACK
6
CONTINUOUS
10
3.37629
20
-2.65133
11
3.37133
21
-2.64583
0
LINE
8
BLACK
6
CONTINUOUS
10
3.37133
20
-2.64583
11
3.36763
21
-2.63941
0
LINE
8
BLACK
6
CONTINUOUS
10
3.36763
20
-2.63941
11
3.36534
21
-2.63237
0
LINE
8
BLACK
6
CONTINUOUS
10
3.36534
20
-2.63237
11
3.36457
21
-2.625
0
LINE
8
BLACK
6
CONTINUOUS
10
3.36457
20
-2.625
11
3.36457
21
-2.5876
0
LINE
8
BLACK
6
CONTINUOUS
10
3.36457
20
-2.5876
11
3.36534
21
-2.58023
0
LINE
8
BLACK
6
CONTINUOUS
10
3.36534
20
-2.58023
11
3.36763
21
-2.57319
0
LINE
8
BLACK
6
CONTINUOUS
10
3.36763
20
-2.57319
11
3.37133
21
-2.56677
0
LINE
8
BLACK
6
CONTINUOUS
10
3.37133
20
-2.56677
11
3.37629
21
-2.56127
0
LINE
8
BLACK
6
CONTINUOUS
10
3.37629
20
-2.56127
11
3.38228
21
-2.55691
0
LINE
8
BLACK
6
CONTINUOUS
10
3.38228
20
-2.55691
11
3.38905
21
-2.5539
0
LINE
8
BLACK
6
CONTINUOUS
10
3.38905
20
-2.5539
11
3.3963
21
-2.55236
0
LINE
8
BLACK
6
CONTINUOUS
10
3.3963
20
-2.55236
11
3.4037
21
-2.55236
0
LINE
8
BLACK
6
CONTINUOUS
10
3.4037
20
-2.55236
11
3.41095
21
-2.5539
0
LINE
8
BLACK
6
CONTINUOUS
10
3.31121
20
-1.99706
11
3.32218
21
-1.99945
0
LINE
8
BLACK
6
CONTINUOUS
10
3.32218
20
-1.99945
11
3.33271
21
-2.00338
0
LINE
8
BLACK
6
CONTINUOUS
10
3.33271
20
-2.00338
11
3.34257
21
-2.00876
0
LINE
8
BLACK
6
CONTINUOUS
10
3.34257
20
-2.00876
11
3.35156
21
-2.01549
0
LINE
8
BLACK
6
CONTINUOUS
10
3.35156
20
-2.01549
11
3.35951
21
-2.02344
0
LINE
8
BLACK
6
CONTINUOUS
10
3.35951
20
-2.02344
11
3.36624
21
-2.03243
0
LINE
8
BLACK
6
CONTINUOUS
10
3.36624
20
-2.03243
11
3.37162
21
-2.04229
0
LINE
8
BLACK
6
CONTINUOUS
10
3.37162
20
-2.04229
11
3.37555
21
-2.05282
0
LINE
8
BLACK
6
CONTINUOUS
10
3.37555
20
-2.05282
11
3.37794
21
-2.06379
0
LINE
8
BLACK
6
CONTINUOUS
10
3.37794
20
-2.06379
11
3.37874
21
-2.075
0
LINE
8
BLACK
6
CONTINUOUS
10
3.37874
20
-2.075
11
3.37794
21
-2.08621
0
LINE
8
BLACK
6
CONTINUOUS
10
3.37794
20
-2.08621
11
3.37555
21
-2.09718
0
LINE
8
BLACK
6
CONTINUOUS
10
3.37555
20
-2.09718
11
3.37162
21
-2.10771
0
LINE
8
BLACK
6
CONTINUOUS
10
3.37162
20
-2.10771
11
3.36624
21
-2.11757
0
LINE
8
BLACK
6
CONTINUOUS
10
3.36624
20
-2.11757
11
3.35951
21
-2.12656
0
LINE
8
BLACK
6
CONTINUOUS
10
3.35951
20
-2.12656
11
3.35156
21
-2.13451
0
LINE
8
BLACK
6
CONTINUOUS
10
3.35156
20
-2.13451
11
3.34257
21
-2.14124
0
LINE
8
BLACK
6
CONTINUOUS
10
3.34257
20
-2.14124
11
3.33271
21
-2.14662
0
LINE
8
BLACK
6
CONTINUOUS
10
3.33271
20
-2.14662
11
3.32218
21
-2.15055
0
LINE
8
BLACK
6
CONTINUOUS
10
3.32218
20
-2.15055
11
3.31121
21
-2.15294
0
LINE
8
BLACK
6
CONTINUOUS
10
3.31121
20
-2.15294
11
3.3
21
-2.15374
0
LINE
8
BLACK
6
CONTINUOUS
10
3.3
20
-2.15374
11
3.28879
21
-2.15294
0
LINE
8
BLACK
6
CONTINUOUS
10
3.28879
20
-2.15294
11
3.27782
21
-2.15055
0
LINE
8
BLACK
6
CONTINUOUS
10
3.27782
20
-2.15055
11
3.26729
21
-2.14662
0
LINE
8
BLACK
6
CONTINUOUS
10
3.26729
20
-2.14662
11
3.25743
21
-2.14124
0
LINE
8
BLACK
6
CONTINUOUS
10
3.25743
20
-2.14124
11
3.24844
21
-2.13451
0
LINE
8
BLACK
6
CONTINUOUS
10
3.24844
20
-2.13451
11
3.24049
21
-2.12656
0
LINE
8
BLACK
6
CONTINUOUS
10
3.24049
20
-2.12656
11
3.23376
21
-2.11757
0
LINE
8
BLACK
6
CONTINUOUS
10
3.23376
20
-2.11757
11
3.22838
21
-2.10771
0
LINE
8
BLACK
6
CONTINUOUS
10
3.22838
20
-2.10771
11
3.22445
21
-2.09718
0
LINE
8
BLACK
6
CONTINUOUS
10
3.22445
20
-2.09718
11
3.22206
21
-2.08621
0
LINE
8
BLACK
6
CONTINUOUS
10
3.22206
20
-2.08621
11
3.22126
21
-2.075
0
LINE
8
BLACK
6
CONTINUOUS
10
3.22126
20
-2.075
11
3.22206
21
-2.06379
0
LINE
8
BLACK
6
CONTINUOUS
10
3.22206
20
-2.06379
11
3.22445
21
-2.05282
0
LINE
8
BLACK
6
CONTINUOUS
10
3.22445
20
-2.05282
11
3.22838
21
-2.04229
0
LINE
8
BLACK
6
CONTINUOUS
10
3.22838
20
-2.04229
11
3.23376
21
-2.03243
0
LINE
8
BLACK
6
CONTINUOUS
10
3.23376
20
-2.03243
11
3.24049
21
-2.02344
0
LINE
8
BLACK
6
CONTINUOUS
10
3.24049
20
-2.02344
11
3.24844
21
-2.01549
0
LINE
8
BLACK
6
CONTINUOUS
10
3.24844
20
-2.01549
11
3.25743
21
-2.00876
0
LINE
8
BLACK
6
CONTINUOUS
10
3.25743
20
-2.00876
11
3.26729
21
-2.00338
0
LINE
8
BLACK
6
CONTINUOUS
10
3.26729
20
-2.00338
11
3.27782
21
-1.99945
0
LINE
8
BLACK
6
CONTINUOUS
10
3.27782
20
-1.99945
11
3.28879
21
-1.99706
0
LINE
8
BLACK
6
CONTINUOUS
10
3.28879
20
-1.99706
11
3.3
21
-1.99626
0
LINE
8
BLACK
6
CONTINUOUS
10
3.3
20
-1.99626
11
3.31121
21
-1.99706
0
LINE
8
BLACK
6
CONTINUOUS
10
4.06121
20
-1.99706
11
4.07218
21
-1.99945
0
LINE
8
BLACK
6
CONTINUOUS
10
4.07218
20
-1.99945
11
4.08271
21
-2.00338
0
LINE
8
BLACK
6
CONTINUOUS
10
4.08271
20
-2.00338
11
4.09257
21
-2.00876
0
LINE
8
BLACK
6
CONTINUOUS
10
4.09257
20
-2.00876
11
4.10156
21
-2.01549
0
LINE
8
BLACK
6
CONTINUOUS
10
4.10156
20
-2.01549
11
4.10951
21
-2.02344
0
LINE
8
BLACK
6
CONTINUOUS
10
4.10951
20
-2.02344
11
4.11624
21
-2.03243
0
LINE
8
BLACK
6
CONTINUOUS
10
4.11624
20
-2.03243
11
4.12162
21
-2.04229
0
LINE
8
BLACK
6
CONTINUOUS
10
4.12162
20
-2.04229
11
4.12555
21
-2.05282
0
LINE
8
BLACK
6
CONTINUOUS
10
4.12555
20
-2.05282
11
4.12794
21
-2.06379
0
LINE
8
BLACK
6
CONTINUOUS
10
4.12794
20
-2.06379
11
4.12874
21
-2.075
0
LINE
8
BLACK
6
CONTINUOUS
10
4.12874
20
-2.075
11
4.12794
21
-2.08621
0
LINE
8
BLACK
6
CONTINUOUS
10
4.12794
20
-2.08621
11
4.12555
21
-2.09718
0
LINE
8
BLACK
6
CONTINUOUS
10
4.12555
20
-2.09718
11
4.12162
21
-2.10771
0
LINE
8
BLACK
6
CONTINUOUS
10
4.12162
20
-2.10771
11
4.11624
21
-2.11757
0
LINE
8
BLACK
6
CONTINUOUS
10
4.11624
20
-2.11757
11
4.10951
21
-2.12656
0
LINE
8
BLACK
6
CONTINUOUS
10
4.10951
20
-2.12656
11
4.10156
21
-2.13451
0
LINE
8
BLACK
6
CONTINUOUS
10
4.10156
20
-2.13451
11
4.09257
21
-2.14124
0
LINE
8
BLACK
6
CONTINUOUS
10
4.09257
20
-2.14124
11
4.08271
21
-2.14662
0
LINE
8
BLACK
6
CONTINUOUS
10
4.08271
20
-2.14662
11
4.07218
21
-2.15055
0
LINE
8
BLACK
6
CONTINUOUS
10
4.07218
20
-2.15055
11
4.06121
21
-2.15294
0
LINE
8
BLACK
6
CONTINUOUS
10
4.06121
20
-2.15294
11
4.05
21
-2.15374
0
LINE
8
BLACK
6
CONTINUOUS
10
4.05
20
-2.15374
11
4.03879
21
-2.15294
0
LINE
8
BLACK
6
CONTINUOUS
10
4.03879
20
-2.15294
11
4.02782
21
-2.15055
0
LINE
8
BLACK
6
CONTINUOUS
10
4.02782
20
-2.15055
11
4.01729
21
-2.14662
0
LINE
8
BLACK
6
CONTINUOUS
10
4.01729
20
-2.14662
11
4.00743
21
-2.14124
0
LINE
8
BLACK
6
CONTINUOUS
10
4.00743
20
-2.14124
11
3.99844
21
-2.13451
0
LINE
8
BLACK
6
CONTINUOUS
10
3.99844
20
-2.13451
11
3.99049
21
-2.12656
0
LINE
8
BLACK
6
CONTINUOUS
10
3.99049
20
-2.12656
11
3.98376
21
-2.11757
0
LINE
8
BLACK
6
CONTINUOUS
10
3.98376
20
-2.11757
11
3.97838
21
-2.10771
0
LINE
8
BLACK
6
CONTINUOUS
10
3.97838
20
-2.10771
11
3.97445
21
-2.09718
0
LINE
8
BLACK
6
CONTINUOUS
10
3.97445
20
-2.09718
11
3.97206
21
-2.08621
0
LINE
8
BLACK
6
CONTINUOUS
10
3.97206
20
-2.08621
11
3.97126
21
-2.075
0
LINE
8
BLACK
6
CONTINUOUS
10
3.97126
20
-2.075
11
3.97206
21
-2.06379
0
LINE
8
BLACK
6
CONTINUOUS
10
3.97206
20
-2.06379
11
3.97445
21
-2.05282
0
LINE
8
BLACK
6
CONTINUOUS
10
3.97445
20
-2.05282
11
3.97838
21
-2.04229
0
LINE
8
BLACK
6
CONTINUOUS
10
3.97838
20
-2.04229
11
3.98376
21
-2.03243
0
LINE
8
BLACK
6
CONTINUOUS
10
3.98376
20
-2.03243
11
3.99049
21
-2.02344
0
LINE
8
BLACK
6
CONTINUOUS
10
3.99049
20
-2.02344
11
3.99844
21
-2.01549
0
LINE
8
BLACK
6
CONTINUOUS
10
3.99844
20
-2.01549
11
4.00743
21
-2.00876
0
LINE
8
BLACK
6
CONTINUOUS
10
4.00743
20
-2.00876
11
4.01729
21
-2.00338
0
LINE
8
BLACK
6
CONTINUOUS
10
4.01729
20
-2.00338
11
4.02782
21
-1.99945
0
LINE
8
BLACK
6
CONTINUOUS
10
4.02782
20
-1.99945
11
4.03879
21
-1.99706
0
LINE
8
BLACK
6
CONTINUOUS
10
4.03879
20
-1.99706
11
4.05
21
-1.99626
0
LINE
8
BLACK
6
CONTINUOUS
10
4.05
20
-1.99626
11
4.06121
21
-1.99706
0
LINE
8
BLACK
6
CONTINUOUS
10
4.81121
20
-1.99706
11
4.82218
21
-1.99945
0
LINE
8
BLACK
6
CONTINUOUS
10
4.82218
20
-1.99945
11
4.83271
21
-2.00338
0
LINE
8
BLACK
6
CONTINUOUS
10
4.83271
20
-2.00338
11
4.84257
21
-2.00876
0
LINE
8
BLACK
6
CONTINUOUS
10
4.84257
20
-2.00876
11
4.85156
21
-2.01549
0
LINE
8
BLACK
6
CONTINUOUS
10
4.85156
20
-2.01549
11
4.85951
21
-2.02344
0
LINE
8
BLACK
6
CONTINUOUS
10
4.85951
20
-2.02344
11
4.86624
21
-2.03243
0
LINE
8
BLACK
6
CONTINUOUS
10
4.86624
20
-2.03243
11
4.87162
21
-2.04229
0
LINE
8
BLACK
6
CONTINUOUS
10
4.87162
20
-2.04229
11
4.87555
21
-2.05282
0
LINE
8
BLACK
6
CONTINUOUS
10
4.87555
20
-2.05282
11
4.87794
21
-2.06379
0
LINE
8
BLACK
6
CONTINUOUS
10
4.87794
20
-2.06379
11
4.87874
21
-2.075
0
LINE
8
BLACK
6
CONTINUOUS
10
4.87874
20
-2.075
11
4.87794
21
-2.08621
0
LINE
8
BLACK
6
CONTINUOUS
10
4.87794
20
-2.08621
11
4.87555
21
-2.09718
0
LINE
8
BLACK
6
CONTINUOUS
10
4.87555
20
-2.09718
11
4.87162
21
-2.10771
0
LINE
8
BLACK
6
CONTINUOUS
10
4.87162
20
-2.10771
11
4.86624
21
-2.11757
0
LINE
8
BLACK
6
CONTINUOUS
10
4.86624
20
-2.11757
11
4.85951
21
-2.12656
0
LINE
8
BLACK
6
CONTINUOUS
10
4.85951
20
-2.12656
11
4.85156
21
-2.13451
0
LINE
8
BLACK
6
CONTINUOUS
10
4.85156
20
-2.13451
11
4.84257
21
-2.14124
0
LINE
8
BLACK
6
CONTINUOUS
10
4.84257
20
-2.14124
11
4.83271
21
-2.14662
0
LINE
8
BLACK
6
CONTINUOUS
10
4.83271
20
-2.14662
11
4.82218
21
-2.15055
0
LINE
8
BLACK
6
CONTINUOUS
10
4.82218
20
-2.15055
11
4.81121
21
-2.15294
0
LINE
8
BLACK
6
CONTINUOUS
10
4.81121
20
-2.15294
11
4.8
21
-2.15374
0
LINE
8
BLACK
6
CONTINUOUS
10
4.8
20
-2.15374
11
4.78879
21
-2.15294
0
LINE
8
BLACK
6
CONTINUOUS
10
4.78879
20
-2.15294
11
4.77782
21
-2.15055
0
LINE
8
BLACK
6
CONTINUOUS
10
4.77782
20
-2.15055
11
4.76729
21
-2.14662
0
LINE
8
BLACK
6
CONTINUOUS
10
4.76729
20
-2.14662
11
4.75743
21
-2.14124
0
LINE
8
BLACK
6
CONTINUOUS
10
4.75743
20
-2.14124
11
4.74844
21
-2.13451
0
LINE
8
BLACK
6
CONTINUOUS
10
4.74844
20
-2.13451
11
4.74049
21
-2.12656
0
LINE
8
BLACK
6
CONTINUOUS
10
4.74049
20
-2.12656
11
4.73376
21
-2.11757
0
LINE
8
BLACK
6
CONTINUOUS
10
4.73376
20
-2.11757
11
4.72838
21
-2.10771
0
LINE
8
BLACK
6
CONTINUOUS
10
4.72838
20
-2.10771
11
4.72445
21
-2.09718
0
LINE
8
BLACK
6
CONTINUOUS
10
4.72445
20
-2.09718
11
4.72206
21
-2.08621
0
LINE
8
BLACK
6
CONTINUOUS
10
4.72206
20
-2.08621
11
4.72126
21
-2.075
0
LINE
8
BLACK
6
CONTINUOUS
10
4.72126
20
-2.075
11
4.72206
21
-2.06379
0
LINE
8
BLACK
6
CONTINUOUS
10
4.72206
20
-2.06379
11
4.72445
21
-2.05282
0
LINE
8
BLACK
6
CONTINUOUS
10
4.72445
20
-2.05282
11
4.72838
21
-2.04229
0
LINE
8
BLACK
6
CONTINUOUS
10
4.72838
20
-2.04229
11
4.73376
21
-2.03243
0
LINE
8
BLACK
6
CONTINUOUS
10
4.73376
20
-2.03243
11
4.74049
21
-2.02344
0
LINE
8
BLACK
6
CONTINUOUS
10
4.74049
20
-2.02344
11
4.74844
21
-2.01549
0
LINE
8
BLACK
6
CONTINUOUS
10
4.74844
20
-2.01549
11
4.75743
21
-2.00876
0
LINE
8
BLACK
6
CONTINUOUS
10
4.75743
20
-2.00876
11
4.76729
21
-2.00338
0
LINE
8
BLACK
6
CONTINUOUS
10
4.76729
20
-2.00338
11
4.77782
21
-1.99945
0
LINE
8
BLACK
6
CONTINUOUS
10
4.77782
20
-1.99945
11
4.78879
21
-1.99706
0
LINE
8
BLACK
6
CONTINUOUS
10
4.78879
20
-1.99706
11
4.8
21
-1.99626
0
LINE
8
BLACK
6
CONTINUOUS
10
4.8
20
-1.99626
11
4.81121
21
-1.99706
0
LINE
8
BLACK
6
CONTINUOUS
10
3.11034
20
-2.04317
11
3.11673
21
-2.04602
0
LINE
8
BLACK
6
CONTINUOUS
10
3.11673
20
-2.04602
11
3.12239
21
-2.05013
0
LINE
8
BLACK
6
CONTINUOUS
10
3.12239
20
-2.05013
11
3.12707
21
-2.05533
0
LINE
8
BLACK
6
CONTINUOUS
10
3.12707
20
-2.05533
11
3.13057
21
-2.06139
0
LINE
8
BLACK
6
CONTINUOUS
10
3.13057
20
-2.06139
11
3.13273
21
-2.06804
0
LINE
8
BLACK
6
CONTINUOUS
10
3.13273
20
-2.06804
11
3.13346
21
-2.075
0
LINE
8
BLACK
6
CONTINUOUS
10
3.13346
20
-2.075
11
3.13273
21
-2.08196
0
LINE
8
BLACK
6
CONTINUOUS
10
3.13273
20
-2.08196
11
3.13057
21
-2.08861
0
LINE
8
BLACK
6
CONTINUOUS
10
3.13057
20
-2.08861
11
3.12707
21
-2.09467
0
LINE
8
BLACK
6
CONTINUOUS
10
3.12707
20
-2.09467
11
3.12239
21
-2.09987
0
LINE
8
BLACK
6
CONTINUOUS
10
3.12239
20
-2.09987
11
3.11673
21
-2.10398
0
LINE
8
BLACK
6
CONTINUOUS
10
3.11673
20
-2.10398
11
3.11034
21
-2.10683
0
LINE
8
BLACK
6
CONTINUOUS
10
3.11034
20
-2.10683
11
3.1035
21
-2.10828
0
LINE
8
BLACK
6
CONTINUOUS
10
3.1035
20
-2.10828
11
3.0965
21
-2.10828
0
LINE
8
BLACK
6
CONTINUOUS
10
3.0965
20
-2.10828
11
3.08966
21
-2.10683
0
LINE
8
BLACK
6
CONTINUOUS
10
3.08966
20
-2.10683
11
3.08327
21
-2.10398
0
LINE
8
BLACK
6
CONTINUOUS
10
3.08327
20
-2.10398
11
3.07761
21
-2.09987
0
LINE
8
BLACK
6
CONTINUOUS
10
3.07761
20
-2.09987
11
3.07293
21
-2.09467
0
LINE
8
BLACK
6
CONTINUOUS
10
3.07293
20
-2.09467
11
3.06943
21
-2.08861
0
LINE
8
BLACK
6
CONTINUOUS
10
3.06943
20
-2.08861
11
3.06727
21
-2.08196
0
LINE
8
BLACK
6
CONTINUOUS
10
3.06727
20
-2.08196
11
3.06654
21
-2.075
0
LINE
8
BLACK
6
CONTINUOUS
10
3.06654
20
-2.075
11
3.06727
21
-2.06804
0
LINE
8
BLACK
6
CONTINUOUS
10
3.06727
20
-2.06804
11
3.06943
21
-2.06139
0
LINE
8
BLACK
6
CONTINUOUS
10
3.06943
20
-2.06139
11
3.07293
21
-2.05533
0
LINE
8
BLACK
6
CONTINUOUS
10
3.07293
20
-2.05533
11
3.07761
21
-2.05013
0
LINE
8
BLACK
6
CONTINUOUS
10
3.07761
20
-2.05013
11
3.08327
21
-2.04602
0
LINE
8
BLACK
6
CONTINUOUS
10
3.08327
20
-2.04602
11
3.08966
21
-2.04317
0
LINE
8
BLACK
6
CONTINUOUS
10
3.08966
20
-2.04317
11
3.0965
21
-2.04172
0
LINE
8
BLACK
6
CONTINUOUS
10
3.0965
20
-2.04172
11
3.1035
21
-2.04172
0
LINE
8
BLACK
6
CONTINUOUS
10
3.1035
20
-2.04172
11
3.11034
21
-2.04317
0
LINE
8
BLACK
6
CONTINUOUS
10
3.51034
20
-2.04317
11
3.51673
21
-2.04602
0
LINE
8
BLACK
6
CONTINUOUS
10
3.51673
20
-2.04602
11
3.52239
21
-2.05013
0
LINE
8
BLACK
6
CONTINUOUS
10
3.52239
20
-2.05013
11
3.52707
21
-2.05533
0
LINE
8
BLACK
6
CONTINUOUS
10
3.52707
20
-2.05533
11
3.53057
21
-2.06139
0
LINE
8
BLACK
6
CONTINUOUS
10
3.53057
20
-2.06139
11
3.53273
21
-2.06804
0
LINE
8
BLACK
6
CONTINUOUS
10
3.53273
20
-2.06804
11
3.53346
21
-2.075
0
LINE
8
BLACK
6
CONTINUOUS
10
3.53346
20
-2.075
11
3.53273
21
-2.08196
0
LINE
8
BLACK
6
CONTINUOUS
10
3.53273
20
-2.08196
11
3.53057
21
-2.08861
0
LINE
8
BLACK
6
CONTINUOUS
10
3.53057
20
-2.08861
11
3.52707
21
-2.09467
0
LINE
8
BLACK
6
CONTINUOUS
10
3.52707
20
-2.09467
11
3.52239
21
-2.09987
0
LINE
8
BLACK
6
CONTINUOUS
10
3.52239
20
-2.09987
11
3.51673
21
-2.10398
0
LINE
8
BLACK
6
CONTINUOUS
10
3.51673
20
-2.10398
11
3.51034
21
-2.10683
0
LINE
8
BLACK
6
CONTINUOUS
10
3.51034
20
-2.10683
11
3.5035
21
-2.10828
0
LINE
8
BLACK
6
CONTINUOUS
10
3.5035
20
-2.10828
11
3.4965
21
-2.10828
0
LINE
8
BLACK
6
CONTINUOUS
10
3.4965
20
-2.10828
11
3.48966
21
-2.10683
0
LINE
8
BLACK
6
CONTINUOUS
10
3.48966
20
-2.10683
11
3.48327
21
-2.10398
0
LINE
8
BLACK
6
CONTINUOUS
10
3.48327
20
-2.10398
11
3.47761
21
-2.09987
0
LINE
8
BLACK
6
CONTINUOUS
10
3.47761
20
-2.09987
11
3.47293
21
-2.09467
0
LINE
8
BLACK
6
CONTINUOUS
10
3.47293
20
-2.09467
11
3.46943
21
-2.08861
0
LINE
8
BLACK
6
CONTINUOUS
10
3.46943
20
-2.08861
11
3.46727
21
-2.08196
0
LINE
8
BLACK
6
CONTINUOUS
10
3.46727
20
-2.08196
11
3.46654
21
-2.075
0
LINE
8
BLACK
6
CONTINUOUS
10
3.46654
20
-2.075
11
3.46727
21
-2.06804
0
LINE
8
BLACK
6
CONTINUOUS
10
3.46727
20
-2.06804
11
3.46943
21
-2.06139
0
LINE
8
BLACK
6
CONTINUOUS
10
3.46943
20
-2.06139
11
3.47293
21
-2.05533
0
LINE
8
BLACK
6
CONTINUOUS
10
3.47293
20
-2.05533
11
3.47761
21
-2.05013
0
LINE
8
BLACK
6
CONTINUOUS
10
3.47761
20
-2.05013
11
3.48327
21
-2.04602
0
LINE
8
BLACK
6
CONTINUOUS
10
3.48327
20
-2.04602
11
3.48966
21
-2.04317
0
LINE
8
BLACK
6
CONTINUOUS
10
3.48966
20
-2.04317
11
3.4965
21
-2.04172
0
LINE
8
BLACK
6
CONTINUOUS
10
3.4965
20
-2.04172
11
3.5035
21
-2.04172
0
LINE
8
BLACK
6
CONTINUOUS
10
3.5035
20
-2.04172
11
3.51034
21
-2.04317
0
LINE
8
BLACK
6
CONTINUOUS
10
3.86034
20
-2.04317
11
3.86673
21
-2.04602
0
LINE
8
BLACK
6
CONTINUOUS
10
3.86673
20
-2.04602
11
3.87239
21
-2.05013
0
LINE
8
BLACK
6
CONTINUOUS
10
3.87239
20
-2.05013
11
3.87707
21
-2.05533
0
LINE
8
BLACK
6
CONTINUOUS
10
3.87707
20
-2.05533
11
3.88057
21
-2.06139
0
LINE
8
BLACK
6
CONTINUOUS
10
3.88057
20
-2.06139
11
3.88273
21
-2.06804
0
LINE
8
BLACK
6
CONTINUOUS
10
3.88273
20
-2.06804
11
3.88346
21
-2.075
0
LINE
8
BLACK
6
CONTINUOUS
10
3.88346
20
-2.075
11
3.88273
21
-2.08196
0
LINE
8
BLACK
6
CONTINUOUS
10
3.88273
20
-2.08196
11
3.88057
21
-2.08861
0
LINE
8
BLACK
6
CONTINUOUS
10
3.88057
20
-2.08861
11
3.87707
21
-2.09467
0
LINE
8
BLACK
6
CONTINUOUS
10
3.87707
20
-2.09467
11
3.87239
21
-2.09987
0
LINE
8
BLACK
6
CONTINUOUS
10
3.87239
20
-2.09987
11
3.86673
21
-2.10398
0
LINE
8
BLACK
6
CONTINUOUS
10
3.86673
20
-2.10398
11
3.86034
21
-2.10683
0
LINE
8
BLACK
6
CONTINUOUS
10
3.86034
20
-2.10683
11
3.8535
21
-2.10828
0
LINE
8
BLACK
6
CONTINUOUS
10
3.8535
20
-2.10828
11
3.8465
21
-2.10828
0
LINE
8
BLACK
6
CONTINUOUS
10
3.8465
20
-2.10828
11
3.83966
21
-2.10683
0
LINE
8
BLACK
6
CONTINUOUS
10
3.83966
20
-2.10683
11
3.83327
21
-2.10398
0
LINE
8
BLACK
6
CONTINUOUS
10
3.83327
20
-2.10398
11
3.82761
21
-2.09987
0
LINE
8
BLACK
6
CONTINUOUS
10
3.82761
20
-2.09987
11
3.82293
21
-2.09467
0
LINE
8
BLACK
6
CONTINUOUS
10
3.82293
20
-2.09467
11
3.81943
21
-2.08861
0
LINE
8
BLACK
6
CONTINUOUS
10
3.81943
20
-2.08861
11
3.81727
21
-2.08196
0
LINE
8
BLACK
6
CONTINUOUS
10
3.81727
20
-2.08196
11
3.81654
21
-2.075
0
LINE
8
BLACK
6
CONTINUOUS
10
3.81654
20
-2.075
11
3.81727
21
-2.06804
0
LINE
8
BLACK
6
CONTINUOUS
10
3.81727
20
-2.06804
11
3.81943
21
-2.06139
0
LINE
8
BLACK
6
CONTINUOUS
10
3.81943
20
-2.06139
11
3.82293
21
-2.05533
0
LINE
8
BLACK
6
CONTINUOUS
10
3.82293
20
-2.05533
11
3.82761
21
-2.05013
0
LINE
8
BLACK
6
CONTINUOUS
10
3.82761
20
-2.05013
11
3.83327
21
-2.04602
0
LINE
8
BLACK
6
CONTINUOUS
10
3.83327
20
-2.04602
11
3.83966
21
-2.04317
0
LINE
8
BLACK
6
CONTINUOUS
10
3.83966
20
-2.04317
11
3.8465
21
-2.04172
0
LINE
8
BLACK
6
CONTINUOUS
10
3.8465
20
-2.04172
11
3.8535
21
-2.04172
0
LINE
8
BLACK
6
CONTINUOUS
10
3.8535
20
-2.04172
11
3.86034
21
-2.04317
0
LINE
8
BLACK
6
CONTINUOUS
10
4.26034
20
-2.04317
11
4.26673
21
-2.04602
0
LINE
8
BLACK
6
CONTINUOUS
10
4.26673
20
-2.04602
11
4.27239
21
-2.05013
0
LINE
8
BLACK
6
CONTINUOUS
10
4.27239
20
-2.05013
11
4.27707
21
-2.05533
0
LINE
8
BLACK
6
CONTINUOUS
10
4.27707
20
-2.05533
11
4.28057
21
-2.06139
0
LINE
8
BLACK
6
CONTINUOUS
10
4.28057
20
-2.06139
11
4.28273
21
-2.06804
0
LINE
8
BLACK
6
CONTINUOUS
10
4.28273
20
-2.06804
11
4.28346
21
-2.075
0
LINE
8
BLACK
6
CONTINUOUS
10
4.28346
20
-2.075
11
4.28273
21
-2.08196
0
LINE
8
BLACK
6
CONTINUOUS
10
4.28273
20
-2.08196
11
4.28057
21
-2.08861
0
LINE
8
BLACK
6
CONTINUOUS
10
4.28057
20
-2.08861
11
4.27707
21
-2.09467
0
LINE
8
BLACK
6
CONTINUOUS
10
4.27707
20
-2.09467
11
4.27239
21
-2.09987
0
LINE
8
BLACK
6
CONTINUOUS
10
4.27239
20
-2.09987
11
4.26673
21
-2.10398
0
LINE
8
BLACK
6
CONTINUOUS
10
4.26673
20
-2.10398
11
4.26034
21
-2.10683
0
LINE
8
BLACK
6
CONTINUOUS
10
4.26034
20
-2.10683
11
4.2535
21
-2.10828
0
LINE
8
BLACK
6
CONTINUOUS
10
4.2535
20
-2.10828
11
4.2465
21
-2.10828
0
LINE
8
BLACK
6
CONTINUOUS
10
4.2465
20
-2.10828
11
4.23966
21
-2.10683
0
LINE
8
BLACK
6
CONTINUOUS
10
4.23966
20
-2.10683
11
4.23327
21
-2.10398
0
LINE
8
BLACK
6
CONTINUOUS
10
4.23327
20
-2.10398
11
4.22761
21
-2.09987
0
LINE
8
BLACK
6
CONTINUOUS
10
4.22761
20
-2.09987
11
4.22293
21
-2.09467
0
LINE
8
BLACK
6
CONTINUOUS
10
4.22293
20
-2.09467
11
4.21943
21
-2.08861
0
LINE
8
BLACK
6
CONTINUOUS
10
4.21943
20
-2.08861
11
4.21727
21
-2.08196
0
LINE
8
BLACK
6
CONTINUOUS
10
4.21727
20
-2.08196
11
4.21654
21
-2.075
0
LINE
8
BLACK
6
CONTINUOUS
10
4.21654
20
-2.075
11
4.21727
21
-2.06804
0
LINE
8
BLACK
6
CONTINUOUS
10
4.21727
20
-2.06804
11
4.21943
21
-2.06139
0
LINE
8
BLACK
6
CONTINUOUS
10
4.21943
20
-2.06139
11
4.22293
21
-2.05533
0
LINE
8
BLACK
6
CONTINUOUS
10
4.22293
20
-2.05533
11
4.22761
21
-2.05013
0
LINE
8
BLACK
6
CONTINUOUS
10
4.22761
20
-2.05013
11
4.23327
21
-2.04602
0
LINE
8
BLACK
6
CONTINUOUS
10
4.23327
20
-2.04602
11
4.23966
21
-2.04317
0
LINE
8
BLACK
6
CONTINUOUS
10
4.23966
20
-2.04317
11
4.2465
21
-2.04172
0
LINE
8
BLACK
6
CONTINUOUS
10
4.2465
20
-2.04172
11
4.2535
21
-2.04172
0
LINE
8
BLACK
6
CONTINUOUS
10
4.2535
20
-2.04172
11
4.26034
21
-2.04317
0
LINE
8
BLACK
6
CONTINUOUS
10
4.61034
20
-2.04317
11
4.61673
21
-2.04602
0
LINE
8
BLACK
6
CONTINUOUS
10
4.61673
20
-2.04602
11
4.62239
21
-2.05013
0
LINE
8
BLACK
6
CONTINUOUS
10
4.62239
20
-2.05013
11
4.62707
21
-2.05533
0
LINE
8
BLACK
6
CONTINUOUS
10
4.62707
20
-2.05533
11
4.63057
21
-2.06139
0
LINE
8
BLACK
6
CONTINUOUS
10
4.63057
20
-2.06139
11
4.63273
21
-2.06804
0
LINE
8
BLACK
6
CONTINUOUS
10
4.63273
20
-2.06804
11
4.63346
21
-2.075
0
LINE
8
BLACK
6
CONTINUOUS
10
4.63346
20
-2.075
11
4.63273
21
-2.08196
0
LINE
8
BLACK
6
CONTINUOUS
10
4.63273
20
-2.08196
11
4.63057
21
-2.08861
0
LINE
8
BLACK
6
CONTINUOUS
10
4.63057
20
-2.08861
11
4.62707
21
-2.09467
0
LINE
8
BLACK
6
CONTINUOUS
10
4.62707
20
-2.09467
11
4.62239
21
-2.09987
0
LINE
8
BLACK
6
CONTINUOUS
10
4.62239
20
-2.09987
11
4.61673
21
-2.10398
0
LINE
8
BLACK
6
CONTINUOUS
10
4.61673
20
-2.10398
11
4.61034
21
-2.10683
0
LINE
8
BLACK
6
CONTINUOUS
10
4.61034
20
-2.10683
11
4.6035
21
-2.10828
0
LINE
8
BLACK
6
CONTINUOUS
10
4.6035
20
-2.10828
11
4.5965
21
-2.10828
0
LINE
8
BLACK
6
CONTINUOUS
10
4.5965
20
-2.10828
11
4.58966
21
-2.10683
0
LINE
8
BLACK
6
CONTINUOUS
10
4.58966
20
-2.10683
11
4.58327
21
-2.10398
0
LINE
8
BLACK
6
CONTINUOUS
10
4.58327
20
-2.10398
11
4.57761
21
-2.09987
0
LINE
8
BLACK
6
CONTINUOUS
10
4.57761
20
-2.09987
11
4.57293
21
-2.09467
0
LINE
8
BLACK
6
CONTINUOUS
10
4.57293
20
-2.09467
11
4.56943
21
-2.08861
0
LINE
8
BLACK
6
CONTINUOUS
10
4.56943
20
-2.08861
11
4.56727
21
-2.08196
0
LINE
8
BLACK
6
CONTINUOUS
10
4.56727
20
-2.08196
11
4.56654
21
-2.075
0
LINE
8
BLACK
6
CONTINUOUS
10
4.56654
20
-2.075
11
4.56727
21
-2.06804
0
LINE
8
BLACK
6
CONTINUOUS
10
4.56727
20
-2.06804
11
4.56943
21
-2.06139
0
LINE
8
BLACK
6
CONTINUOUS
10
4.56943
20
-2.06139
11
4.57293
21
-2.05533
0
LINE
8
BLACK
6
CONTINUOUS
10
4.57293
20
-2.05533
11
4.57761
21
-2.05013
0
LINE
8
BLACK
6
CONTINUOUS
10
4.57761
20
-2.05013
11
4.58327
21
-2.04602
0
LINE
8
BLACK
6
CONTINUOUS
10
4.58327
20
-2.04602
11
4.58966
21
-2.04317
0
LINE
8
BLACK
6
CONTINUOUS
10
4.58966
20
-2.04317
11
4.5965
21
-2.04172
0
LINE
8
BLACK
6
CONTINUOUS
10
4.5965
20
-2.04172
11
4.6035
21
-2.04172
0
LINE
8
BLACK
6
CONTINUOUS
10
4.6035
20
-2.04172
11
4.61034
21
-2.04317
0
LINE
8
BLACK
6
CONTINUOUS
10
5.01034
20
-2.04317
11
5.01673
21
-2.04602
0
LINE
8
BLACK
6
CONTINUOUS
10
5.01673
20
-2.04602
11
5.02239
21
-2.05013
0
LINE
8
BLACK
6
CONTINUOUS
10
5.02239
20
-2.05013
11
5.02707
21
-2.05533
0
LINE
8
BLACK
6
CONTINUOUS
10
5.02707
20
-2.05533
11
5.03057
21
-2.06139
0
LINE
8
BLACK
6
CONTINUOUS
10
5.03057
20
-2.06139
11
5.03273
21
-2.06804
0
LINE
8
BLACK
6
CONTINUOUS
10
5.03273
20
-2.06804
11
5.03346
21
-2.075
0
LINE
8
BLACK
6
CONTINUOUS
10
5.03346
20
-2.075
11
5.03273
21
-2.08196
0
LINE
8
BLACK
6
CONTINUOUS
10
5.03273
20
-2.08196
11
5.03057
21
-2.08861
0
LINE
8
BLACK
6
CONTINUOUS
10
5.03057
20
-2.08861
11
5.02707
21
-2.09467
0
LINE
8
BLACK
6
CONTINUOUS
10
5.02707
20
-2.09467
11
5.02239
21
-2.09987
0
LINE
8
BLACK
6
CONTINUOUS
10
5.02239
20
-2.09987
11
5.01673
21
-2.10398
0
LINE
8
BLACK
6
CONTINUOUS
10
5.01673
20
-2.10398
11
5.01034
21
-2.10683
0
LINE
8
BLACK
6
CONTINUOUS
10
5.01034
20
-2.10683
11
5.0035
21
-2.10828
0
LINE
8
BLACK
6
CONTINUOUS
10
5.0035
20
-2.10828
11
4.9965
21
-2.10828
0
LINE
8
BLACK
6
CONTINUOUS
10
4.9965
20
-2.10828
11
4.98966
21
-2.10683
0
LINE
8
BLACK
6
CONTINUOUS
10
4.98966
20
-2.10683
11
4.98327
21
-2.10398
0
LINE
8
BLACK
6
CONTINUOUS
10
4.98327
20
-2.10398
11
4.97761
21
-2.09987
0
LINE
8
BLACK
6
CONTINUOUS
10
4.97761
20
-2.09987
11
4.97293
21
-2.09467
0
LINE
8
BLACK
6
CONTINUOUS
10
4.97293
20
-2.09467
11
4.96943
21
-2.08861
0
LINE
8
BLACK
6
CONTINUOUS
10
4.96943
20
-2.08861
11
4.96727
21
-2.08196
0
LINE
8
BLACK
6
CONTINUOUS
10
4.96727
20
-2.08196
11
4.96654
21
-2.075
0
LINE
8
BLACK
6
CONTINUOUS
10
4.96654
20
-2.075
11
4.96727
21
-2.06804
0
LINE
8
BLACK
6
CONTINUOUS
10
4.96727
20
-2.06804
11
4.96943
21
-2.06139
0
LINE
8
BLACK
6
CONTINUOUS
10
4.96943
20
-2.06139
11
4.97293
21
-2.05533
0
LINE
8
BLACK
6
CONTINUOUS
10
4.97293
20
-2.05533
11
4.97761
21
-2.05013
0
LINE
8
BLACK
6
CONTINUOUS
10
4.97761
20
-2.05013
11
4.98327
21
-2.04602
0
LINE
8
BLACK
6
CONTINUOUS
10
4.98327
20
-2.04602
11
4.98966
21
-2.04317
0
LINE
8
BLACK
6
CONTINUOUS
10
4.98966
20
-2.04317
11
4.9965
21
-2.04172
0
LINE
8
BLACK
6
CONTINUOUS
10
4.9965
20
-2.04172
11
5.0035
21
-2.04172
0
LINE
8
BLACK
6
CONTINUOUS
10
5.0035
20
-2.04172
11
5.01034
21
-2.04317
0
LINE
8
BLACK
6
CONTINUOUS
10
3.16185
20
-1.93335
11
3.1693
21
-1.93623
0
LINE
8
BLACK
6
CONTINUOUS
10
3.1693
20
-1.93623
11
3.1761
21
-1.94044
0
LINE
8
BLACK
6
CONTINUOUS
10
3.1761
20
-1.94044
11
3.182
21
-1.94582
0
LINE
8
BLACK
6
CONTINUOUS
10
3.182
20
-1.94582
11
3.18682
21
-1.9522
0
LINE
8
BLACK
6
CONTINUOUS
10
3.18682
20
-1.9522
11
3.19038
21
-1.95936
0
LINE
8
BLACK
6
CONTINUOUS
10
3.19038
20
-1.95936
11
3.19257
21
-1.96704
0
LINE
8
BLACK
6
CONTINUOUS
10
3.19257
20
-1.96704
11
3.19331
21
-1.975
0
LINE
8
BLACK
6
CONTINUOUS
10
3.19331
20
-1.975
11
3.19257
21
-1.98296
0
LINE
8
BLACK
6
CONTINUOUS
10
3.19257
20
-1.98296
11
3.19038
21
-1.99064
0
LINE
8
BLACK
6
CONTINUOUS
10
3.19038
20
-1.99064
11
3.18682
21
-1.9978
0
LINE
8
BLACK
6
CONTINUOUS
10
3.18682
20
-1.9978
11
3.182
21
-2.00418
0
LINE
8
BLACK
6
CONTINUOUS
10
3.182
20
-2.00418
11
3.1761
21
-2.00956
0
LINE
8
BLACK
6
CONTINUOUS
10
3.1761
20
-2.00956
11
3.1693
21
-2.01377
0
LINE
8
BLACK
6
CONTINUOUS
10
3.1693
20
-2.01377
11
3.16185
21
-2.01665
0
LINE
8
BLACK
6
CONTINUOUS
10
3.16185
20
-2.01665
11
3.154
21
-2.01812
0
LINE
8
BLACK
6
CONTINUOUS
10
3.154
20
-2.01812
11
3.146
21
-2.01812
0
LINE
8
BLACK
6
CONTINUOUS
10
3.146
20
-2.01812
11
3.13815
21
-2.01665
0
LINE
8
BLACK
6
CONTINUOUS
10
3.13815
20
-2.01665
11
3.1307
21
-2.01377
0
LINE
8
BLACK
6
CONTINUOUS
10
3.1307
20
-2.01377
11
3.1239
21
-2.00956
0
LINE
8
BLACK
6
CONTINUOUS
10
3.1239
20
-2.00956
11
3.118
21
-2.00418
0
LINE
8
BLACK
6
CONTINUOUS
10
3.118
20
-2.00418
11
3.11318
21
-1.9978
0
LINE
8
BLACK
6
CONTINUOUS
10
3.11318
20
-1.9978
11
3.10962
21
-1.99064
0
LINE
8
BLACK
6
CONTINUOUS
10
3.10962
20
-1.99064
11
3.10743
21
-1.98296
0
LINE
8
BLACK
6
CONTINUOUS
10
3.10743
20
-1.98296
11
3.10669
21
-1.975
0
LINE
8
BLACK
6
CONTINUOUS
10
3.10669
20
-1.975
11
3.10743
21
-1.96704
0
LINE
8
BLACK
6
CONTINUOUS
10
3.10743
20
-1.96704
11
3.10962
21
-1.95936
0
LINE
8
BLACK
6
CONTINUOUS
10
3.10962
20
-1.95936
11
3.11318
21
-1.9522
0
LINE
8
BLACK
6
CONTINUOUS
10
3.11318
20
-1.9522
11
3.118
21
-1.94582
0
LINE
8
BLACK
6
CONTINUOUS
10
3.118
20
-1.94582
11
3.1239
21
-1.94044
0
LINE
8
BLACK
6
CONTINUOUS
10
3.1239
20
-1.94044
11
3.1307
21
-1.93623
0
LINE
8
BLACK
6
CONTINUOUS
10
3.1307
20
-1.93623
11
3.13815
21
-1.93335
0
LINE
8
BLACK
6
CONTINUOUS
10
3.13815
20
-1.93335
11
3.146
21
-1.93188
0
LINE
8
BLACK
6
CONTINUOUS
10
3.146
20
-1.93188
11
3.154
21
-1.93188
0
LINE
8
BLACK
6
CONTINUOUS
10
3.154
20
-1.93188
11
3.16185
21
-1.93335
0
LINE
8
BLACK
6
CONTINUOUS
10
3.91185
20
-1.93335
11
3.9193
21
-1.93623
0
LINE
8
BLACK
6
CONTINUOUS
10
3.9193
20
-1.93623
11
3.9261
21
-1.94044
0
LINE
8
BLACK
6
CONTINUOUS
10
3.9261
20
-1.94044
11
3.932
21
-1.94582
0
LINE
8
BLACK
6
CONTINUOUS
10
3.932
20
-1.94582
11
3.93682
21
-1.9522
0
LINE
8
BLACK
6
CONTINUOUS
10
3.93682
20
-1.9522
11
3.94038
21
-1.95936
0
LINE
8
BLACK
6
CONTINUOUS
10
3.94038
20
-1.95936
11
3.94257
21
-1.96704
0
LINE
8
BLACK
6
CONTINUOUS
10
3.94257
20
-1.96704
11
3.94331
21
-1.975
0
LINE
8
BLACK
6
CONTINUOUS
10
3.94331
20
-1.975
11
3.94257
21
-1.98296
0
LINE
8
BLACK
6
CONTINUOUS
10
3.94257
20
-1.98296
11
3.94038
21
-1.99064
0
LINE
8
BLACK
6
CONTINUOUS
10
3.94038
20
-1.99064
11
3.93682
21
-1.9978
0
LINE
8
BLACK
6
CONTINUOUS
10
3.93682
20
-1.9978
11
3.932
21
-2.00418
0
LINE
8
BLACK
6
CONTINUOUS
10
3.932
20
-2.00418
11
3.9261
21
-2.00956
0
LINE
8
BLACK
6
CONTINUOUS
10
3.9261
20
-2.00956
11
3.9193
21
-2.01377
0
LINE
8
BLACK
6
CONTINUOUS
10
3.9193
20
-2.01377
11
3.91185
21
-2.01665
0
LINE
8
BLACK
6
CONTINUOUS
10
3.91185
20
-2.01665
11
3.904
21
-2.01812
0
LINE
8
BLACK
6
CONTINUOUS
10
3.904
20
-2.01812
11
3.896
21
-2.01812
0
LINE
8
BLACK
6
CONTINUOUS
10
3.896
20
-2.01812
11
3.88815
21
-2.01665
0
LINE
8
BLACK
6
CONTINUOUS
10
3.88815
20
-2.01665
11
3.8807
21
-2.01377
0
LINE
8
BLACK
6
CONTINUOUS
10
3.8807
20
-2.01377
11
3.8739
21
-2.00956
0
LINE
8
BLACK
6
CONTINUOUS
10
3.8739
20
-2.00956
11
3.868
21
-2.00418
0
LINE
8
BLACK
6
CONTINUOUS
10
3.868
20
-2.00418
11
3.86318
21
-1.9978
0
LINE
8
BLACK
6
CONTINUOUS
10
3.86318
20
-1.9978
11
3.85962
21
-1.99064
0
LINE
8
BLACK
6
CONTINUOUS
10
3.85962
20
-1.99064
11
3.85743
21
-1.98296
0
LINE
8
BLACK
6
CONTINUOUS
10
3.85743
20
-1.98296
11
3.85669
21
-1.975
0
LINE
8
BLACK
6
CONTINUOUS
10
3.85669
20
-1.975
11
3.85743
21
-1.96704
0
LINE
8
BLACK
6
CONTINUOUS
10
3.85743
20
-1.96704
11
3.85962
21
-1.95936
0
LINE
8
BLACK
6
CONTINUOUS
10
3.85962
20
-1.95936
11
3.86318
21
-1.9522
0
LINE
8
BLACK
6
CONTINUOUS
10
3.86318
20
-1.9522
11
3.868
21
-1.94582
0
LINE
8
BLACK
6
CONTINUOUS
10
3.868
20
-1.94582
11
3.8739
21
-1.94044
0
LINE
8
BLACK
6
CONTINUOUS
10
3.8739
20
-1.94044
11
3.8807
21
-1.93623
0
LINE
8
BLACK
6
CONTINUOUS
10
3.8807
20
-1.93623
11
3.88815
21
-1.93335
0
LINE
8
BLACK
6
CONTINUOUS
10
3.88815
20
-1.93335
11
3.896
21
-1.93188
0
LINE
8
BLACK
6
CONTINUOUS
10
3.896
20
-1.93188
11
3.904
21
-1.93188
0
LINE
8
BLACK
6
CONTINUOUS
10
3.904
20
-1.93188
11
3.91185
21
-1.93335
0
LINE
8
BLACK
6
CONTINUOUS
10
4.66185
20
-1.93335
11
4.6693
21
-1.93623
0
LINE
8
BLACK
6
CONTINUOUS
10
4.6693
20
-1.93623
11
4.6761
21
-1.94044
0
LINE
8
BLACK
6
CONTINUOUS
10
4.6761
20
-1.94044
11
4.682
21
-1.94582
0
LINE
8
BLACK
6
CONTINUOUS
10
4.682
20
-1.94582
11
4.68682
21
-1.9522
0
LINE
8
BLACK
6
CONTINUOUS
10
4.68682
20
-1.9522
11
4.69038
21
-1.95936
0
LINE
8
BLACK
6
CONTINUOUS
10
4.69038
20
-1.95936
11
4.69257
21
-1.96704
0
LINE
8
BLACK
6
CONTINUOUS
10
4.69257
20
-1.96704
11
4.69331
21
-1.975
0
LINE
8
BLACK
6
CONTINUOUS
10
4.69331
20
-1.975
11
4.69257
21
-1.98296
0
LINE
8
BLACK
6
CONTINUOUS
10
4.69257
20
-1.98296
11
4.69038
21
-1.99064
0
LINE
8
BLACK
6
CONTINUOUS
10
4.69038
20
-1.99064
11
4.68682
21
-1.9978
0
LINE
8
BLACK
6
CONTINUOUS
10
4.68682
20
-1.9978
11
4.682
21
-2.00418
0
LINE
8
BLACK
6
CONTINUOUS
10
4.682
20
-2.00418
11
4.6761
21
-2.00956
0
LINE
8
BLACK
6
CONTINUOUS
10
4.6761
20
-2.00956
11
4.6693
21
-2.01377
0
LINE
8
BLACK
6
CONTINUOUS
10
4.6693
20
-2.01377
11
4.66185
21
-2.01665
0
LINE
8
BLACK
6
CONTINUOUS
10
4.66185
20
-2.01665
11
4.654
21
-2.01812
0
LINE
8
BLACK
6
CONTINUOUS
10
4.654
20
-2.01812
11
4.646
21
-2.01812
0
LINE
8
BLACK
6
CONTINUOUS
10
4.646
20
-2.01812
11
4.63815
21
-2.01665
0
LINE
8
BLACK
6
CONTINUOUS
10
4.63815
20
-2.01665
11
4.6307
21
-2.01377
0
LINE
8
BLACK
6
CONTINUOUS
10
4.6307
20
-2.01377
11
4.6239
21
-2.00956
0
LINE
8
BLACK
6
CONTINUOUS
10
4.6239
20
-2.00956
11
4.618
21
-2.00418
0
LINE
8
BLACK
6
CONTINUOUS
10
4.618
20
-2.00418
11
4.61318
21
-1.9978
0
LINE
8
BLACK
6
CONTINUOUS
10
4.61318
20
-1.9978
11
4.60962
21
-1.99064
0
LINE
8
BLACK
6
CONTINUOUS
10
4.60962
20
-1.99064
11
4.60743
21
-1.98296
0
LINE
8
BLACK
6
CONTINUOUS
10
4.60743
20
-1.98296
11
4.60669
21
-1.975
0
LINE
8
BLACK
6
CONTINUOUS
10
4.60669
20
-1.975
11
4.60743
21
-1.96704
0
LINE
8
BLACK
6
CONTINUOUS
10
4.60743
20
-1.96704
11
4.60962
21
-1.95936
0
LINE
8
BLACK
6
CONTINUOUS
10
4.60962
20
-1.95936
11
4.61318
21
-1.9522
0
LINE
8
BLACK
6
CONTINUOUS
10
4.61318
20
-1.9522
11
4.618
21
-1.94582
0
LINE
8
BLACK
6
CONTINUOUS
10
4.618
20
-1.94582
11
4.6239
21
-1.94044
0
LINE
8
BLACK
6
CONTINUOUS
10
4.6239
20
-1.94044
11
4.6307
21
-1.93623
0
LINE
8
BLACK
6
CONTINUOUS
10
4.6307
20
-1.93623
11
4.63815
21
-1.93335
0
LINE
8
BLACK
6
CONTINUOUS
10
4.63815
20
-1.93335
11
4.646
21
-1.93188
0
LINE
8
BLACK
6
CONTINUOUS
10
4.646
20
-1.93188
11
4.654
21
-1.93188
0
LINE
8
BLACK
6
CONTINUOUS
10
4.654
20
-1.93188
11
4.66185
21
-1.93335
0
LINE
8
BLACK
6
CONTINUOUS
10
3.41185
20
-1.83335
11
3.4193
21
-1.83623
0
LINE
8
BLACK
6
CONTINUOUS
10
3.4193
20
-1.83623
11
3.4261
21
-1.84044
0
LINE
8
BLACK
6
CONTINUOUS
10
3.4261
20
-1.84044
11
3.432
21
-1.84582
0
LINE
8
BLACK
6
CONTINUOUS
10
3.432
20
-1.84582
11
3.43682
21
-1.8522
0
LINE
8
BLACK
6
CONTINUOUS
10
3.43682
20
-1.8522
11
3.44038
21
-1.85936
0
LINE
8
BLACK
6
CONTINUOUS
10
3.44038
20
-1.85936
11
3.44257
21
-1.86704
0
LINE
8
BLACK
6
CONTINUOUS
10
3.44257
20
-1.86704
11
3.44331
21
-1.875
0
LINE
8
BLACK
6
CONTINUOUS
10
3.44331
20
-1.875
11
3.44257
21
-1.88296
0
LINE
8
BLACK
6
CONTINUOUS
10
3.44257
20
-1.88296
11
3.44038
21
-1.89064
0
LINE
8
BLACK
6
CONTINUOUS
10
3.44038
20
-1.89064
11
3.43682
21
-1.8978
0
LINE
8
BLACK
6
CONTINUOUS
10
3.43682
20
-1.8978
11
3.432
21
-1.90418
0
LINE
8
BLACK
6
CONTINUOUS
10
3.432
20
-1.90418
11
3.4261
21
-1.90956
0
LINE
8
BLACK
6
CONTINUOUS
10
3.4261
20
-1.90956
11
3.4193
21
-1.91377
0
LINE
8
BLACK
6
CONTINUOUS
10
3.4193
20
-1.91377
11
3.41185
21
-1.91665
0
LINE
8
BLACK
6
CONTINUOUS
10
3.41185
20
-1.91665
11
3.404
21
-1.91812
0
LINE
8
BLACK
6
CONTINUOUS
10
3.404
20
-1.91812
11
3.396
21
-1.91812
0
LINE
8
BLACK
6
CONTINUOUS
10
3.396
20
-1.91812
11
3.38815
21
-1.91665
0
LINE
8
BLACK
6
CONTINUOUS
10
3.38815
20
-1.91665
11
3.3807
21
-1.91377
0
LINE
8
BLACK
6
CONTINUOUS
10
3.3807
20
-1.91377
11
3.3739
21
-1.90956
0
LINE
8
BLACK
6
CONTINUOUS
10
3.3739
20
-1.90956
11
3.368
21
-1.90418
0
LINE
8
BLACK
6
CONTINUOUS
10
3.368
20
-1.90418
11
3.36318
21
-1.8978
0
LINE
8
BLACK
6
CONTINUOUS
10
3.36318
20
-1.8978
11
3.35962
21
-1.89064
0
LINE
8
BLACK
6
CONTINUOUS
10
3.35962
20
-1.89064
11
3.35743
21
-1.88296
0
LINE
8
BLACK
6
CONTINUOUS
10
3.35743
20
-1.88296
11
3.35669
21
-1.875
0
LINE
8
BLACK
6
CONTINUOUS
10
3.35669
20
-1.875
11
3.35743
21
-1.86704
0
LINE
8
BLACK
6
CONTINUOUS
10
3.35743
20
-1.86704
11
3.35962
21
-1.85936
0
LINE
8
BLACK
6
CONTINUOUS
10
3.35962
20
-1.85936
11
3.36318
21
-1.8522
0
LINE
8
BLACK
6
CONTINUOUS
10
3.36318
20
-1.8522
11
3.368
21
-1.84582
0
LINE
8
BLACK
6
CONTINUOUS
10
3.368
20
-1.84582
11
3.3739
21
-1.84044
0
LINE
8
BLACK
6
CONTINUOUS
10
3.3739
20
-1.84044
11
3.3807
21
-1.83623
0
LINE
8
BLACK
6
CONTINUOUS
10
3.3807
20
-1.83623
11
3.38815
21
-1.83335
0
LINE
8
BLACK
6
CONTINUOUS
10
3.38815
20
-1.83335
11
3.396
21
-1.83188
0
LINE
8
BLACK
6
CONTINUOUS
10
3.396
20
-1.83188
11
3.404
21
-1.83188
0
LINE
8
BLACK
6
CONTINUOUS
10
3.404
20
-1.83188
11
3.41185
21
-1.83335
0
LINE
8
BLACK
6
CONTINUOUS
10
4.16185
20
-1.83335
11
4.1693
21
-1.83623
0
LINE
8
BLACK
6
CONTINUOUS
10
4.1693
20
-1.83623
11
4.1761
21
-1.84044
0
LINE
8
BLACK
6
CONTINUOUS
10
4.1761
20
-1.84044
11
4.182
21
-1.84582
0
LINE
8
BLACK
6
CONTINUOUS
10
4.182
20
-1.84582
11
4.18682
21
-1.8522
0
LINE
8
BLACK
6
CONTINUOUS
10
4.18682
20
-1.8522
11
4.19038
21
-1.85936
0
LINE
8
BLACK
6
CONTINUOUS
10
4.19038
20
-1.85936
11
4.19257
21
-1.86704
0
LINE
8
BLACK
6
CONTINUOUS
10
4.19257
20
-1.86704
11
4.19331
21
-1.875
0
LINE
8
BLACK
6
CONTINUOUS
10
4.19331
20
-1.875
11
4.19257
21
-1.88296
0
LINE
8
BLACK
6
CONTINUOUS
10
4.19257
20
-1.88296
11
4.19038
21
-1.89064
0
LINE
8
BLACK
6
CONTINUOUS
10
4.19038
20
-1.89064
11
4.18682
21
-1.8978
0
LINE
8
BLACK
6
CONTINUOUS
10
4.18682
20
-1.8978
11
4.182
21
-1.90418
0
LINE
8
BLACK
6
CONTINUOUS
10
4.182
20
-1.90418
11
4.1761
21
-1.90956
0
LINE
8
BLACK
6
CONTINUOUS
10
4.1761
20
-1.90956
11
4.1693
21
-1.91377
0
LINE
8
BLACK
6
CONTINUOUS
10
4.1693
20
-1.91377
11
4.16185
21
-1.91665
0
LINE
8
BLACK
6
CONTINUOUS
10
4.16185
20
-1.91665
11
4.154
21
-1.91812
0
LINE
8
BLACK
6
CONTINUOUS
10
4.154
20
-1.91812
11
4.146
21
-1.91812
0
LINE
8
BLACK
6
CONTINUOUS
10
4.146
20
-1.91812
11
4.13815
21
-1.91665
0
LINE
8
BLACK
6
CONTINUOUS
10
4.13815
20
-1.91665
11
4.1307
21
-1.91377
0
LINE
8
BLACK
6
CONTINUOUS
10
4.1307
20
-1.91377
11
4.1239
21
-1.90956
0
LINE
8
BLACK
6
CONTINUOUS
10
4.1239
20
-1.90956
11
4.118
21
-1.90418
0
LINE
8
BLACK
6
CONTINUOUS
10
4.118
20
-1.90418
11
4.11318
21
-1.8978
0
LINE
8
BLACK
6
CONTINUOUS
10
4.11318
20
-1.8978
11
4.10962
21
-1.89064
0
LINE
8
BLACK
6
CONTINUOUS
10
4.10962
20
-1.89064
11
4.10743
21
-1.88296
0
LINE
8
BLACK
6
CONTINUOUS
10
4.10743
20
-1.88296
11
4.10669
21
-1.875
0
LINE
8
BLACK
6
CONTINUOUS
10
4.10669
20
-1.875
11
4.10743
21
-1.86704
0
LINE
8
BLACK
6
CONTINUOUS
10
4.10743
20
-1.86704
11
4.10962
21
-1.85936
0
LINE
8
BLACK
6
CONTINUOUS
10
4.10962
20
-1.85936
11
4.11318
21
-1.8522
0
LINE
8
BLACK
6
CONTINUOUS
10
4.11318
20
-1.8522
11
4.118
21
-1.84582
0
LINE
8
BLACK
6
CONTINUOUS
10
4.118
20
-1.84582
11
4.1239
21
-1.84044
0
LINE
8
BLACK
6
CONTINUOUS
10
4.1239
20
-1.84044
11
4.1307
21
-1.83623
0
LINE
8
BLACK
6
CONTINUOUS
10
4.1307
20
-1.83623
11
4.13815
21
-1.83335
0
LINE
8
BLACK
6
CONTINUOUS
10
4.13815
20
-1.83335
11
4.146
21
-1.83188
0
LINE
8
BLACK
6
CONTINUOUS
10
4.146
20
-1.83188
11
4.154
21
-1.83188
0
LINE
8
BLACK
6
CONTINUOUS
10
4.154
20
-1.83188
11
4.16185
21
-1.83335
0
LINE
8
BLACK
6
CONTINUOUS
10
4.91185
20
-1.83335
11
4.9193
21
-1.83623
0
LINE
8
BLACK
6
CONTINUOUS
10
4.9193
20
-1.83623
11
4.9261
21
-1.84044
0
LINE
8
BLACK
6
CONTINUOUS
10
4.9261
20
-1.84044
11
4.932
21
-1.84582
0
LINE
8
BLACK
6
CONTINUOUS
10
4.932
20
-1.84582
11
4.93682
21
-1.8522
0
LINE
8
BLACK
6
CONTINUOUS
10
4.93682
20
-1.8522
11
4.94038
21
-1.85936
0
LINE
8
BLACK
6
CONTINUOUS
10
4.94038
20
-1.85936
11
4.94257
21
-1.86704
0
LINE
8
BLACK
6
CONTINUOUS
10
4.94257
20
-1.86704
11
4.94331
21
-1.875
0
LINE
8
BLACK
6
CONTINUOUS
10
4.94331
20
-1.875
11
4.94257
21
-1.88296
0
LINE
8
BLACK
6
CONTINUOUS
10
4.94257
20
-1.88296
11
4.94038
21
-1.89064
0
LINE
8
BLACK
6
CONTINUOUS
10
4.94038
20
-1.89064
11
4.93682
21
-1.8978
0
LINE
8
BLACK
6
CONTINUOUS
10
4.93682
20
-1.8978
11
4.932
21
-1.90418
0
LINE
8
BLACK
6
CONTINUOUS
10
4.932
20
-1.90418
11
4.9261
21
-1.90956
0
LINE
8
BLACK
6
CONTINUOUS
10
4.9261
20
-1.90956
11
4.9193
21
-1.91377
0
LINE
8
BLACK
6
CONTINUOUS
10
4.9193
20
-1.91377
11
4.91185
21
-1.91665
0
LINE
8
BLACK
6
CONTINUOUS
10
4.91185
20
-1.91665
11
4.904
21
-1.91812
0
LINE
8
BLACK
6
CONTINUOUS
10
4.904
20
-1.91812
11
4.896
21
-1.91812
0
LINE
8
BLACK
6
CONTINUOUS
10
4.896
20
-1.91812
11
4.88815
21
-1.91665
0
LINE
8
BLACK
6
CONTINUOUS
10
4.88815
20
-1.91665
11
4.8807
21
-1.91377
0
LINE
8
BLACK
6
CONTINUOUS
10
4.8807
20
-1.91377
11
4.8739
21
-1.90956
0
LINE
8
BLACK
6
CONTINUOUS
10
4.8739
20
-1.90956
11
4.868
21
-1.90418
0
LINE
8
BLACK
6
CONTINUOUS
10
4.868
20
-1.90418
11
4.86318
21
-1.8978
0
LINE
8
BLACK
6
CONTINUOUS
10
4.86318
20
-1.8978
11
4.85962
21
-1.89064
0
LINE
8
BLACK
6
CONTINUOUS
10
4.85962
20
-1.89064
11
4.85743
21
-1.88296
0
LINE
8
BLACK
6
CONTINUOUS
10
4.85743
20
-1.88296
11
4.85669
21
-1.875
0
LINE
8
BLACK
6
CONTINUOUS
10
4.85669
20
-1.875
11
4.85743
21
-1.86704
0
LINE
8
BLACK
6
CONTINUOUS
10
4.85743
20
-1.86704
11
4.85962
21
-1.85936
0
LINE
8
BLACK
6
CONTINUOUS
10
4.85962
20
-1.85936
11
4.86318
21
-1.8522
0
LINE
8
BLACK
6
CONTINUOUS
10
4.86318
20
-1.8522
11
4.868
21
-1.84582
0
LINE
8
BLACK
6
CONTINUOUS
10
4.868
20
-1.84582
11
4.8739
21
-1.84044
0
LINE
8
BLACK
6
CONTINUOUS
10
4.8739
20
-1.84044
11
4.8807
21
-1.83623
0
LINE
8
BLACK
6
CONTINUOUS
10
4.8807
20
-1.83623
11
4.88815
21
-1.83335
0
LINE
8
BLACK
6
CONTINUOUS
10
4.88815
20
-1.83335
11
4.896
21
-1.83188
0
LINE
8
BLACK
6
CONTINUOUS
10
4.896
20
-1.83188
11
4.904
21
-1.83188
0
LINE
8
BLACK
6
CONTINUOUS
10
4.904
20
-1.83188
11
4.91185
21
-1.83335
0
LINE
8
BLACK
6
CONTINUOUS
10
2.83355
20
-1.55154
11
2.84183
21
-1.55376
0
LINE
8
BLACK
6
CONTINUOUS
10
2.84183
20
-1.55376
11
2.84961
21
-1.55738
0
LINE
8
BLACK
6
CONTINUOUS
10
2.84961
20
-1.55738
11
2.85663
21
-1.5623
0
LINE
8
BLACK
6
CONTINUOUS
10
2.85663
20
-1.5623
11
2.8627
21
-1.56837
0
LINE
8
BLACK
6
CONTINUOUS
10
2.8627
20
-1.56837
11
2.86762
21
-1.57539
0
LINE
8
BLACK
6
CONTINUOUS
10
2.86762
20
-1.57539
11
2.87124
21
-1.58317
0
LINE
8
BLACK
6
CONTINUOUS
10
2.87124
20
-1.58317
11
2.87346
21
-1.59145
0
LINE
8
BLACK
6
CONTINUOUS
10
2.87346
20
-1.59145
11
2.87421
21
-1.6
0
LINE
8
BLACK
6
CONTINUOUS
10
2.87421
20
-1.6
11
2.87346
21
-1.60855
0
LINE
8
BLACK
6
CONTINUOUS
10
2.87346
20
-1.60855
11
2.87124
21
-1.61683
0
LINE
8
BLACK
6
CONTINUOUS
10
2.87124
20
-1.61683
11
2.86762
21
-1.62461
0
LINE
8
BLACK
6
CONTINUOUS
10
2.86762
20
-1.62461
11
2.8627
21
-1.63163
0
LINE
8
BLACK
6
CONTINUOUS
10
2.8627
20
-1.63163
11
2.85663
21
-1.6377
0
LINE
8
BLACK
6
CONTINUOUS
10
2.85663
20
-1.6377
11
2.84961
21
-1.64262
0
LINE
8
BLACK
6
CONTINUOUS
10
2.84961
20
-1.64262
11
2.84183
21
-1.64624
0
LINE
8
BLACK
6
CONTINUOUS
10
2.84183
20
-1.64624
11
2.83355
21
-1.64846
0
LINE
8
BLACK
6
CONTINUOUS
10
2.83355
20
-1.64846
11
2.825
21
-1.64921
0
LINE
8
BLACK
6
CONTINUOUS
10
2.825
20
-1.64921
11
2.81645
21
-1.64846
0
LINE
8
BLACK
6
CONTINUOUS
10
2.81645
20
-1.64846
11
2.80817
21
-1.64624
0
LINE
8
BLACK
6
CONTINUOUS
10
2.80817
20
-1.64624
11
2.80039
21
-1.64262
0
LINE
8
BLACK
6
CONTINUOUS
10
2.80039
20
-1.64262
11
2.79337
21
-1.6377
0
LINE
8
BLACK
6
CONTINUOUS
10
2.79337
20
-1.6377
11
2.7873
21
-1.63163
0
LINE
8
BLACK
6
CONTINUOUS
10
2.7873
20
-1.63163
11
2.78238
21
-1.62461
0
LINE
8
BLACK
6
CONTINUOUS
10
2.78238
20
-1.62461
11
2.77876
21
-1.61683
0
LINE
8
BLACK
6
CONTINUOUS
10
2.77876
20
-1.61683
11
2.77654
21
-1.60855
0
LINE
8
BLACK
6
CONTINUOUS
10
2.77654
20
-1.60855
11
2.77579
21
-1.6
0
LINE
8
BLACK
6
CONTINUOUS
10
2.77579
20
-1.6
11
2.77654
21
-1.59145
0
LINE
8
BLACK
6
CONTINUOUS
10
2.77654
20
-1.59145
11
2.77876
21
-1.58317
0
LINE
8
BLACK
6
CONTINUOUS
10
2.77876
20
-1.58317
11
2.78238
21
-1.57539
0
LINE
8
BLACK
6
CONTINUOUS
10
2.78238
20
-1.57539
11
2.7873
21
-1.56837
0
LINE
8
BLACK
6
CONTINUOUS
10
2.7873
20
-1.56837
11
2.79337
21
-1.5623
0
LINE
8
BLACK
6
CONTINUOUS
10
2.79337
20
-1.5623
11
2.80039
21
-1.55738
0
LINE
8
BLACK
6
CONTINUOUS
10
2.80039
20
-1.55738
11
2.80817
21
-1.55376
0
LINE
8
BLACK
6
CONTINUOUS
10
2.80817
20
-1.55376
11
2.81645
21
-1.55154
0
LINE
8
BLACK
6
CONTINUOUS
10
2.81645
20
-1.55154
11
2.825
21
-1.55079
0
LINE
8
BLACK
6
CONTINUOUS
10
2.825
20
-1.55079
11
2.83355
21
-1.55154
0
LINE
8
BLACK
6
CONTINUOUS
10
5.28355
20
-1.55154
11
5.29183
21
-1.55376
0
LINE
8
BLACK
6
CONTINUOUS
10
5.29183
20
-1.55376
11
5.29961
21
-1.55738
0
LINE
8
BLACK
6
CONTINUOUS
10
5.29961
20
-1.55738
11
5.30663
21
-1.5623
0
LINE
8
BLACK
6
CONTINUOUS
10
5.30663
20
-1.5623
11
5.3127
21
-1.56837
0
LINE
8
BLACK
6
CONTINUOUS
10
5.3127
20
-1.56837
11
5.31762
21
-1.57539
0
LINE
8
BLACK
6
CONTINUOUS
10
5.31762
20
-1.57539
11
5.32124
21
-1.58317
0
LINE
8
BLACK
6
CONTINUOUS
10
5.32124
20
-1.58317
11
5.32346
21
-1.59145
0
LINE
8
BLACK
6
CONTINUOUS
10
5.32346
20
-1.59145
11
5.32421
21
-1.6
0
LINE
8
BLACK
6
CONTINUOUS
10
5.32421
20
-1.6
11
5.32346
21
-1.60855
0
LINE
8
BLACK
6
CONTINUOUS
10
5.32346
20
-1.60855
11
5.32124
21
-1.61683
0
LINE
8
BLACK
6
CONTINUOUS
10
5.32124
20
-1.61683
11
5.31762
21
-1.62461
0
LINE
8
BLACK
6
CONTINUOUS
10
5.31762
20
-1.62461
11
5.3127
21
-1.63163
0
LINE
8
BLACK
6
CONTINUOUS
10
5.3127
20
-1.63163
11
5.30663
21
-1.6377
0
LINE
8
BLACK
6
CONTINUOUS
10
5.30663
20
-1.6377
11
5.29961
21
-1.64262
0
LINE
8
BLACK
6
CONTINUOUS
10
5.29961
20
-1.64262
11
5.29183
21
-1.64624
0
LINE
8
BLACK
6
CONTINUOUS
10
5.29183
20
-1.64624
11
5.28355
21
-1.64846
0
LINE
8
BLACK
6
CONTINUOUS
10
5.28355
20
-1.64846
11
5.275
21
-1.64921
0
LINE
8
BLACK
6
CONTINUOUS
10
5.275
20
-1.64921
11
5.26645
21
-1.64846
0
LINE
8
BLACK
6
CONTINUOUS
10
5.26645
20
-1.64846
11
5.25817
21
-1.64624
0
LINE
8
BLACK
6
CONTINUOUS
10
5.25817
20
-1.64624
11
5.25039
21
-1.64262
0
LINE
8
BLACK
6
CONTINUOUS
10
5.25039
20
-1.64262
11
5.24337
21
-1.6377
0
LINE
8
BLACK
6
CONTINUOUS
10
5.24337
20
-1.6377
11
5.2373
21
-1.63163
0
LINE
8
BLACK
6
CONTINUOUS
10
5.2373
20
-1.63163
11
5.23238
21
-1.62461
0
LINE
8
BLACK
6
CONTINUOUS
10
5.23238
20
-1.62461
11
5.22876
21
-1.61683
0
LINE
8
BLACK
6
CONTINUOUS
10
5.22876
20
-1.61683
11
5.22654
21
-1.60855
0
LINE
8
BLACK
6
CONTINUOUS
10
5.22654
20
-1.60855
11
5.22579
21
-1.6
0
LINE
8
BLACK
6
CONTINUOUS
10
5.22579
20
-1.6
11
5.22654
21
-1.59145
0
LINE
8
BLACK
6
CONTINUOUS
10
5.22654
20
-1.59145
11
5.22876
21
-1.58317
0
LINE
8
BLACK
6
CONTINUOUS
10
5.22876
20
-1.58317
11
5.23238
21
-1.57539
0
LINE
8
BLACK
6
CONTINUOUS
10
5.23238
20
-1.57539
11
5.2373
21
-1.56837
0
LINE
8
BLACK
6
CONTINUOUS
10
5.2373
20
-1.56837
11
5.24337
21
-1.5623
0
LINE
8
BLACK
6
CONTINUOUS
10
5.24337
20
-1.5623
11
5.25039
21
-1.55738
0
LINE
8
BLACK
6
CONTINUOUS
10
5.25039
20
-1.55738
11
5.25817
21
-1.55376
0
LINE
8
BLACK
6
CONTINUOUS
10
5.25817
20
-1.55376
11
5.26645
21
-1.55154
0
LINE
8
BLACK
6
CONTINUOUS
10
5.26645
20
-1.55154
11
5.275
21
-1.55079
0
LINE
8
BLACK
6
CONTINUOUS
10
5.275
20
-1.55079
11
5.28355
21
-1.55154
  0
ENDSEC
  0
EOF
