M48
; DRILL file {KiCad 7.0.7} date 2023 September 15, Friday 09:26:33
; FORMAT={-:-/ absolute / inch / decimal}
; #@! TF.CreationDate,2023-09-15T09:26:33-05:00
; #@! TF.GenerationSoftware,Kicad,Pcbnew,7.0.7
; #@! TF.FileFunction,Plated,1,2,PTH
FMAT,2
INCH
; #@! TA.AperFunction,Plated,PTH,ComponentDrill
T1C0.0394
; #@! TA.AperFunction,Plated,PTH,ComponentDrill
T2C0.0591
; #@! TA.AperFunction,Plated,PTH,ComponentDrill
T3C0.0787
%
G90
G05
T1
X2.8Y-2.625
X2.8Y-3.225
X2.9Y-2.625
X2.9Y-3.225
X3.0Y-2.625
X3.0Y-3.225
X3.1Y-2.625
X3.1Y-3.225
X3.2Y-2.625
X3.2Y-3.225
X3.3Y-2.625
X3.3Y-3.225
X3.4Y-2.625
X3.4Y-3.225
X3.95Y-2.775
X3.95Y-3.3459
X4.0484Y-2.775
X4.1469Y-2.775
X4.1469Y-3.3459
T2
X3.15Y-1.975
X3.4Y-1.875
X3.9Y-1.975
X4.15Y-1.875
X4.65Y-1.975
X4.9Y-1.875
T3
G00X3.824Y-3.1175
M15
G01X3.824Y-3.023
M16
G05
G00X4.2728Y-3.1175
M15
G01X4.2728Y-3.023
M16
G05
T0
M30
