  0
SECTION
  2
HEADER
  9
$ANGBASE
  50
0.0
  9
$ANGDIR
  70
1
  9
$MEASUREMENT
  70
0
  0
ENDSEC
  0
SECTION
  2
TABLES
  0
TABLE
  2
LTYPE
  70
4
  0
LTYPE
  5
40F
  2
CONTINUOUS
  70
0
  3
Solid line
  72
65
  73
0
  40
0.0
  0
LTYPE
  5
410
  2
DASHDOT
 70
0
  3
Dash Dot ____ _ ____ _
 72
65
 73
4
 40
2.0
 49
1.25
 49
-0.25
 49
0.25
 49
-0.25
  0
LTYPE
  5
411
  2
DASHED
 70
0
  3
Dashed __ __ __ __ __
 72
65
 73
2
 40
0.75
 49
0.5
 49
-0.25
  0
LTYPE
  5
43B
  2
DOTTED
 70
0
  3
Dotted .  .  .  .
 72
65
 73
2
 40
0.2
 49
0.0
 49
-0.2
  0
ENDTAB
  0
TABLE
  2
STYLE
  70
4
  0
STYLE
  2
KICAD
  70
0
  40
0
  41
1
  42
1
  50
0
  71
0
  3
isocp.shx
  0
STYLE
  2
KICADB
  70
0
  40
0
  41
1
  42
1
  50
0
  71
0
  3
isocp.shx
  0
STYLE
  2
KICADI
  70
0
  40
0
  41
1
  42
1
  50
15
  71
0
  3
isocp.shx
  0
STYLE
  2
KICADBI
  70
0
  40
0
  41
1
  42
1
  50
15
  71
0
  3
isocp.shx
  0
ENDTAB
  0
TABLE
  2
LAYER
  70
1
  0
LAYER
  2
BLACK
  70
0
  62
7
  6
CONTINUOUS
  0
ENDTAB
  0
ENDSEC
  0
SECTION
  2
ENTITIES
0
LINE
8
BLACK
6
CONTINUOUS
10
5.2
20
-1.44803
11
5.3
21
-1.44803
0
LINE
8
BLACK
6
CONTINUOUS
10
5.3
20
-1.44803
11
5.31327
21
-1.44873
0
LINE
8
BLACK
6
CONTINUOUS
10
5.31327
20
-1.44873
11
5.3264
21
-1.45081
0
LINE
8
BLACK
6
CONTINUOUS
10
5.3264
20
-1.45081
11
5.33924
21
-1.45425
0
LINE
8
BLACK
6
CONTINUOUS
10
5.33924
20
-1.45425
11
5.35164
21
-1.45901
0
LINE
8
BLACK
6
CONTINUOUS
10
5.35164
20
-1.45901
11
5.36348
21
-1.46504
0
LINE
8
BLACK
6
CONTINUOUS
10
5.36348
20
-1.46504
11
5.37463
21
-1.47228
0
LINE
8
BLACK
6
CONTINUOUS
10
5.37463
20
-1.47228
11
5.38496
21
-1.48064
0
LINE
8
BLACK
6
CONTINUOUS
10
5.38496
20
-1.48064
11
5.39436
21
-1.49004
0
LINE
8
BLACK
6
CONTINUOUS
10
5.39436
20
-1.49004
11
5.40272
21
-1.50037
0
LINE
8
BLACK
6
CONTINUOUS
10
5.40272
20
-1.50037
11
5.40996
21
-1.51152
0
LINE
8
BLACK
6
CONTINUOUS
10
5.40996
20
-1.51152
11
5.41599
21
-1.52336
0
LINE
8
BLACK
6
CONTINUOUS
10
5.41599
20
-1.52336
11
5.42075
21
-1.53576
0
LINE
8
BLACK
6
CONTINUOUS
10
5.42075
20
-1.53576
11
5.42419
21
-1.5486
0
LINE
8
BLACK
6
CONTINUOUS
10
5.42419
20
-1.5486
11
5.42627
21
-1.56173
0
LINE
8
BLACK
6
CONTINUOUS
10
5.42627
20
-1.56173
11
5.42697
21
-1.575
0
LINE
8
BLACK
6
CONTINUOUS
10
5.42697
20
-1.575
11
5.42697
21
-1.575
0
LINE
8
BLACK
6
CONTINUOUS
10
5.42697
20
-1.575
11
5.42697
21
-3.575
0
LINE
8
BLACK
6
CONTINUOUS
10
5.42697
20
-3.575
11
5.42697
21
-3.575
0
LINE
8
BLACK
6
CONTINUOUS
10
5.42697
20
-3.575
11
5.42627
21
-3.58827
0
LINE
8
BLACK
6
CONTINUOUS
10
5.42627
20
-3.58827
11
5.42419
21
-3.6014
0
LINE
8
BLACK
6
CONTINUOUS
10
5.42419
20
-3.6014
11
5.42075
21
-3.61424
0
LINE
8
BLACK
6
CONTINUOUS
10
5.42075
20
-3.61424
11
5.41599
21
-3.62664
0
LINE
8
BLACK
6
CONTINUOUS
10
5.41599
20
-3.62664
11
5.40996
21
-3.63848
0
LINE
8
BLACK
6
CONTINUOUS
10
5.40996
20
-3.63848
11
5.40272
21
-3.64963
0
LINE
8
BLACK
6
CONTINUOUS
10
5.40272
20
-3.64963
11
5.39436
21
-3.65996
0
LINE
8
BLACK
6
CONTINUOUS
10
5.39436
20
-3.65996
11
5.38496
21
-3.66936
0
LINE
8
BLACK
6
CONTINUOUS
10
5.38496
20
-3.66936
11
5.37463
21
-3.67772
0
LINE
8
BLACK
6
CONTINUOUS
10
5.37463
20
-3.67772
11
5.36348
21
-3.68496
0
LINE
8
BLACK
6
CONTINUOUS
10
5.36348
20
-3.68496
11
5.35164
21
-3.69099
0
LINE
8
BLACK
6
CONTINUOUS
10
5.35164
20
-3.69099
11
5.33924
21
-3.69575
0
LINE
8
BLACK
6
CONTINUOUS
10
5.33924
20
-3.69575
11
5.3264
21
-3.69919
0
LINE
8
BLACK
6
CONTINUOUS
10
5.3264
20
-3.69919
11
5.31327
21
-3.70127
0
LINE
8
BLACK
6
CONTINUOUS
10
5.31327
20
-3.70127
11
5.3
21
-3.70197
0
LINE
8
BLACK
6
CONTINUOUS
10
5.3
20
-3.70197
11
2.8
21
-3.70197
0
LINE
8
BLACK
6
CONTINUOUS
10
2.8
20
-3.70197
11
2.78673
21
-3.70127
0
LINE
8
BLACK
6
CONTINUOUS
10
2.78673
20
-3.70127
11
2.7736
21
-3.69919
0
LINE
8
BLACK
6
CONTINUOUS
10
2.7736
20
-3.69919
11
2.76076
21
-3.69575
0
LINE
8
BLACK
6
CONTINUOUS
10
2.76076
20
-3.69575
11
2.74836
21
-3.69099
0
LINE
8
BLACK
6
CONTINUOUS
10
2.74836
20
-3.69099
11
2.73652
21
-3.68496
0
LINE
8
BLACK
6
CONTINUOUS
10
2.73652
20
-3.68496
11
2.72537
21
-3.67772
0
LINE
8
BLACK
6
CONTINUOUS
10
2.72537
20
-3.67772
11
2.71504
21
-3.66936
0
LINE
8
BLACK
6
CONTINUOUS
10
2.71504
20
-3.66936
11
2.70564
21
-3.65996
0
LINE
8
BLACK
6
CONTINUOUS
10
2.70564
20
-3.65996
11
2.69728
21
-3.64963
0
LINE
8
BLACK
6
CONTINUOUS
10
2.69728
20
-3.64963
11
2.69004
21
-3.63848
0
LINE
8
BLACK
6
CONTINUOUS
10
2.69004
20
-3.63848
11
2.68401
21
-3.62664
0
LINE
8
BLACK
6
CONTINUOUS
10
2.68401
20
-3.62664
11
2.67925
21
-3.61424
0
LINE
8
BLACK
6
CONTINUOUS
10
2.67925
20
-3.61424
11
2.67581
21
-3.6014
0
LINE
8
BLACK
6
CONTINUOUS
10
2.67581
20
-3.6014
11
2.67373
21
-3.58827
0
LINE
8
BLACK
6
CONTINUOUS
10
2.67373
20
-3.58827
11
2.67303
21
-3.575
0
LINE
8
BLACK
6
CONTINUOUS
10
2.67303
20
-3.575
11
2.67303
21
-3.45
0
LINE
8
BLACK
6
CONTINUOUS
10
2.67303
20
-3.45
11
2.67303
21
-1.575
0
LINE
8
BLACK
6
CONTINUOUS
10
2.67303
20
-1.575
11
2.67373
21
-1.56173
0
LINE
8
BLACK
6
CONTINUOUS
10
2.67373
20
-1.56173
11
2.67581
21
-1.5486
0
LINE
8
BLACK
6
CONTINUOUS
10
2.67581
20
-1.5486
11
2.67925
21
-1.53576
0
LINE
8
BLACK
6
CONTINUOUS
10
2.67925
20
-1.53576
11
2.68401
21
-1.52336
0
LINE
8
BLACK
6
CONTINUOUS
10
2.68401
20
-1.52336
11
2.69004
21
-1.51152
0
LINE
8
BLACK
6
CONTINUOUS
10
2.69004
20
-1.51152
11
2.69728
21
-1.50037
0
LINE
8
BLACK
6
CONTINUOUS
10
2.69728
20
-1.50037
11
2.70564
21
-1.49004
0
LINE
8
BLACK
6
CONTINUOUS
10
2.70564
20
-1.49004
11
2.71504
21
-1.48064
0
LINE
8
BLACK
6
CONTINUOUS
10
2.71504
20
-1.48064
11
2.72537
21
-1.47228
0
LINE
8
BLACK
6
CONTINUOUS
10
2.72537
20
-1.47228
11
2.73652
21
-1.46504
0
LINE
8
BLACK
6
CONTINUOUS
10
2.73652
20
-1.46504
11
2.74836
21
-1.45901
0
LINE
8
BLACK
6
CONTINUOUS
10
2.74836
20
-1.45901
11
2.76076
21
-1.45425
0
LINE
8
BLACK
6
CONTINUOUS
10
2.76076
20
-1.45425
11
2.7736
21
-1.45081
0
LINE
8
BLACK
6
CONTINUOUS
10
2.7736
20
-1.45081
11
2.78673
21
-1.44873
0
LINE
8
BLACK
6
CONTINUOUS
10
2.78673
20
-1.44873
11
2.8
21
-1.44803
0
LINE
8
BLACK
6
CONTINUOUS
10
2.8
20
-1.44803
11
5.2
21
-1.44803
0
LINE
8
BLACK
6
CONTINUOUS
10
2.8
20
-1.45197
11
2.79355
21
-1.45197
0
LINE
8
BLACK
6
CONTINUOUS
10
2.79355
20
-1.45197
11
2.78073
21
-1.45332
0
LINE
8
BLACK
6
CONTINUOUS
10
2.78073
20
-1.45332
11
2.76811
21
-1.456
0
LINE
8
BLACK
6
CONTINUOUS
10
2.76811
20
-1.456
11
2.75585
21
-1.45998
0
LINE
8
BLACK
6
CONTINUOUS
10
2.75585
20
-1.45998
11
2.74407
21
-1.46523
0
LINE
8
BLACK
6
CONTINUOUS
10
2.74407
20
-1.46523
11
2.7329
21
-1.47168
0
LINE
8
BLACK
6
CONTINUOUS
10
2.7329
20
-1.47168
11
2.72247
21
-1.47926
0
LINE
8
BLACK
6
CONTINUOUS
10
2.72247
20
-1.47926
11
2.71288
21
-1.48788
0
LINE
8
BLACK
6
CONTINUOUS
10
2.71288
20
-1.48788
11
2.70426
21
-1.49747
0
LINE
8
BLACK
6
CONTINUOUS
10
2.70426
20
-1.49747
11
2.69668
21
-1.5079
0
LINE
8
BLACK
6
CONTINUOUS
10
2.69668
20
-1.5079
11
2.69023
21
-1.51907
0
LINE
8
BLACK
6
CONTINUOUS
10
2.69023
20
-1.51907
11
2.68498
21
-1.53085
0
LINE
8
BLACK
6
CONTINUOUS
10
2.68498
20
-1.53085
11
2.681
21
-1.54311
0
LINE
8
BLACK
6
CONTINUOUS
10
2.681
20
-1.54311
11
2.67832
21
-1.55573
0
LINE
8
BLACK
6
CONTINUOUS
10
2.67832
20
-1.55573
11
2.67697
21
-1.56855
0
LINE
8
BLACK
6
CONTINUOUS
10
2.67697
20
-1.56855
11
2.67697
21
-1.575
0
LINE
8
BLACK
6
CONTINUOUS
10
2.67697
20
-1.575
11
2.67697
21
-3.45
0
LINE
8
BLACK
6
CONTINUOUS
10
2.67697
20
-3.45
11
2.67697
21
-3.575
0
LINE
8
BLACK
6
CONTINUOUS
10
2.67697
20
-3.575
11
2.67697
21
-3.58145
0
LINE
8
BLACK
6
CONTINUOUS
10
2.67697
20
-3.58145
11
2.67832
21
-3.59427
0
LINE
8
BLACK
6
CONTINUOUS
10
2.67832
20
-3.59427
11
2.681
21
-3.60689
0
LINE
8
BLACK
6
CONTINUOUS
10
2.681
20
-3.60689
11
2.68498
21
-3.61915
0
LINE
8
BLACK
6
CONTINUOUS
10
2.68498
20
-3.61915
11
2.69023
21
-3.63093
0
LINE
8
BLACK
6
CONTINUOUS
10
2.69023
20
-3.63093
11
2.69668
21
-3.6421
0
LINE
8
BLACK
6
CONTINUOUS
10
2.69668
20
-3.6421
11
2.70426
21
-3.65253
0
LINE
8
BLACK
6
CONTINUOUS
10
2.70426
20
-3.65253
11
2.71288
21
-3.66212
0
LINE
8
BLACK
6
CONTINUOUS
10
2.71288
20
-3.66212
11
2.72247
21
-3.67074
0
LINE
8
BLACK
6
CONTINUOUS
10
2.72247
20
-3.67074
11
2.7329
21
-3.67832
0
LINE
8
BLACK
6
CONTINUOUS
10
2.7329
20
-3.67832
11
2.74407
21
-3.68477
0
LINE
8
BLACK
6
CONTINUOUS
10
2.74407
20
-3.68477
11
2.75585
21
-3.69002
0
LINE
8
BLACK
6
CONTINUOUS
10
2.75585
20
-3.69002
11
2.76811
21
-3.694
0
LINE
8
BLACK
6
CONTINUOUS
10
2.76811
20
-3.694
11
2.78073
21
-3.69668
0
LINE
8
BLACK
6
CONTINUOUS
10
2.78073
20
-3.69668
11
2.79355
21
-3.69803
0
LINE
8
BLACK
6
CONTINUOUS
10
2.79355
20
-3.69803
11
2.8
21
-3.69803
0
LINE
8
BLACK
6
CONTINUOUS
10
2.8
20
-3.69803
11
5.3
21
-3.69803
0
LINE
8
BLACK
6
CONTINUOUS
10
5.3
20
-3.69803
11
5.30645
21
-3.69803
0
LINE
8
BLACK
6
CONTINUOUS
10
5.30645
20
-3.69803
11
5.31927
21
-3.69668
0
LINE
8
BLACK
6
CONTINUOUS
10
5.31927
20
-3.69668
11
5.33189
21
-3.694
0
LINE
8
BLACK
6
CONTINUOUS
10
5.33189
20
-3.694
11
5.34415
21
-3.69002
0
LINE
8
BLACK
6
CONTINUOUS
10
5.34415
20
-3.69002
11
5.35593
21
-3.68477
0
LINE
8
BLACK
6
CONTINUOUS
10
5.35593
20
-3.68477
11
5.3671
21
-3.67832
0
LINE
8
BLACK
6
CONTINUOUS
10
5.3671
20
-3.67832
11
5.37753
21
-3.67074
0
LINE
8
BLACK
6
CONTINUOUS
10
5.37753
20
-3.67074
11
5.38712
21
-3.66212
0
LINE
8
BLACK
6
CONTINUOUS
10
5.38712
20
-3.66212
11
5.39574
21
-3.65253
0
LINE
8
BLACK
6
CONTINUOUS
10
5.39574
20
-3.65253
11
5.40332
21
-3.6421
0
LINE
8
BLACK
6
CONTINUOUS
10
5.40332
20
-3.6421
11
5.40977
21
-3.63093
0
LINE
8
BLACK
6
CONTINUOUS
10
5.40977
20
-3.63093
11
5.41502
21
-3.61915
0
LINE
8
BLACK
6
CONTINUOUS
10
5.41502
20
-3.61915
11
5.419
21
-3.60689
0
LINE
8
BLACK
6
CONTINUOUS
10
5.419
20
-3.60689
11
5.42168
21
-3.59427
0
LINE
8
BLACK
6
CONTINUOUS
10
5.42168
20
-3.59427
11
5.42303
21
-3.58145
0
LINE
8
BLACK
6
CONTINUOUS
10
5.42303
20
-3.58145
11
5.42303
21
-3.575
0
LINE
8
BLACK
6
CONTINUOUS
10
5.42303
20
-3.575
11
5.42303
21
-1.575
0
LINE
8
BLACK
6
CONTINUOUS
10
5.42303
20
-1.575
11
5.42303
21
-1.56855
0
LINE
8
BLACK
6
CONTINUOUS
10
5.42303
20
-1.56855
11
5.42168
21
-1.55573
0
LINE
8
BLACK
6
CONTINUOUS
10
5.42168
20
-1.55573
11
5.419
21
-1.54311
0
LINE
8
BLACK
6
CONTINUOUS
10
5.419
20
-1.54311
11
5.41502
21
-1.53085
0
LINE
8
BLACK
6
CONTINUOUS
10
5.41502
20
-1.53085
11
5.40977
21
-1.51907
0
LINE
8
BLACK
6
CONTINUOUS
10
5.40977
20
-1.51907
11
5.40332
21
-1.5079
0
LINE
8
BLACK
6
CONTINUOUS
10
5.40332
20
-1.5079
11
5.39574
21
-1.49747
0
LINE
8
BLACK
6
CONTINUOUS
10
5.39574
20
-1.49747
11
5.38712
21
-1.48788
0
LINE
8
BLACK
6
CONTINUOUS
10
5.38712
20
-1.48788
11
5.37753
21
-1.47926
0
LINE
8
BLACK
6
CONTINUOUS
10
5.37753
20
-1.47926
11
5.3671
21
-1.47168
0
LINE
8
BLACK
6
CONTINUOUS
10
5.3671
20
-1.47168
11
5.35593
21
-1.46523
0
LINE
8
BLACK
6
CONTINUOUS
10
5.35593
20
-1.46523
11
5.34415
21
-1.45998
0
LINE
8
BLACK
6
CONTINUOUS
10
5.34415
20
-1.45998
11
5.33189
21
-1.456
0
LINE
8
BLACK
6
CONTINUOUS
10
5.33189
20
-1.456
11
5.31927
21
-1.45332
0
LINE
8
BLACK
6
CONTINUOUS
10
5.31927
20
-1.45332
11
5.30645
21
-1.45197
0
LINE
8
BLACK
6
CONTINUOUS
10
5.30645
20
-1.45197
11
5.3
21
-1.45197
0
LINE
8
BLACK
6
CONTINUOUS
10
5.3
20
-1.45197
11
5.2
21
-1.45197
0
LINE
8
BLACK
6
CONTINUOUS
10
5.2
20
-1.45197
11
2.8
21
-1.45197
  0
ENDSEC
  0
EOF
