  0
SECTION
  2
HEADER
  9
$ANGBASE
  50
0.0
  9
$ANGDIR
  70
1
  9
$MEASUREMENT
  70
0
  0
ENDSEC
  0
SECTION
  2
TABLES
  0
TABLE
  2
LTYPE
  70
4
  0
LTYPE
  5
40F
  2
CONTINUOUS
  70
0
  3
Solid line
  72
65
  73
0
  40
0.0
  0
LTYPE
  5
410
  2
DASHDOT
 70
0
  3
Dash Dot ____ _ ____ _
 72
65
 73
4
 40
2.0
 49
1.25
 49
-0.25
 49
0.25
 49
-0.25
  0
LTYPE
  5
411
  2
DASHED
 70
0
  3
Dashed __ __ __ __ __
 72
65
 73
2
 40
0.75
 49
0.5
 49
-0.25
  0
LTYPE
  5
43B
  2
DOTTED
 70
0
  3
Dotted .  .  .  .
 72
65
 73
2
 40
0.2
 49
0.0
 49
-0.2
  0
ENDTAB
  0
TABLE
  2
STYLE
  70
4
  0
STYLE
  2
KICAD
  70
0
  40
0
  41
1
  42
1
  50
0
  71
0
  3
isocp.shx
  0
STYLE
  2
KICADB
  70
0
  40
0
  41
1
  42
1
  50
0
  71
0
  3
isocp.shx
  0
STYLE
  2
KICADI
  70
0
  40
0
  41
1
  42
1
  50
15
  71
0
  3
isocp.shx
  0
STYLE
  2
KICADBI
  70
0
  40
0
  41
1
  42
1
  50
15
  71
0
  3
isocp.shx
  0
ENDTAB
  0
TABLE
  2
LAYER
  70
1
  0
LAYER
  2
BLACK
  70
0
  62
7
  6
CONTINUOUS
  0
ENDTAB
  0
ENDSEC
  0
SECTION
  2
ENTITIES
0
LINE
8
BLACK
6
CONTINUOUS
10
2.85731
20
-3.38787
11
2.85744
21
-3.38784
0
LINE
8
BLACK
6
CONTINUOUS
10
2.85744
20
-3.38784
11
2.85755
21
-3.38791
0
LINE
8
BLACK
6
CONTINUOUS
10
2.85755
20
-3.38791
11
2.85788
21
-3.38797
0
LINE
8
BLACK
6
CONTINUOUS
10
2.85788
20
-3.38797
11
2.85849
21
-3.38848
0
LINE
8
BLACK
6
CONTINUOUS
10
2.85849
20
-3.38848
11
2.85917
21
-3.38889
0
LINE
8
BLACK
6
CONTINUOUS
10
2.85917
20
-3.38889
11
2.85925
21
-3.38911
0
LINE
8
BLACK
6
CONTINUOUS
10
2.85925
20
-3.38911
11
2.85943
21
-3.38926
0
LINE
8
BLACK
6
CONTINUOUS
10
2.85943
20
-3.38926
11
2.85957
21
-3.39005
0
LINE
8
BLACK
6
CONTINUOUS
10
2.85957
20
-3.39005
11
2.85982
21
-3.3908
0
LINE
8
BLACK
6
CONTINUOUS
10
2.85982
20
-3.3908
11
2.85974
21
-3.39102
0
LINE
8
BLACK
6
CONTINUOUS
10
2.85974
20
-3.39102
11
2.85978
21
-3.39125
0
LINE
8
BLACK
6
CONTINUOUS
10
2.85978
20
-3.39125
11
2.85938
21
-3.39194
0
LINE
8
BLACK
6
CONTINUOUS
10
2.85938
20
-3.39194
11
2.85909
21
-3.39269
0
LINE
8
BLACK
6
CONTINUOUS
10
2.85909
20
-3.39269
11
2.85014
21
-3.40292
0
LINE
8
BLACK
6
CONTINUOUS
10
2.85014
20
-3.40292
11
2.85038
21
-3.40296
0
LINE
8
BLACK
6
CONTINUOUS
10
2.85038
20
-3.40296
11
2.85052
21
-3.40308
0
LINE
8
BLACK
6
CONTINUOUS
10
2.85052
20
-3.40308
11
2.85069
21
-3.4031
0
LINE
8
BLACK
6
CONTINUOUS
10
2.85069
20
-3.4031
11
2.85444
21
-3.40497
0
LINE
8
BLACK
6
CONTINUOUS
10
2.85444
20
-3.40497
11
2.85515
21
-3.4055
0
LINE
8
BLACK
6
CONTINUOUS
10
2.85515
20
-3.4055
11
2.85521
21
-3.40553
0
LINE
8
BLACK
6
CONTINUOUS
10
2.85521
20
-3.40553
11
2.85708
21
-3.4074
0
LINE
8
BLACK
6
CONTINUOUS
10
2.85708
20
-3.4074
11
2.85759
21
-3.40812
0
LINE
8
BLACK
6
CONTINUOUS
10
2.85759
20
-3.40812
11
2.85764
21
-3.40817
0
LINE
8
BLACK
6
CONTINUOUS
10
2.85764
20
-3.40817
11
2.85951
21
-3.41192
0
LINE
8
BLACK
6
CONTINUOUS
10
2.85951
20
-3.41192
11
2.8598
21
-3.4129
0
LINE
8
BLACK
6
CONTINUOUS
10
2.8598
20
-3.4129
11
2.85976
21
-3.41307
0
LINE
8
BLACK
6
CONTINUOUS
10
2.85976
20
-3.41307
11
2.85982
21
-3.41324
0
LINE
8
BLACK
6
CONTINUOUS
10
2.85982
20
-3.41324
11
2.85982
21
-3.42261
0
LINE
8
BLACK
6
CONTINUOUS
10
2.85982
20
-3.42261
11
2.85965
21
-3.42362
0
LINE
8
BLACK
6
CONTINUOUS
10
2.85965
20
-3.42362
11
2.85953
21
-3.42376
0
LINE
8
BLACK
6
CONTINUOUS
10
2.85953
20
-3.42376
11
2.85951
21
-3.42393
0
LINE
8
BLACK
6
CONTINUOUS
10
2.85951
20
-3.42393
11
2.85764
21
-3.42768
0
LINE
8
BLACK
6
CONTINUOUS
10
2.85764
20
-3.42768
11
2.85711
21
-3.42839
0
LINE
8
BLACK
6
CONTINUOUS
10
2.85711
20
-3.42839
11
2.85708
21
-3.42845
0
LINE
8
BLACK
6
CONTINUOUS
10
2.85708
20
-3.42845
11
2.85521
21
-3.43032
0
LINE
8
BLACK
6
CONTINUOUS
10
2.85521
20
-3.43032
11
2.85449
21
-3.43083
0
LINE
8
BLACK
6
CONTINUOUS
10
2.85449
20
-3.43083
11
2.85444
21
-3.43088
0
LINE
8
BLACK
6
CONTINUOUS
10
2.85444
20
-3.43088
11
2.85069
21
-3.43275
0
LINE
8
BLACK
6
CONTINUOUS
10
2.85069
20
-3.43275
11
2.84971
21
-3.43304
0
LINE
8
BLACK
6
CONTINUOUS
10
2.84971
20
-3.43304
11
2.84954
21
-3.433
0
LINE
8
BLACK
6
CONTINUOUS
10
2.84954
20
-3.433
11
2.84937
21
-3.43306
0
LINE
8
BLACK
6
CONTINUOUS
10
2.84937
20
-3.43306
11
2.83812
21
-3.43306
0
LINE
8
BLACK
6
CONTINUOUS
10
2.83812
20
-3.43306
11
2.83711
21
-3.43289
0
LINE
8
BLACK
6
CONTINUOUS
10
2.83711
20
-3.43289
11
2.83698
21
-3.43277
0
LINE
8
BLACK
6
CONTINUOUS
10
2.83698
20
-3.43277
11
2.8368
21
-3.43275
0
LINE
8
BLACK
6
CONTINUOUS
10
2.8368
20
-3.43275
11
2.83305
21
-3.43088
0
LINE
8
BLACK
6
CONTINUOUS
10
2.83305
20
-3.43088
11
2.83234
21
-3.43035
0
LINE
8
BLACK
6
CONTINUOUS
10
2.83234
20
-3.43035
11
2.83229
21
-3.43032
0
LINE
8
BLACK
6
CONTINUOUS
10
2.83229
20
-3.43032
11
2.83041
21
-3.42845
0
LINE
8
BLACK
6
CONTINUOUS
10
2.83041
20
-3.42845
11
2.82982
21
-3.42761
0
LINE
8
BLACK
6
CONTINUOUS
10
2.82982
20
-3.42761
11
2.82965
21
-3.4256
0
LINE
8
BLACK
6
CONTINUOUS
10
2.82965
20
-3.4256
11
2.83081
21
-3.42394
0
LINE
8
BLACK
6
CONTINUOUS
10
2.83081
20
-3.42394
11
2.83276
21
-3.42342
0
LINE
8
BLACK
6
CONTINUOUS
10
2.83276
20
-3.42342
11
2.83459
21
-3.42427
0
LINE
8
BLACK
6
CONTINUOUS
10
2.83459
20
-3.42427
11
2.83612
21
-3.42581
0
LINE
8
BLACK
6
CONTINUOUS
10
2.83612
20
-3.42581
11
2.83882
21
-3.42716
0
LINE
8
BLACK
6
CONTINUOUS
10
2.83882
20
-3.42716
11
2.84867
21
-3.42716
0
LINE
8
BLACK
6
CONTINUOUS
10
2.84867
20
-3.42716
11
2.85137
21
-3.42581
0
LINE
8
BLACK
6
CONTINUOUS
10
2.85137
20
-3.42581
11
2.85257
21
-3.42461
0
LINE
8
BLACK
6
CONTINUOUS
10
2.85257
20
-3.42461
11
2.85392
21
-3.42191
0
LINE
8
BLACK
6
CONTINUOUS
10
2.85392
20
-3.42191
11
2.85392
21
-3.41394
0
LINE
8
BLACK
6
CONTINUOUS
10
2.85392
20
-3.41394
11
2.85257
21
-3.41124
0
LINE
8
BLACK
6
CONTINUOUS
10
2.85257
20
-3.41124
11
2.85137
21
-3.41004
0
LINE
8
BLACK
6
CONTINUOUS
10
2.85137
20
-3.41004
11
2.84867
21
-3.40869
0
LINE
8
BLACK
6
CONTINUOUS
10
2.84867
20
-3.40869
11
2.84375
21
-3.40869
0
LINE
8
BLACK
6
CONTINUOUS
10
2.84375
20
-3.40869
11
2.84331
21
-3.40861
0
LINE
8
BLACK
6
CONTINUOUS
10
2.84331
20
-3.40861
11
2.84317
21
-3.40864
0
LINE
8
BLACK
6
CONTINUOUS
10
2.84317
20
-3.40864
11
2.84307
21
-3.40857
0
LINE
8
BLACK
6
CONTINUOUS
10
2.84307
20
-3.40857
11
2.84274
21
-3.40851
0
LINE
8
BLACK
6
CONTINUOUS
10
2.84274
20
-3.40851
11
2.84213
21
-3.408
0
LINE
8
BLACK
6
CONTINUOUS
10
2.84213
20
-3.408
11
2.84145
21
-3.40759
0
LINE
8
BLACK
6
CONTINUOUS
10
2.84145
20
-3.40759
11
2.84137
21
-3.40737
0
LINE
8
BLACK
6
CONTINUOUS
10
2.84137
20
-3.40737
11
2.84119
21
-3.40722
0
LINE
8
BLACK
6
CONTINUOUS
10
2.84119
20
-3.40722
11
2.84105
21
-3.40643
0
LINE
8
BLACK
6
CONTINUOUS
10
2.84105
20
-3.40643
11
2.8408
21
-3.40568
0
LINE
8
BLACK
6
CONTINUOUS
10
2.8408
20
-3.40568
11
2.84088
21
-3.40546
0
LINE
8
BLACK
6
CONTINUOUS
10
2.84088
20
-3.40546
11
2.84084
21
-3.40523
0
LINE
8
BLACK
6
CONTINUOUS
10
2.84084
20
-3.40523
11
2.84124
21
-3.40454
0
LINE
8
BLACK
6
CONTINUOUS
10
2.84124
20
-3.40454
11
2.84153
21
-3.40379
0
LINE
8
BLACK
6
CONTINUOUS
10
2.84153
20
-3.40379
11
2.85036
21
-3.39369
0
LINE
8
BLACK
6
CONTINUOUS
10
2.85036
20
-3.39369
11
2.8325
21
-3.39369
0
LINE
8
BLACK
6
CONTINUOUS
10
2.8325
20
-3.39369
11
2.83149
21
-3.39352
0
LINE
8
BLACK
6
CONTINUOUS
10
2.83149
20
-3.39352
11
2.82994
21
-3.39222
0
LINE
8
BLACK
6
CONTINUOUS
10
2.82994
20
-3.39222
11
2.82959
21
-3.39023
0
LINE
8
BLACK
6
CONTINUOUS
10
2.82959
20
-3.39023
11
2.8306
21
-3.38848
0
LINE
8
BLACK
6
CONTINUOUS
10
2.8306
20
-3.38848
11
2.8325
21
-3.38779
0
LINE
8
BLACK
6
CONTINUOUS
10
2.8325
20
-3.38779
11
2.85687
21
-3.38779
0
LINE
8
BLACK
6
CONTINUOUS
10
2.85687
20
-3.38779
11
2.85731
21
-3.38787
0
LINE
8
BLACK
6
CONTINUOUS
10
2.81976
20
-3.38884
11
2.82045
21
-3.39074
0
LINE
8
BLACK
6
CONTINUOUS
10
2.82045
20
-3.39074
11
2.82045
21
-3.43011
0
LINE
8
BLACK
6
CONTINUOUS
10
2.82045
20
-3.43011
11
2.82028
21
-3.43112
0
LINE
8
BLACK
6
CONTINUOUS
10
2.82028
20
-3.43112
11
2.81898
21
-3.43267
0
LINE
8
BLACK
6
CONTINUOUS
10
2.81898
20
-3.43267
11
2.81699
21
-3.43302
0
LINE
8
BLACK
6
CONTINUOUS
10
2.81699
20
-3.43302
11
2.81524
21
-3.43201
0
LINE
8
BLACK
6
CONTINUOUS
10
2.81524
20
-3.43201
11
2.81455
21
-3.43011
0
LINE
8
BLACK
6
CONTINUOUS
10
2.81455
20
-3.43011
11
2.81455
21
-3.41244
0
LINE
8
BLACK
6
CONTINUOUS
10
2.81455
20
-3.41244
11
2.79796
21
-3.41244
0
LINE
8
BLACK
6
CONTINUOUS
10
2.79796
20
-3.41244
11
2.79796
21
-3.43011
0
LINE
8
BLACK
6
CONTINUOUS
10
2.79796
20
-3.43011
11
2.79778
21
-3.43112
0
LINE
8
BLACK
6
CONTINUOUS
10
2.79778
20
-3.43112
11
2.79648
21
-3.43267
0
LINE
8
BLACK
6
CONTINUOUS
10
2.79648
20
-3.43267
11
2.79449
21
-3.43302
0
LINE
8
BLACK
6
CONTINUOUS
10
2.79449
20
-3.43302
11
2.79274
21
-3.43201
0
LINE
8
BLACK
6
CONTINUOUS
10
2.79274
20
-3.43201
11
2.79205
21
-3.43011
0
LINE
8
BLACK
6
CONTINUOUS
10
2.79205
20
-3.43011
11
2.79205
21
-3.39074
0
LINE
8
BLACK
6
CONTINUOUS
10
2.79205
20
-3.39074
11
2.79223
21
-3.38973
0
LINE
8
BLACK
6
CONTINUOUS
10
2.79223
20
-3.38973
11
2.79353
21
-3.38818
0
LINE
8
BLACK
6
CONTINUOUS
10
2.79353
20
-3.38818
11
2.79552
21
-3.38783
0
LINE
8
BLACK
6
CONTINUOUS
10
2.79552
20
-3.38783
11
2.79727
21
-3.38884
0
LINE
8
BLACK
6
CONTINUOUS
10
2.79727
20
-3.38884
11
2.79796
21
-3.39074
0
LINE
8
BLACK
6
CONTINUOUS
10
2.79796
20
-3.39074
11
2.79796
21
-3.40654
0
LINE
8
BLACK
6
CONTINUOUS
10
2.79796
20
-3.40654
11
2.81455
21
-3.40654
0
LINE
8
BLACK
6
CONTINUOUS
10
2.81455
20
-3.40654
11
2.81455
21
-3.39074
0
LINE
8
BLACK
6
CONTINUOUS
10
2.81455
20
-3.39074
11
2.81473
21
-3.38973
0
LINE
8
BLACK
6
CONTINUOUS
10
2.81473
20
-3.38973
11
2.81602
21
-3.38818
0
LINE
8
BLACK
6
CONTINUOUS
10
2.81602
20
-3.38818
11
2.81801
21
-3.38783
0
LINE
8
BLACK
6
CONTINUOUS
10
2.81801
20
-3.38783
11
2.81976
21
-3.38884
0
LINE
8
BLACK
6
CONTINUOUS
10
5.26976
20
-3.38884
11
5.27045
21
-3.39074
0
LINE
8
BLACK
6
CONTINUOUS
10
5.27045
20
-3.39074
11
5.27045
21
-3.43011
0
LINE
8
BLACK
6
CONTINUOUS
10
5.27045
20
-3.43011
11
5.27028
21
-3.43112
0
LINE
8
BLACK
6
CONTINUOUS
10
5.27028
20
-3.43112
11
5.26898
21
-3.43267
0
LINE
8
BLACK
6
CONTINUOUS
10
5.26898
20
-3.43267
11
5.26699
21
-3.43302
0
LINE
8
BLACK
6
CONTINUOUS
10
5.26699
20
-3.43302
11
5.26524
21
-3.43201
0
LINE
8
BLACK
6
CONTINUOUS
10
5.26524
20
-3.43201
11
5.26455
21
-3.43011
0
LINE
8
BLACK
6
CONTINUOUS
10
5.26455
20
-3.43011
11
5.26455
21
-3.41244
0
LINE
8
BLACK
6
CONTINUOUS
10
5.26455
20
-3.41244
11
5.24796
21
-3.41244
0
LINE
8
BLACK
6
CONTINUOUS
10
5.24796
20
-3.41244
11
5.24796
21
-3.43011
0
LINE
8
BLACK
6
CONTINUOUS
10
5.24796
20
-3.43011
11
5.24778
21
-3.43112
0
LINE
8
BLACK
6
CONTINUOUS
10
5.24778
20
-3.43112
11
5.24648
21
-3.43267
0
LINE
8
BLACK
6
CONTINUOUS
10
5.24648
20
-3.43267
11
5.24449
21
-3.43302
0
LINE
8
BLACK
6
CONTINUOUS
10
5.24449
20
-3.43302
11
5.24274
21
-3.43201
0
LINE
8
BLACK
6
CONTINUOUS
10
5.24274
20
-3.43201
11
5.24205
21
-3.43011
0
LINE
8
BLACK
6
CONTINUOUS
10
5.24205
20
-3.43011
11
5.24205
21
-3.39074
0
LINE
8
BLACK
6
CONTINUOUS
10
5.24205
20
-3.39074
11
5.24223
21
-3.38973
0
LINE
8
BLACK
6
CONTINUOUS
10
5.24223
20
-3.38973
11
5.24353
21
-3.38818
0
LINE
8
BLACK
6
CONTINUOUS
10
5.24353
20
-3.38818
11
5.24552
21
-3.38783
0
LINE
8
BLACK
6
CONTINUOUS
10
5.24552
20
-3.38783
11
5.24727
21
-3.38884
0
LINE
8
BLACK
6
CONTINUOUS
10
5.24727
20
-3.38884
11
5.24796
21
-3.39074
0
LINE
8
BLACK
6
CONTINUOUS
10
5.24796
20
-3.39074
11
5.24796
21
-3.40654
0
LINE
8
BLACK
6
CONTINUOUS
10
5.24796
20
-3.40654
11
5.26455
21
-3.40654
0
LINE
8
BLACK
6
CONTINUOUS
10
5.26455
20
-3.40654
11
5.26455
21
-3.39074
0
LINE
8
BLACK
6
CONTINUOUS
10
5.26455
20
-3.39074
11
5.26473
21
-3.38973
0
LINE
8
BLACK
6
CONTINUOUS
10
5.26473
20
-3.38973
11
5.26602
21
-3.38818
0
LINE
8
BLACK
6
CONTINUOUS
10
5.26602
20
-3.38818
11
5.26801
21
-3.38783
0
LINE
8
BLACK
6
CONTINUOUS
10
5.26801
20
-3.38783
11
5.26976
21
-3.38884
0
LINE
8
BLACK
6
CONTINUOUS
10
5.29515
20
-3.38627
11
5.29649
21
-3.38778
0
LINE
8
BLACK
6
CONTINUOUS
10
5.29649
20
-3.38778
11
5.29655
21
-3.3898
0
LINE
8
BLACK
6
CONTINUOUS
10
5.29655
20
-3.3898
11
5.28847
21
-3.41403
0
LINE
8
BLACK
6
CONTINUOUS
10
5.28847
20
-3.41403
11
5.30017
21
-3.41403
0
LINE
8
BLACK
6
CONTINUOUS
10
5.30017
20
-3.41403
11
5.30017
21
-3.40386
0
LINE
8
BLACK
6
CONTINUOUS
10
5.30017
20
-3.40386
11
5.30035
21
-3.40285
0
LINE
8
BLACK
6
CONTINUOUS
10
5.30035
20
-3.40285
11
5.30165
21
-3.40131
0
LINE
8
BLACK
6
CONTINUOUS
10
5.30165
20
-3.40131
11
5.30363
21
-3.40096
0
LINE
8
BLACK
6
CONTINUOUS
10
5.30363
20
-3.40096
11
5.30538
21
-3.40197
0
LINE
8
BLACK
6
CONTINUOUS
10
5.30538
20
-3.40197
11
5.30607
21
-3.40386
0
LINE
8
BLACK
6
CONTINUOUS
10
5.30607
20
-3.40386
11
5.30607
21
-3.41403
0
LINE
8
BLACK
6
CONTINUOUS
10
5.30607
20
-3.41403
11
5.30875
21
-3.41403
0
LINE
8
BLACK
6
CONTINUOUS
10
5.30875
20
-3.41403
11
5.30976
21
-3.41421
0
LINE
8
BLACK
6
CONTINUOUS
10
5.30976
20
-3.41421
11
5.3113
21
-3.41551
0
LINE
8
BLACK
6
CONTINUOUS
10
5.3113
20
-3.41551
11
5.31165
21
-3.4175
0
LINE
8
BLACK
6
CONTINUOUS
10
5.31165
20
-3.4175
11
5.31064
21
-3.41925
0
LINE
8
BLACK
6
CONTINUOUS
10
5.31064
20
-3.41925
11
5.30875
21
-3.41994
0
LINE
8
BLACK
6
CONTINUOUS
10
5.30875
20
-3.41994
11
5.30607
21
-3.41994
0
LINE
8
BLACK
6
CONTINUOUS
10
5.30607
20
-3.41994
11
5.30607
21
-3.43011
0
LINE
8
BLACK
6
CONTINUOUS
10
5.30607
20
-3.43011
11
5.3059
21
-3.43112
0
LINE
8
BLACK
6
CONTINUOUS
10
5.3059
20
-3.43112
11
5.3046
21
-3.43267
0
LINE
8
BLACK
6
CONTINUOUS
10
5.3046
20
-3.43267
11
5.30261
21
-3.43302
0
LINE
8
BLACK
6
CONTINUOUS
10
5.30261
20
-3.43302
11
5.30086
21
-3.43201
0
LINE
8
BLACK
6
CONTINUOUS
10
5.30086
20
-3.43201
11
5.30017
21
-3.43011
0
LINE
8
BLACK
6
CONTINUOUS
10
5.30017
20
-3.43011
11
5.30017
21
-3.41994
0
LINE
8
BLACK
6
CONTINUOUS
10
5.30017
20
-3.41994
11
5.28437
21
-3.41994
0
LINE
8
BLACK
6
CONTINUOUS
10
5.28437
20
-3.41994
11
5.28336
21
-3.41976
0
LINE
8
BLACK
6
CONTINUOUS
10
5.28336
20
-3.41976
11
5.28319
21
-3.41962
0
LINE
8
BLACK
6
CONTINUOUS
10
5.28319
20
-3.41962
11
5.28297
21
-3.41958
0
LINE
8
BLACK
6
CONTINUOUS
10
5.28297
20
-3.41958
11
5.28243
21
-3.41898
0
LINE
8
BLACK
6
CONTINUOUS
10
5.28243
20
-3.41898
11
5.28182
21
-3.41846
0
LINE
8
BLACK
6
CONTINUOUS
10
5.28182
20
-3.41846
11
5.28178
21
-3.41824
0
LINE
8
BLACK
6
CONTINUOUS
10
5.28178
20
-3.41824
11
5.28163
21
-3.41807
0
LINE
8
BLACK
6
CONTINUOUS
10
5.28163
20
-3.41807
11
5.28161
21
-3.41727
0
LINE
8
BLACK
6
CONTINUOUS
10
5.28161
20
-3.41727
11
5.28147
21
-3.41647
0
LINE
8
BLACK
6
CONTINUOUS
10
5.28147
20
-3.41647
11
5.28158
21
-3.41628
0
LINE
8
BLACK
6
CONTINUOUS
10
5.28158
20
-3.41628
11
5.28157
21
-3.41605
0
LINE
8
BLACK
6
CONTINUOUS
10
5.28157
20
-3.41605
11
5.29095
21
-3.38793
0
LINE
8
BLACK
6
CONTINUOUS
10
5.29095
20
-3.38793
11
5.29143
21
-3.38703
0
LINE
8
BLACK
6
CONTINUOUS
10
5.29143
20
-3.38703
11
5.29316
21
-3.38597
0
LINE
8
BLACK
6
CONTINUOUS
10
5.29316
20
-3.38597
11
5.29515
21
-3.38627
0
LINE
8
BLACK
6
CONTINUOUS
10
4.2057
20
-3.37475
11
4.20577
21
-3.37475
0
LINE
8
BLACK
6
CONTINUOUS
10
4.20577
20
-3.37475
11
4.21139
21
-3.37663
0
LINE
8
BLACK
6
CONTINUOUS
10
4.21139
20
-3.37663
11
4.21229
21
-3.37711
0
LINE
8
BLACK
6
CONTINUOUS
10
4.21229
20
-3.37711
11
4.21335
21
-3.37883
0
LINE
8
BLACK
6
CONTINUOUS
10
4.21335
20
-3.37883
11
4.21305
21
-3.38083
0
LINE
8
BLACK
6
CONTINUOUS
10
4.21305
20
-3.38083
11
4.21154
21
-3.38217
0
LINE
8
BLACK
6
CONTINUOUS
10
4.21154
20
-3.38217
11
4.20952
21
-3.38223
0
LINE
8
BLACK
6
CONTINUOUS
10
4.20952
20
-3.38223
11
4.20435
21
-3.3805
0
LINE
8
BLACK
6
CONTINUOUS
10
4.20435
20
-3.3805
11
4.19616
21
-3.3805
0
LINE
8
BLACK
6
CONTINUOUS
10
4.19616
20
-3.3805
11
4.19346
21
-3.38185
0
LINE
8
BLACK
6
CONTINUOUS
10
4.19346
20
-3.38185
11
4.19226
21
-3.38305
0
LINE
8
BLACK
6
CONTINUOUS
10
4.19226
20
-3.38305
11
4.19091
21
-3.38575
0
LINE
8
BLACK
6
CONTINUOUS
10
4.19091
20
-3.38575
11
4.19091
21
-3.3881
0
LINE
8
BLACK
6
CONTINUOUS
10
4.19091
20
-3.3881
11
4.19226
21
-3.3908
0
LINE
8
BLACK
6
CONTINUOUS
10
4.19226
20
-3.3908
11
4.19346
21
-3.392
0
LINE
8
BLACK
6
CONTINUOUS
10
4.19346
20
-3.392
11
4.19649
21
-3.39351
0
LINE
8
BLACK
6
CONTINUOUS
10
4.19649
20
-3.39351
11
4.20367
21
-3.39531
0
LINE
8
BLACK
6
CONTINUOUS
10
4.20367
20
-3.39531
11
4.20414
21
-3.39552
0
LINE
8
BLACK
6
CONTINUOUS
10
4.20414
20
-3.39552
11
4.20428
21
-3.39553
0
LINE
8
BLACK
6
CONTINUOUS
10
4.20428
20
-3.39553
11
4.20803
21
-3.39741
0
LINE
8
BLACK
6
CONTINUOUS
10
4.20803
20
-3.39741
11
4.20874
21
-3.39793
0
LINE
8
BLACK
6
CONTINUOUS
10
4.20874
20
-3.39793
11
4.2088
21
-3.39796
0
LINE
8
BLACK
6
CONTINUOUS
10
4.2088
20
-3.39796
11
4.21067
21
-3.39984
0
LINE
8
BLACK
6
CONTINUOUS
10
4.21067
20
-3.39984
11
4.21118
21
-3.40056
0
LINE
8
BLACK
6
CONTINUOUS
10
4.21118
20
-3.40056
11
4.21122
21
-3.4006
0
LINE
8
BLACK
6
CONTINUOUS
10
4.21122
20
-3.4006
11
4.2131
21
-3.40435
0
LINE
8
BLACK
6
CONTINUOUS
10
4.2131
20
-3.40435
11
4.21339
21
-3.40534
0
LINE
8
BLACK
6
CONTINUOUS
10
4.21339
20
-3.40534
11
4.21335
21
-3.40551
0
LINE
8
BLACK
6
CONTINUOUS
10
4.21335
20
-3.40551
11
4.21341
21
-3.40567
0
LINE
8
BLACK
6
CONTINUOUS
10
4.21341
20
-3.40567
11
4.21341
21
-3.40942
0
LINE
8
BLACK
6
CONTINUOUS
10
4.21341
20
-3.40942
11
4.21323
21
-3.41043
0
LINE
8
BLACK
6
CONTINUOUS
10
4.21323
20
-3.41043
11
4.21312
21
-3.41057
0
LINE
8
BLACK
6
CONTINUOUS
10
4.21312
20
-3.41057
11
4.2131
21
-3.41074
0
LINE
8
BLACK
6
CONTINUOUS
10
4.2131
20
-3.41074
11
4.21122
21
-3.41449
0
LINE
8
BLACK
6
CONTINUOUS
10
4.21122
20
-3.41449
11
4.2107
21
-3.4152
0
LINE
8
BLACK
6
CONTINUOUS
10
4.2107
20
-3.4152
11
4.21067
21
-3.41526
0
LINE
8
BLACK
6
CONTINUOUS
10
4.21067
20
-3.41526
11
4.2088
21
-3.41714
0
LINE
8
BLACK
6
CONTINUOUS
10
4.2088
20
-3.41714
11
4.20807
21
-3.41764
0
LINE
8
BLACK
6
CONTINUOUS
10
4.20807
20
-3.41764
11
4.20803
21
-3.41769
0
LINE
8
BLACK
6
CONTINUOUS
10
4.20803
20
-3.41769
11
4.20428
21
-3.41956
0
LINE
8
BLACK
6
CONTINUOUS
10
4.20428
20
-3.41956
11
4.2033
21
-3.41986
0
LINE
8
BLACK
6
CONTINUOUS
10
4.2033
20
-3.41986
11
4.20312
21
-3.41981
0
LINE
8
BLACK
6
CONTINUOUS
10
4.20312
20
-3.41981
11
4.20296
21
-3.41987
0
LINE
8
BLACK
6
CONTINUOUS
10
4.20296
20
-3.41987
11
4.19358
21
-3.41987
0
LINE
8
BLACK
6
CONTINUOUS
10
4.19358
20
-3.41987
11
4.19271
21
-3.41972
0
LINE
8
BLACK
6
CONTINUOUS
10
4.19271
20
-3.41972
11
4.19265
21
-3.41972
0
LINE
8
BLACK
6
CONTINUOUS
10
4.19265
20
-3.41972
11
4.18703
21
-3.41785
0
LINE
8
BLACK
6
CONTINUOUS
10
4.18703
20
-3.41785
11
4.18612
21
-3.41736
0
LINE
8
BLACK
6
CONTINUOUS
10
4.18612
20
-3.41736
11
4.18507
21
-3.41564
0
LINE
8
BLACK
6
CONTINUOUS
10
4.18507
20
-3.41564
11
4.18536
21
-3.41364
0
LINE
8
BLACK
6
CONTINUOUS
10
4.18536
20
-3.41364
11
4.18687
21
-3.4123
0
LINE
8
BLACK
6
CONTINUOUS
10
4.18687
20
-3.4123
11
4.18889
21
-3.41225
0
LINE
8
BLACK
6
CONTINUOUS
10
4.18889
20
-3.41225
11
4.19406
21
-3.41397
0
LINE
8
BLACK
6
CONTINUOUS
10
4.19406
20
-3.41397
11
4.20226
21
-3.41397
0
LINE
8
BLACK
6
CONTINUOUS
10
4.20226
20
-3.41397
11
4.20496
21
-3.41262
0
LINE
8
BLACK
6
CONTINUOUS
10
4.20496
20
-3.41262
11
4.20616
21
-3.41142
0
LINE
8
BLACK
6
CONTINUOUS
10
4.20616
20
-3.41142
11
4.2075
21
-3.40873
0
LINE
8
BLACK
6
CONTINUOUS
10
4.2075
20
-3.40873
11
4.2075
21
-3.40637
0
LINE
8
BLACK
6
CONTINUOUS
10
4.2075
20
-3.40637
11
4.20616
21
-3.40367
0
LINE
8
BLACK
6
CONTINUOUS
10
4.20616
20
-3.40367
11
4.20496
21
-3.40248
0
LINE
8
BLACK
6
CONTINUOUS
10
4.20496
20
-3.40248
11
4.20193
21
-3.40096
0
LINE
8
BLACK
6
CONTINUOUS
10
4.20193
20
-3.40096
11
4.19474
21
-3.39916
0
LINE
8
BLACK
6
CONTINUOUS
10
4.19474
20
-3.39916
11
4.19428
21
-3.39896
0
LINE
8
BLACK
6
CONTINUOUS
10
4.19428
20
-3.39896
11
4.19414
21
-3.39894
0
LINE
8
BLACK
6
CONTINUOUS
10
4.19414
20
-3.39894
11
4.19039
21
-3.39707
0
LINE
8
BLACK
6
CONTINUOUS
10
4.19039
20
-3.39707
11
4.18968
21
-3.39654
0
LINE
8
BLACK
6
CONTINUOUS
10
4.18968
20
-3.39654
11
4.18962
21
-3.39651
0
LINE
8
BLACK
6
CONTINUOUS
10
4.18962
20
-3.39651
11
4.18775
21
-3.39464
0
LINE
8
BLACK
6
CONTINUOUS
10
4.18775
20
-3.39464
11
4.18724
21
-3.39391
0
LINE
8
BLACK
6
CONTINUOUS
10
4.18724
20
-3.39391
11
4.18719
21
-3.39387
0
LINE
8
BLACK
6
CONTINUOUS
10
4.18719
20
-3.39387
11
4.18532
21
-3.39012
0
LINE
8
BLACK
6
CONTINUOUS
10
4.18532
20
-3.39012
11
4.18503
21
-3.38914
0
LINE
8
BLACK
6
CONTINUOUS
10
4.18503
20
-3.38914
11
4.18507
21
-3.38897
0
LINE
8
BLACK
6
CONTINUOUS
10
4.18507
20
-3.38897
11
4.18501
21
-3.3888
0
LINE
8
BLACK
6
CONTINUOUS
10
4.18501
20
-3.3888
11
4.18501
21
-3.38505
0
LINE
8
BLACK
6
CONTINUOUS
10
4.18501
20
-3.38505
11
4.18518
21
-3.38404
0
LINE
8
BLACK
6
CONTINUOUS
10
4.18518
20
-3.38404
11
4.1853
21
-3.38391
0
LINE
8
BLACK
6
CONTINUOUS
10
4.1853
20
-3.38391
11
4.18532
21
-3.38373
0
LINE
8
BLACK
6
CONTINUOUS
10
4.18532
20
-3.38373
11
4.18719
21
-3.37998
0
LINE
8
BLACK
6
CONTINUOUS
10
4.18719
20
-3.37998
11
4.18772
21
-3.37927
0
LINE
8
BLACK
6
CONTINUOUS
10
4.18772
20
-3.37927
11
4.18775
21
-3.37921
0
LINE
8
BLACK
6
CONTINUOUS
10
4.18775
20
-3.37921
11
4.18962
21
-3.37734
0
LINE
8
BLACK
6
CONTINUOUS
10
4.18962
20
-3.37734
11
4.19034
21
-3.37683
0
LINE
8
BLACK
6
CONTINUOUS
10
4.19034
20
-3.37683
11
4.19039
21
-3.37679
0
LINE
8
BLACK
6
CONTINUOUS
10
4.19039
20
-3.37679
11
4.19414
21
-3.37491
0
LINE
8
BLACK
6
CONTINUOUS
10
4.19414
20
-3.37491
11
4.19512
21
-3.37462
0
LINE
8
BLACK
6
CONTINUOUS
10
4.19512
20
-3.37462
11
4.19529
21
-3.37466
0
LINE
8
BLACK
6
CONTINUOUS
10
4.19529
20
-3.37466
11
4.19546
21
-3.3746
0
LINE
8
BLACK
6
CONTINUOUS
10
4.19546
20
-3.3746
11
4.20483
21
-3.3746
0
LINE
8
BLACK
6
CONTINUOUS
10
4.20483
20
-3.3746
11
4.2057
21
-3.37475
0
LINE
8
BLACK
6
CONTINUOUS
10
4.28204
20
-3.37467
11
4.28221
21
-3.37464
0
LINE
8
BLACK
6
CONTINUOUS
10
4.28221
20
-3.37464
11
4.28295
21
-3.37507
0
LINE
8
BLACK
6
CONTINUOUS
10
4.28295
20
-3.37507
11
4.28374
21
-3.37542
0
LINE
8
BLACK
6
CONTINUOUS
10
4.28374
20
-3.37542
11
4.28381
21
-3.37557
0
LINE
8
BLACK
6
CONTINUOUS
10
4.28381
20
-3.37557
11
4.28396
21
-3.37565
0
LINE
8
BLACK
6
CONTINUOUS
10
4.28396
20
-3.37565
11
4.28425
21
-3.37646
0
LINE
8
BLACK
6
CONTINUOUS
10
4.28425
20
-3.37646
11
4.28463
21
-3.37723
0
LINE
8
BLACK
6
CONTINUOUS
10
4.28463
20
-3.37723
11
4.28459
21
-3.37739
0
LINE
8
BLACK
6
CONTINUOUS
10
4.28459
20
-3.37739
11
4.28465
21
-3.37755
0
LINE
8
BLACK
6
CONTINUOUS
10
4.28465
20
-3.37755
11
4.28465
21
-3.41397
0
LINE
8
BLACK
6
CONTINUOUS
10
4.28465
20
-3.41397
11
4.29295
21
-3.41397
0
LINE
8
BLACK
6
CONTINUOUS
10
4.29295
20
-3.41397
11
4.29396
21
-3.41415
0
LINE
8
BLACK
6
CONTINUOUS
10
4.29396
20
-3.41415
11
4.2955
21
-3.41545
0
LINE
8
BLACK
6
CONTINUOUS
10
4.2955
20
-3.41545
11
4.29585
21
-3.41743
0
LINE
8
BLACK
6
CONTINUOUS
10
4.29585
20
-3.41743
11
4.29484
21
-3.41918
0
LINE
8
BLACK
6
CONTINUOUS
10
4.29484
20
-3.41918
11
4.29295
21
-3.41987
0
LINE
8
BLACK
6
CONTINUOUS
10
4.29295
20
-3.41987
11
4.27045
21
-3.41987
0
LINE
8
BLACK
6
CONTINUOUS
10
4.27045
20
-3.41987
11
4.26944
21
-3.4197
0
LINE
8
BLACK
6
CONTINUOUS
10
4.26944
20
-3.4197
11
4.26789
21
-3.4184
0
LINE
8
BLACK
6
CONTINUOUS
10
4.26789
20
-3.4184
11
4.26754
21
-3.41641
0
LINE
8
BLACK
6
CONTINUOUS
10
4.26754
20
-3.41641
11
4.26855
21
-3.41466
0
LINE
8
BLACK
6
CONTINUOUS
10
4.26855
20
-3.41466
11
4.27045
21
-3.41397
0
LINE
8
BLACK
6
CONTINUOUS
10
4.27045
20
-3.41397
11
4.27875
21
-3.41397
0
LINE
8
BLACK
6
CONTINUOUS
10
4.27875
20
-3.41397
11
4.27875
21
-3.38656
0
LINE
8
BLACK
6
CONTINUOUS
10
4.27875
20
-3.38656
11
4.27629
21
-3.38901
0
LINE
8
BLACK
6
CONTINUOUS
10
4.27629
20
-3.38901
11
4.27556
21
-3.38952
0
LINE
8
BLACK
6
CONTINUOUS
10
4.27556
20
-3.38952
11
4.27552
21
-3.38957
0
LINE
8
BLACK
6
CONTINUOUS
10
4.27552
20
-3.38957
11
4.27177
21
-3.39144
0
LINE
8
BLACK
6
CONTINUOUS
10
4.27177
20
-3.39144
11
4.27079
21
-3.39173
0
LINE
8
BLACK
6
CONTINUOUS
10
4.27079
20
-3.39173
11
4.26882
21
-3.39126
0
LINE
8
BLACK
6
CONTINUOUS
10
4.26882
20
-3.39126
11
4.26762
21
-3.38964
0
LINE
8
BLACK
6
CONTINUOUS
10
4.26762
20
-3.38964
11
4.26774
21
-3.38763
0
LINE
8
BLACK
6
CONTINUOUS
10
4.26774
20
-3.38763
11
4.26913
21
-3.38616
0
LINE
8
BLACK
6
CONTINUOUS
10
4.26913
20
-3.38616
11
4.27245
21
-3.3845
0
LINE
8
BLACK
6
CONTINUOUS
10
4.27245
20
-3.3845
11
4.27565
21
-3.3813
0
LINE
8
BLACK
6
CONTINUOUS
10
4.27565
20
-3.3813
11
4.27924
21
-3.37591
0
LINE
8
BLACK
6
CONTINUOUS
10
4.27924
20
-3.37591
11
4.27995
21
-3.37517
0
LINE
8
BLACK
6
CONTINUOUS
10
4.27995
20
-3.37517
11
4.28011
21
-3.37512
0
LINE
8
BLACK
6
CONTINUOUS
10
4.28011
20
-3.37512
11
4.28022
21
-3.37499
0
LINE
8
BLACK
6
CONTINUOUS
10
4.28022
20
-3.37499
11
4.28107
21
-3.37485
0
LINE
8
BLACK
6
CONTINUOUS
10
4.28107
20
-3.37485
11
4.28189
21
-3.37461
0
LINE
8
BLACK
6
CONTINUOUS
10
4.28189
20
-3.37461
11
4.28204
21
-3.37467
0
LINE
8
BLACK
6
CONTINUOUS
10
4.22534
20
-3.37518
11
4.22645
21
-3.37687
0
LINE
8
BLACK
6
CONTINUOUS
10
4.22645
20
-3.37687
11
4.23312
21
-3.40485
0
LINE
8
BLACK
6
CONTINUOUS
10
4.23312
20
-3.40485
11
4.2376
21
-3.38804
0
LINE
8
BLACK
6
CONTINUOUS
10
4.2376
20
-3.38804
11
4.23803
21
-3.38711
0
LINE
8
BLACK
6
CONTINUOUS
10
4.23803
20
-3.38711
11
4.23825
21
-3.38695
0
LINE
8
BLACK
6
CONTINUOUS
10
4.23825
20
-3.38695
11
4.23837
21
-3.38671
0
LINE
8
BLACK
6
CONTINUOUS
10
4.23837
20
-3.38671
11
4.23906
21
-3.38639
0
LINE
8
BLACK
6
CONTINUOUS
10
4.23906
20
-3.38639
11
4.23969
21
-3.38595
0
LINE
8
BLACK
6
CONTINUOUS
10
4.23969
20
-3.38595
11
4.23995
21
-3.38597
0
LINE
8
BLACK
6
CONTINUOUS
10
4.23995
20
-3.38597
11
4.2402
21
-3.38586
0
LINE
8
BLACK
6
CONTINUOUS
10
4.2402
20
-3.38586
11
4.24094
21
-3.38606
0
LINE
8
BLACK
6
CONTINUOUS
10
4.24094
20
-3.38606
11
4.2417
21
-3.38612
0
LINE
8
BLACK
6
CONTINUOUS
10
4.2417
20
-3.38612
11
4.24189
21
-3.38631
0
LINE
8
BLACK
6
CONTINUOUS
10
4.24189
20
-3.38631
11
4.24215
21
-3.38638
0
LINE
8
BLACK
6
CONTINUOUS
10
4.24215
20
-3.38638
11
4.24259
21
-3.38701
0
LINE
8
BLACK
6
CONTINUOUS
10
4.24259
20
-3.38701
11
4.24313
21
-3.38755
0
LINE
8
BLACK
6
CONTINUOUS
10
4.24313
20
-3.38755
11
4.24315
21
-3.38782
0
LINE
8
BLACK
6
CONTINUOUS
10
4.24315
20
-3.38782
11
4.24331
21
-3.38804
0
LINE
8
BLACK
6
CONTINUOUS
10
4.24331
20
-3.38804
11
4.24779
21
-3.40485
0
LINE
8
BLACK
6
CONTINUOUS
10
4.24779
20
-3.40485
11
4.25445
21
-3.37687
0
LINE
8
BLACK
6
CONTINUOUS
10
4.25445
20
-3.37687
11
4.25486
21
-3.37593
0
LINE
8
BLACK
6
CONTINUOUS
10
4.25486
20
-3.37593
11
4.25648
21
-3.37472
0
LINE
8
BLACK
6
CONTINUOUS
10
4.25648
20
-3.37472
11
4.2585
21
-3.37484
0
LINE
8
BLACK
6
CONTINUOUS
10
4.2585
20
-3.37484
11
4.25997
21
-3.37623
0
LINE
8
BLACK
6
CONTINUOUS
10
4.25997
20
-3.37623
11
4.2602
21
-3.37824
0
LINE
8
BLACK
6
CONTINUOUS
10
4.2602
20
-3.37824
11
4.25082
21
-3.41761
0
LINE
8
BLACK
6
CONTINUOUS
10
4.25082
20
-3.41761
11
4.25042
21
-3.41855
0
LINE
8
BLACK
6
CONTINUOUS
10
4.25042
20
-3.41855
11
4.25017
21
-3.41873
0
LINE
8
BLACK
6
CONTINUOUS
10
4.25017
20
-3.41873
11
4.25004
21
-3.41901
0
LINE
8
BLACK
6
CONTINUOUS
10
4.25004
20
-3.41901
11
4.24938
21
-3.41932
0
LINE
8
BLACK
6
CONTINUOUS
10
4.24938
20
-3.41932
11
4.2488
21
-3.41975
0
LINE
8
BLACK
6
CONTINUOUS
10
4.2488
20
-3.41975
11
4.24849
21
-3.41973
0
LINE
8
BLACK
6
CONTINUOUS
10
4.24849
20
-3.41973
11
4.24821
21
-3.41986
0
LINE
8
BLACK
6
CONTINUOUS
10
4.24821
20
-3.41986
11
4.2475
21
-3.41968
0
LINE
8
BLACK
6
CONTINUOUS
10
4.2475
20
-3.41968
11
4.24678
21
-3.41963
0
LINE
8
BLACK
6
CONTINUOUS
10
4.24678
20
-3.41963
11
4.24655
21
-3.41942
0
LINE
8
BLACK
6
CONTINUOUS
10
4.24655
20
-3.41942
11
4.24626
21
-3.41934
0
LINE
8
BLACK
6
CONTINUOUS
10
4.24626
20
-3.41934
11
4.24584
21
-3.41874
0
LINE
8
BLACK
6
CONTINUOUS
10
4.24584
20
-3.41874
11
4.24531
21
-3.41824
0
LINE
8
BLACK
6
CONTINUOUS
10
4.24531
20
-3.41824
11
4.24528
21
-3.41794
0
LINE
8
BLACK
6
CONTINUOUS
10
4.24528
20
-3.41794
11
4.2451
21
-3.41768
0
LINE
8
BLACK
6
CONTINUOUS
10
4.2451
20
-3.41768
11
4.24045
21
-3.40026
0
LINE
8
BLACK
6
CONTINUOUS
10
4.24045
20
-3.40026
11
4.23581
21
-3.41768
0
LINE
8
BLACK
6
CONTINUOUS
10
4.23581
20
-3.41768
11
4.23537
21
-3.41861
0
LINE
8
BLACK
6
CONTINUOUS
10
4.23537
20
-3.41861
11
4.23512
21
-3.41879
0
LINE
8
BLACK
6
CONTINUOUS
10
4.23512
20
-3.41879
11
4.23498
21
-3.41907
0
LINE
8
BLACK
6
CONTINUOUS
10
4.23498
20
-3.41907
11
4.23432
21
-3.41936
0
LINE
8
BLACK
6
CONTINUOUS
10
4.23432
20
-3.41936
11
4.23372
21
-3.41977
0
LINE
8
BLACK
6
CONTINUOUS
10
4.23372
20
-3.41977
11
4.23341
21
-3.41975
0
LINE
8
BLACK
6
CONTINUOUS
10
4.23341
20
-3.41975
11
4.23313
21
-3.41987
0
LINE
8
BLACK
6
CONTINUOUS
10
4.23313
20
-3.41987
11
4.23243
21
-3.41966
0
LINE
8
BLACK
6
CONTINUOUS
10
4.23243
20
-3.41966
11
4.23171
21
-3.4196
0
LINE
8
BLACK
6
CONTINUOUS
10
4.23171
20
-3.4196
11
4.23149
21
-3.41938
0
LINE
8
BLACK
6
CONTINUOUS
10
4.23149
20
-3.41938
11
4.23119
21
-3.41929
0
LINE
8
BLACK
6
CONTINUOUS
10
4.23119
20
-3.41929
11
4.23079
21
-3.41869
0
LINE
8
BLACK
6
CONTINUOUS
10
4.23079
20
-3.41869
11
4.23028
21
-3.41817
0
LINE
8
BLACK
6
CONTINUOUS
10
4.23028
20
-3.41817
11
4.23025
21
-3.41786
0
LINE
8
BLACK
6
CONTINUOUS
10
4.23025
20
-3.41786
11
4.23008
21
-3.41761
0
LINE
8
BLACK
6
CONTINUOUS
10
4.23008
20
-3.41761
11
4.22071
21
-3.37824
0
LINE
8
BLACK
6
CONTINUOUS
10
4.22071
20
-3.37824
11
4.22065
21
-3.37721
0
LINE
8
BLACK
6
CONTINUOUS
10
4.22065
20
-3.37721
11
4.22155
21
-3.37541
0
LINE
8
BLACK
6
CONTINUOUS
10
4.22155
20
-3.37541
11
4.22341
21
-3.3746
0
LINE
8
BLACK
6
CONTINUOUS
10
4.22341
20
-3.3746
11
4.22534
21
-3.37518
0
LINE
8
BLACK
6
CONTINUOUS
10
3.79478
20
-3.18157
11
3.79547
21
-3.18346
0
LINE
8
BLACK
6
CONTINUOUS
10
3.79547
20
-3.18346
11
3.79547
21
-3.34094
0
LINE
8
BLACK
6
CONTINUOUS
10
3.79547
20
-3.34094
11
3.90472
21
-3.34094
0
LINE
8
BLACK
6
CONTINUOUS
10
3.90472
20
-3.34094
11
3.90573
21
-3.34112
0
LINE
8
BLACK
6
CONTINUOUS
10
3.90573
20
-3.34112
11
3.90728
21
-3.34242
0
LINE
8
BLACK
6
CONTINUOUS
10
3.90728
20
-3.34242
11
3.90763
21
-3.34441
0
LINE
8
BLACK
6
CONTINUOUS
10
3.90763
20
-3.34441
11
3.90662
21
-3.34616
0
LINE
8
BLACK
6
CONTINUOUS
10
3.90662
20
-3.34616
11
3.90472
21
-3.34685
0
LINE
8
BLACK
6
CONTINUOUS
10
3.90472
20
-3.34685
11
3.79252
21
-3.34685
0
LINE
8
BLACK
6
CONTINUOUS
10
3.79252
20
-3.34685
11
3.79214
21
-3.34678
0
LINE
8
BLACK
6
CONTINUOUS
10
3.79214
20
-3.34678
11
3.79201
21
-3.34681
0
LINE
8
BLACK
6
CONTINUOUS
10
3.79201
20
-3.34681
11
3.79189
21
-3.34674
0
LINE
8
BLACK
6
CONTINUOUS
10
3.79189
20
-3.34674
11
3.79151
21
-3.34667
0
LINE
8
BLACK
6
CONTINUOUS
10
3.79151
20
-3.34667
11
3.79092
21
-3.34618
0
LINE
8
BLACK
6
CONTINUOUS
10
3.79092
20
-3.34618
11
3.79026
21
-3.3458
0
LINE
8
BLACK
6
CONTINUOUS
10
3.79026
20
-3.3458
11
3.79017
21
-3.34555
0
LINE
8
BLACK
6
CONTINUOUS
10
3.79017
20
-3.34555
11
3.78996
21
-3.34537
0
LINE
8
BLACK
6
CONTINUOUS
10
3.78996
20
-3.34537
11
3.78983
21
-3.34462
0
LINE
8
BLACK
6
CONTINUOUS
10
3.78983
20
-3.34462
11
3.78957
21
-3.3439
0
LINE
8
BLACK
6
CONTINUOUS
10
3.78957
20
-3.3439
11
3.78957
21
-3.18346
0
LINE
8
BLACK
6
CONTINUOUS
10
3.78957
20
-3.18346
11
3.78974
21
-3.18245
0
LINE
8
BLACK
6
CONTINUOUS
10
3.78974
20
-3.18245
11
3.79104
21
-3.18091
0
LINE
8
BLACK
6
CONTINUOUS
10
3.79104
20
-3.18091
11
3.79303
21
-3.18056
0
LINE
8
BLACK
6
CONTINUOUS
10
3.79303
20
-3.18056
11
3.79478
21
-3.18157
0
LINE
8
BLACK
6
CONTINUOUS
10
4.10258
20
-3.34112
11
4.10413
21
-3.34242
0
LINE
8
BLACK
6
CONTINUOUS
10
4.10413
20
-3.34242
11
4.10448
21
-3.34441
0
LINE
8
BLACK
6
CONTINUOUS
10
4.10448
20
-3.34441
11
4.10347
21
-3.34616
0
LINE
8
BLACK
6
CONTINUOUS
10
4.10347
20
-3.34616
11
4.10157
21
-3.34685
0
LINE
8
BLACK
6
CONTINUOUS
10
4.10157
20
-3.34685
11
3.99528
21
-3.34685
0
LINE
8
BLACK
6
CONTINUOUS
10
3.99528
20
-3.34685
11
3.99427
21
-3.34667
0
LINE
8
BLACK
6
CONTINUOUS
10
3.99427
20
-3.34667
11
3.99272
21
-3.34537
0
LINE
8
BLACK
6
CONTINUOUS
10
3.99272
20
-3.34537
11
3.99237
21
-3.34338
0
LINE
8
BLACK
6
CONTINUOUS
10
3.99237
20
-3.34338
11
3.99338
21
-3.34164
0
LINE
8
BLACK
6
CONTINUOUS
10
3.99338
20
-3.34164
11
3.99528
21
-3.34094
0
LINE
8
BLACK
6
CONTINUOUS
10
3.99528
20
-3.34094
11
4.10157
21
-3.34094
0
LINE
8
BLACK
6
CONTINUOUS
10
4.10157
20
-3.34094
11
4.10258
21
-3.34112
0
LINE
8
BLACK
6
CONTINUOUS
10
4.30659
20
-3.18157
11
4.30728
21
-3.18346
0
LINE
8
BLACK
6
CONTINUOUS
10
4.30728
20
-3.18346
11
4.30728
21
-3.3439
0
LINE
8
BLACK
6
CONTINUOUS
10
4.30728
20
-3.3439
11
4.30722
21
-3.34428
0
LINE
8
BLACK
6
CONTINUOUS
10
4.30722
20
-3.34428
11
4.30724
21
-3.34441
0
LINE
8
BLACK
6
CONTINUOUS
10
4.30724
20
-3.34441
11
4.30717
21
-3.34452
0
LINE
8
BLACK
6
CONTINUOUS
10
4.30717
20
-3.34452
11
4.30711
21
-3.34491
0
LINE
8
BLACK
6
CONTINUOUS
10
4.30711
20
-3.34491
11
4.30661
21
-3.3455
0
LINE
8
BLACK
6
CONTINUOUS
10
4.30661
20
-3.3455
11
4.30623
21
-3.34616
0
LINE
8
BLACK
6
CONTINUOUS
10
4.30623
20
-3.34616
11
4.30598
21
-3.34625
0
LINE
8
BLACK
6
CONTINUOUS
10
4.30598
20
-3.34625
11
4.30581
21
-3.34645
0
LINE
8
BLACK
6
CONTINUOUS
10
4.30581
20
-3.34645
11
4.30505
21
-3.34659
0
LINE
8
BLACK
6
CONTINUOUS
10
4.30505
20
-3.34659
11
4.30433
21
-3.34685
0
LINE
8
BLACK
6
CONTINUOUS
10
4.30433
20
-3.34685
11
4.19213
21
-3.34685
0
LINE
8
BLACK
6
CONTINUOUS
10
4.19213
20
-3.34685
11
4.19112
21
-3.34667
0
LINE
8
BLACK
6
CONTINUOUS
10
4.19112
20
-3.34667
11
4.18957
21
-3.34537
0
LINE
8
BLACK
6
CONTINUOUS
10
4.18957
20
-3.34537
11
4.18922
21
-3.34338
0
LINE
8
BLACK
6
CONTINUOUS
10
4.18922
20
-3.34338
11
4.19023
21
-3.34164
0
LINE
8
BLACK
6
CONTINUOUS
10
4.19023
20
-3.34164
11
4.19213
21
-3.34094
0
LINE
8
BLACK
6
CONTINUOUS
10
4.19213
20
-3.34094
11
4.30138
21
-3.34094
0
LINE
8
BLACK
6
CONTINUOUS
10
4.30138
20
-3.34094
11
4.30138
21
-3.18346
0
LINE
8
BLACK
6
CONTINUOUS
10
4.30138
20
-3.18346
11
4.30156
21
-3.18245
0
LINE
8
BLACK
6
CONTINUOUS
10
4.30156
20
-3.18245
11
4.30285
21
-3.18091
0
LINE
8
BLACK
6
CONTINUOUS
10
4.30285
20
-3.18091
11
4.30484
21
-3.18056
0
LINE
8
BLACK
6
CONTINUOUS
10
4.30484
20
-3.18056
11
4.30659
21
-3.18157
0
LINE
8
BLACK
6
CONTINUOUS
10
3.84992
20
-3.05722
11
3.85121
21
-3.05877
0
LINE
8
BLACK
6
CONTINUOUS
10
3.85121
20
-3.05877
11
3.86033
21
-3.08432
0
LINE
8
BLACK
6
CONTINUOUS
10
3.86033
20
-3.08432
11
3.86945
21
-3.05877
0
LINE
8
BLACK
6
CONTINUOUS
10
3.86945
20
-3.05877
11
3.86996
21
-3.05788
0
LINE
8
BLACK
6
CONTINUOUS
10
3.86996
20
-3.05788
11
3.8717
21
-3.05686
0
LINE
8
BLACK
6
CONTINUOUS
10
3.8717
20
-3.05686
11
3.8737
21
-3.0572
0
LINE
8
BLACK
6
CONTINUOUS
10
3.8737
20
-3.0572
11
3.875
21
-3.05874
0
LINE
8
BLACK
6
CONTINUOUS
10
3.875
20
-3.05874
11
3.87502
21
-3.06076
0
LINE
8
BLACK
6
CONTINUOUS
10
3.87502
20
-3.06076
11
3.86311
21
-3.09409
0
LINE
8
BLACK
6
CONTINUOUS
10
3.86311
20
-3.09409
11
3.86307
21
-3.09416
0
LINE
8
BLACK
6
CONTINUOUS
10
3.86307
20
-3.09416
11
3.86307
21
-3.0942
0
LINE
8
BLACK
6
CONTINUOUS
10
3.86307
20
-3.0942
11
3.85831
21
-3.1061
0
LINE
8
BLACK
6
CONTINUOUS
10
3.85831
20
-3.1061
11
3.85777
21
-3.10697
0
LINE
8
BLACK
6
CONTINUOUS
10
3.85777
20
-3.10697
11
3.85769
21
-3.10701
0
LINE
8
BLACK
6
CONTINUOUS
10
3.85769
20
-3.10701
11
3.85766
21
-3.10709
0
LINE
8
BLACK
6
CONTINUOUS
10
3.85766
20
-3.10709
11
3.85527
21
-3.10947
0
LINE
8
BLACK
6
CONTINUOUS
10
3.85527
20
-3.10947
11
3.85455
21
-3.10998
0
LINE
8
BLACK
6
CONTINUOUS
10
3.85455
20
-3.10998
11
3.85451
21
-3.11003
0
LINE
8
BLACK
6
CONTINUOUS
10
3.85451
20
-3.11003
11
3.84975
21
-3.11241
0
LINE
8
BLACK
6
CONTINUOUS
10
3.84975
20
-3.11241
11
3.84876
21
-3.1127
0
LINE
8
BLACK
6
CONTINUOUS
10
3.84876
20
-3.1127
11
3.8468
21
-3.11223
0
LINE
8
BLACK
6
CONTINUOUS
10
3.8468
20
-3.11223
11
3.84559
21
-3.11061
0
LINE
8
BLACK
6
CONTINUOUS
10
3.84559
20
-3.11061
11
3.84572
21
-3.10859
0
LINE
8
BLACK
6
CONTINUOUS
10
3.84572
20
-3.10859
11
3.8471
21
-3.10713
0
LINE
8
BLACK
6
CONTINUOUS
10
3.8471
20
-3.10713
11
3.85144
21
-3.10496
0
LINE
8
BLACK
6
CONTINUOUS
10
3.85144
20
-3.10496
11
3.85305
21
-3.10334
0
LINE
8
BLACK
6
CONTINUOUS
10
3.85305
20
-3.10334
11
3.85717
21
-3.09304
0
LINE
8
BLACK
6
CONTINUOUS
10
3.85717
20
-3.09304
11
3.84564
21
-3.06076
0
LINE
8
BLACK
6
CONTINUOUS
10
3.84564
20
-3.06076
11
3.84547
21
-3.05975
0
LINE
8
BLACK
6
CONTINUOUS
10
3.84547
20
-3.05975
11
3.84617
21
-3.05785
0
LINE
8
BLACK
6
CONTINUOUS
10
3.84617
20
-3.05785
11
3.84793
21
-3.05686
0
LINE
8
BLACK
6
CONTINUOUS
10
3.84793
20
-3.05686
11
3.84992
21
-3.05722
0
LINE
8
BLACK
6
CONTINUOUS
10
4.2161
20
-3.09509
11
4.21765
21
-3.09638
0
LINE
8
BLACK
6
CONTINUOUS
10
4.21765
20
-3.09638
11
4.218
21
-3.09837
0
LINE
8
BLACK
6
CONTINUOUS
10
4.218
20
-3.09837
11
4.21699
21
-3.10012
0
LINE
8
BLACK
6
CONTINUOUS
10
4.21699
20
-3.10012
11
4.21509
21
-3.10081
0
LINE
8
BLACK
6
CONTINUOUS
10
4.21509
20
-3.10081
11
4.177
21
-3.10081
0
LINE
8
BLACK
6
CONTINUOUS
10
4.177
20
-3.10081
11
4.17599
21
-3.10064
0
LINE
8
BLACK
6
CONTINUOUS
10
4.17599
20
-3.10064
11
4.17444
21
-3.09934
0
LINE
8
BLACK
6
CONTINUOUS
10
4.17444
20
-3.09934
11
4.17409
21
-3.09735
0
LINE
8
BLACK
6
CONTINUOUS
10
4.17409
20
-3.09735
11
4.1751
21
-3.0956
0
LINE
8
BLACK
6
CONTINUOUS
10
4.1751
20
-3.0956
11
4.177
21
-3.09491
0
LINE
8
BLACK
6
CONTINUOUS
10
4.177
20
-3.09491
11
4.21509
21
-3.09491
0
LINE
8
BLACK
6
CONTINUOUS
10
4.21509
20
-3.09491
11
4.2161
21
-3.09509
0
LINE
8
BLACK
6
CONTINUOUS
10
3.71848
20
-3.05699
11
3.71862
21
-3.0571
0
LINE
8
BLACK
6
CONTINUOUS
10
3.71862
20
-3.0571
11
3.71879
21
-3.05713
0
LINE
8
BLACK
6
CONTINUOUS
10
3.71879
20
-3.05713
11
3.72356
21
-3.05951
0
LINE
8
BLACK
6
CONTINUOUS
10
3.72356
20
-3.05951
11
3.72426
21
-3.06003
0
LINE
8
BLACK
6
CONTINUOUS
10
3.72426
20
-3.06003
11
3.72432
21
-3.06006
0
LINE
8
BLACK
6
CONTINUOUS
10
3.72432
20
-3.06006
11
3.7267
21
-3.06244
0
LINE
8
BLACK
6
CONTINUOUS
10
3.7267
20
-3.06244
11
3.72721
21
-3.06316
0
LINE
8
BLACK
6
CONTINUOUS
10
3.72721
20
-3.06316
11
3.72726
21
-3.06321
0
LINE
8
BLACK
6
CONTINUOUS
10
3.72726
20
-3.06321
11
3.72964
21
-3.06797
0
LINE
8
BLACK
6
CONTINUOUS
10
3.72964
20
-3.06797
11
3.72993
21
-3.06895
0
LINE
8
BLACK
6
CONTINUOUS
10
3.72993
20
-3.06895
11
3.72989
21
-3.06912
0
LINE
8
BLACK
6
CONTINUOUS
10
3.72989
20
-3.06912
11
3.72995
21
-3.06929
0
LINE
8
BLACK
6
CONTINUOUS
10
3.72995
20
-3.06929
11
3.72995
21
-3.08358
0
LINE
8
BLACK
6
CONTINUOUS
10
3.72995
20
-3.08358
11
3.72977
21
-3.08459
0
LINE
8
BLACK
6
CONTINUOUS
10
3.72977
20
-3.08459
11
3.72966
21
-3.08472
0
LINE
8
BLACK
6
CONTINUOUS
10
3.72966
20
-3.08472
11
3.72964
21
-3.0849
0
LINE
8
BLACK
6
CONTINUOUS
10
3.72964
20
-3.0849
11
3.72726
21
-3.08966
0
LINE
8
BLACK
6
CONTINUOUS
10
3.72726
20
-3.08966
11
3.72673
21
-3.09037
0
LINE
8
BLACK
6
CONTINUOUS
10
3.72673
20
-3.09037
11
3.7267
21
-3.09043
0
LINE
8
BLACK
6
CONTINUOUS
10
3.7267
20
-3.09043
11
3.72432
21
-3.09281
0
LINE
8
BLACK
6
CONTINUOUS
10
3.72432
20
-3.09281
11
3.7236
21
-3.09331
0
LINE
8
BLACK
6
CONTINUOUS
10
3.7236
20
-3.09331
11
3.72356
21
-3.09336
0
LINE
8
BLACK
6
CONTINUOUS
10
3.72356
20
-3.09336
11
3.71879
21
-3.09574
0
LINE
8
BLACK
6
CONTINUOUS
10
3.71879
20
-3.09574
11
3.71781
21
-3.09603
0
LINE
8
BLACK
6
CONTINUOUS
10
3.71781
20
-3.09603
11
3.71764
21
-3.09599
0
LINE
8
BLACK
6
CONTINUOUS
10
3.71764
20
-3.09599
11
3.71747
21
-3.09605
0
LINE
8
BLACK
6
CONTINUOUS
10
3.71747
20
-3.09605
11
3.71033
21
-3.09605
0
LINE
8
BLACK
6
CONTINUOUS
10
3.71033
20
-3.09605
11
3.70932
21
-3.09587
0
LINE
8
BLACK
6
CONTINUOUS
10
3.70932
20
-3.09587
11
3.70918
21
-3.09576
0
LINE
8
BLACK
6
CONTINUOUS
10
3.70918
20
-3.09576
11
3.70901
21
-3.09574
0
LINE
8
BLACK
6
CONTINUOUS
10
3.70901
20
-3.09574
11
3.70425
21
-3.09336
0
LINE
8
BLACK
6
CONTINUOUS
10
3.70425
20
-3.09336
11
3.70354
21
-3.09283
0
LINE
8
BLACK
6
CONTINUOUS
10
3.70354
20
-3.09283
11
3.70348
21
-3.09281
0
LINE
8
BLACK
6
CONTINUOUS
10
3.70348
20
-3.09281
11
3.7011
21
-3.09043
0
LINE
8
BLACK
6
CONTINUOUS
10
3.7011
20
-3.09043
11
3.70059
21
-3.0897
0
LINE
8
BLACK
6
CONTINUOUS
10
3.70059
20
-3.0897
11
3.70055
21
-3.08966
0
LINE
8
BLACK
6
CONTINUOUS
10
3.70055
20
-3.08966
11
3.69817
21
-3.0849
0
LINE
8
BLACK
6
CONTINUOUS
10
3.69817
20
-3.0849
11
3.69787
21
-3.08391
0
LINE
8
BLACK
6
CONTINUOUS
10
3.69787
20
-3.08391
11
3.69791
21
-3.08374
0
LINE
8
BLACK
6
CONTINUOUS
10
3.69791
20
-3.08374
11
3.69785
21
-3.08358
0
LINE
8
BLACK
6
CONTINUOUS
10
3.69785
20
-3.08358
11
3.69785
21
-3.06929
0
LINE
8
BLACK
6
CONTINUOUS
10
3.69785
20
-3.06929
11
3.69803
21
-3.06828
0
LINE
8
BLACK
6
CONTINUOUS
10
3.69803
20
-3.06828
11
3.69814
21
-3.06814
0
LINE
8
BLACK
6
CONTINUOUS
10
3.69814
20
-3.06814
11
3.69817
21
-3.06797
0
LINE
8
BLACK
6
CONTINUOUS
10
3.69817
20
-3.06797
11
3.70055
21
-3.06321
0
LINE
8
BLACK
6
CONTINUOUS
10
3.70055
20
-3.06321
11
3.70107
21
-3.0625
0
LINE
8
BLACK
6
CONTINUOUS
10
3.70107
20
-3.0625
11
3.7011
21
-3.06244
0
LINE
8
BLACK
6
CONTINUOUS
10
3.7011
20
-3.06244
11
3.70348
21
-3.06006
0
LINE
8
BLACK
6
CONTINUOUS
10
3.70348
20
-3.06006
11
3.7042
21
-3.05955
0
LINE
8
BLACK
6
CONTINUOUS
10
3.7042
20
-3.05955
11
3.70425
21
-3.05951
0
LINE
8
BLACK
6
CONTINUOUS
10
3.70425
20
-3.05951
11
3.70901
21
-3.05713
0
LINE
8
BLACK
6
CONTINUOUS
10
3.70901
20
-3.05713
11
3.70999
21
-3.05683
0
LINE
8
BLACK
6
CONTINUOUS
10
3.70999
20
-3.05683
11
3.71016
21
-3.05687
0
LINE
8
BLACK
6
CONTINUOUS
10
3.71016
20
-3.05687
11
3.71033
21
-3.05681
0
LINE
8
BLACK
6
CONTINUOUS
10
3.71033
20
-3.05681
11
3.71747
21
-3.05681
0
LINE
8
BLACK
6
CONTINUOUS
10
3.71747
20
-3.05681
11
3.71848
21
-3.05699
0
LINE
8
BLACK
6
CONTINUOUS
10
3.70732
20
-3.06457
11
3.70561
21
-3.06628
0
LINE
8
BLACK
6
CONTINUOUS
10
3.70561
20
-3.06628
11
3.70376
21
-3.06999
0
LINE
8
BLACK
6
CONTINUOUS
10
3.70376
20
-3.06999
11
3.70376
21
-3.08288
0
LINE
8
BLACK
6
CONTINUOUS
10
3.70376
20
-3.08288
11
3.70561
21
-3.08659
0
LINE
8
BLACK
6
CONTINUOUS
10
3.70561
20
-3.08659
11
3.70732
21
-3.08829
0
LINE
8
BLACK
6
CONTINUOUS
10
3.70732
20
-3.08829
11
3.71103
21
-3.09015
0
LINE
8
BLACK
6
CONTINUOUS
10
3.71103
20
-3.09015
11
3.71678
21
-3.09015
0
LINE
8
BLACK
6
CONTINUOUS
10
3.71678
20
-3.09015
11
3.72049
21
-3.08829
0
LINE
8
BLACK
6
CONTINUOUS
10
3.72049
20
-3.08829
11
3.72219
21
-3.08659
0
LINE
8
BLACK
6
CONTINUOUS
10
3.72219
20
-3.08659
11
3.72404
21
-3.08288
0
LINE
8
BLACK
6
CONTINUOUS
10
3.72404
20
-3.08288
11
3.72404
21
-3.06999
0
LINE
8
BLACK
6
CONTINUOUS
10
3.72404
20
-3.06999
11
3.72219
21
-3.06628
0
LINE
8
BLACK
6
CONTINUOUS
10
3.72219
20
-3.06628
11
3.72049
21
-3.06457
0
LINE
8
BLACK
6
CONTINUOUS
10
3.72049
20
-3.06457
11
3.71678
21
-3.06272
0
LINE
8
BLACK
6
CONTINUOUS
10
3.71678
20
-3.06272
11
3.71103
21
-3.06272
0
LINE
8
BLACK
6
CONTINUOUS
10
3.71103
20
-3.06272
11
3.70732
21
-3.06457
0
LINE
8
BLACK
6
CONTINUOUS
10
3.75069
20
-3.0412
11
3.75138
21
-3.0431
0
LINE
8
BLACK
6
CONTINUOUS
10
3.75138
20
-3.0431
11
3.75138
21
-3.05681
0
LINE
8
BLACK
6
CONTINUOUS
10
3.75138
20
-3.05681
11
3.76033
21
-3.05681
0
LINE
8
BLACK
6
CONTINUOUS
10
3.76033
20
-3.05681
11
3.76134
21
-3.05699
0
LINE
8
BLACK
6
CONTINUOUS
10
3.76134
20
-3.05699
11
3.76289
21
-3.05829
0
LINE
8
BLACK
6
CONTINUOUS
10
3.76289
20
-3.05829
11
3.76324
21
-3.06028
0
LINE
8
BLACK
6
CONTINUOUS
10
3.76324
20
-3.06028
11
3.76223
21
-3.06203
0
LINE
8
BLACK
6
CONTINUOUS
10
3.76223
20
-3.06203
11
3.76033
21
-3.06272
0
LINE
8
BLACK
6
CONTINUOUS
10
3.76033
20
-3.06272
11
3.75138
21
-3.06272
0
LINE
8
BLACK
6
CONTINUOUS
10
3.75138
20
-3.06272
11
3.75138
21
-3.08526
0
LINE
8
BLACK
6
CONTINUOUS
10
3.75138
20
-3.08526
11
3.75301
21
-3.08852
0
LINE
8
BLACK
6
CONTINUOUS
10
3.75301
20
-3.08852
11
3.75627
21
-3.09015
0
LINE
8
BLACK
6
CONTINUOUS
10
3.75627
20
-3.09015
11
3.76033
21
-3.09015
0
LINE
8
BLACK
6
CONTINUOUS
10
3.76033
20
-3.09015
11
3.76134
21
-3.09032
0
LINE
8
BLACK
6
CONTINUOUS
10
3.76134
20
-3.09032
11
3.76289
21
-3.09162
0
LINE
8
BLACK
6
CONTINUOUS
10
3.76289
20
-3.09162
11
3.76324
21
-3.09361
0
LINE
8
BLACK
6
CONTINUOUS
10
3.76324
20
-3.09361
11
3.76223
21
-3.09536
0
LINE
8
BLACK
6
CONTINUOUS
10
3.76223
20
-3.09536
11
3.76033
21
-3.09605
0
LINE
8
BLACK
6
CONTINUOUS
10
3.76033
20
-3.09605
11
3.75557
21
-3.09605
0
LINE
8
BLACK
6
CONTINUOUS
10
3.75557
20
-3.09605
11
3.75456
21
-3.09587
0
LINE
8
BLACK
6
CONTINUOUS
10
3.75456
20
-3.09587
11
3.75442
21
-3.09576
0
LINE
8
BLACK
6
CONTINUOUS
10
3.75442
20
-3.09576
11
3.75425
21
-3.09574
0
LINE
8
BLACK
6
CONTINUOUS
10
3.75425
20
-3.09574
11
3.74949
21
-3.09336
0
LINE
8
BLACK
6
CONTINUOUS
10
3.74949
20
-3.09336
11
3.74866
21
-3.09275
0
LINE
8
BLACK
6
CONTINUOUS
10
3.74866
20
-3.09275
11
3.74849
21
-3.09234
0
LINE
8
BLACK
6
CONTINUOUS
10
3.74849
20
-3.09234
11
3.74817
21
-3.09204
0
LINE
8
BLACK
6
CONTINUOUS
10
3.74817
20
-3.09204
11
3.74578
21
-3.08728
0
LINE
8
BLACK
6
CONTINUOUS
10
3.74578
20
-3.08728
11
3.74549
21
-3.08629
0
LINE
8
BLACK
6
CONTINUOUS
10
3.74549
20
-3.08629
11
3.74553
21
-3.08612
0
LINE
8
BLACK
6
CONTINUOUS
10
3.74553
20
-3.08612
11
3.74547
21
-3.08596
0
LINE
8
BLACK
6
CONTINUOUS
10
3.74547
20
-3.08596
11
3.74547
21
-3.06272
0
LINE
8
BLACK
6
CONTINUOUS
10
3.74547
20
-3.06272
11
3.74128
21
-3.06272
0
LINE
8
BLACK
6
CONTINUOUS
10
3.74128
20
-3.06272
11
3.74027
21
-3.06254
0
LINE
8
BLACK
6
CONTINUOUS
10
3.74027
20
-3.06254
11
3.73873
21
-3.06124
0
LINE
8
BLACK
6
CONTINUOUS
10
3.73873
20
-3.06124
11
3.73837
21
-3.05925
0
LINE
8
BLACK
6
CONTINUOUS
10
3.73837
20
-3.05925
11
3.73938
21
-3.0575
0
LINE
8
BLACK
6
CONTINUOUS
10
3.73938
20
-3.0575
11
3.74128
21
-3.05681
0
LINE
8
BLACK
6
CONTINUOUS
10
3.74128
20
-3.05681
11
3.74547
21
-3.05681
0
LINE
8
BLACK
6
CONTINUOUS
10
3.74547
20
-3.05681
11
3.74547
21
-3.0431
0
LINE
8
BLACK
6
CONTINUOUS
10
3.74547
20
-3.0431
11
3.74565
21
-3.04209
0
LINE
8
BLACK
6
CONTINUOUS
10
3.74565
20
-3.04209
11
3.74695
21
-3.04054
0
LINE
8
BLACK
6
CONTINUOUS
10
3.74695
20
-3.04054
11
3.74894
21
-3.04019
0
LINE
8
BLACK
6
CONTINUOUS
10
3.74894
20
-3.04019
11
3.75069
21
-3.0412
0
LINE
8
BLACK
6
CONTINUOUS
10
3.79229
20
-3.05699
11
3.79243
21
-3.0571
0
LINE
8
BLACK
6
CONTINUOUS
10
3.79243
20
-3.0571
11
3.7926
21
-3.05713
0
LINE
8
BLACK
6
CONTINUOUS
10
3.7926
20
-3.05713
11
3.79736
21
-3.05951
0
LINE
8
BLACK
6
CONTINUOUS
10
3.79736
20
-3.05951
11
3.79819
21
-3.06012
0
LINE
8
BLACK
6
CONTINUOUS
10
3.79819
20
-3.06012
11
3.79836
21
-3.06052
0
LINE
8
BLACK
6
CONTINUOUS
10
3.79836
20
-3.06052
11
3.79869
21
-3.06083
0
LINE
8
BLACK
6
CONTINUOUS
10
3.79869
20
-3.06083
11
3.80107
21
-3.06559
0
LINE
8
BLACK
6
CONTINUOUS
10
3.80107
20
-3.06559
11
3.80136
21
-3.06657
0
LINE
8
BLACK
6
CONTINUOUS
10
3.80136
20
-3.06657
11
3.80132
21
-3.06674
0
LINE
8
BLACK
6
CONTINUOUS
10
3.80132
20
-3.06674
11
3.80138
21
-3.06691
0
LINE
8
BLACK
6
CONTINUOUS
10
3.80138
20
-3.06691
11
3.80138
21
-3.0931
0
LINE
8
BLACK
6
CONTINUOUS
10
3.80138
20
-3.0931
11
3.8012
21
-3.09411
0
LINE
8
BLACK
6
CONTINUOUS
10
3.8012
20
-3.09411
11
3.7999
21
-3.09566
0
LINE
8
BLACK
6
CONTINUOUS
10
3.7999
20
-3.09566
11
3.79791
21
-3.09601
0
LINE
8
BLACK
6
CONTINUOUS
10
3.79791
20
-3.09601
11
3.79631
21
-3.09508
0
LINE
8
BLACK
6
CONTINUOUS
10
3.79631
20
-3.09508
11
3.79498
21
-3.09574
0
LINE
8
BLACK
6
CONTINUOUS
10
3.79498
20
-3.09574
11
3.794
21
-3.09603
0
LINE
8
BLACK
6
CONTINUOUS
10
3.794
20
-3.09603
11
3.79383
21
-3.09599
0
LINE
8
BLACK
6
CONTINUOUS
10
3.79383
20
-3.09599
11
3.79366
21
-3.09605
0
LINE
8
BLACK
6
CONTINUOUS
10
3.79366
20
-3.09605
11
3.78176
21
-3.09605
0
LINE
8
BLACK
6
CONTINUOUS
10
3.78176
20
-3.09605
11
3.78075
21
-3.09587
0
LINE
8
BLACK
6
CONTINUOUS
10
3.78075
20
-3.09587
11
3.78061
21
-3.09576
0
LINE
8
BLACK
6
CONTINUOUS
10
3.78061
20
-3.09576
11
3.78044
21
-3.09574
0
LINE
8
BLACK
6
CONTINUOUS
10
3.78044
20
-3.09574
11
3.77568
21
-3.09336
0
LINE
8
BLACK
6
CONTINUOUS
10
3.77568
20
-3.09336
11
3.77485
21
-3.09275
0
LINE
8
BLACK
6
CONTINUOUS
10
3.77485
20
-3.09275
11
3.77468
21
-3.09234
0
LINE
8
BLACK
6
CONTINUOUS
10
3.77468
20
-3.09234
11
3.77436
21
-3.09204
0
LINE
8
BLACK
6
CONTINUOUS
10
3.77436
20
-3.09204
11
3.77197
21
-3.08728
0
LINE
8
BLACK
6
CONTINUOUS
10
3.77197
20
-3.08728
11
3.77168
21
-3.08629
0
LINE
8
BLACK
6
CONTINUOUS
10
3.77168
20
-3.08629
11
3.77172
21
-3.08612
0
LINE
8
BLACK
6
CONTINUOUS
10
3.77172
20
-3.08612
11
3.77166
21
-3.08596
0
LINE
8
BLACK
6
CONTINUOUS
10
3.77166
20
-3.08596
11
3.77166
21
-3.08119
0
LINE
8
BLACK
6
CONTINUOUS
10
3.77166
20
-3.08119
11
3.77184
21
-3.08018
0
LINE
8
BLACK
6
CONTINUOUS
10
3.77184
20
-3.08018
11
3.77195
21
-3.08005
0
LINE
8
BLACK
6
CONTINUOUS
10
3.77195
20
-3.08005
11
3.77197
21
-3.07987
0
LINE
8
BLACK
6
CONTINUOUS
10
3.77197
20
-3.07987
11
3.77436
21
-3.07511
0
LINE
8
BLACK
6
CONTINUOUS
10
3.77436
20
-3.07511
11
3.77497
21
-3.07429
0
LINE
8
BLACK
6
CONTINUOUS
10
3.77497
20
-3.07429
11
3.77537
21
-3.07411
0
LINE
8
BLACK
6
CONTINUOUS
10
3.77537
20
-3.07411
11
3.77568
21
-3.07379
0
LINE
8
BLACK
6
CONTINUOUS
10
3.77568
20
-3.07379
11
3.78044
21
-3.07141
0
LINE
8
BLACK
6
CONTINUOUS
10
3.78044
20
-3.07141
11
3.78142
21
-3.07112
0
LINE
8
BLACK
6
CONTINUOUS
10
3.78142
20
-3.07112
11
3.78159
21
-3.07116
0
LINE
8
BLACK
6
CONTINUOUS
10
3.78159
20
-3.07116
11
3.78176
21
-3.0711
0
LINE
8
BLACK
6
CONTINUOUS
10
3.78176
20
-3.0711
11
3.79297
21
-3.0711
0
LINE
8
BLACK
6
CONTINUOUS
10
3.79297
20
-3.0711
11
3.79547
21
-3.06985
0
LINE
8
BLACK
6
CONTINUOUS
10
3.79547
20
-3.06985
11
3.79547
21
-3.06761
0
LINE
8
BLACK
6
CONTINUOUS
10
3.79547
20
-3.06761
11
3.79384
21
-3.06435
0
LINE
8
BLACK
6
CONTINUOUS
10
3.79384
20
-3.06435
11
3.79059
21
-3.06272
0
LINE
8
BLACK
6
CONTINUOUS
10
3.79059
20
-3.06272
11
3.78246
21
-3.06272
0
LINE
8
BLACK
6
CONTINUOUS
10
3.78246
20
-3.06272
11
3.77832
21
-3.06479
0
LINE
8
BLACK
6
CONTINUOUS
10
3.77832
20
-3.06479
11
3.77733
21
-3.06508
0
LINE
8
BLACK
6
CONTINUOUS
10
3.77733
20
-3.06508
11
3.77537
21
-3.06461
0
LINE
8
BLACK
6
CONTINUOUS
10
3.77537
20
-3.06461
11
3.77417
21
-3.06299
0
LINE
8
BLACK
6
CONTINUOUS
10
3.77417
20
-3.06299
11
3.77429
21
-3.06097
0
LINE
8
BLACK
6
CONTINUOUS
10
3.77429
20
-3.06097
11
3.77568
21
-3.05951
0
LINE
8
BLACK
6
CONTINUOUS
10
3.77568
20
-3.05951
11
3.78044
21
-3.05713
0
LINE
8
BLACK
6
CONTINUOUS
10
3.78044
20
-3.05713
11
3.78142
21
-3.05683
0
LINE
8
BLACK
6
CONTINUOUS
10
3.78142
20
-3.05683
11
3.78159
21
-3.05687
0
LINE
8
BLACK
6
CONTINUOUS
10
3.78159
20
-3.05687
11
3.78176
21
-3.05681
0
LINE
8
BLACK
6
CONTINUOUS
10
3.78176
20
-3.05681
11
3.79128
21
-3.05681
0
LINE
8
BLACK
6
CONTINUOUS
10
3.79128
20
-3.05681
11
3.79229
21
-3.05699
0
LINE
8
BLACK
6
CONTINUOUS
10
3.79498
20
-3.07669
11
3.794
21
-3.07699
0
LINE
8
BLACK
6
CONTINUOUS
10
3.794
20
-3.07699
11
3.79383
21
-3.07694
0
LINE
8
BLACK
6
CONTINUOUS
10
3.79383
20
-3.07694
11
3.79366
21
-3.077
0
LINE
8
BLACK
6
CONTINUOUS
10
3.79366
20
-3.077
11
3.78246
21
-3.077
0
LINE
8
BLACK
6
CONTINUOUS
10
3.78246
20
-3.077
11
3.7792
21
-3.07863
0
LINE
8
BLACK
6
CONTINUOUS
10
3.7792
20
-3.07863
11
3.77757
21
-3.08189
0
LINE
8
BLACK
6
CONTINUOUS
10
3.77757
20
-3.08189
11
3.77757
21
-3.08526
0
LINE
8
BLACK
6
CONTINUOUS
10
3.77757
20
-3.08526
11
3.7792
21
-3.08852
0
LINE
8
BLACK
6
CONTINUOUS
10
3.7792
20
-3.08852
11
3.78246
21
-3.09015
0
LINE
8
BLACK
6
CONTINUOUS
10
3.78246
20
-3.09015
11
3.79297
21
-3.09015
0
LINE
8
BLACK
6
CONTINUOUS
10
3.79297
20
-3.09015
11
3.79547
21
-3.08889
0
LINE
8
BLACK
6
CONTINUOUS
10
3.79547
20
-3.08889
11
3.79547
21
-3.07645
0
LINE
8
BLACK
6
CONTINUOUS
10
3.79547
20
-3.07645
11
3.79498
21
-3.07669
0
LINE
8
BLACK
6
CONTINUOUS
10
3.9161
20
-3.04032
11
3.91765
21
-3.04162
0
LINE
8
BLACK
6
CONTINUOUS
10
3.91765
20
-3.04162
11
3.918
21
-3.04361
0
LINE
8
BLACK
6
CONTINUOUS
10
3.918
20
-3.04361
11
3.91699
21
-3.04536
0
LINE
8
BLACK
6
CONTINUOUS
10
3.91699
20
-3.04536
11
3.91509
21
-3.04605
0
LINE
8
BLACK
6
CONTINUOUS
10
3.91509
20
-3.04605
11
3.89424
21
-3.04605
0
LINE
8
BLACK
6
CONTINUOUS
10
3.89424
20
-3.04605
11
3.89424
21
-3.06396
0
LINE
8
BLACK
6
CONTINUOUS
10
3.89424
20
-3.06396
11
3.90795
21
-3.06396
0
LINE
8
BLACK
6
CONTINUOUS
10
3.90795
20
-3.06396
11
3.90896
21
-3.06413
0
LINE
8
BLACK
6
CONTINUOUS
10
3.90896
20
-3.06413
11
3.91051
21
-3.06543
0
LINE
8
BLACK
6
CONTINUOUS
10
3.91051
20
-3.06543
11
3.91086
21
-3.06742
0
LINE
8
BLACK
6
CONTINUOUS
10
3.91086
20
-3.06742
11
3.90985
21
-3.06917
0
LINE
8
BLACK
6
CONTINUOUS
10
3.90985
20
-3.06917
11
3.90795
21
-3.06986
0
LINE
8
BLACK
6
CONTINUOUS
10
3.90795
20
-3.06986
11
3.89424
21
-3.06986
0
LINE
8
BLACK
6
CONTINUOUS
10
3.89424
20
-3.06986
11
3.89424
21
-3.09015
0
LINE
8
BLACK
6
CONTINUOUS
10
3.89424
20
-3.09015
11
3.91509
21
-3.09015
0
LINE
8
BLACK
6
CONTINUOUS
10
3.91509
20
-3.09015
11
3.9161
21
-3.09032
0
LINE
8
BLACK
6
CONTINUOUS
10
3.9161
20
-3.09032
11
3.91765
21
-3.09162
0
LINE
8
BLACK
6
CONTINUOUS
10
3.91765
20
-3.09162
11
3.918
21
-3.09361
0
LINE
8
BLACK
6
CONTINUOUS
10
3.918
20
-3.09361
11
3.91699
21
-3.09536
0
LINE
8
BLACK
6
CONTINUOUS
10
3.91699
20
-3.09536
11
3.91509
21
-3.09605
0
LINE
8
BLACK
6
CONTINUOUS
10
3.91509
20
-3.09605
11
3.89128
21
-3.09605
0
LINE
8
BLACK
6
CONTINUOUS
10
3.89128
20
-3.09605
11
3.8909
21
-3.09598
0
LINE
8
BLACK
6
CONTINUOUS
10
3.8909
20
-3.09598
11
3.89077
21
-3.09601
0
LINE
8
BLACK
6
CONTINUOUS
10
3.89077
20
-3.09601
11
3.89066
21
-3.09594
0
LINE
8
BLACK
6
CONTINUOUS
10
3.89066
20
-3.09594
11
3.89027
21
-3.09587
0
LINE
8
BLACK
6
CONTINUOUS
10
3.89027
20
-3.09587
11
3.88968
21
-3.09538
0
LINE
8
BLACK
6
CONTINUOUS
10
3.88968
20
-3.09538
11
3.88902
21
-3.095
0
LINE
8
BLACK
6
CONTINUOUS
10
3.88902
20
-3.095
11
3.88893
21
-3.09475
0
LINE
8
BLACK
6
CONTINUOUS
10
3.88893
20
-3.09475
11
3.88873
21
-3.09458
0
LINE
8
BLACK
6
CONTINUOUS
10
3.88873
20
-3.09458
11
3.88859
21
-3.09382
0
LINE
8
BLACK
6
CONTINUOUS
10
3.88859
20
-3.09382
11
3.88833
21
-3.0931
0
LINE
8
BLACK
6
CONTINUOUS
10
3.88833
20
-3.0931
11
3.88833
21
-3.0431
0
LINE
8
BLACK
6
CONTINUOUS
10
3.88833
20
-3.0431
11
3.8884
21
-3.04272
0
LINE
8
BLACK
6
CONTINUOUS
10
3.8884
20
-3.04272
11
3.88837
21
-3.04259
0
LINE
8
BLACK
6
CONTINUOUS
10
3.88837
20
-3.04259
11
3.88844
21
-3.04247
0
LINE
8
BLACK
6
CONTINUOUS
10
3.88844
20
-3.04247
11
3.88851
21
-3.04209
0
LINE
8
BLACK
6
CONTINUOUS
10
3.88851
20
-3.04209
11
3.889
21
-3.0415
0
LINE
8
BLACK
6
CONTINUOUS
10
3.889
20
-3.0415
11
3.88938
21
-3.04084
0
LINE
8
BLACK
6
CONTINUOUS
10
3.88938
20
-3.04084
11
3.88963
21
-3.04075
0
LINE
8
BLACK
6
CONTINUOUS
10
3.88963
20
-3.04075
11
3.88981
21
-3.04054
0
LINE
8
BLACK
6
CONTINUOUS
10
3.88981
20
-3.04054
11
3.89056
21
-3.04041
0
LINE
8
BLACK
6
CONTINUOUS
10
3.89056
20
-3.04041
11
3.89128
21
-3.04015
0
LINE
8
BLACK
6
CONTINUOUS
10
3.89128
20
-3.04015
11
3.91509
21
-3.04015
0
LINE
8
BLACK
6
CONTINUOUS
10
3.91509
20
-3.04015
11
3.9161
21
-3.04032
0
LINE
8
BLACK
6
CONTINUOUS
10
3.99944
20
-3.05699
11
3.99957
21
-3.0571
0
LINE
8
BLACK
6
CONTINUOUS
10
3.99957
20
-3.0571
11
3.99975
21
-3.05713
0
LINE
8
BLACK
6
CONTINUOUS
10
3.99975
20
-3.05713
11
4.00451
21
-3.05951
0
LINE
8
BLACK
6
CONTINUOUS
10
4.00451
20
-3.05951
11
4.00533
21
-3.06012
0
LINE
8
BLACK
6
CONTINUOUS
10
4.00533
20
-3.06012
11
4.00613
21
-3.06197
0
LINE
8
BLACK
6
CONTINUOUS
10
4.00613
20
-3.06197
11
4.00556
21
-3.06391
0
LINE
8
BLACK
6
CONTINUOUS
10
4.00556
20
-3.06391
11
4.00387
21
-3.06502
0
LINE
8
BLACK
6
CONTINUOUS
10
4.00387
20
-3.06502
11
4.00187
21
-3.06479
0
LINE
8
BLACK
6
CONTINUOUS
10
4.00187
20
-3.06479
11
3.99773
21
-3.06272
0
LINE
8
BLACK
6
CONTINUOUS
10
3.99773
20
-3.06272
11
3.9896
21
-3.06272
0
LINE
8
BLACK
6
CONTINUOUS
10
3.9896
20
-3.06272
11
3.98589
21
-3.06457
0
LINE
8
BLACK
6
CONTINUOUS
10
3.98589
20
-3.06457
11
3.98419
21
-3.06628
0
LINE
8
BLACK
6
CONTINUOUS
10
3.98419
20
-3.06628
11
3.98233
21
-3.06999
0
LINE
8
BLACK
6
CONTINUOUS
10
3.98233
20
-3.06999
11
3.98233
21
-3.08288
0
LINE
8
BLACK
6
CONTINUOUS
10
3.98233
20
-3.08288
11
3.98419
21
-3.08659
0
LINE
8
BLACK
6
CONTINUOUS
10
3.98419
20
-3.08659
11
3.98589
21
-3.08829
0
LINE
8
BLACK
6
CONTINUOUS
10
3.98589
20
-3.08829
11
3.9896
21
-3.09015
0
LINE
8
BLACK
6
CONTINUOUS
10
3.9896
20
-3.09015
11
3.99773
21
-3.09015
0
LINE
8
BLACK
6
CONTINUOUS
10
3.99773
20
-3.09015
11
4.00187
21
-3.08808
0
LINE
8
BLACK
6
CONTINUOUS
10
4.00187
20
-3.08808
11
4.00285
21
-3.08779
0
LINE
8
BLACK
6
CONTINUOUS
10
4.00285
20
-3.08779
11
4.00481
21
-3.08825
0
LINE
8
BLACK
6
CONTINUOUS
10
4.00481
20
-3.08825
11
4.00602
21
-3.08988
0
LINE
8
BLACK
6
CONTINUOUS
10
4.00602
20
-3.08988
11
4.0059
21
-3.09189
0
LINE
8
BLACK
6
CONTINUOUS
10
4.0059
20
-3.09189
11
4.00451
21
-3.09336
0
LINE
8
BLACK
6
CONTINUOUS
10
4.00451
20
-3.09336
11
3.99975
21
-3.09574
0
LINE
8
BLACK
6
CONTINUOUS
10
3.99975
20
-3.09574
11
3.99876
21
-3.09603
0
LINE
8
BLACK
6
CONTINUOUS
10
3.99876
20
-3.09603
11
3.99859
21
-3.09599
0
LINE
8
BLACK
6
CONTINUOUS
10
3.99859
20
-3.09599
11
3.99843
21
-3.09605
0
LINE
8
BLACK
6
CONTINUOUS
10
3.99843
20
-3.09605
11
3.9889
21
-3.09605
0
LINE
8
BLACK
6
CONTINUOUS
10
3.9889
20
-3.09605
11
3.98789
21
-3.09587
0
LINE
8
BLACK
6
CONTINUOUS
10
3.98789
20
-3.09587
11
3.98776
21
-3.09576
0
LINE
8
BLACK
6
CONTINUOUS
10
3.98776
20
-3.09576
11
3.98758
21
-3.09574
0
LINE
8
BLACK
6
CONTINUOUS
10
3.98758
20
-3.09574
11
3.98282
21
-3.09336
0
LINE
8
BLACK
6
CONTINUOUS
10
3.98282
20
-3.09336
11
3.98211
21
-3.09283
0
LINE
8
BLACK
6
CONTINUOUS
10
3.98211
20
-3.09283
11
3.98205
21
-3.09281
0
LINE
8
BLACK
6
CONTINUOUS
10
3.98205
20
-3.09281
11
3.97967
21
-3.09043
0
LINE
8
BLACK
6
CONTINUOUS
10
3.97967
20
-3.09043
11
3.97916
21
-3.0897
0
LINE
8
BLACK
6
CONTINUOUS
10
3.97916
20
-3.0897
11
3.97912
21
-3.08966
0
LINE
8
BLACK
6
CONTINUOUS
10
3.97912
20
-3.08966
11
3.97674
21
-3.0849
0
LINE
8
BLACK
6
CONTINUOUS
10
3.97674
20
-3.0849
11
3.97644
21
-3.08391
0
LINE
8
BLACK
6
CONTINUOUS
10
3.97644
20
-3.08391
11
3.97649
21
-3.08374
0
LINE
8
BLACK
6
CONTINUOUS
10
3.97649
20
-3.08374
11
3.97642
21
-3.08358
0
LINE
8
BLACK
6
CONTINUOUS
10
3.97642
20
-3.08358
11
3.97642
21
-3.06929
0
LINE
8
BLACK
6
CONTINUOUS
10
3.97642
20
-3.06929
11
3.9766
21
-3.06828
0
LINE
8
BLACK
6
CONTINUOUS
10
3.9766
20
-3.06828
11
3.97672
21
-3.06814
0
LINE
8
BLACK
6
CONTINUOUS
10
3.97672
20
-3.06814
11
3.97674
21
-3.06797
0
LINE
8
BLACK
6
CONTINUOUS
10
3.97674
20
-3.06797
11
3.97912
21
-3.06321
0
LINE
8
BLACK
6
CONTINUOUS
10
3.97912
20
-3.06321
11
3.97964
21
-3.0625
0
LINE
8
BLACK
6
CONTINUOUS
10
3.97964
20
-3.0625
11
3.97967
21
-3.06244
0
LINE
8
BLACK
6
CONTINUOUS
10
3.97967
20
-3.06244
11
3.98205
21
-3.06006
0
LINE
8
BLACK
6
CONTINUOUS
10
3.98205
20
-3.06006
11
3.98277
21
-3.05955
0
LINE
8
BLACK
6
CONTINUOUS
10
3.98277
20
-3.05955
11
3.98282
21
-3.05951
0
LINE
8
BLACK
6
CONTINUOUS
10
3.98282
20
-3.05951
11
3.98758
21
-3.05713
0
LINE
8
BLACK
6
CONTINUOUS
10
3.98758
20
-3.05713
11
3.98856
21
-3.05683
0
LINE
8
BLACK
6
CONTINUOUS
10
3.98856
20
-3.05683
11
3.98874
21
-3.05687
0
LINE
8
BLACK
6
CONTINUOUS
10
3.98874
20
-3.05687
11
3.9889
21
-3.05681
0
LINE
8
BLACK
6
CONTINUOUS
10
3.9889
20
-3.05681
11
3.99843
21
-3.05681
0
LINE
8
BLACK
6
CONTINUOUS
10
3.99843
20
-3.05681
11
3.99944
21
-3.05699
0
LINE
8
BLACK
6
CONTINUOUS
10
4.03991
20
-3.05699
11
4.04005
21
-3.0571
0
LINE
8
BLACK
6
CONTINUOUS
10
4.04005
20
-3.0571
11
4.04022
21
-3.05713
0
LINE
8
BLACK
6
CONTINUOUS
10
4.04022
20
-3.05713
11
4.04498
21
-3.05951
0
LINE
8
BLACK
6
CONTINUOUS
10
4.04498
20
-3.05951
11
4.04569
21
-3.06003
0
LINE
8
BLACK
6
CONTINUOUS
10
4.04569
20
-3.06003
11
4.04575
21
-3.06006
0
LINE
8
BLACK
6
CONTINUOUS
10
4.04575
20
-3.06006
11
4.04813
21
-3.06244
0
LINE
8
BLACK
6
CONTINUOUS
10
4.04813
20
-3.06244
11
4.04864
21
-3.06316
0
LINE
8
BLACK
6
CONTINUOUS
10
4.04864
20
-3.06316
11
4.04869
21
-3.06321
0
LINE
8
BLACK
6
CONTINUOUS
10
4.04869
20
-3.06321
11
4.05107
21
-3.06797
0
LINE
8
BLACK
6
CONTINUOUS
10
4.05107
20
-3.06797
11
4.05136
21
-3.06895
0
LINE
8
BLACK
6
CONTINUOUS
10
4.05136
20
-3.06895
11
4.05132
21
-3.06912
0
LINE
8
BLACK
6
CONTINUOUS
10
4.05132
20
-3.06912
11
4.05138
21
-3.06929
0
LINE
8
BLACK
6
CONTINUOUS
10
4.05138
20
-3.06929
11
4.05138
21
-3.08358
0
LINE
8
BLACK
6
CONTINUOUS
10
4.05138
20
-3.08358
11
4.0512
21
-3.08459
0
LINE
8
BLACK
6
CONTINUOUS
10
4.0512
20
-3.08459
11
4.05109
21
-3.08472
0
LINE
8
BLACK
6
CONTINUOUS
10
4.05109
20
-3.08472
11
4.05107
21
-3.0849
0
LINE
8
BLACK
6
CONTINUOUS
10
4.05107
20
-3.0849
11
4.04869
21
-3.08966
0
LINE
8
BLACK
6
CONTINUOUS
10
4.04869
20
-3.08966
11
4.04816
21
-3.09037
0
LINE
8
BLACK
6
CONTINUOUS
10
4.04816
20
-3.09037
11
4.04813
21
-3.09043
0
LINE
8
BLACK
6
CONTINUOUS
10
4.04813
20
-3.09043
11
4.04575
21
-3.09281
0
LINE
8
BLACK
6
CONTINUOUS
10
4.04575
20
-3.09281
11
4.04503
21
-3.09331
0
LINE
8
BLACK
6
CONTINUOUS
10
4.04503
20
-3.09331
11
4.04498
21
-3.09336
0
LINE
8
BLACK
6
CONTINUOUS
10
4.04498
20
-3.09336
11
4.04022
21
-3.09574
0
LINE
8
BLACK
6
CONTINUOUS
10
4.04022
20
-3.09574
11
4.03924
21
-3.09603
0
LINE
8
BLACK
6
CONTINUOUS
10
4.03924
20
-3.09603
11
4.03907
21
-3.09599
0
LINE
8
BLACK
6
CONTINUOUS
10
4.03907
20
-3.09599
11
4.0389
21
-3.09605
0
LINE
8
BLACK
6
CONTINUOUS
10
4.0389
20
-3.09605
11
4.03176
21
-3.09605
0
LINE
8
BLACK
6
CONTINUOUS
10
4.03176
20
-3.09605
11
4.03075
21
-3.09587
0
LINE
8
BLACK
6
CONTINUOUS
10
4.03075
20
-3.09587
11
4.03061
21
-3.09576
0
LINE
8
BLACK
6
CONTINUOUS
10
4.03061
20
-3.09576
11
4.03044
21
-3.09574
0
LINE
8
BLACK
6
CONTINUOUS
10
4.03044
20
-3.09574
11
4.02568
21
-3.09336
0
LINE
8
BLACK
6
CONTINUOUS
10
4.02568
20
-3.09336
11
4.02497
21
-3.09283
0
LINE
8
BLACK
6
CONTINUOUS
10
4.02497
20
-3.09283
11
4.02491
21
-3.09281
0
LINE
8
BLACK
6
CONTINUOUS
10
4.02491
20
-3.09281
11
4.02253
21
-3.09043
0
LINE
8
BLACK
6
CONTINUOUS
10
4.02253
20
-3.09043
11
4.02202
21
-3.0897
0
LINE
8
BLACK
6
CONTINUOUS
10
4.02202
20
-3.0897
11
4.02197
21
-3.08966
0
LINE
8
BLACK
6
CONTINUOUS
10
4.02197
20
-3.08966
11
4.01959
21
-3.0849
0
LINE
8
BLACK
6
CONTINUOUS
10
4.01959
20
-3.0849
11
4.0193
21
-3.08391
0
LINE
8
BLACK
6
CONTINUOUS
10
4.0193
20
-3.08391
11
4.01934
21
-3.08374
0
LINE
8
BLACK
6
CONTINUOUS
10
4.01934
20
-3.08374
11
4.01928
21
-3.08358
0
LINE
8
BLACK
6
CONTINUOUS
10
4.01928
20
-3.08358
11
4.01928
21
-3.06929
0
LINE
8
BLACK
6
CONTINUOUS
10
4.01928
20
-3.06929
11
4.01946
21
-3.06828
0
LINE
8
BLACK
6
CONTINUOUS
10
4.01946
20
-3.06828
11
4.01957
21
-3.06814
0
LINE
8
BLACK
6
CONTINUOUS
10
4.01957
20
-3.06814
11
4.01959
21
-3.06797
0
LINE
8
BLACK
6
CONTINUOUS
10
4.01959
20
-3.06797
11
4.02197
21
-3.06321
0
LINE
8
BLACK
6
CONTINUOUS
10
4.02197
20
-3.06321
11
4.0225
21
-3.0625
0
LINE
8
BLACK
6
CONTINUOUS
10
4.0225
20
-3.0625
11
4.02253
21
-3.06244
0
LINE
8
BLACK
6
CONTINUOUS
10
4.02253
20
-3.06244
11
4.02491
21
-3.06006
0
LINE
8
BLACK
6
CONTINUOUS
10
4.02491
20
-3.06006
11
4.02563
21
-3.05955
0
LINE
8
BLACK
6
CONTINUOUS
10
4.02563
20
-3.05955
11
4.02568
21
-3.05951
0
LINE
8
BLACK
6
CONTINUOUS
10
4.02568
20
-3.05951
11
4.03044
21
-3.05713
0
LINE
8
BLACK
6
CONTINUOUS
10
4.03044
20
-3.05713
11
4.03142
21
-3.05683
0
LINE
8
BLACK
6
CONTINUOUS
10
4.03142
20
-3.05683
11
4.03159
21
-3.05687
0
LINE
8
BLACK
6
CONTINUOUS
10
4.03159
20
-3.05687
11
4.03176
21
-3.05681
0
LINE
8
BLACK
6
CONTINUOUS
10
4.03176
20
-3.05681
11
4.0389
21
-3.05681
0
LINE
8
BLACK
6
CONTINUOUS
10
4.0389
20
-3.05681
11
4.03991
21
-3.05699
0
LINE
8
BLACK
6
CONTINUOUS
10
4.02875
20
-3.06457
11
4.02704
21
-3.06628
0
LINE
8
BLACK
6
CONTINUOUS
10
4.02704
20
-3.06628
11
4.02519
21
-3.06999
0
LINE
8
BLACK
6
CONTINUOUS
10
4.02519
20
-3.06999
11
4.02519
21
-3.08288
0
LINE
8
BLACK
6
CONTINUOUS
10
4.02519
20
-3.08288
11
4.02704
21
-3.08659
0
LINE
8
BLACK
6
CONTINUOUS
10
4.02704
20
-3.08659
11
4.02875
21
-3.08829
0
LINE
8
BLACK
6
CONTINUOUS
10
4.02875
20
-3.08829
11
4.03246
21
-3.09015
0
LINE
8
BLACK
6
CONTINUOUS
10
4.03246
20
-3.09015
11
4.0382
21
-3.09015
0
LINE
8
BLACK
6
CONTINUOUS
10
4.0382
20
-3.09015
11
4.04191
21
-3.08829
0
LINE
8
BLACK
6
CONTINUOUS
10
4.04191
20
-3.08829
11
4.04362
21
-3.08659
0
LINE
8
BLACK
6
CONTINUOUS
10
4.04362
20
-3.08659
11
4.04547
21
-3.08288
0
LINE
8
BLACK
6
CONTINUOUS
10
4.04547
20
-3.08288
11
4.04547
21
-3.06999
0
LINE
8
BLACK
6
CONTINUOUS
10
4.04547
20
-3.06999
11
4.04362
21
-3.06628
0
LINE
8
BLACK
6
CONTINUOUS
10
4.04362
20
-3.06628
11
4.04191
21
-3.06457
0
LINE
8
BLACK
6
CONTINUOUS
10
4.04191
20
-3.06457
11
4.0382
21
-3.06272
0
LINE
8
BLACK
6
CONTINUOUS
10
4.0382
20
-3.06272
11
4.03246
21
-3.06272
0
LINE
8
BLACK
6
CONTINUOUS
10
4.03246
20
-3.06272
11
4.02875
21
-3.06457
0
LINE
8
BLACK
6
CONTINUOUS
10
4.09354
20
-3.0412
11
4.09424
21
-3.0431
0
LINE
8
BLACK
6
CONTINUOUS
10
4.09424
20
-3.0431
11
4.09424
21
-3.0931
0
LINE
8
BLACK
6
CONTINUOUS
10
4.09424
20
-3.0931
11
4.09406
21
-3.09411
0
LINE
8
BLACK
6
CONTINUOUS
10
4.09406
20
-3.09411
11
4.09276
21
-3.09566
0
LINE
8
BLACK
6
CONTINUOUS
10
4.09276
20
-3.09566
11
4.09077
21
-3.09601
0
LINE
8
BLACK
6
CONTINUOUS
10
4.09077
20
-3.09601
11
4.08916
21
-3.09508
0
LINE
8
BLACK
6
CONTINUOUS
10
4.08916
20
-3.09508
11
4.08784
21
-3.09574
0
LINE
8
BLACK
6
CONTINUOUS
10
4.08784
20
-3.09574
11
4.08686
21
-3.09603
0
LINE
8
BLACK
6
CONTINUOUS
10
4.08686
20
-3.09603
11
4.08669
21
-3.09599
0
LINE
8
BLACK
6
CONTINUOUS
10
4.08669
20
-3.09599
11
4.08652
21
-3.09605
0
LINE
8
BLACK
6
CONTINUOUS
10
4.08652
20
-3.09605
11
4.077
21
-3.09605
0
LINE
8
BLACK
6
CONTINUOUS
10
4.077
20
-3.09605
11
4.07599
21
-3.09587
0
LINE
8
BLACK
6
CONTINUOUS
10
4.07599
20
-3.09587
11
4.07585
21
-3.09576
0
LINE
8
BLACK
6
CONTINUOUS
10
4.07585
20
-3.09576
11
4.07568
21
-3.09574
0
LINE
8
BLACK
6
CONTINUOUS
10
4.07568
20
-3.09574
11
4.07091
21
-3.09336
0
LINE
8
BLACK
6
CONTINUOUS
10
4.07091
20
-3.09336
11
4.07021
21
-3.09283
0
LINE
8
BLACK
6
CONTINUOUS
10
4.07021
20
-3.09283
11
4.07015
21
-3.09281
0
LINE
8
BLACK
6
CONTINUOUS
10
4.07015
20
-3.09281
11
4.06777
21
-3.09043
0
LINE
8
BLACK
6
CONTINUOUS
10
4.06777
20
-3.09043
11
4.06726
21
-3.0897
0
LINE
8
BLACK
6
CONTINUOUS
10
4.06726
20
-3.0897
11
4.06721
21
-3.08966
0
LINE
8
BLACK
6
CONTINUOUS
10
4.06721
20
-3.08966
11
4.06483
21
-3.0849
0
LINE
8
BLACK
6
CONTINUOUS
10
4.06483
20
-3.0849
11
4.06454
21
-3.08391
0
LINE
8
BLACK
6
CONTINUOUS
10
4.06454
20
-3.08391
11
4.06458
21
-3.08374
0
LINE
8
BLACK
6
CONTINUOUS
10
4.06458
20
-3.08374
11
4.06452
21
-3.08358
0
LINE
8
BLACK
6
CONTINUOUS
10
4.06452
20
-3.08358
11
4.06452
21
-3.06929
0
LINE
8
BLACK
6
CONTINUOUS
10
4.06452
20
-3.06929
11
4.0647
21
-3.06828
0
LINE
8
BLACK
6
CONTINUOUS
10
4.0647
20
-3.06828
11
4.06481
21
-3.06814
0
LINE
8
BLACK
6
CONTINUOUS
10
4.06481
20
-3.06814
11
4.06483
21
-3.06797
0
LINE
8
BLACK
6
CONTINUOUS
10
4.06483
20
-3.06797
11
4.06721
21
-3.06321
0
LINE
8
BLACK
6
CONTINUOUS
10
4.06721
20
-3.06321
11
4.06774
21
-3.0625
0
LINE
8
BLACK
6
CONTINUOUS
10
4.06774
20
-3.0625
11
4.06777
21
-3.06244
0
LINE
8
BLACK
6
CONTINUOUS
10
4.06777
20
-3.06244
11
4.07015
21
-3.06006
0
LINE
8
BLACK
6
CONTINUOUS
10
4.07015
20
-3.06006
11
4.07087
21
-3.05955
0
LINE
8
BLACK
6
CONTINUOUS
10
4.07087
20
-3.05955
11
4.07091
21
-3.05951
0
LINE
8
BLACK
6
CONTINUOUS
10
4.07091
20
-3.05951
11
4.07568
21
-3.05713
0
LINE
8
BLACK
6
CONTINUOUS
10
4.07568
20
-3.05713
11
4.07666
21
-3.05683
0
LINE
8
BLACK
6
CONTINUOUS
10
4.07666
20
-3.05683
11
4.07683
21
-3.05687
0
LINE
8
BLACK
6
CONTINUOUS
10
4.07683
20
-3.05687
11
4.077
21
-3.05681
0
LINE
8
BLACK
6
CONTINUOUS
10
4.077
20
-3.05681
11
4.08652
21
-3.05681
0
LINE
8
BLACK
6
CONTINUOUS
10
4.08652
20
-3.05681
11
4.08753
21
-3.05699
0
LINE
8
BLACK
6
CONTINUOUS
10
4.08753
20
-3.05699
11
4.08767
21
-3.0571
0
LINE
8
BLACK
6
CONTINUOUS
10
4.08767
20
-3.0571
11
4.08784
21
-3.05713
0
LINE
8
BLACK
6
CONTINUOUS
10
4.08784
20
-3.05713
11
4.08833
21
-3.05737
0
LINE
8
BLACK
6
CONTINUOUS
10
4.08833
20
-3.05737
11
4.08833
21
-3.0431
0
LINE
8
BLACK
6
CONTINUOUS
10
4.08833
20
-3.0431
11
4.08851
21
-3.04209
0
LINE
8
BLACK
6
CONTINUOUS
10
4.08851
20
-3.04209
11
4.08981
21
-3.04054
0
LINE
8
BLACK
6
CONTINUOUS
10
4.08981
20
-3.04054
11
4.0918
21
-3.04019
0
LINE
8
BLACK
6
CONTINUOUS
10
4.0918
20
-3.04019
11
4.09354
21
-3.0412
0
LINE
8
BLACK
6
CONTINUOUS
10
4.07398
20
-3.06457
11
4.07228
21
-3.06628
0
LINE
8
BLACK
6
CONTINUOUS
10
4.07228
20
-3.06628
11
4.07043
21
-3.06999
0
LINE
8
BLACK
6
CONTINUOUS
10
4.07043
20
-3.06999
11
4.07043
21
-3.08288
0
LINE
8
BLACK
6
CONTINUOUS
10
4.07043
20
-3.08288
11
4.07228
21
-3.08659
0
LINE
8
BLACK
6
CONTINUOUS
10
4.07228
20
-3.08659
11
4.07398
21
-3.08829
0
LINE
8
BLACK
6
CONTINUOUS
10
4.07398
20
-3.08829
11
4.07769
21
-3.09015
0
LINE
8
BLACK
6
CONTINUOUS
10
4.07769
20
-3.09015
11
4.08582
21
-3.09015
0
LINE
8
BLACK
6
CONTINUOUS
10
4.08582
20
-3.09015
11
4.08833
21
-3.08889
0
LINE
8
BLACK
6
CONTINUOUS
10
4.08833
20
-3.08889
11
4.08833
21
-3.06397
0
LINE
8
BLACK
6
CONTINUOUS
10
4.08833
20
-3.06397
11
4.08582
21
-3.06272
0
LINE
8
BLACK
6
CONTINUOUS
10
4.08582
20
-3.06272
11
4.07769
21
-3.06272
0
LINE
8
BLACK
6
CONTINUOUS
10
4.07769
20
-3.06272
11
4.07398
21
-3.06457
0
LINE
8
BLACK
6
CONTINUOUS
10
4.13039
20
-3.05699
11
4.13052
21
-3.0571
0
LINE
8
BLACK
6
CONTINUOUS
10
4.13052
20
-3.0571
11
4.1307
21
-3.05713
0
LINE
8
BLACK
6
CONTINUOUS
10
4.1307
20
-3.05713
11
4.13546
21
-3.05951
0
LINE
8
BLACK
6
CONTINUOUS
10
4.13546
20
-3.05951
11
4.13628
21
-3.06012
0
LINE
8
BLACK
6
CONTINUOUS
10
4.13628
20
-3.06012
11
4.13646
21
-3.06052
0
LINE
8
BLACK
6
CONTINUOUS
10
4.13646
20
-3.06052
11
4.13678
21
-3.06083
0
LINE
8
BLACK
6
CONTINUOUS
10
4.13678
20
-3.06083
11
4.13916
21
-3.06559
0
LINE
8
BLACK
6
CONTINUOUS
10
4.13916
20
-3.06559
11
4.13945
21
-3.06657
0
LINE
8
BLACK
6
CONTINUOUS
10
4.13945
20
-3.06657
11
4.13941
21
-3.06674
0
LINE
8
BLACK
6
CONTINUOUS
10
4.13941
20
-3.06674
11
4.13947
21
-3.06691
0
LINE
8
BLACK
6
CONTINUOUS
10
4.13947
20
-3.06691
11
4.13947
21
-3.07167
0
LINE
8
BLACK
6
CONTINUOUS
10
4.13947
20
-3.07167
11
4.1393
21
-3.07268
0
LINE
8
BLACK
6
CONTINUOUS
10
4.1393
20
-3.07268
11
4.13898
21
-3.07305
0
LINE
8
BLACK
6
CONTINUOUS
10
4.13898
20
-3.07305
11
4.13883
21
-3.07352
0
LINE
8
BLACK
6
CONTINUOUS
10
4.13883
20
-3.07352
11
4.13835
21
-3.0738
0
LINE
8
BLACK
6
CONTINUOUS
10
4.13835
20
-3.0738
11
4.138
21
-3.07423
0
LINE
8
BLACK
6
CONTINUOUS
10
4.138
20
-3.07423
11
4.13752
21
-3.07431
0
LINE
8
BLACK
6
CONTINUOUS
10
4.13752
20
-3.07431
11
4.1371
21
-3.07457
0
LINE
8
BLACK
6
CONTINUOUS
10
4.1371
20
-3.07457
11
4.11566
21
-3.07885
0
LINE
8
BLACK
6
CONTINUOUS
10
4.11566
20
-3.07885
11
4.11566
21
-3.08526
0
LINE
8
BLACK
6
CONTINUOUS
10
4.11566
20
-3.08526
11
4.11729
21
-3.08852
0
LINE
8
BLACK
6
CONTINUOUS
10
4.11729
20
-3.08852
11
4.12055
21
-3.09015
0
LINE
8
BLACK
6
CONTINUOUS
10
4.12055
20
-3.09015
11
4.12868
21
-3.09015
0
LINE
8
BLACK
6
CONTINUOUS
10
4.12868
20
-3.09015
11
4.13282
21
-3.08808
0
LINE
8
BLACK
6
CONTINUOUS
10
4.13282
20
-3.08808
11
4.1338
21
-3.08779
0
LINE
8
BLACK
6
CONTINUOUS
10
4.1338
20
-3.08779
11
4.13577
21
-3.08825
0
LINE
8
BLACK
6
CONTINUOUS
10
4.13577
20
-3.08825
11
4.13697
21
-3.08988
0
LINE
8
BLACK
6
CONTINUOUS
10
4.13697
20
-3.08988
11
4.13685
21
-3.09189
0
LINE
8
BLACK
6
CONTINUOUS
10
4.13685
20
-3.09189
11
4.13546
21
-3.09336
0
LINE
8
BLACK
6
CONTINUOUS
10
4.13546
20
-3.09336
11
4.1307
21
-3.09574
0
LINE
8
BLACK
6
CONTINUOUS
10
4.1307
20
-3.09574
11
4.12972
21
-3.09603
0
LINE
8
BLACK
6
CONTINUOUS
10
4.12972
20
-3.09603
11
4.12954
21
-3.09599
0
LINE
8
BLACK
6
CONTINUOUS
10
4.12954
20
-3.09599
11
4.12938
21
-3.09605
0
LINE
8
BLACK
6
CONTINUOUS
10
4.12938
20
-3.09605
11
4.11985
21
-3.09605
0
LINE
8
BLACK
6
CONTINUOUS
10
4.11985
20
-3.09605
11
4.11884
21
-3.09587
0
LINE
8
BLACK
6
CONTINUOUS
10
4.11884
20
-3.09587
11
4.11871
21
-3.09576
0
LINE
8
BLACK
6
CONTINUOUS
10
4.11871
20
-3.09576
11
4.11853
21
-3.09574
0
LINE
8
BLACK
6
CONTINUOUS
10
4.11853
20
-3.09574
11
4.11377
21
-3.09336
0
LINE
8
BLACK
6
CONTINUOUS
10
4.11377
20
-3.09336
11
4.11295
21
-3.09275
0
LINE
8
BLACK
6
CONTINUOUS
10
4.11295
20
-3.09275
11
4.11277
21
-3.09234
0
LINE
8
BLACK
6
CONTINUOUS
10
4.11277
20
-3.09234
11
4.11245
21
-3.09204
0
LINE
8
BLACK
6
CONTINUOUS
10
4.11245
20
-3.09204
11
4.11007
21
-3.08728
0
LINE
8
BLACK
6
CONTINUOUS
10
4.11007
20
-3.08728
11
4.10978
21
-3.08629
0
LINE
8
BLACK
6
CONTINUOUS
10
4.10978
20
-3.08629
11
4.10982
21
-3.08612
0
LINE
8
BLACK
6
CONTINUOUS
10
4.10982
20
-3.08612
11
4.10976
21
-3.08596
0
LINE
8
BLACK
6
CONTINUOUS
10
4.10976
20
-3.08596
11
4.10976
21
-3.06691
0
LINE
8
BLACK
6
CONTINUOUS
10
4.10976
20
-3.06691
11
4.10994
21
-3.0659
0
LINE
8
BLACK
6
CONTINUOUS
10
4.10994
20
-3.0659
11
4.11005
21
-3.06576
0
LINE
8
BLACK
6
CONTINUOUS
10
4.11005
20
-3.06576
11
4.11007
21
-3.06559
0
LINE
8
BLACK
6
CONTINUOUS
10
4.11007
20
-3.06559
11
4.11245
21
-3.06083
0
LINE
8
BLACK
6
CONTINUOUS
10
4.11245
20
-3.06083
11
4.11306
21
-3.06
0
LINE
8
BLACK
6
CONTINUOUS
10
4.11306
20
-3.06
11
4.11347
21
-3.05983
0
LINE
8
BLACK
6
CONTINUOUS
10
4.11347
20
-3.05983
11
4.11377
21
-3.05951
0
LINE
8
BLACK
6
CONTINUOUS
10
4.11377
20
-3.05951
11
4.11853
21
-3.05713
0
LINE
8
BLACK
6
CONTINUOUS
10
4.11853
20
-3.05713
11
4.11952
21
-3.05683
0
LINE
8
BLACK
6
CONTINUOUS
10
4.11952
20
-3.05683
11
4.11969
21
-3.05687
0
LINE
8
BLACK
6
CONTINUOUS
10
4.11969
20
-3.05687
11
4.11985
21
-3.05681
0
LINE
8
BLACK
6
CONTINUOUS
10
4.11985
20
-3.05681
11
4.12938
21
-3.05681
0
LINE
8
BLACK
6
CONTINUOUS
10
4.12938
20
-3.05681
11
4.13039
21
-3.05699
0
LINE
8
BLACK
6
CONTINUOUS
10
4.11729
20
-3.06435
11
4.11566
21
-3.06761
0
LINE
8
BLACK
6
CONTINUOUS
10
4.11566
20
-3.06761
11
4.11566
21
-3.07283
0
LINE
8
BLACK
6
CONTINUOUS
10
4.11566
20
-3.07283
11
4.13357
21
-3.06925
0
LINE
8
BLACK
6
CONTINUOUS
10
4.13357
20
-3.06925
11
4.13357
21
-3.06761
0
LINE
8
BLACK
6
CONTINUOUS
10
4.13357
20
-3.06761
11
4.13194
21
-3.06435
0
LINE
8
BLACK
6
CONTINUOUS
10
4.13194
20
-3.06435
11
4.12868
21
-3.06272
0
LINE
8
BLACK
6
CONTINUOUS
10
4.12868
20
-3.06272
11
4.12055
21
-3.06272
0
LINE
8
BLACK
6
CONTINUOUS
10
4.12055
20
-3.06272
11
4.11729
21
-3.06435
0
LINE
8
BLACK
6
CONTINUOUS
10
4.24691
20
-3.0403
11
4.24698
21
-3.0403
0
LINE
8
BLACK
6
CONTINUOUS
10
4.24698
20
-3.0403
11
4.25412
21
-3.04268
0
LINE
8
BLACK
6
CONTINUOUS
10
4.25412
20
-3.04268
11
4.25502
21
-3.04317
0
LINE
8
BLACK
6
CONTINUOUS
10
4.25502
20
-3.04317
11
4.25608
21
-3.04489
0
LINE
8
BLACK
6
CONTINUOUS
10
4.25608
20
-3.04489
11
4.25578
21
-3.04689
0
LINE
8
BLACK
6
CONTINUOUS
10
4.25578
20
-3.04689
11
4.25427
21
-3.04823
0
LINE
8
BLACK
6
CONTINUOUS
10
4.25427
20
-3.04823
11
4.25225
21
-3.04828
0
LINE
8
BLACK
6
CONTINUOUS
10
4.25225
20
-3.04828
11
4.24557
21
-3.04605
0
LINE
8
BLACK
6
CONTINUOUS
10
4.24557
20
-3.04605
11
4.23484
21
-3.04605
0
LINE
8
BLACK
6
CONTINUOUS
10
4.23484
20
-3.04605
11
4.23113
21
-3.04791
0
LINE
8
BLACK
6
CONTINUOUS
10
4.23113
20
-3.04791
11
4.22942
21
-3.04961
0
LINE
8
BLACK
6
CONTINUOUS
10
4.22942
20
-3.04961
11
4.22757
21
-3.05332
0
LINE
8
BLACK
6
CONTINUOUS
10
4.22757
20
-3.05332
11
4.22757
21
-3.05669
0
LINE
8
BLACK
6
CONTINUOUS
10
4.22757
20
-3.05669
11
4.22942
21
-3.0604
0
LINE
8
BLACK
6
CONTINUOUS
10
4.22942
20
-3.0604
11
4.23113
21
-3.0621
0
LINE
8
BLACK
6
CONTINUOUS
10
4.23113
20
-3.0621
11
4.23517
21
-3.06412
0
LINE
8
BLACK
6
CONTINUOUS
10
4.23517
20
-3.06412
11
4.24438
21
-3.06643
0
LINE
8
BLACK
6
CONTINUOUS
10
4.24438
20
-3.06643
11
4.24484
21
-3.06663
0
LINE
8
BLACK
6
CONTINUOUS
10
4.24484
20
-3.06663
11
4.24498
21
-3.06665
0
LINE
8
BLACK
6
CONTINUOUS
10
4.24498
20
-3.06665
11
4.24975
21
-3.06903
0
LINE
8
BLACK
6
CONTINUOUS
10
4.24975
20
-3.06903
11
4.25045
21
-3.06956
0
LINE
8
BLACK
6
CONTINUOUS
10
4.25045
20
-3.06956
11
4.25051
21
-3.06958
0
LINE
8
BLACK
6
CONTINUOUS
10
4.25051
20
-3.06958
11
4.25289
21
-3.07196
0
LINE
8
BLACK
6
CONTINUOUS
10
4.25289
20
-3.07196
11
4.2534
21
-3.07269
0
LINE
8
BLACK
6
CONTINUOUS
10
4.2534
20
-3.07269
11
4.25345
21
-3.07273
0
LINE
8
BLACK
6
CONTINUOUS
10
4.25345
20
-3.07273
11
4.25583
21
-3.07749
0
LINE
8
BLACK
6
CONTINUOUS
10
4.25583
20
-3.07749
11
4.25612
21
-3.07848
0
LINE
8
BLACK
6
CONTINUOUS
10
4.25612
20
-3.07848
11
4.25608
21
-3.07865
0
LINE
8
BLACK
6
CONTINUOUS
10
4.25608
20
-3.07865
11
4.25614
21
-3.07881
0
LINE
8
BLACK
6
CONTINUOUS
10
4.25614
20
-3.07881
11
4.25614
21
-3.08358
0
LINE
8
BLACK
6
CONTINUOUS
10
4.25614
20
-3.08358
11
4.25596
21
-3.08459
0
LINE
8
BLACK
6
CONTINUOUS
10
4.25596
20
-3.08459
11
4.25585
21
-3.08472
0
LINE
8
BLACK
6
CONTINUOUS
10
4.25585
20
-3.08472
11
4.25583
21
-3.0849
0
LINE
8
BLACK
6
CONTINUOUS
10
4.25583
20
-3.0849
11
4.25345
21
-3.08966
0
LINE
8
BLACK
6
CONTINUOUS
10
4.25345
20
-3.08966
11
4.25292
21
-3.09037
0
LINE
8
BLACK
6
CONTINUOUS
10
4.25292
20
-3.09037
11
4.25289
21
-3.09043
0
LINE
8
BLACK
6
CONTINUOUS
10
4.25289
20
-3.09043
11
4.25051
21
-3.09281
0
LINE
8
BLACK
6
CONTINUOUS
10
4.25051
20
-3.09281
11
4.24979
21
-3.09331
0
LINE
8
BLACK
6
CONTINUOUS
10
4.24979
20
-3.09331
11
4.24975
21
-3.09336
0
LINE
8
BLACK
6
CONTINUOUS
10
4.24975
20
-3.09336
11
4.24498
21
-3.09574
0
LINE
8
BLACK
6
CONTINUOUS
10
4.24498
20
-3.09574
11
4.244
21
-3.09603
0
LINE
8
BLACK
6
CONTINUOUS
10
4.244
20
-3.09603
11
4.24383
21
-3.09599
0
LINE
8
BLACK
6
CONTINUOUS
10
4.24383
20
-3.09599
11
4.24366
21
-3.09605
0
LINE
8
BLACK
6
CONTINUOUS
10
4.24366
20
-3.09605
11
4.23176
21
-3.09605
0
LINE
8
BLACK
6
CONTINUOUS
10
4.23176
20
-3.09605
11
4.23089
21
-3.0959
0
LINE
8
BLACK
6
CONTINUOUS
10
4.23089
20
-3.0959
11
4.23082
21
-3.0959
0
LINE
8
BLACK
6
CONTINUOUS
10
4.23082
20
-3.0959
11
4.22368
21
-3.09352
0
LINE
8
BLACK
6
CONTINUOUS
10
4.22368
20
-3.09352
11
4.22278
21
-3.09303
0
LINE
8
BLACK
6
CONTINUOUS
10
4.22278
20
-3.09303
11
4.22172
21
-3.09131
0
LINE
8
BLACK
6
CONTINUOUS
10
4.22172
20
-3.09131
11
4.22202
21
-3.08931
0
LINE
8
BLACK
6
CONTINUOUS
10
4.22202
20
-3.08931
11
4.22353
21
-3.08797
0
LINE
8
BLACK
6
CONTINUOUS
10
4.22353
20
-3.08797
11
4.22555
21
-3.08792
0
LINE
8
BLACK
6
CONTINUOUS
10
4.22555
20
-3.08792
11
4.23224
21
-3.09015
0
LINE
8
BLACK
6
CONTINUOUS
10
4.23224
20
-3.09015
11
4.24297
21
-3.09015
0
LINE
8
BLACK
6
CONTINUOUS
10
4.24297
20
-3.09015
11
4.24668
21
-3.08829
0
LINE
8
BLACK
6
CONTINUOUS
10
4.24668
20
-3.08829
11
4.24838
21
-3.08659
0
LINE
8
BLACK
6
CONTINUOUS
10
4.24838
20
-3.08659
11
4.25023
21
-3.08288
0
LINE
8
BLACK
6
CONTINUOUS
10
4.25023
20
-3.08288
11
4.25023
21
-3.07951
0
LINE
8
BLACK
6
CONTINUOUS
10
4.25023
20
-3.07951
11
4.24838
21
-3.0758
0
LINE
8
BLACK
6
CONTINUOUS
10
4.24838
20
-3.0758
11
4.24668
21
-3.0741
0
LINE
8
BLACK
6
CONTINUOUS
10
4.24668
20
-3.0741
11
4.24263
21
-3.07208
0
LINE
8
BLACK
6
CONTINUOUS
10
4.24263
20
-3.07208
11
4.23342
21
-3.06977
0
LINE
8
BLACK
6
CONTINUOUS
10
4.23342
20
-3.06977
11
4.23296
21
-3.06957
0
LINE
8
BLACK
6
CONTINUOUS
10
4.23296
20
-3.06957
11
4.23282
21
-3.06955
0
LINE
8
BLACK
6
CONTINUOUS
10
4.23282
20
-3.06955
11
4.22806
21
-3.06717
0
LINE
8
BLACK
6
CONTINUOUS
10
4.22806
20
-3.06717
11
4.22735
21
-3.06664
0
LINE
8
BLACK
6
CONTINUOUS
10
4.22735
20
-3.06664
11
4.22729
21
-3.06662
0
LINE
8
BLACK
6
CONTINUOUS
10
4.22729
20
-3.06662
11
4.22491
21
-3.06423
0
LINE
8
BLACK
6
CONTINUOUS
10
4.22491
20
-3.06423
11
4.2244
21
-3.06351
0
LINE
8
BLACK
6
CONTINUOUS
10
4.2244
20
-3.06351
11
4.22436
21
-3.06347
0
LINE
8
BLACK
6
CONTINUOUS
10
4.22436
20
-3.06347
11
4.22197
21
-3.05871
0
LINE
8
BLACK
6
CONTINUOUS
10
4.22197
20
-3.05871
11
4.22168
21
-3.05772
0
LINE
8
BLACK
6
CONTINUOUS
10
4.22168
20
-3.05772
11
4.22172
21
-3.05755
0
LINE
8
BLACK
6
CONTINUOUS
10
4.22172
20
-3.05755
11
4.22166
21
-3.05739
0
LINE
8
BLACK
6
CONTINUOUS
10
4.22166
20
-3.05739
11
4.22166
21
-3.05262
0
LINE
8
BLACK
6
CONTINUOUS
10
4.22166
20
-3.05262
11
4.22184
21
-3.05161
0
LINE
8
BLACK
6
CONTINUOUS
10
4.22184
20
-3.05161
11
4.22195
21
-3.05148
0
LINE
8
BLACK
6
CONTINUOUS
10
4.22195
20
-3.05148
11
4.22197
21
-3.0513
0
LINE
8
BLACK
6
CONTINUOUS
10
4.22197
20
-3.0513
11
4.22436
21
-3.04654
0
LINE
8
BLACK
6
CONTINUOUS
10
4.22436
20
-3.04654
11
4.22488
21
-3.04583
0
LINE
8
BLACK
6
CONTINUOUS
10
4.22488
20
-3.04583
11
4.22491
21
-3.04577
0
LINE
8
BLACK
6
CONTINUOUS
10
4.22491
20
-3.04577
11
4.22729
21
-3.04339
0
LINE
8
BLACK
6
CONTINUOUS
10
4.22729
20
-3.04339
11
4.22801
21
-3.04289
0
LINE
8
BLACK
6
CONTINUOUS
10
4.22801
20
-3.04289
11
4.22806
21
-3.04284
0
LINE
8
BLACK
6
CONTINUOUS
10
4.22806
20
-3.04284
11
4.23282
21
-3.04046
0
LINE
8
BLACK
6
CONTINUOUS
10
4.23282
20
-3.04046
11
4.2338
21
-3.04017
0
LINE
8
BLACK
6
CONTINUOUS
10
4.2338
20
-3.04017
11
4.23397
21
-3.04021
0
LINE
8
BLACK
6
CONTINUOUS
10
4.23397
20
-3.04021
11
4.23414
21
-3.04015
0
LINE
8
BLACK
6
CONTINUOUS
10
4.23414
20
-3.04015
11
4.24604
21
-3.04015
0
LINE
8
BLACK
6
CONTINUOUS
10
4.24604
20
-3.04015
11
4.24691
21
-3.0403
0
LINE
8
BLACK
6
CONTINUOUS
10
4.35307
20
-3.0412
11
4.35376
21
-3.0431
0
LINE
8
BLACK
6
CONTINUOUS
10
4.35376
20
-3.0431
11
4.35376
21
-3.05681
0
LINE
8
BLACK
6
CONTINUOUS
10
4.35376
20
-3.05681
11
4.36271
21
-3.05681
0
LINE
8
BLACK
6
CONTINUOUS
10
4.36271
20
-3.05681
11
4.36372
21
-3.05699
0
LINE
8
BLACK
6
CONTINUOUS
10
4.36372
20
-3.05699
11
4.36527
21
-3.05829
0
LINE
8
BLACK
6
CONTINUOUS
10
4.36527
20
-3.05829
11
4.36562
21
-3.06028
0
LINE
8
BLACK
6
CONTINUOUS
10
4.36562
20
-3.06028
11
4.36461
21
-3.06203
0
LINE
8
BLACK
6
CONTINUOUS
10
4.36461
20
-3.06203
11
4.36271
21
-3.06272
0
LINE
8
BLACK
6
CONTINUOUS
10
4.36271
20
-3.06272
11
4.35376
21
-3.06272
0
LINE
8
BLACK
6
CONTINUOUS
10
4.35376
20
-3.06272
11
4.35376
21
-3.08526
0
LINE
8
BLACK
6
CONTINUOUS
10
4.35376
20
-3.08526
11
4.35539
21
-3.08852
0
LINE
8
BLACK
6
CONTINUOUS
10
4.35539
20
-3.08852
11
4.35865
21
-3.09015
0
LINE
8
BLACK
6
CONTINUOUS
10
4.35865
20
-3.09015
11
4.36271
21
-3.09015
0
LINE
8
BLACK
6
CONTINUOUS
10
4.36271
20
-3.09015
11
4.36372
21
-3.09032
0
LINE
8
BLACK
6
CONTINUOUS
10
4.36372
20
-3.09032
11
4.36527
21
-3.09162
0
LINE
8
BLACK
6
CONTINUOUS
10
4.36527
20
-3.09162
11
4.36562
21
-3.09361
0
LINE
8
BLACK
6
CONTINUOUS
10
4.36562
20
-3.09361
11
4.36461
21
-3.09536
0
LINE
8
BLACK
6
CONTINUOUS
10
4.36461
20
-3.09536
11
4.36271
21
-3.09605
0
LINE
8
BLACK
6
CONTINUOUS
10
4.36271
20
-3.09605
11
4.35795
21
-3.09605
0
LINE
8
BLACK
6
CONTINUOUS
10
4.35795
20
-3.09605
11
4.35694
21
-3.09587
0
LINE
8
BLACK
6
CONTINUOUS
10
4.35694
20
-3.09587
11
4.3568
21
-3.09576
0
LINE
8
BLACK
6
CONTINUOUS
10
4.3568
20
-3.09576
11
4.35663
21
-3.09574
0
LINE
8
BLACK
6
CONTINUOUS
10
4.35663
20
-3.09574
11
4.35187
21
-3.09336
0
LINE
8
BLACK
6
CONTINUOUS
10
4.35187
20
-3.09336
11
4.35104
21
-3.09275
0
LINE
8
BLACK
6
CONTINUOUS
10
4.35104
20
-3.09275
11
4.35087
21
-3.09234
0
LINE
8
BLACK
6
CONTINUOUS
10
4.35087
20
-3.09234
11
4.35055
21
-3.09204
0
LINE
8
BLACK
6
CONTINUOUS
10
4.35055
20
-3.09204
11
4.34817
21
-3.08728
0
LINE
8
BLACK
6
CONTINUOUS
10
4.34817
20
-3.08728
11
4.34787
21
-3.08629
0
LINE
8
BLACK
6
CONTINUOUS
10
4.34787
20
-3.08629
11
4.34791
21
-3.08612
0
LINE
8
BLACK
6
CONTINUOUS
10
4.34791
20
-3.08612
11
4.34785
21
-3.08596
0
LINE
8
BLACK
6
CONTINUOUS
10
4.34785
20
-3.08596
11
4.34785
21
-3.06272
0
LINE
8
BLACK
6
CONTINUOUS
10
4.34785
20
-3.06272
11
4.34366
21
-3.06272
0
LINE
8
BLACK
6
CONTINUOUS
10
4.34366
20
-3.06272
11
4.34265
21
-3.06254
0
LINE
8
BLACK
6
CONTINUOUS
10
4.34265
20
-3.06254
11
4.34111
21
-3.06124
0
LINE
8
BLACK
6
CONTINUOUS
10
4.34111
20
-3.06124
11
4.34076
21
-3.05925
0
LINE
8
BLACK
6
CONTINUOUS
10
4.34076
20
-3.05925
11
4.34177
21
-3.0575
0
LINE
8
BLACK
6
CONTINUOUS
10
4.34177
20
-3.0575
11
4.34366
21
-3.05681
0
LINE
8
BLACK
6
CONTINUOUS
10
4.34366
20
-3.05681
11
4.34785
21
-3.05681
0
LINE
8
BLACK
6
CONTINUOUS
10
4.34785
20
-3.05681
11
4.34785
21
-3.0431
0
LINE
8
BLACK
6
CONTINUOUS
10
4.34785
20
-3.0431
11
4.34803
21
-3.04209
0
LINE
8
BLACK
6
CONTINUOUS
10
4.34803
20
-3.04209
11
4.34933
21
-3.04054
0
LINE
8
BLACK
6
CONTINUOUS
10
4.34933
20
-3.04054
11
4.35132
21
-3.04019
0
LINE
8
BLACK
6
CONTINUOUS
10
4.35132
20
-3.04019
11
4.35307
21
-3.0412
0
LINE
8
BLACK
6
CONTINUOUS
10
4.39705
20
-3.05699
11
4.39719
21
-3.0571
0
LINE
8
BLACK
6
CONTINUOUS
10
4.39719
20
-3.0571
11
4.39736
21
-3.05713
0
LINE
8
BLACK
6
CONTINUOUS
10
4.39736
20
-3.05713
11
4.40213
21
-3.05951
0
LINE
8
BLACK
6
CONTINUOUS
10
4.40213
20
-3.05951
11
4.40295
21
-3.06012
0
LINE
8
BLACK
6
CONTINUOUS
10
4.40295
20
-3.06012
11
4.40375
21
-3.06197
0
LINE
8
BLACK
6
CONTINUOUS
10
4.40375
20
-3.06197
11
4.40318
21
-3.06391
0
LINE
8
BLACK
6
CONTINUOUS
10
4.40318
20
-3.06391
11
4.40149
21
-3.06502
0
LINE
8
BLACK
6
CONTINUOUS
10
4.40149
20
-3.06502
11
4.39949
21
-3.06479
0
LINE
8
BLACK
6
CONTINUOUS
10
4.39949
20
-3.06479
11
4.39535
21
-3.06272
0
LINE
8
BLACK
6
CONTINUOUS
10
4.39535
20
-3.06272
11
4.38722
21
-3.06272
0
LINE
8
BLACK
6
CONTINUOUS
10
4.38722
20
-3.06272
11
4.38351
21
-3.06457
0
LINE
8
BLACK
6
CONTINUOUS
10
4.38351
20
-3.06457
11
4.3818
21
-3.06628
0
LINE
8
BLACK
6
CONTINUOUS
10
4.3818
20
-3.06628
11
4.37995
21
-3.06999
0
LINE
8
BLACK
6
CONTINUOUS
10
4.37995
20
-3.06999
11
4.37995
21
-3.08288
0
LINE
8
BLACK
6
CONTINUOUS
10
4.37995
20
-3.08288
11
4.3818
21
-3.08659
0
LINE
8
BLACK
6
CONTINUOUS
10
4.3818
20
-3.08659
11
4.38351
21
-3.08829
0
LINE
8
BLACK
6
CONTINUOUS
10
4.38351
20
-3.08829
11
4.38722
21
-3.09015
0
LINE
8
BLACK
6
CONTINUOUS
10
4.38722
20
-3.09015
11
4.39535
21
-3.09015
0
LINE
8
BLACK
6
CONTINUOUS
10
4.39535
20
-3.09015
11
4.39949
21
-3.08808
0
LINE
8
BLACK
6
CONTINUOUS
10
4.39949
20
-3.08808
11
4.40047
21
-3.08779
0
LINE
8
BLACK
6
CONTINUOUS
10
4.40047
20
-3.08779
11
4.40243
21
-3.08825
0
LINE
8
BLACK
6
CONTINUOUS
10
4.40243
20
-3.08825
11
4.40364
21
-3.08988
0
LINE
8
BLACK
6
CONTINUOUS
10
4.40364
20
-3.08988
11
4.40352
21
-3.09189
0
LINE
8
BLACK
6
CONTINUOUS
10
4.40352
20
-3.09189
11
4.40213
21
-3.09336
0
LINE
8
BLACK
6
CONTINUOUS
10
4.40213
20
-3.09336
11
4.39736
21
-3.09574
0
LINE
8
BLACK
6
CONTINUOUS
10
4.39736
20
-3.09574
11
4.39638
21
-3.09603
0
LINE
8
BLACK
6
CONTINUOUS
10
4.39638
20
-3.09603
11
4.39621
21
-3.09599
0
LINE
8
BLACK
6
CONTINUOUS
10
4.39621
20
-3.09599
11
4.39604
21
-3.09605
0
LINE
8
BLACK
6
CONTINUOUS
10
4.39604
20
-3.09605
11
4.38652
21
-3.09605
0
LINE
8
BLACK
6
CONTINUOUS
10
4.38652
20
-3.09605
11
4.38551
21
-3.09587
0
LINE
8
BLACK
6
CONTINUOUS
10
4.38551
20
-3.09587
11
4.38538
21
-3.09576
0
LINE
8
BLACK
6
CONTINUOUS
10
4.38538
20
-3.09576
11
4.3852
21
-3.09574
0
LINE
8
BLACK
6
CONTINUOUS
10
4.3852
20
-3.09574
11
4.38044
21
-3.09336
0
LINE
8
BLACK
6
CONTINUOUS
10
4.38044
20
-3.09336
11
4.37973
21
-3.09283
0
LINE
8
BLACK
6
CONTINUOUS
10
4.37973
20
-3.09283
11
4.37967
21
-3.09281
0
LINE
8
BLACK
6
CONTINUOUS
10
4.37967
20
-3.09281
11
4.37729
21
-3.09043
0
LINE
8
BLACK
6
CONTINUOUS
10
4.37729
20
-3.09043
11
4.37678
21
-3.0897
0
LINE
8
BLACK
6
CONTINUOUS
10
4.37678
20
-3.0897
11
4.37674
21
-3.08966
0
LINE
8
BLACK
6
CONTINUOUS
10
4.37674
20
-3.08966
11
4.37436
21
-3.0849
0
LINE
8
BLACK
6
CONTINUOUS
10
4.37436
20
-3.0849
11
4.37406
21
-3.08391
0
LINE
8
BLACK
6
CONTINUOUS
10
4.37406
20
-3.08391
11
4.3741
21
-3.08374
0
LINE
8
BLACK
6
CONTINUOUS
10
4.3741
20
-3.08374
11
4.37404
21
-3.08358
0
LINE
8
BLACK
6
CONTINUOUS
10
4.37404
20
-3.08358
11
4.37404
21
-3.06929
0
LINE
8
BLACK
6
CONTINUOUS
10
4.37404
20
-3.06929
11
4.37422
21
-3.06828
0
LINE
8
BLACK
6
CONTINUOUS
10
4.37422
20
-3.06828
11
4.37434
21
-3.06814
0
LINE
8
BLACK
6
CONTINUOUS
10
4.37434
20
-3.06814
11
4.37436
21
-3.06797
0
LINE
8
BLACK
6
CONTINUOUS
10
4.37436
20
-3.06797
11
4.37674
21
-3.06321
0
LINE
8
BLACK
6
CONTINUOUS
10
4.37674
20
-3.06321
11
4.37726
21
-3.0625
0
LINE
8
BLACK
6
CONTINUOUS
10
4.37726
20
-3.0625
11
4.37729
21
-3.06244
0
LINE
8
BLACK
6
CONTINUOUS
10
4.37729
20
-3.06244
11
4.37967
21
-3.06006
0
LINE
8
BLACK
6
CONTINUOUS
10
4.37967
20
-3.06006
11
4.38039
21
-3.05955
0
LINE
8
BLACK
6
CONTINUOUS
10
4.38039
20
-3.05955
11
4.38044
21
-3.05951
0
LINE
8
BLACK
6
CONTINUOUS
10
4.38044
20
-3.05951
11
4.3852
21
-3.05713
0
LINE
8
BLACK
6
CONTINUOUS
10
4.3852
20
-3.05713
11
4.38618
21
-3.05683
0
LINE
8
BLACK
6
CONTINUOUS
10
4.38618
20
-3.05683
11
4.38635
21
-3.05687
0
LINE
8
BLACK
6
CONTINUOUS
10
4.38635
20
-3.05687
11
4.38652
21
-3.05681
0
LINE
8
BLACK
6
CONTINUOUS
10
4.38652
20
-3.05681
11
4.39604
21
-3.05681
0
LINE
8
BLACK
6
CONTINUOUS
10
4.39604
20
-3.05681
11
4.39705
21
-3.05699
0
LINE
8
BLACK
6
CONTINUOUS
10
4.27151
20
-3.05732
11
4.27269
21
-3.05895
0
LINE
8
BLACK
6
CONTINUOUS
10
4.27269
20
-3.05895
11
4.27984
21
-3.08398
0
LINE
8
BLACK
6
CONTINUOUS
10
4.27984
20
-3.08398
11
4.28616
21
-3.06819
0
LINE
8
BLACK
6
CONTINUOUS
10
4.28616
20
-3.06819
11
4.28655
21
-3.06757
0
LINE
8
BLACK
6
CONTINUOUS
10
4.28655
20
-3.06757
11
4.28658
21
-3.06746
0
LINE
8
BLACK
6
CONTINUOUS
10
4.28658
20
-3.06746
11
4.28663
21
-3.06743
0
LINE
8
BLACK
6
CONTINUOUS
10
4.28663
20
-3.06743
11
4.2867
21
-3.06732
0
LINE
8
BLACK
6
CONTINUOUS
10
4.2867
20
-3.06732
11
4.28751
21
-3.06689
0
LINE
8
BLACK
6
CONTINUOUS
10
4.28751
20
-3.06689
11
4.2883
21
-3.0664
0
LINE
8
BLACK
6
CONTINUOUS
10
4.2883
20
-3.0664
11
4.28839
21
-3.06641
0
LINE
8
BLACK
6
CONTINUOUS
10
4.28839
20
-3.06641
11
4.28848
21
-3.06637
0
LINE
8
BLACK
6
CONTINUOUS
10
4.28848
20
-3.06637
11
4.28938
21
-3.06656
0
LINE
8
BLACK
6
CONTINUOUS
10
4.28938
20
-3.06656
11
4.2903
21
-3.06669
0
LINE
8
BLACK
6
CONTINUOUS
10
4.2903
20
-3.06669
11
4.29036
21
-3.06676
0
LINE
8
BLACK
6
CONTINUOUS
10
4.29036
20
-3.06676
11
4.29046
21
-3.06678
0
LINE
8
BLACK
6
CONTINUOUS
10
4.29046
20
-3.06678
11
4.29103
21
-3.06751
0
LINE
8
BLACK
6
CONTINUOUS
10
4.29103
20
-3.06751
11
4.29164
21
-3.06819
0
LINE
8
BLACK
6
CONTINUOUS
10
4.29164
20
-3.06819
11
4.29796
21
-3.08398
0
LINE
8
BLACK
6
CONTINUOUS
10
4.29796
20
-3.08398
11
4.30511
21
-3.05895
0
LINE
8
BLACK
6
CONTINUOUS
10
4.30511
20
-3.05895
11
4.30556
21
-3.05803
0
LINE
8
BLACK
6
CONTINUOUS
10
4.30556
20
-3.05803
11
4.30723
21
-3.0569
0
LINE
8
BLACK
6
CONTINUOUS
10
4.30723
20
-3.0569
11
4.30924
21
-3.05711
0
LINE
8
BLACK
6
CONTINUOUS
10
4.30924
20
-3.05711
11
4.31065
21
-3.05856
0
LINE
8
BLACK
6
CONTINUOUS
10
4.31065
20
-3.05856
11
4.31079
21
-3.06058
0
LINE
8
BLACK
6
CONTINUOUS
10
4.31079
20
-3.06058
11
4.30126
21
-3.09391
0
LINE
8
BLACK
6
CONTINUOUS
10
4.30126
20
-3.09391
11
4.30082
21
-3.09483
0
LINE
8
BLACK
6
CONTINUOUS
10
4.30082
20
-3.09483
11
4.30076
21
-3.09487
0
LINE
8
BLACK
6
CONTINUOUS
10
4.30076
20
-3.09487
11
4.30075
21
-3.09493
0
LINE
8
BLACK
6
CONTINUOUS
10
4.30075
20
-3.09493
11
4.29993
21
-3.09543
0
LINE
8
BLACK
6
CONTINUOUS
10
4.29993
20
-3.09543
11
4.29914
21
-3.09596
0
LINE
8
BLACK
6
CONTINUOUS
10
4.29914
20
-3.09596
11
4.29908
21
-3.09596
0
LINE
8
BLACK
6
CONTINUOUS
10
4.29908
20
-3.09596
11
4.29903
21
-3.09599
0
LINE
8
BLACK
6
CONTINUOUS
10
4.29903
20
-3.09599
11
4.29808
21
-3.09585
0
LINE
8
BLACK
6
CONTINUOUS
10
4.29808
20
-3.09585
11
4.29713
21
-3.09575
0
LINE
8
BLACK
6
CONTINUOUS
10
4.29713
20
-3.09575
11
4.29709
21
-3.09571
0
LINE
8
BLACK
6
CONTINUOUS
10
4.29709
20
-3.09571
11
4.29703
21
-3.0957
0
LINE
8
BLACK
6
CONTINUOUS
10
4.29703
20
-3.0957
11
4.29639
21
-3.09499
0
LINE
8
BLACK
6
CONTINUOUS
10
4.29639
20
-3.09499
11
4.29573
21
-3.0943
0
LINE
8
BLACK
6
CONTINUOUS
10
4.29573
20
-3.0943
11
4.29572
21
-3.09424
0
LINE
8
BLACK
6
CONTINUOUS
10
4.29572
20
-3.09424
11
4.29568
21
-3.0942
0
LINE
8
BLACK
6
CONTINUOUS
10
4.29568
20
-3.0942
11
4.2889
21
-3.07724
0
LINE
8
BLACK
6
CONTINUOUS
10
4.2889
20
-3.07724
11
4.28212
21
-3.0942
0
LINE
8
BLACK
6
CONTINUOUS
10
4.28212
20
-3.0942
11
4.28158
21
-3.09507
0
LINE
8
BLACK
6
CONTINUOUS
10
4.28158
20
-3.09507
11
4.28152
21
-3.0951
0
LINE
8
BLACK
6
CONTINUOUS
10
4.28152
20
-3.0951
11
4.2815
21
-3.09515
0
LINE
8
BLACK
6
CONTINUOUS
10
4.2815
20
-3.09515
11
4.28064
21
-3.09557
0
LINE
8
BLACK
6
CONTINUOUS
10
4.28064
20
-3.09557
11
4.2798
21
-3.09602
0
LINE
8
BLACK
6
CONTINUOUS
10
4.2798
20
-3.09602
11
4.27974
21
-3.09601
0
LINE
8
BLACK
6
CONTINUOUS
10
4.27974
20
-3.09601
11
4.27968
21
-3.09604
0
LINE
8
BLACK
6
CONTINUOUS
10
4.27968
20
-3.09604
11
4.27876
21
-3.0958
0
LINE
8
BLACK
6
CONTINUOUS
10
4.27876
20
-3.0958
11
4.27782
21
-3.09561
0
LINE
8
BLACK
6
CONTINUOUS
10
4.27782
20
-3.09561
11
4.27778
21
-3.09556
0
LINE
8
BLACK
6
CONTINUOUS
10
4.27778
20
-3.09556
11
4.27772
21
-3.09555
0
LINE
8
BLACK
6
CONTINUOUS
10
4.27772
20
-3.09555
11
4.27716
21
-3.09477
0
LINE
8
BLACK
6
CONTINUOUS
10
4.27716
20
-3.09477
11
4.27657
21
-3.09402
0
LINE
8
BLACK
6
CONTINUOUS
10
4.27657
20
-3.09402
11
4.27657
21
-3.09396
0
LINE
8
BLACK
6
CONTINUOUS
10
4.27657
20
-3.09396
11
4.27654
21
-3.09391
0
LINE
8
BLACK
6
CONTINUOUS
10
4.27654
20
-3.09391
11
4.26701
21
-3.06058
0
LINE
8
BLACK
6
CONTINUOUS
10
4.26701
20
-3.06058
11
4.26691
21
-3.05956
0
LINE
8
BLACK
6
CONTINUOUS
10
4.26691
20
-3.05956
11
4.26773
21
-3.05771
0
LINE
8
BLACK
6
CONTINUOUS
10
4.26773
20
-3.05771
11
4.26955
21
-3.05683
0
LINE
8
BLACK
6
CONTINUOUS
10
4.26955
20
-3.05683
11
4.27151
21
-3.05732
0
LINE
8
BLACK
6
CONTINUOUS
10
3.67324
20
-3.04032
11
3.67338
21
-3.04044
0
LINE
8
BLACK
6
CONTINUOUS
10
3.67338
20
-3.04044
11
3.67356
21
-3.04046
0
LINE
8
BLACK
6
CONTINUOUS
10
3.67356
20
-3.04046
11
3.67832
21
-3.04284
0
LINE
8
BLACK
6
CONTINUOUS
10
3.67832
20
-3.04284
11
3.67903
21
-3.04337
0
LINE
8
BLACK
6
CONTINUOUS
10
3.67903
20
-3.04337
11
3.67908
21
-3.04339
0
LINE
8
BLACK
6
CONTINUOUS
10
3.67908
20
-3.04339
11
3.68147
21
-3.04577
0
LINE
8
BLACK
6
CONTINUOUS
10
3.68147
20
-3.04577
11
3.68197
21
-3.0465
0
LINE
8
BLACK
6
CONTINUOUS
10
3.68197
20
-3.0465
11
3.68202
21
-3.04654
0
LINE
8
BLACK
6
CONTINUOUS
10
3.68202
20
-3.04654
11
3.6844
21
-3.0513
0
LINE
8
BLACK
6
CONTINUOUS
10
3.6844
20
-3.0513
11
3.68469
21
-3.05229
0
LINE
8
BLACK
6
CONTINUOUS
10
3.68469
20
-3.05229
11
3.68465
21
-3.05246
0
LINE
8
BLACK
6
CONTINUOUS
10
3.68465
20
-3.05246
11
3.68471
21
-3.05262
0
LINE
8
BLACK
6
CONTINUOUS
10
3.68471
20
-3.05262
11
3.68471
21
-3.05977
0
LINE
8
BLACK
6
CONTINUOUS
10
3.68471
20
-3.05977
11
3.68453
21
-3.06078
0
LINE
8
BLACK
6
CONTINUOUS
10
3.68453
20
-3.06078
11
3.68442
21
-3.06091
0
LINE
8
BLACK
6
CONTINUOUS
10
3.68442
20
-3.06091
11
3.6844
21
-3.06109
0
LINE
8
BLACK
6
CONTINUOUS
10
3.6844
20
-3.06109
11
3.68202
21
-3.06585
0
LINE
8
BLACK
6
CONTINUOUS
10
3.68202
20
-3.06585
11
3.68149
21
-3.06656
0
LINE
8
BLACK
6
CONTINUOUS
10
3.68149
20
-3.06656
11
3.68147
21
-3.06662
0
LINE
8
BLACK
6
CONTINUOUS
10
3.68147
20
-3.06662
11
3.67908
21
-3.069
0
LINE
8
BLACK
6
CONTINUOUS
10
3.67908
20
-3.069
11
3.67836
21
-3.0695
0
LINE
8
BLACK
6
CONTINUOUS
10
3.67836
20
-3.0695
11
3.67832
21
-3.06955
0
LINE
8
BLACK
6
CONTINUOUS
10
3.67832
20
-3.06955
11
3.67356
21
-3.07193
0
LINE
8
BLACK
6
CONTINUOUS
10
3.67356
20
-3.07193
11
3.67257
21
-3.07222
0
LINE
8
BLACK
6
CONTINUOUS
10
3.67257
20
-3.07222
11
3.6724
21
-3.07218
0
LINE
8
BLACK
6
CONTINUOUS
10
3.6724
20
-3.07218
11
3.67223
21
-3.07224
0
LINE
8
BLACK
6
CONTINUOUS
10
3.67223
20
-3.07224
11
3.67076
21
-3.07224
0
LINE
8
BLACK
6
CONTINUOUS
10
3.67076
20
-3.07224
11
3.68418
21
-3.09141
0
LINE
8
BLACK
6
CONTINUOUS
10
3.68418
20
-3.09141
11
3.68461
21
-3.09234
0
LINE
8
BLACK
6
CONTINUOUS
10
3.68461
20
-3.09234
11
3.68443
21
-3.09435
0
LINE
8
BLACK
6
CONTINUOUS
10
3.68443
20
-3.09435
11
3.68301
21
-3.09578
0
LINE
8
BLACK
6
CONTINUOUS
10
3.68301
20
-3.09578
11
3.68099
21
-3.09595
0
LINE
8
BLACK
6
CONTINUOUS
10
3.68099
20
-3.09595
11
3.67934
21
-3.09479
0
LINE
8
BLACK
6
CONTINUOUS
10
3.67934
20
-3.09479
11
3.66355
21
-3.07224
0
LINE
8
BLACK
6
CONTINUOUS
10
3.66355
20
-3.07224
11
3.65614
21
-3.07224
0
LINE
8
BLACK
6
CONTINUOUS
10
3.65614
20
-3.07224
11
3.65614
21
-3.0931
0
LINE
8
BLACK
6
CONTINUOUS
10
3.65614
20
-3.0931
11
3.65596
21
-3.09411
0
LINE
8
BLACK
6
CONTINUOUS
10
3.65596
20
-3.09411
11
3.65466
21
-3.09566
0
LINE
8
BLACK
6
CONTINUOUS
10
3.65466
20
-3.09566
11
3.65267
21
-3.09601
0
LINE
8
BLACK
6
CONTINUOUS
10
3.65267
20
-3.09601
11
3.65093
21
-3.095
0
LINE
8
BLACK
6
CONTINUOUS
10
3.65093
20
-3.095
11
3.65023
21
-3.0931
0
LINE
8
BLACK
6
CONTINUOUS
10
3.65023
20
-3.0931
11
3.65023
21
-3.0431
0
LINE
8
BLACK
6
CONTINUOUS
10
3.65023
20
-3.0431
11
3.6503
21
-3.04272
0
LINE
8
BLACK
6
CONTINUOUS
10
3.6503
20
-3.04272
11
3.65028
21
-3.04259
0
LINE
8
BLACK
6
CONTINUOUS
10
3.65028
20
-3.04259
11
3.65034
21
-3.04247
0
LINE
8
BLACK
6
CONTINUOUS
10
3.65034
20
-3.04247
11
3.65041
21
-3.04209
0
LINE
8
BLACK
6
CONTINUOUS
10
3.65041
20
-3.04209
11
3.65091
21
-3.0415
0
LINE
8
BLACK
6
CONTINUOUS
10
3.65091
20
-3.0415
11
3.65129
21
-3.04084
0
LINE
8
BLACK
6
CONTINUOUS
10
3.65129
20
-3.04084
11
3.65154
21
-3.04075
0
LINE
8
BLACK
6
CONTINUOUS
10
3.65154
20
-3.04075
11
3.65171
21
-3.04054
0
LINE
8
BLACK
6
CONTINUOUS
10
3.65171
20
-3.04054
11
3.65247
21
-3.04041
0
LINE
8
BLACK
6
CONTINUOUS
10
3.65247
20
-3.04041
11
3.65319
21
-3.04015
0
LINE
8
BLACK
6
CONTINUOUS
10
3.65319
20
-3.04015
11
3.67223
21
-3.04015
0
LINE
8
BLACK
6
CONTINUOUS
10
3.67223
20
-3.04015
11
3.67324
21
-3.04032
0
LINE
8
BLACK
6
CONTINUOUS
10
3.65614
20
-3.06634
11
3.67154
21
-3.06634
0
LINE
8
BLACK
6
CONTINUOUS
10
3.67154
20
-3.06634
11
3.67525
21
-3.06448
0
LINE
8
BLACK
6
CONTINUOUS
10
3.67525
20
-3.06448
11
3.67695
21
-3.06278
0
LINE
8
BLACK
6
CONTINUOUS
10
3.67695
20
-3.06278
11
3.67881
21
-3.05907
0
LINE
8
BLACK
6
CONTINUOUS
10
3.67881
20
-3.05907
11
3.67881
21
-3.05332
0
LINE
8
BLACK
6
CONTINUOUS
10
3.67881
20
-3.05332
11
3.67695
21
-3.04961
0
LINE
8
BLACK
6
CONTINUOUS
10
3.67695
20
-3.04961
11
3.67525
21
-3.04791
0
LINE
8
BLACK
6
CONTINUOUS
10
3.67525
20
-3.04791
11
3.67154
21
-3.04605
0
LINE
8
BLACK
6
CONTINUOUS
10
3.67154
20
-3.04605
11
3.65614
21
-3.04605
0
LINE
8
BLACK
6
CONTINUOUS
10
3.65614
20
-3.04605
11
3.65614
21
-3.06634
0
LINE
8
BLACK
6
CONTINUOUS
10
3.83753
20
-3.05699
11
3.83908
21
-3.05829
0
LINE
8
BLACK
6
CONTINUOUS
10
3.83908
20
-3.05829
11
3.83943
21
-3.06028
0
LINE
8
BLACK
6
CONTINUOUS
10
3.83943
20
-3.06028
11
3.83842
21
-3.06203
0
LINE
8
BLACK
6
CONTINUOUS
10
3.83842
20
-3.06203
11
3.83652
21
-3.06272
0
LINE
8
BLACK
6
CONTINUOUS
10
3.83652
20
-3.06272
11
3.83246
21
-3.06272
0
LINE
8
BLACK
6
CONTINUOUS
10
3.83246
20
-3.06272
11
3.82875
21
-3.06457
0
LINE
8
BLACK
6
CONTINUOUS
10
3.82875
20
-3.06457
11
3.82704
21
-3.06628
0
LINE
8
BLACK
6
CONTINUOUS
10
3.82704
20
-3.06628
11
3.82519
21
-3.06999
0
LINE
8
BLACK
6
CONTINUOUS
10
3.82519
20
-3.06999
11
3.82519
21
-3.0931
0
LINE
8
BLACK
6
CONTINUOUS
10
3.82519
20
-3.0931
11
3.82501
21
-3.09411
0
LINE
8
BLACK
6
CONTINUOUS
10
3.82501
20
-3.09411
11
3.82371
21
-3.09566
0
LINE
8
BLACK
6
CONTINUOUS
10
3.82371
20
-3.09566
11
3.82172
21
-3.09601
0
LINE
8
BLACK
6
CONTINUOUS
10
3.82172
20
-3.09601
11
3.81997
21
-3.095
0
LINE
8
BLACK
6
CONTINUOUS
10
3.81997
20
-3.095
11
3.81928
21
-3.0931
0
LINE
8
BLACK
6
CONTINUOUS
10
3.81928
20
-3.0931
11
3.81928
21
-3.05977
0
LINE
8
BLACK
6
CONTINUOUS
10
3.81928
20
-3.05977
11
3.81946
21
-3.05876
0
LINE
8
BLACK
6
CONTINUOUS
10
3.81946
20
-3.05876
11
3.82076
21
-3.05721
0
LINE
8
BLACK
6
CONTINUOUS
10
3.82076
20
-3.05721
11
3.82275
21
-3.05686
0
LINE
8
BLACK
6
CONTINUOUS
10
3.82275
20
-3.05686
11
3.8245
21
-3.05787
0
LINE
8
BLACK
6
CONTINUOUS
10
3.8245
20
-3.05787
11
3.82519
21
-3.05977
0
LINE
8
BLACK
6
CONTINUOUS
10
3.82519
20
-3.05977
11
3.82519
21
-3.05986
0
LINE
8
BLACK
6
CONTINUOUS
10
3.82519
20
-3.05986
11
3.82563
21
-3.05955
0
LINE
8
BLACK
6
CONTINUOUS
10
3.82563
20
-3.05955
11
3.82568
21
-3.05951
0
LINE
8
BLACK
6
CONTINUOUS
10
3.82568
20
-3.05951
11
3.83044
21
-3.05713
0
LINE
8
BLACK
6
CONTINUOUS
10
3.83044
20
-3.05713
11
3.83142
21
-3.05683
0
LINE
8
BLACK
6
CONTINUOUS
10
3.83142
20
-3.05683
11
3.83159
21
-3.05687
0
LINE
8
BLACK
6
CONTINUOUS
10
3.83159
20
-3.05687
11
3.83176
21
-3.05681
0
LINE
8
BLACK
6
CONTINUOUS
10
3.83176
20
-3.05681
11
3.83652
21
-3.05681
0
LINE
8
BLACK
6
CONTINUOUS
10
3.83652
20
-3.05681
11
3.83753
21
-3.05699
0
LINE
8
BLACK
6
CONTINUOUS
10
3.95182
20
-3.05699
11
3.95195
21
-3.0571
0
LINE
8
BLACK
6
CONTINUOUS
10
3.95195
20
-3.0571
11
3.95213
21
-3.05713
0
LINE
8
BLACK
6
CONTINUOUS
10
3.95213
20
-3.05713
11
3.95689
21
-3.05951
0
LINE
8
BLACK
6
CONTINUOUS
10
3.95689
20
-3.05951
11
3.95771
21
-3.06012
0
LINE
8
BLACK
6
CONTINUOUS
10
3.95771
20
-3.06012
11
3.95789
21
-3.06052
0
LINE
8
BLACK
6
CONTINUOUS
10
3.95789
20
-3.06052
11
3.95821
21
-3.06083
0
LINE
8
BLACK
6
CONTINUOUS
10
3.95821
20
-3.06083
11
3.96059
21
-3.06559
0
LINE
8
BLACK
6
CONTINUOUS
10
3.96059
20
-3.06559
11
3.96088
21
-3.06657
0
LINE
8
BLACK
6
CONTINUOUS
10
3.96088
20
-3.06657
11
3.96084
21
-3.06674
0
LINE
8
BLACK
6
CONTINUOUS
10
3.96084
20
-3.06674
11
3.9609
21
-3.06691
0
LINE
8
BLACK
6
CONTINUOUS
10
3.9609
20
-3.06691
11
3.9609
21
-3.0931
0
LINE
8
BLACK
6
CONTINUOUS
10
3.9609
20
-3.0931
11
3.96072
21
-3.09411
0
LINE
8
BLACK
6
CONTINUOUS
10
3.96072
20
-3.09411
11
3.95943
21
-3.09566
0
LINE
8
BLACK
6
CONTINUOUS
10
3.95943
20
-3.09566
11
3.95744
21
-3.09601
0
LINE
8
BLACK
6
CONTINUOUS
10
3.95744
20
-3.09601
11
3.95569
21
-3.095
0
LINE
8
BLACK
6
CONTINUOUS
10
3.95569
20
-3.095
11
3.955
21
-3.0931
0
LINE
8
BLACK
6
CONTINUOUS
10
3.955
20
-3.0931
11
3.955
21
-3.06761
0
LINE
8
BLACK
6
CONTINUOUS
10
3.955
20
-3.06761
11
3.95337
21
-3.06435
0
LINE
8
BLACK
6
CONTINUOUS
10
3.95337
20
-3.06435
11
3.95011
21
-3.06272
0
LINE
8
BLACK
6
CONTINUOUS
10
3.95011
20
-3.06272
11
3.94436
21
-3.06272
0
LINE
8
BLACK
6
CONTINUOUS
10
3.94436
20
-3.06272
11
3.94065
21
-3.06457
0
LINE
8
BLACK
6
CONTINUOUS
10
3.94065
20
-3.06457
11
3.93947
21
-3.06575
0
LINE
8
BLACK
6
CONTINUOUS
10
3.93947
20
-3.06575
11
3.93947
21
-3.0931
0
LINE
8
BLACK
6
CONTINUOUS
10
3.93947
20
-3.0931
11
3.9393
21
-3.09411
0
LINE
8
BLACK
6
CONTINUOUS
10
3.9393
20
-3.09411
11
3.938
21
-3.09566
0
LINE
8
BLACK
6
CONTINUOUS
10
3.938
20
-3.09566
11
3.93601
21
-3.09601
0
LINE
8
BLACK
6
CONTINUOUS
10
3.93601
20
-3.09601
11
3.93426
21
-3.095
0
LINE
8
BLACK
6
CONTINUOUS
10
3.93426
20
-3.095
11
3.93357
21
-3.0931
0
LINE
8
BLACK
6
CONTINUOUS
10
3.93357
20
-3.0931
11
3.93357
21
-3.05977
0
LINE
8
BLACK
6
CONTINUOUS
10
3.93357
20
-3.05977
11
3.93375
21
-3.05876
0
LINE
8
BLACK
6
CONTINUOUS
10
3.93375
20
-3.05876
11
3.93504
21
-3.05721
0
LINE
8
BLACK
6
CONTINUOUS
10
3.93504
20
-3.05721
11
3.93703
21
-3.05686
0
LINE
8
BLACK
6
CONTINUOUS
10
3.93703
20
-3.05686
11
3.93878
21
-3.05787
0
LINE
8
BLACK
6
CONTINUOUS
10
3.93878
20
-3.05787
11
3.9391
21
-3.05875
0
LINE
8
BLACK
6
CONTINUOUS
10
3.9391
20
-3.05875
11
3.94234
21
-3.05713
0
LINE
8
BLACK
6
CONTINUOUS
10
3.94234
20
-3.05713
11
3.94333
21
-3.05683
0
LINE
8
BLACK
6
CONTINUOUS
10
3.94333
20
-3.05683
11
3.9435
21
-3.05687
0
LINE
8
BLACK
6
CONTINUOUS
10
3.9435
20
-3.05687
11
3.94366
21
-3.05681
0
LINE
8
BLACK
6
CONTINUOUS
10
3.94366
20
-3.05681
11
3.95081
21
-3.05681
0
LINE
8
BLACK
6
CONTINUOUS
10
3.95081
20
-3.05681
11
3.95182
21
-3.05699
0
LINE
8
BLACK
6
CONTINUOUS
10
4.17324
20
-3.05699
11
4.17479
21
-3.05829
0
LINE
8
BLACK
6
CONTINUOUS
10
4.17479
20
-3.05829
11
4.17514
21
-3.06028
0
LINE
8
BLACK
6
CONTINUOUS
10
4.17514
20
-3.06028
11
4.17413
21
-3.06203
0
LINE
8
BLACK
6
CONTINUOUS
10
4.17413
20
-3.06203
11
4.17223
21
-3.06272
0
LINE
8
BLACK
6
CONTINUOUS
10
4.17223
20
-3.06272
11
4.16817
21
-3.06272
0
LINE
8
BLACK
6
CONTINUOUS
10
4.16817
20
-3.06272
11
4.16446
21
-3.06457
0
LINE
8
BLACK
6
CONTINUOUS
10
4.16446
20
-3.06457
11
4.16276
21
-3.06628
0
LINE
8
BLACK
6
CONTINUOUS
10
4.16276
20
-3.06628
11
4.1609
21
-3.06999
0
LINE
8
BLACK
6
CONTINUOUS
10
4.1609
20
-3.06999
11
4.1609
21
-3.0931
0
LINE
8
BLACK
6
CONTINUOUS
10
4.1609
20
-3.0931
11
4.16072
21
-3.09411
0
LINE
8
BLACK
6
CONTINUOUS
10
4.16072
20
-3.09411
11
4.15943
21
-3.09566
0
LINE
8
BLACK
6
CONTINUOUS
10
4.15943
20
-3.09566
11
4.15744
21
-3.09601
0
LINE
8
BLACK
6
CONTINUOUS
10
4.15744
20
-3.09601
11
4.15569
21
-3.095
0
LINE
8
BLACK
6
CONTINUOUS
10
4.15569
20
-3.095
11
4.155
21
-3.0931
0
LINE
8
BLACK
6
CONTINUOUS
10
4.155
20
-3.0931
11
4.155
21
-3.05977
0
LINE
8
BLACK
6
CONTINUOUS
10
4.155
20
-3.05977
11
4.15517
21
-3.05876
0
LINE
8
BLACK
6
CONTINUOUS
10
4.15517
20
-3.05876
11
4.15647
21
-3.05721
0
LINE
8
BLACK
6
CONTINUOUS
10
4.15647
20
-3.05721
11
4.15846
21
-3.05686
0
LINE
8
BLACK
6
CONTINUOUS
10
4.15846
20
-3.05686
11
4.16021
21
-3.05787
0
LINE
8
BLACK
6
CONTINUOUS
10
4.16021
20
-3.05787
11
4.1609
21
-3.05977
0
LINE
8
BLACK
6
CONTINUOUS
10
4.1609
20
-3.05977
11
4.1609
21
-3.05986
0
LINE
8
BLACK
6
CONTINUOUS
10
4.1609
20
-3.05986
11
4.16135
21
-3.05955
0
LINE
8
BLACK
6
CONTINUOUS
10
4.16135
20
-3.05955
11
4.16139
21
-3.05951
0
LINE
8
BLACK
6
CONTINUOUS
10
4.16139
20
-3.05951
11
4.16615
21
-3.05713
0
LINE
8
BLACK
6
CONTINUOUS
10
4.16615
20
-3.05713
11
4.16714
21
-3.05683
0
LINE
8
BLACK
6
CONTINUOUS
10
4.16714
20
-3.05683
11
4.16731
21
-3.05687
0
LINE
8
BLACK
6
CONTINUOUS
10
4.16731
20
-3.05687
11
4.16747
21
-3.05681
0
LINE
8
BLACK
6
CONTINUOUS
10
4.16747
20
-3.05681
11
4.17223
21
-3.05681
0
LINE
8
BLACK
6
CONTINUOUS
10
4.17223
20
-3.05681
11
4.17324
21
-3.05699
0
LINE
8
BLACK
6
CONTINUOUS
10
4.32926
20
-3.05787
11
4.32995
21
-3.05977
0
LINE
8
BLACK
6
CONTINUOUS
10
4.32995
20
-3.05977
11
4.32995
21
-3.0931
0
LINE
8
BLACK
6
CONTINUOUS
10
4.32995
20
-3.0931
11
4.32977
21
-3.09411
0
LINE
8
BLACK
6
CONTINUOUS
10
4.32977
20
-3.09411
11
4.32847
21
-3.09566
0
LINE
8
BLACK
6
CONTINUOUS
10
4.32847
20
-3.09566
11
4.32648
21
-3.09601
0
LINE
8
BLACK
6
CONTINUOUS
10
4.32648
20
-3.09601
11
4.32473
21
-3.095
0
LINE
8
BLACK
6
CONTINUOUS
10
4.32473
20
-3.095
11
4.32404
21
-3.0931
0
LINE
8
BLACK
6
CONTINUOUS
10
4.32404
20
-3.0931
11
4.32404
21
-3.05977
0
LINE
8
BLACK
6
CONTINUOUS
10
4.32404
20
-3.05977
11
4.32422
21
-3.05876
0
LINE
8
BLACK
6
CONTINUOUS
10
4.32422
20
-3.05876
11
4.32552
21
-3.05721
0
LINE
8
BLACK
6
CONTINUOUS
10
4.32552
20
-3.05721
11
4.32751
21
-3.05686
0
LINE
8
BLACK
6
CONTINUOUS
10
4.32751
20
-3.05686
11
4.32926
21
-3.05787
0
LINE
8
BLACK
6
CONTINUOUS
10
4.4245
20
-3.0412
11
4.42519
21
-3.0431
0
LINE
8
BLACK
6
CONTINUOUS
10
4.42519
20
-3.0431
11
4.42519
21
-3.05856
0
LINE
8
BLACK
6
CONTINUOUS
10
4.42519
20
-3.05856
11
4.42806
21
-3.05713
0
LINE
8
BLACK
6
CONTINUOUS
10
4.42806
20
-3.05713
11
4.42904
21
-3.05683
0
LINE
8
BLACK
6
CONTINUOUS
10
4.42904
20
-3.05683
11
4.42921
21
-3.05687
0
LINE
8
BLACK
6
CONTINUOUS
10
4.42921
20
-3.05687
11
4.42938
21
-3.05681
0
LINE
8
BLACK
6
CONTINUOUS
10
4.42938
20
-3.05681
11
4.43652
21
-3.05681
0
LINE
8
BLACK
6
CONTINUOUS
10
4.43652
20
-3.05681
11
4.43753
21
-3.05699
0
LINE
8
BLACK
6
CONTINUOUS
10
4.43753
20
-3.05699
11
4.43767
21
-3.0571
0
LINE
8
BLACK
6
CONTINUOUS
10
4.43767
20
-3.0571
11
4.43784
21
-3.05713
0
LINE
8
BLACK
6
CONTINUOUS
10
4.43784
20
-3.05713
11
4.4426
21
-3.05951
0
LINE
8
BLACK
6
CONTINUOUS
10
4.4426
20
-3.05951
11
4.44343
21
-3.06012
0
LINE
8
BLACK
6
CONTINUOUS
10
4.44343
20
-3.06012
11
4.4436
21
-3.06052
0
LINE
8
BLACK
6
CONTINUOUS
10
4.4436
20
-3.06052
11
4.44392
21
-3.06083
0
LINE
8
BLACK
6
CONTINUOUS
10
4.44392
20
-3.06083
11
4.4463
21
-3.06559
0
LINE
8
BLACK
6
CONTINUOUS
10
4.4463
20
-3.06559
11
4.4466
21
-3.06657
0
LINE
8
BLACK
6
CONTINUOUS
10
4.4466
20
-3.06657
11
4.44656
21
-3.06674
0
LINE
8
BLACK
6
CONTINUOUS
10
4.44656
20
-3.06674
11
4.44662
21
-3.06691
0
LINE
8
BLACK
6
CONTINUOUS
10
4.44662
20
-3.06691
11
4.44662
21
-3.0931
0
LINE
8
BLACK
6
CONTINUOUS
10
4.44662
20
-3.0931
11
4.44644
21
-3.09411
0
LINE
8
BLACK
6
CONTINUOUS
10
4.44644
20
-3.09411
11
4.44514
21
-3.09566
0
LINE
8
BLACK
6
CONTINUOUS
10
4.44514
20
-3.09566
11
4.44315
21
-3.09601
0
LINE
8
BLACK
6
CONTINUOUS
10
4.44315
20
-3.09601
11
4.4414
21
-3.095
0
LINE
8
BLACK
6
CONTINUOUS
10
4.4414
20
-3.095
11
4.44071
21
-3.0931
0
LINE
8
BLACK
6
CONTINUOUS
10
4.44071
20
-3.0931
11
4.44071
21
-3.06761
0
LINE
8
BLACK
6
CONTINUOUS
10
4.44071
20
-3.06761
11
4.43908
21
-3.06435
0
LINE
8
BLACK
6
CONTINUOUS
10
4.43908
20
-3.06435
11
4.43582
21
-3.06272
0
LINE
8
BLACK
6
CONTINUOUS
10
4.43582
20
-3.06272
11
4.43007
21
-3.06272
0
LINE
8
BLACK
6
CONTINUOUS
10
4.43007
20
-3.06272
11
4.42636
21
-3.06457
0
LINE
8
BLACK
6
CONTINUOUS
10
4.42636
20
-3.06457
11
4.42519
21
-3.06575
0
LINE
8
BLACK
6
CONTINUOUS
10
4.42519
20
-3.06575
11
4.42519
21
-3.0931
0
LINE
8
BLACK
6
CONTINUOUS
10
4.42519
20
-3.0931
11
4.42501
21
-3.09411
0
LINE
8
BLACK
6
CONTINUOUS
10
4.42501
20
-3.09411
11
4.42371
21
-3.09566
0
LINE
8
BLACK
6
CONTINUOUS
10
4.42371
20
-3.09566
11
4.42172
21
-3.09601
0
LINE
8
BLACK
6
CONTINUOUS
10
4.42172
20
-3.09601
11
4.41997
21
-3.095
0
LINE
8
BLACK
6
CONTINUOUS
10
4.41997
20
-3.095
11
4.41928
21
-3.0931
0
LINE
8
BLACK
6
CONTINUOUS
10
4.41928
20
-3.0931
11
4.41928
21
-3.0431
0
LINE
8
BLACK
6
CONTINUOUS
10
4.41928
20
-3.0431
11
4.41946
21
-3.04209
0
LINE
8
BLACK
6
CONTINUOUS
10
4.41946
20
-3.04209
11
4.42076
21
-3.04054
0
LINE
8
BLACK
6
CONTINUOUS
10
4.42076
20
-3.04054
11
4.42275
21
-3.04019
0
LINE
8
BLACK
6
CONTINUOUS
10
4.42275
20
-3.04019
11
4.4245
21
-3.0412
0
LINE
8
BLACK
6
CONTINUOUS
10
4.32738
20
-3.04021
11
4.32751
21
-3.04019
0
LINE
8
BLACK
6
CONTINUOUS
10
4.32751
20
-3.04019
11
4.32763
21
-3.04026
0
LINE
8
BLACK
6
CONTINUOUS
10
4.32763
20
-3.04026
11
4.32776
21
-3.04025
0
LINE
8
BLACK
6
CONTINUOUS
10
4.32776
20
-3.04025
11
4.32839
21
-3.04069
0
LINE
8
BLACK
6
CONTINUOUS
10
4.32839
20
-3.04069
11
4.32908
21
-3.04101
0
LINE
8
BLACK
6
CONTINUOUS
10
4.32908
20
-3.04101
11
4.33147
21
-3.04339
0
LINE
8
BLACK
6
CONTINUOUS
10
4.33147
20
-3.04339
11
4.33169
21
-3.04371
0
LINE
8
BLACK
6
CONTINUOUS
10
4.33169
20
-3.04371
11
4.3318
21
-3.04379
0
LINE
8
BLACK
6
CONTINUOUS
10
4.3318
20
-3.04379
11
4.33183
21
-3.04391
0
LINE
8
BLACK
6
CONTINUOUS
10
4.33183
20
-3.04391
11
4.33205
21
-3.04423
0
LINE
8
BLACK
6
CONTINUOUS
10
4.33205
20
-3.04423
11
4.33212
21
-3.045
0
LINE
8
BLACK
6
CONTINUOUS
10
4.33212
20
-3.045
11
4.33232
21
-3.04574
0
LINE
8
BLACK
6
CONTINUOUS
10
4.33232
20
-3.04574
11
4.33221
21
-3.04598
0
LINE
8
BLACK
6
CONTINUOUS
10
4.33221
20
-3.04598
11
4.33223
21
-3.04624
0
LINE
8
BLACK
6
CONTINUOUS
10
4.33223
20
-3.04624
11
4.33179
21
-3.04687
0
LINE
8
BLACK
6
CONTINUOUS
10
4.33179
20
-3.04687
11
4.33147
21
-3.04757
0
LINE
8
BLACK
6
CONTINUOUS
10
4.33147
20
-3.04757
11
4.32908
21
-3.04995
0
LINE
8
BLACK
6
CONTINUOUS
10
4.32908
20
-3.04995
11
4.32877
21
-3.05017
0
LINE
8
BLACK
6
CONTINUOUS
10
4.32877
20
-3.05017
11
4.32869
21
-3.05028
0
LINE
8
BLACK
6
CONTINUOUS
10
4.32869
20
-3.05028
11
4.32856
21
-3.05031
0
LINE
8
BLACK
6
CONTINUOUS
10
4.32856
20
-3.05031
11
4.32856
21
-3.05032
0
LINE
8
BLACK
6
CONTINUOUS
10
4.32856
20
-3.05032
11
4.32847
21
-3.05042
0
LINE
8
BLACK
6
CONTINUOUS
10
4.32847
20
-3.05042
11
4.32839
21
-3.05043
0
LINE
8
BLACK
6
CONTINUOUS
10
4.32839
20
-3.05043
11
4.32824
21
-3.05054
0
LINE
8
BLACK
6
CONTINUOUS
10
4.32824
20
-3.05054
11
4.32748
21
-3.0506
0
LINE
8
BLACK
6
CONTINUOUS
10
4.32748
20
-3.0506
11
4.32674
21
-3.0508
0
LINE
8
BLACK
6
CONTINUOUS
10
4.32674
20
-3.0508
11
4.32662
21
-3.05075
0
LINE
8
BLACK
6
CONTINUOUS
10
4.32662
20
-3.05075
11
4.32648
21
-3.05077
0
LINE
8
BLACK
6
CONTINUOUS
10
4.32648
20
-3.05077
11
4.32637
21
-3.0507
0
LINE
8
BLACK
6
CONTINUOUS
10
4.32637
20
-3.0507
11
4.32623
21
-3.05071
0
LINE
8
BLACK
6
CONTINUOUS
10
4.32623
20
-3.05071
11
4.3256
21
-3.05027
0
LINE
8
BLACK
6
CONTINUOUS
10
4.3256
20
-3.05027
11
4.32491
21
-3.04995
0
LINE
8
BLACK
6
CONTINUOUS
10
4.32491
20
-3.04995
11
4.32253
21
-3.04757
0
LINE
8
BLACK
6
CONTINUOUS
10
4.32253
20
-3.04757
11
4.3223
21
-3.04725
0
LINE
8
BLACK
6
CONTINUOUS
10
4.3223
20
-3.04725
11
4.3222
21
-3.04717
0
LINE
8
BLACK
6
CONTINUOUS
10
4.3222
20
-3.04717
11
4.32216
21
-3.04705
0
LINE
8
BLACK
6
CONTINUOUS
10
4.32216
20
-3.04705
11
4.32194
21
-3.04673
0
LINE
8
BLACK
6
CONTINUOUS
10
4.32194
20
-3.04673
11
4.32187
21
-3.04596
0
LINE
8
BLACK
6
CONTINUOUS
10
4.32187
20
-3.04596
11
4.32167
21
-3.04522
0
LINE
8
BLACK
6
CONTINUOUS
10
4.32167
20
-3.04522
11
4.32179
21
-3.04498
0
LINE
8
BLACK
6
CONTINUOUS
10
4.32179
20
-3.04498
11
4.32176
21
-3.04472
0
LINE
8
BLACK
6
CONTINUOUS
10
4.32176
20
-3.04472
11
4.3222
21
-3.04409
0
LINE
8
BLACK
6
CONTINUOUS
10
4.3222
20
-3.04409
11
4.32253
21
-3.04339
0
LINE
8
BLACK
6
CONTINUOUS
10
4.32253
20
-3.04339
11
4.32491
21
-3.04101
0
LINE
8
BLACK
6
CONTINUOUS
10
4.32491
20
-3.04101
11
4.32523
21
-3.04079
0
LINE
8
BLACK
6
CONTINUOUS
10
4.32523
20
-3.04079
11
4.3253
21
-3.04068
0
LINE
8
BLACK
6
CONTINUOUS
10
4.3253
20
-3.04068
11
4.32543
21
-3.04065
0
LINE
8
BLACK
6
CONTINUOUS
10
4.32543
20
-3.04065
11
4.32544
21
-3.04064
0
LINE
8
BLACK
6
CONTINUOUS
10
4.32544
20
-3.04064
11
4.32552
21
-3.04054
0
LINE
8
BLACK
6
CONTINUOUS
10
4.32552
20
-3.04054
11
4.3256
21
-3.04053
0
LINE
8
BLACK
6
CONTINUOUS
10
4.3256
20
-3.04053
11
4.32575
21
-3.04042
0
LINE
8
BLACK
6
CONTINUOUS
10
4.32575
20
-3.04042
11
4.32651
21
-3.04036
0
LINE
8
BLACK
6
CONTINUOUS
10
4.32651
20
-3.04036
11
4.32725
21
-3.04016
0
LINE
8
BLACK
6
CONTINUOUS
10
4.32725
20
-3.04016
11
4.32738
21
-3.04021
0
LINE
8
BLACK
6
CONTINUOUS
10
3.90573
20
-2.79388
11
3.90728
21
-2.79518
0
LINE
8
BLACK
6
CONTINUOUS
10
3.90728
20
-2.79518
11
3.90763
21
-2.79717
0
LINE
8
BLACK
6
CONTINUOUS
10
3.90763
20
-2.79717
11
3.90662
21
-2.79892
0
LINE
8
BLACK
6
CONTINUOUS
10
3.90662
20
-2.79892
11
3.90472
21
-2.79961
0
LINE
8
BLACK
6
CONTINUOUS
10
3.90472
20
-2.79961
11
3.79547
21
-2.79961
0
LINE
8
BLACK
6
CONTINUOUS
10
3.79547
20
-2.79961
11
3.79547
21
-2.95709
0
LINE
8
BLACK
6
CONTINUOUS
10
3.79547
20
-2.95709
11
3.79529
21
-2.9581
0
LINE
8
BLACK
6
CONTINUOUS
10
3.79529
20
-2.9581
11
3.794
21
-2.95964
0
LINE
8
BLACK
6
CONTINUOUS
10
3.794
20
-2.95964
11
3.79201
21
-2.95999
0
LINE
8
BLACK
6
CONTINUOUS
10
3.79201
20
-2.95999
11
3.79026
21
-2.95898
0
LINE
8
BLACK
6
CONTINUOUS
10
3.79026
20
-2.95898
11
3.78957
21
-2.95709
0
LINE
8
BLACK
6
CONTINUOUS
10
3.78957
20
-2.95709
11
3.78957
21
-2.79665
0
LINE
8
BLACK
6
CONTINUOUS
10
3.78957
20
-2.79665
11
3.78963
21
-2.79627
0
LINE
8
BLACK
6
CONTINUOUS
10
3.78963
20
-2.79627
11
3.78961
21
-2.79614
0
LINE
8
BLACK
6
CONTINUOUS
10
3.78961
20
-2.79614
11
3.78968
21
-2.79603
0
LINE
8
BLACK
6
CONTINUOUS
10
3.78968
20
-2.79603
11
3.78974
21
-2.79564
0
LINE
8
BLACK
6
CONTINUOUS
10
3.78974
20
-2.79564
11
3.79024
21
-2.79506
0
LINE
8
BLACK
6
CONTINUOUS
10
3.79024
20
-2.79506
11
3.79062
21
-2.79439
0
LINE
8
BLACK
6
CONTINUOUS
10
3.79062
20
-2.79439
11
3.79087
21
-2.7943
0
LINE
8
BLACK
6
CONTINUOUS
10
3.79087
20
-2.7943
11
3.79104
21
-2.7941
0
LINE
8
BLACK
6
CONTINUOUS
10
3.79104
20
-2.7941
11
3.7918
21
-2.79396
0
LINE
8
BLACK
6
CONTINUOUS
10
3.7918
20
-2.79396
11
3.79252
21
-2.7937
0
LINE
8
BLACK
6
CONTINUOUS
10
3.79252
20
-2.7937
11
3.90472
21
-2.7937
0
LINE
8
BLACK
6
CONTINUOUS
10
3.90472
20
-2.7937
11
3.90573
21
-2.79388
0
LINE
8
BLACK
6
CONTINUOUS
10
4.30471
20
-2.79377
11
4.30484
21
-2.79375
0
LINE
8
BLACK
6
CONTINUOUS
10
4.30484
20
-2.79375
11
4.30496
21
-2.79381
0
LINE
8
BLACK
6
CONTINUOUS
10
4.30496
20
-2.79381
11
4.30534
21
-2.79388
0
LINE
8
BLACK
6
CONTINUOUS
10
4.30534
20
-2.79388
11
4.30593
21
-2.79437
0
LINE
8
BLACK
6
CONTINUOUS
10
4.30593
20
-2.79437
11
4.30659
21
-2.79476
0
LINE
8
BLACK
6
CONTINUOUS
10
4.30659
20
-2.79476
11
4.30668
21
-2.79501
0
LINE
8
BLACK
6
CONTINUOUS
10
4.30668
20
-2.79501
11
4.30689
21
-2.79518
0
LINE
8
BLACK
6
CONTINUOUS
10
4.30689
20
-2.79518
11
4.30702
21
-2.79593
0
LINE
8
BLACK
6
CONTINUOUS
10
4.30702
20
-2.79593
11
4.30728
21
-2.79665
0
LINE
8
BLACK
6
CONTINUOUS
10
4.30728
20
-2.79665
11
4.30728
21
-2.95709
0
LINE
8
BLACK
6
CONTINUOUS
10
4.30728
20
-2.95709
11
4.30711
21
-2.9581
0
LINE
8
BLACK
6
CONTINUOUS
10
4.30711
20
-2.9581
11
4.30581
21
-2.95964
0
LINE
8
BLACK
6
CONTINUOUS
10
4.30581
20
-2.95964
11
4.30382
21
-2.95999
0
LINE
8
BLACK
6
CONTINUOUS
10
4.30382
20
-2.95999
11
4.30207
21
-2.95898
0
LINE
8
BLACK
6
CONTINUOUS
10
4.30207
20
-2.95898
11
4.30138
21
-2.95709
0
LINE
8
BLACK
6
CONTINUOUS
10
4.30138
20
-2.95709
11
4.30138
21
-2.79961
0
LINE
8
BLACK
6
CONTINUOUS
10
4.30138
20
-2.79961
11
4.19213
21
-2.79961
0
LINE
8
BLACK
6
CONTINUOUS
10
4.19213
20
-2.79961
11
4.19112
21
-2.79943
0
LINE
8
BLACK
6
CONTINUOUS
10
4.19112
20
-2.79943
11
4.18957
21
-2.79813
0
LINE
8
BLACK
6
CONTINUOUS
10
4.18957
20
-2.79813
11
4.18922
21
-2.79614
0
LINE
8
BLACK
6
CONTINUOUS
10
4.18922
20
-2.79614
11
4.19023
21
-2.79439
0
LINE
8
BLACK
6
CONTINUOUS
10
4.19023
20
-2.79439
11
4.19213
21
-2.7937
0
LINE
8
BLACK
6
CONTINUOUS
10
4.19213
20
-2.7937
11
4.30433
21
-2.7937
0
LINE
8
BLACK
6
CONTINUOUS
10
4.30433
20
-2.7937
11
4.30471
21
-2.79377
0
LINE
8
BLACK
6
CONTINUOUS
10
4.00416
20
-2.79388
11
4.00571
21
-2.79518
0
LINE
8
BLACK
6
CONTINUOUS
10
4.00571
20
-2.79518
11
4.00606
21
-2.79717
0
LINE
8
BLACK
6
CONTINUOUS
10
4.00606
20
-2.79717
11
4.00505
21
-2.79892
0
LINE
8
BLACK
6
CONTINUOUS
10
4.00505
20
-2.79892
11
4.00315
21
-2.79961
0
LINE
8
BLACK
6
CONTINUOUS
10
4.00315
20
-2.79961
11
3.99528
21
-2.79961
0
LINE
8
BLACK
6
CONTINUOUS
10
3.99528
20
-2.79961
11
3.99427
21
-2.79943
0
LINE
8
BLACK
6
CONTINUOUS
10
3.99427
20
-2.79943
11
3.99272
21
-2.79813
0
LINE
8
BLACK
6
CONTINUOUS
10
3.99272
20
-2.79813
11
3.99237
21
-2.79614
0
LINE
8
BLACK
6
CONTINUOUS
10
3.99237
20
-2.79614
11
3.99338
21
-2.79439
0
LINE
8
BLACK
6
CONTINUOUS
10
3.99338
20
-2.79439
11
3.99528
21
-2.7937
0
LINE
8
BLACK
6
CONTINUOUS
10
3.99528
20
-2.7937
11
4.00315
21
-2.7937
0
LINE
8
BLACK
6
CONTINUOUS
10
4.00315
20
-2.7937
11
4.00416
21
-2.79388
0
LINE
8
BLACK
6
CONTINUOUS
10
4.10258
20
-2.79388
11
4.10413
21
-2.79518
0
LINE
8
BLACK
6
CONTINUOUS
10
4.10413
20
-2.79518
11
4.10448
21
-2.79717
0
LINE
8
BLACK
6
CONTINUOUS
10
4.10448
20
-2.79717
11
4.10347
21
-2.79892
0
LINE
8
BLACK
6
CONTINUOUS
10
4.10347
20
-2.79892
11
4.10157
21
-2.79961
0
LINE
8
BLACK
6
CONTINUOUS
10
4.10157
20
-2.79961
11
4.0937
21
-2.79961
0
LINE
8
BLACK
6
CONTINUOUS
10
4.0937
20
-2.79961
11
4.09269
21
-2.79943
0
LINE
8
BLACK
6
CONTINUOUS
10
4.09269
20
-2.79943
11
4.09114
21
-2.79813
0
LINE
8
BLACK
6
CONTINUOUS
10
4.09114
20
-2.79813
11
4.09079
21
-2.79614
0
LINE
8
BLACK
6
CONTINUOUS
10
4.09079
20
-2.79614
11
4.0918
21
-2.79439
0
LINE
8
BLACK
6
CONTINUOUS
10
4.0918
20
-2.79439
11
4.0937
21
-2.7937
0
LINE
8
BLACK
6
CONTINUOUS
10
4.0937
20
-2.7937
11
4.10157
21
-2.7937
0
LINE
8
BLACK
6
CONTINUOUS
10
4.10157
20
-2.7937
11
4.10258
21
-2.79388
0
LINE
8
BLACK
6
CONTINUOUS
10
4.23329
20
-2.75803
11
4.23649
21
-2.76017
0
LINE
8
BLACK
6
CONTINUOUS
10
4.23649
20
-2.76017
11
4.23862
21
-2.76336
0
LINE
8
BLACK
6
CONTINUOUS
10
4.23862
20
-2.76336
11
4.23937
21
-2.76713
0
LINE
8
BLACK
6
CONTINUOUS
10
4.23937
20
-2.76713
11
4.23862
21
-2.77089
0
LINE
8
BLACK
6
CONTINUOUS
10
4.23862
20
-2.77089
11
4.23649
21
-2.77409
0
LINE
8
BLACK
6
CONTINUOUS
10
4.23649
20
-2.77409
11
4.23329
21
-2.77622
0
LINE
8
BLACK
6
CONTINUOUS
10
4.23329
20
-2.77622
11
4.22953
21
-2.77697
0
LINE
8
BLACK
6
CONTINUOUS
10
4.22953
20
-2.77697
11
4.22576
21
-2.77622
0
LINE
8
BLACK
6
CONTINUOUS
10
4.22576
20
-2.77622
11
4.22257
21
-2.77409
0
LINE
8
BLACK
6
CONTINUOUS
10
4.22257
20
-2.77409
11
4.22043
21
-2.77089
0
LINE
8
BLACK
6
CONTINUOUS
10
4.22043
20
-2.77089
11
4.21969
21
-2.76713
0
LINE
8
BLACK
6
CONTINUOUS
10
4.21969
20
-2.76713
11
4.22043
21
-2.76336
0
LINE
8
BLACK
6
CONTINUOUS
10
4.22043
20
-2.76336
11
4.22257
21
-2.76017
0
LINE
8
BLACK
6
CONTINUOUS
10
4.22257
20
-2.76017
11
4.22576
21
-2.75803
0
LINE
8
BLACK
6
CONTINUOUS
10
4.22576
20
-2.75803
11
4.22953
21
-2.75728
0
LINE
8
BLACK
6
CONTINUOUS
10
4.22953
20
-2.75728
11
4.23329
21
-2.75803
0
LINE
8
BLACK
6
CONTINUOUS
10
3.575
20
-1.79764
11
3.57667
21
-1.79833
0
LINE
8
BLACK
6
CONTINUOUS
10
3.57667
20
-1.79833
11
3.57736
21
-1.8
0
LINE
8
BLACK
6
CONTINUOUS
10
3.57736
20
-1.8
11
3.57736
21
-2.35
0
LINE
8
BLACK
6
CONTINUOUS
10
3.57736
20
-2.35
11
3.57667
21
-2.35167
0
LINE
8
BLACK
6
CONTINUOUS
10
3.57667
20
-2.35167
11
3.575
21
-2.35236
0
LINE
8
BLACK
6
CONTINUOUS
10
3.575
20
-2.35236
11
3.025
21
-2.35236
0
LINE
8
BLACK
6
CONTINUOUS
10
3.025
20
-2.35236
11
3.02333
21
-2.35167
0
LINE
8
BLACK
6
CONTINUOUS
10
3.02333
20
-2.35167
11
3.02264
21
-2.35
0
LINE
8
BLACK
6
CONTINUOUS
10
3.02264
20
-2.35
11
3.02264
21
-1.8
0
LINE
8
BLACK
6
CONTINUOUS
10
3.02264
20
-1.8
11
3.02333
21
-1.79833
0
LINE
8
BLACK
6
CONTINUOUS
10
3.02333
20
-1.79833
11
3.025
21
-1.79764
0
LINE
8
BLACK
6
CONTINUOUS
10
3.025
20
-1.79764
11
3.575
21
-1.79764
0
LINE
8
BLACK
6
CONTINUOUS
10
3.02736
20
-1.80236
11
3.02736
21
-2.34764
0
LINE
8
BLACK
6
CONTINUOUS
10
3.02736
20
-2.34764
11
3.57264
21
-2.34764
0
LINE
8
BLACK
6
CONTINUOUS
10
3.57264
20
-2.34764
11
3.57264
21
-1.80236
0
LINE
8
BLACK
6
CONTINUOUS
10
3.57264
20
-1.80236
11
3.02736
21
-1.80236
0
LINE
8
BLACK
6
CONTINUOUS
10
4.325
20
-1.79764
11
4.32667
21
-1.79833
0
LINE
8
BLACK
6
CONTINUOUS
10
4.32667
20
-1.79833
11
4.32736
21
-1.8
0
LINE
8
BLACK
6
CONTINUOUS
10
4.32736
20
-1.8
11
4.32736
21
-2.35
0
LINE
8
BLACK
6
CONTINUOUS
10
4.32736
20
-2.35
11
4.32667
21
-2.35167
0
LINE
8
BLACK
6
CONTINUOUS
10
4.32667
20
-2.35167
11
4.325
21
-2.35236
0
LINE
8
BLACK
6
CONTINUOUS
10
4.325
20
-2.35236
11
3.775
21
-2.35236
0
LINE
8
BLACK
6
CONTINUOUS
10
3.775
20
-2.35236
11
3.77333
21
-2.35167
0
LINE
8
BLACK
6
CONTINUOUS
10
3.77333
20
-2.35167
11
3.77264
21
-2.35
0
LINE
8
BLACK
6
CONTINUOUS
10
3.77264
20
-2.35
11
3.77264
21
-1.8
0
LINE
8
BLACK
6
CONTINUOUS
10
3.77264
20
-1.8
11
3.77333
21
-1.79833
0
LINE
8
BLACK
6
CONTINUOUS
10
3.77333
20
-1.79833
11
3.775
21
-1.79764
0
LINE
8
BLACK
6
CONTINUOUS
10
3.775
20
-1.79764
11
4.325
21
-1.79764
0
LINE
8
BLACK
6
CONTINUOUS
10
3.77736
20
-1.80236
11
3.77736
21
-2.34764
0
LINE
8
BLACK
6
CONTINUOUS
10
3.77736
20
-2.34764
11
4.32264
21
-2.34764
0
LINE
8
BLACK
6
CONTINUOUS
10
4.32264
20
-2.34764
11
4.32264
21
-1.80236
0
LINE
8
BLACK
6
CONTINUOUS
10
4.32264
20
-1.80236
11
3.77736
21
-1.80236
0
LINE
8
BLACK
6
CONTINUOUS
10
5.075
20
-1.79764
11
5.07667
21
-1.79833
0
LINE
8
BLACK
6
CONTINUOUS
10
5.07667
20
-1.79833
11
5.07736
21
-1.8
0
LINE
8
BLACK
6
CONTINUOUS
10
5.07736
20
-1.8
11
5.07736
21
-2.35
0
LINE
8
BLACK
6
CONTINUOUS
10
5.07736
20
-2.35
11
5.07667
21
-2.35167
0
LINE
8
BLACK
6
CONTINUOUS
10
5.07667
20
-2.35167
11
5.075
21
-2.35236
0
LINE
8
BLACK
6
CONTINUOUS
10
5.075
20
-2.35236
11
4.525
21
-2.35236
0
LINE
8
BLACK
6
CONTINUOUS
10
4.525
20
-2.35236
11
4.52333
21
-2.35167
0
LINE
8
BLACK
6
CONTINUOUS
10
4.52333
20
-2.35167
11
4.52264
21
-2.35
0
LINE
8
BLACK
6
CONTINUOUS
10
4.52264
20
-2.35
11
4.52264
21
-2.35
0
LINE
8
BLACK
6
CONTINUOUS
10
4.52264
20
-2.35
11
4.52264
21
-1.8
0
LINE
8
BLACK
6
CONTINUOUS
10
4.52264
20
-1.8
11
4.52333
21
-1.79833
0
LINE
8
BLACK
6
CONTINUOUS
10
4.52333
20
-1.79833
11
4.525
21
-1.79764
0
LINE
8
BLACK
6
CONTINUOUS
10
4.525
20
-1.79764
11
5.075
21
-1.79764
0
LINE
8
BLACK
6
CONTINUOUS
10
4.52736
20
-1.80236
11
4.52736
21
-2.34764
0
LINE
8
BLACK
6
CONTINUOUS
10
4.52736
20
-2.34764
11
5.07264
21
-2.34764
0
LINE
8
BLACK
6
CONTINUOUS
10
5.07264
20
-2.34764
11
5.07264
21
-1.80236
0
LINE
8
BLACK
6
CONTINUOUS
10
5.07264
20
-1.80236
11
4.52736
21
-1.80236
0
LINE
8
BLACK
6
CONTINUOUS
10
3.26525
20
-1.74074
11
3.26531
21
-1.74073
0
LINE
8
BLACK
6
CONTINUOUS
10
3.26531
20
-1.74073
11
3.27094
21
-1.74261
0
LINE
8
BLACK
6
CONTINUOUS
10
3.27094
20
-1.74261
11
3.27184
21
-1.7431
0
LINE
8
BLACK
6
CONTINUOUS
10
3.27184
20
-1.7431
11
3.2729
21
-1.74482
0
LINE
8
BLACK
6
CONTINUOUS
10
3.2729
20
-1.74482
11
3.2726
21
-1.74682
0
LINE
8
BLACK
6
CONTINUOUS
10
3.2726
20
-1.74682
11
3.27109
21
-1.74816
0
LINE
8
BLACK
6
CONTINUOUS
10
3.27109
20
-1.74816
11
3.26907
21
-1.74821
0
LINE
8
BLACK
6
CONTINUOUS
10
3.26907
20
-1.74821
11
3.2639
21
-1.74649
0
LINE
8
BLACK
6
CONTINUOUS
10
3.2639
20
-1.74649
11
3.2557
21
-1.74649
0
LINE
8
BLACK
6
CONTINUOUS
10
3.2557
20
-1.74649
11
3.25301
21
-1.74784
0
LINE
8
BLACK
6
CONTINUOUS
10
3.25301
20
-1.74784
11
3.25181
21
-1.74903
0
LINE
8
BLACK
6
CONTINUOUS
10
3.25181
20
-1.74903
11
3.25046
21
-1.75173
0
LINE
8
BLACK
6
CONTINUOUS
10
3.25046
20
-1.75173
11
3.25046
21
-1.75409
0
LINE
8
BLACK
6
CONTINUOUS
10
3.25046
20
-1.75409
11
3.25181
21
-1.75679
0
LINE
8
BLACK
6
CONTINUOUS
10
3.25181
20
-1.75679
11
3.25301
21
-1.75798
0
LINE
8
BLACK
6
CONTINUOUS
10
3.25301
20
-1.75798
11
3.25604
21
-1.7595
0
LINE
8
BLACK
6
CONTINUOUS
10
3.25604
20
-1.7595
11
3.26322
21
-1.76129
0
LINE
8
BLACK
6
CONTINUOUS
10
3.26322
20
-1.76129
11
3.26369
21
-1.7615
0
LINE
8
BLACK
6
CONTINUOUS
10
3.26369
20
-1.7615
11
3.26383
21
-1.76152
0
LINE
8
BLACK
6
CONTINUOUS
10
3.26383
20
-1.76152
11
3.26757
21
-1.76339
0
LINE
8
BLACK
6
CONTINUOUS
10
3.26757
20
-1.76339
11
3.26828
21
-1.76392
0
LINE
8
BLACK
6
CONTINUOUS
10
3.26828
20
-1.76392
11
3.26834
21
-1.76395
0
LINE
8
BLACK
6
CONTINUOUS
10
3.26834
20
-1.76395
11
3.27022
21
-1.76582
0
LINE
8
BLACK
6
CONTINUOUS
10
3.27022
20
-1.76582
11
3.27072
21
-1.76654
0
LINE
8
BLACK
6
CONTINUOUS
10
3.27072
20
-1.76654
11
3.27077
21
-1.76659
0
LINE
8
BLACK
6
CONTINUOUS
10
3.27077
20
-1.76659
11
3.27264
21
-1.77034
0
LINE
8
BLACK
6
CONTINUOUS
10
3.27264
20
-1.77034
11
3.27294
21
-1.77132
0
LINE
8
BLACK
6
CONTINUOUS
10
3.27294
20
-1.77132
11
3.2729
21
-1.77149
0
LINE
8
BLACK
6
CONTINUOUS
10
3.2729
20
-1.77149
11
3.27296
21
-1.77166
0
LINE
8
BLACK
6
CONTINUOUS
10
3.27296
20
-1.77166
11
3.27296
21
-1.77541
0
LINE
8
BLACK
6
CONTINUOUS
10
3.27296
20
-1.77541
11
3.27278
21
-1.77642
0
LINE
8
BLACK
6
CONTINUOUS
10
3.27278
20
-1.77642
11
3.27266
21
-1.77655
0
LINE
8
BLACK
6
CONTINUOUS
10
3.27266
20
-1.77655
11
3.27264
21
-1.77673
0
LINE
8
BLACK
6
CONTINUOUS
10
3.27264
20
-1.77673
11
3.27077
21
-1.78048
0
LINE
8
BLACK
6
CONTINUOUS
10
3.27077
20
-1.78048
11
3.27024
21
-1.78119
0
LINE
8
BLACK
6
CONTINUOUS
10
3.27024
20
-1.78119
11
3.27022
21
-1.78124
0
LINE
8
BLACK
6
CONTINUOUS
10
3.27022
20
-1.78124
11
3.26834
21
-1.78312
0
LINE
8
BLACK
6
CONTINUOUS
10
3.26834
20
-1.78312
11
3.26762
21
-1.78363
0
LINE
8
BLACK
6
CONTINUOUS
10
3.26762
20
-1.78363
11
3.26757
21
-1.78367
0
LINE
8
BLACK
6
CONTINUOUS
10
3.26757
20
-1.78367
11
3.26383
21
-1.78555
0
LINE
8
BLACK
6
CONTINUOUS
10
3.26383
20
-1.78555
11
3.26284
21
-1.78584
0
LINE
8
BLACK
6
CONTINUOUS
10
3.26284
20
-1.78584
11
3.26267
21
-1.7858
0
LINE
8
BLACK
6
CONTINUOUS
10
3.26267
20
-1.7858
11
3.2625
21
-1.78586
0
LINE
8
BLACK
6
CONTINUOUS
10
3.2625
20
-1.78586
11
3.25313
21
-1.78586
0
LINE
8
BLACK
6
CONTINUOUS
10
3.25313
20
-1.78586
11
3.25226
21
-1.78571
0
LINE
8
BLACK
6
CONTINUOUS
10
3.25226
20
-1.78571
11
3.2522
21
-1.78571
0
LINE
8
BLACK
6
CONTINUOUS
10
3.2522
20
-1.78571
11
3.24657
21
-1.78383
0
LINE
8
BLACK
6
CONTINUOUS
10
3.24657
20
-1.78383
11
3.24567
21
-1.78334
0
LINE
8
BLACK
6
CONTINUOUS
10
3.24567
20
-1.78334
11
3.24461
21
-1.78162
0
LINE
8
BLACK
6
CONTINUOUS
10
3.24461
20
-1.78162
11
3.24491
21
-1.77963
0
LINE
8
BLACK
6
CONTINUOUS
10
3.24491
20
-1.77963
11
3.24642
21
-1.77829
0
LINE
8
BLACK
6
CONTINUOUS
10
3.24642
20
-1.77829
11
3.24844
21
-1.77823
0
LINE
8
BLACK
6
CONTINUOUS
10
3.24844
20
-1.77823
11
3.25361
21
-1.77995
0
LINE
8
BLACK
6
CONTINUOUS
10
3.25361
20
-1.77995
11
3.26181
21
-1.77995
0
LINE
8
BLACK
6
CONTINUOUS
10
3.26181
20
-1.77995
11
3.26451
21
-1.7786
0
LINE
8
BLACK
6
CONTINUOUS
10
3.26451
20
-1.7786
11
3.2657
21
-1.77741
0
LINE
8
BLACK
6
CONTINUOUS
10
3.2657
20
-1.77741
11
3.26705
21
-1.77471
0
LINE
8
BLACK
6
CONTINUOUS
10
3.26705
20
-1.77471
11
3.26705
21
-1.77235
0
LINE
8
BLACK
6
CONTINUOUS
10
3.26705
20
-1.77235
11
3.2657
21
-1.76966
0
LINE
8
BLACK
6
CONTINUOUS
10
3.2657
20
-1.76966
11
3.26451
21
-1.76846
0
LINE
8
BLACK
6
CONTINUOUS
10
3.26451
20
-1.76846
11
3.26147
21
-1.76694
0
LINE
8
BLACK
6
CONTINUOUS
10
3.26147
20
-1.76694
11
3.25429
21
-1.76515
0
LINE
8
BLACK
6
CONTINUOUS
10
3.25429
20
-1.76515
11
3.25382
21
-1.76494
0
LINE
8
BLACK
6
CONTINUOUS
10
3.25382
20
-1.76494
11
3.25369
21
-1.76492
0
LINE
8
BLACK
6
CONTINUOUS
10
3.25369
20
-1.76492
11
3.24994
21
-1.76305
0
LINE
8
BLACK
6
CONTINUOUS
10
3.24994
20
-1.76305
11
3.24923
21
-1.76252
0
LINE
8
BLACK
6
CONTINUOUS
10
3.24923
20
-1.76252
11
3.24917
21
-1.7625
0
LINE
8
BLACK
6
CONTINUOUS
10
3.24917
20
-1.7625
11
3.24729
21
-1.76062
0
LINE
8
BLACK
6
CONTINUOUS
10
3.24729
20
-1.76062
11
3.24679
21
-1.7599
0
LINE
8
BLACK
6
CONTINUOUS
10
3.24679
20
-1.7599
11
3.24674
21
-1.75985
0
LINE
8
BLACK
6
CONTINUOUS
10
3.24674
20
-1.75985
11
3.24487
21
-1.75611
0
LINE
8
BLACK
6
CONTINUOUS
10
3.24487
20
-1.75611
11
3.24457
21
-1.75512
0
LINE
8
BLACK
6
CONTINUOUS
10
3.24457
20
-1.75512
11
3.24461
21
-1.75495
0
LINE
8
BLACK
6
CONTINUOUS
10
3.24461
20
-1.75495
11
3.24455
21
-1.75478
0
LINE
8
BLACK
6
CONTINUOUS
10
3.24455
20
-1.75478
11
3.24455
21
-1.75104
0
LINE
8
BLACK
6
CONTINUOUS
10
3.24455
20
-1.75104
11
3.24473
21
-1.75003
0
LINE
8
BLACK
6
CONTINUOUS
10
3.24473
20
-1.75003
11
3.24485
21
-1.74989
0
LINE
8
BLACK
6
CONTINUOUS
10
3.24485
20
-1.74989
11
3.24487
21
-1.74971
0
LINE
8
BLACK
6
CONTINUOUS
10
3.24487
20
-1.74971
11
3.24674
21
-1.74597
0
LINE
8
BLACK
6
CONTINUOUS
10
3.24674
20
-1.74597
11
3.24727
21
-1.74526
0
LINE
8
BLACK
6
CONTINUOUS
10
3.24727
20
-1.74526
11
3.24729
21
-1.7452
0
LINE
8
BLACK
6
CONTINUOUS
10
3.24729
20
-1.7452
11
3.24917
21
-1.74332
0
LINE
8
BLACK
6
CONTINUOUS
10
3.24917
20
-1.74332
11
3.24989
21
-1.74282
0
LINE
8
BLACK
6
CONTINUOUS
10
3.24989
20
-1.74282
11
3.24994
21
-1.74277
0
LINE
8
BLACK
6
CONTINUOUS
10
3.24994
20
-1.74277
11
3.25369
21
-1.7409
0
LINE
8
BLACK
6
CONTINUOUS
10
3.25369
20
-1.7409
11
3.25467
21
-1.7406
0
LINE
8
BLACK
6
CONTINUOUS
10
3.25467
20
-1.7406
11
3.25484
21
-1.74064
0
LINE
8
BLACK
6
CONTINUOUS
10
3.25484
20
-1.74064
11
3.25501
21
-1.74058
0
LINE
8
BLACK
6
CONTINUOUS
10
3.25501
20
-1.74058
11
3.26438
21
-1.74058
0
LINE
8
BLACK
6
CONTINUOUS
10
3.26438
20
-1.74058
11
3.26525
21
-1.74074
0
LINE
8
BLACK
6
CONTINUOUS
10
4.01525
20
-1.74074
11
4.01531
21
-1.74073
0
LINE
8
BLACK
6
CONTINUOUS
10
4.01531
20
-1.74073
11
4.02094
21
-1.74261
0
LINE
8
BLACK
6
CONTINUOUS
10
4.02094
20
-1.74261
11
4.02184
21
-1.7431
0
LINE
8
BLACK
6
CONTINUOUS
10
4.02184
20
-1.7431
11
4.0229
21
-1.74482
0
LINE
8
BLACK
6
CONTINUOUS
10
4.0229
20
-1.74482
11
4.0226
21
-1.74682
0
LINE
8
BLACK
6
CONTINUOUS
10
4.0226
20
-1.74682
11
4.02109
21
-1.74816
0
LINE
8
BLACK
6
CONTINUOUS
10
4.02109
20
-1.74816
11
4.01907
21
-1.74821
0
LINE
8
BLACK
6
CONTINUOUS
10
4.01907
20
-1.74821
11
4.0139
21
-1.74649
0
LINE
8
BLACK
6
CONTINUOUS
10
4.0139
20
-1.74649
11
4.0057
21
-1.74649
0
LINE
8
BLACK
6
CONTINUOUS
10
4.0057
20
-1.74649
11
4.00301
21
-1.74784
0
LINE
8
BLACK
6
CONTINUOUS
10
4.00301
20
-1.74784
11
4.00181
21
-1.74903
0
LINE
8
BLACK
6
CONTINUOUS
10
4.00181
20
-1.74903
11
4.00046
21
-1.75173
0
LINE
8
BLACK
6
CONTINUOUS
10
4.00046
20
-1.75173
11
4.00046
21
-1.75409
0
LINE
8
BLACK
6
CONTINUOUS
10
4.00046
20
-1.75409
11
4.00181
21
-1.75679
0
LINE
8
BLACK
6
CONTINUOUS
10
4.00181
20
-1.75679
11
4.00301
21
-1.75798
0
LINE
8
BLACK
6
CONTINUOUS
10
4.00301
20
-1.75798
11
4.00604
21
-1.7595
0
LINE
8
BLACK
6
CONTINUOUS
10
4.00604
20
-1.7595
11
4.01322
21
-1.76129
0
LINE
8
BLACK
6
CONTINUOUS
10
4.01322
20
-1.76129
11
4.01369
21
-1.7615
0
LINE
8
BLACK
6
CONTINUOUS
10
4.01369
20
-1.7615
11
4.01383
21
-1.76152
0
LINE
8
BLACK
6
CONTINUOUS
10
4.01383
20
-1.76152
11
4.01757
21
-1.76339
0
LINE
8
BLACK
6
CONTINUOUS
10
4.01757
20
-1.76339
11
4.01828
21
-1.76392
0
LINE
8
BLACK
6
CONTINUOUS
10
4.01828
20
-1.76392
11
4.01834
21
-1.76395
0
LINE
8
BLACK
6
CONTINUOUS
10
4.01834
20
-1.76395
11
4.02022
21
-1.76582
0
LINE
8
BLACK
6
CONTINUOUS
10
4.02022
20
-1.76582
11
4.02072
21
-1.76654
0
LINE
8
BLACK
6
CONTINUOUS
10
4.02072
20
-1.76654
11
4.02077
21
-1.76659
0
LINE
8
BLACK
6
CONTINUOUS
10
4.02077
20
-1.76659
11
4.02264
21
-1.77034
0
LINE
8
BLACK
6
CONTINUOUS
10
4.02264
20
-1.77034
11
4.02294
21
-1.77132
0
LINE
8
BLACK
6
CONTINUOUS
10
4.02294
20
-1.77132
11
4.0229
21
-1.77149
0
LINE
8
BLACK
6
CONTINUOUS
10
4.0229
20
-1.77149
11
4.02296
21
-1.77166
0
LINE
8
BLACK
6
CONTINUOUS
10
4.02296
20
-1.77166
11
4.02296
21
-1.77541
0
LINE
8
BLACK
6
CONTINUOUS
10
4.02296
20
-1.77541
11
4.02278
21
-1.77642
0
LINE
8
BLACK
6
CONTINUOUS
10
4.02278
20
-1.77642
11
4.02266
21
-1.77655
0
LINE
8
BLACK
6
CONTINUOUS
10
4.02266
20
-1.77655
11
4.02264
21
-1.77673
0
LINE
8
BLACK
6
CONTINUOUS
10
4.02264
20
-1.77673
11
4.02077
21
-1.78048
0
LINE
8
BLACK
6
CONTINUOUS
10
4.02077
20
-1.78048
11
4.02024
21
-1.78119
0
LINE
8
BLACK
6
CONTINUOUS
10
4.02024
20
-1.78119
11
4.02022
21
-1.78124
0
LINE
8
BLACK
6
CONTINUOUS
10
4.02022
20
-1.78124
11
4.01834
21
-1.78312
0
LINE
8
BLACK
6
CONTINUOUS
10
4.01834
20
-1.78312
11
4.01762
21
-1.78363
0
LINE
8
BLACK
6
CONTINUOUS
10
4.01762
20
-1.78363
11
4.01757
21
-1.78367
0
LINE
8
BLACK
6
CONTINUOUS
10
4.01757
20
-1.78367
11
4.01383
21
-1.78555
0
LINE
8
BLACK
6
CONTINUOUS
10
4.01383
20
-1.78555
11
4.01284
21
-1.78584
0
LINE
8
BLACK
6
CONTINUOUS
10
4.01284
20
-1.78584
11
4.01267
21
-1.7858
0
LINE
8
BLACK
6
CONTINUOUS
10
4.01267
20
-1.7858
11
4.0125
21
-1.78586
0
LINE
8
BLACK
6
CONTINUOUS
10
4.0125
20
-1.78586
11
4.00313
21
-1.78586
0
LINE
8
BLACK
6
CONTINUOUS
10
4.00313
20
-1.78586
11
4.00226
21
-1.78571
0
LINE
8
BLACK
6
CONTINUOUS
10
4.00226
20
-1.78571
11
4.0022
21
-1.78571
0
LINE
8
BLACK
6
CONTINUOUS
10
4.0022
20
-1.78571
11
3.99657
21
-1.78383
0
LINE
8
BLACK
6
CONTINUOUS
10
3.99657
20
-1.78383
11
3.99567
21
-1.78334
0
LINE
8
BLACK
6
CONTINUOUS
10
3.99567
20
-1.78334
11
3.99461
21
-1.78162
0
LINE
8
BLACK
6
CONTINUOUS
10
3.99461
20
-1.78162
11
3.99491
21
-1.77963
0
LINE
8
BLACK
6
CONTINUOUS
10
3.99491
20
-1.77963
11
3.99642
21
-1.77829
0
LINE
8
BLACK
6
CONTINUOUS
10
3.99642
20
-1.77829
11
3.99844
21
-1.77823
0
LINE
8
BLACK
6
CONTINUOUS
10
3.99844
20
-1.77823
11
4.00361
21
-1.77995
0
LINE
8
BLACK
6
CONTINUOUS
10
4.00361
20
-1.77995
11
4.01181
21
-1.77995
0
LINE
8
BLACK
6
CONTINUOUS
10
4.01181
20
-1.77995
11
4.01451
21
-1.7786
0
LINE
8
BLACK
6
CONTINUOUS
10
4.01451
20
-1.7786
11
4.0157
21
-1.77741
0
LINE
8
BLACK
6
CONTINUOUS
10
4.0157
20
-1.77741
11
4.01705
21
-1.77471
0
LINE
8
BLACK
6
CONTINUOUS
10
4.01705
20
-1.77471
11
4.01705
21
-1.77235
0
LINE
8
BLACK
6
CONTINUOUS
10
4.01705
20
-1.77235
11
4.0157
21
-1.76966
0
LINE
8
BLACK
6
CONTINUOUS
10
4.0157
20
-1.76966
11
4.01451
21
-1.76846
0
LINE
8
BLACK
6
CONTINUOUS
10
4.01451
20
-1.76846
11
4.01147
21
-1.76694
0
LINE
8
BLACK
6
CONTINUOUS
10
4.01147
20
-1.76694
11
4.00429
21
-1.76515
0
LINE
8
BLACK
6
CONTINUOUS
10
4.00429
20
-1.76515
11
4.00382
21
-1.76494
0
LINE
8
BLACK
6
CONTINUOUS
10
4.00382
20
-1.76494
11
4.00369
21
-1.76492
0
LINE
8
BLACK
6
CONTINUOUS
10
4.00369
20
-1.76492
11
3.99994
21
-1.76305
0
LINE
8
BLACK
6
CONTINUOUS
10
3.99994
20
-1.76305
11
3.99923
21
-1.76252
0
LINE
8
BLACK
6
CONTINUOUS
10
3.99923
20
-1.76252
11
3.99917
21
-1.7625
0
LINE
8
BLACK
6
CONTINUOUS
10
3.99917
20
-1.7625
11
3.99729
21
-1.76062
0
LINE
8
BLACK
6
CONTINUOUS
10
3.99729
20
-1.76062
11
3.99679
21
-1.7599
0
LINE
8
BLACK
6
CONTINUOUS
10
3.99679
20
-1.7599
11
3.99674
21
-1.75985
0
LINE
8
BLACK
6
CONTINUOUS
10
3.99674
20
-1.75985
11
3.99487
21
-1.75611
0
LINE
8
BLACK
6
CONTINUOUS
10
3.99487
20
-1.75611
11
3.99457
21
-1.75512
0
LINE
8
BLACK
6
CONTINUOUS
10
3.99457
20
-1.75512
11
3.99461
21
-1.75495
0
LINE
8
BLACK
6
CONTINUOUS
10
3.99461
20
-1.75495
11
3.99455
21
-1.75478
0
LINE
8
BLACK
6
CONTINUOUS
10
3.99455
20
-1.75478
11
3.99455
21
-1.75104
0
LINE
8
BLACK
6
CONTINUOUS
10
3.99455
20
-1.75104
11
3.99473
21
-1.75003
0
LINE
8
BLACK
6
CONTINUOUS
10
3.99473
20
-1.75003
11
3.99485
21
-1.74989
0
LINE
8
BLACK
6
CONTINUOUS
10
3.99485
20
-1.74989
11
3.99487
21
-1.74971
0
LINE
8
BLACK
6
CONTINUOUS
10
3.99487
20
-1.74971
11
3.99674
21
-1.74597
0
LINE
8
BLACK
6
CONTINUOUS
10
3.99674
20
-1.74597
11
3.99727
21
-1.74526
0
LINE
8
BLACK
6
CONTINUOUS
10
3.99727
20
-1.74526
11
3.99729
21
-1.7452
0
LINE
8
BLACK
6
CONTINUOUS
10
3.99729
20
-1.7452
11
3.99917
21
-1.74332
0
LINE
8
BLACK
6
CONTINUOUS
10
3.99917
20
-1.74332
11
3.99989
21
-1.74282
0
LINE
8
BLACK
6
CONTINUOUS
10
3.99989
20
-1.74282
11
3.99994
21
-1.74277
0
LINE
8
BLACK
6
CONTINUOUS
10
3.99994
20
-1.74277
11
4.00369
21
-1.7409
0
LINE
8
BLACK
6
CONTINUOUS
10
4.00369
20
-1.7409
11
4.00467
21
-1.7406
0
LINE
8
BLACK
6
CONTINUOUS
10
4.00467
20
-1.7406
11
4.00484
21
-1.74064
0
LINE
8
BLACK
6
CONTINUOUS
10
4.00484
20
-1.74064
11
4.00501
21
-1.74058
0
LINE
8
BLACK
6
CONTINUOUS
10
4.00501
20
-1.74058
11
4.01438
21
-1.74058
0
LINE
8
BLACK
6
CONTINUOUS
10
4.01438
20
-1.74058
11
4.01525
21
-1.74074
0
LINE
8
BLACK
6
CONTINUOUS
10
4.10293
20
-1.74066
11
4.10307
21
-1.74064
0
LINE
8
BLACK
6
CONTINUOUS
10
4.10307
20
-1.74064
11
4.10317
21
-1.7407
0
LINE
8
BLACK
6
CONTINUOUS
10
4.10317
20
-1.7407
11
4.1035
21
-1.74076
0
LINE
8
BLACK
6
CONTINUOUS
10
4.1035
20
-1.74076
11
4.10411
21
-1.74127
0
LINE
8
BLACK
6
CONTINUOUS
10
4.10411
20
-1.74127
11
4.10479
21
-1.74169
0
LINE
8
BLACK
6
CONTINUOUS
10
4.10479
20
-1.74169
11
4.10487
21
-1.74191
0
LINE
8
BLACK
6
CONTINUOUS
10
4.10487
20
-1.74191
11
4.10505
21
-1.74206
0
LINE
8
BLACK
6
CONTINUOUS
10
4.10505
20
-1.74206
11
4.10519
21
-1.74284
0
LINE
8
BLACK
6
CONTINUOUS
10
4.10519
20
-1.74284
11
4.10545
21
-1.7436
0
LINE
8
BLACK
6
CONTINUOUS
10
4.10545
20
-1.7436
11
4.10536
21
-1.74382
0
LINE
8
BLACK
6
CONTINUOUS
10
4.10536
20
-1.74382
11
4.1054
21
-1.74405
0
LINE
8
BLACK
6
CONTINUOUS
10
4.1054
20
-1.74405
11
4.105
21
-1.74474
0
LINE
8
BLACK
6
CONTINUOUS
10
4.105
20
-1.74474
11
4.10472
21
-1.74548
0
LINE
8
BLACK
6
CONTINUOUS
10
4.10472
20
-1.74548
11
4.09576
21
-1.75572
0
LINE
8
BLACK
6
CONTINUOUS
10
4.09576
20
-1.75572
11
4.096
21
-1.75576
0
LINE
8
BLACK
6
CONTINUOUS
10
4.096
20
-1.75576
11
4.09614
21
-1.75587
0
LINE
8
BLACK
6
CONTINUOUS
10
4.09614
20
-1.75587
11
4.09631
21
-1.75589
0
LINE
8
BLACK
6
CONTINUOUS
10
4.09631
20
-1.75589
11
4.10006
21
-1.75777
0
LINE
8
BLACK
6
CONTINUOUS
10
4.10006
20
-1.75777
11
4.10077
21
-1.75829
0
LINE
8
BLACK
6
CONTINUOUS
10
4.10077
20
-1.75829
11
4.10083
21
-1.75832
0
LINE
8
BLACK
6
CONTINUOUS
10
4.10083
20
-1.75832
11
4.10271
21
-1.7602
0
LINE
8
BLACK
6
CONTINUOUS
10
4.10271
20
-1.7602
11
4.10321
21
-1.76092
0
LINE
8
BLACK
6
CONTINUOUS
10
4.10321
20
-1.76092
11
4.10326
21
-1.76096
0
LINE
8
BLACK
6
CONTINUOUS
10
4.10326
20
-1.76096
11
4.10513
21
-1.76471
0
LINE
8
BLACK
6
CONTINUOUS
10
4.10513
20
-1.76471
11
4.10543
21
-1.7657
0
LINE
8
BLACK
6
CONTINUOUS
10
4.10543
20
-1.7657
11
4.10539
21
-1.76587
0
LINE
8
BLACK
6
CONTINUOUS
10
4.10539
20
-1.76587
11
4.10545
21
-1.76603
0
LINE
8
BLACK
6
CONTINUOUS
10
4.10545
20
-1.76603
11
4.10545
21
-1.77541
0
LINE
8
BLACK
6
CONTINUOUS
10
4.10545
20
-1.77541
11
4.10527
21
-1.77642
0
LINE
8
BLACK
6
CONTINUOUS
10
4.10527
20
-1.77642
11
4.10515
21
-1.77655
0
LINE
8
BLACK
6
CONTINUOUS
10
4.10515
20
-1.77655
11
4.10513
21
-1.77673
0
LINE
8
BLACK
6
CONTINUOUS
10
4.10513
20
-1.77673
11
4.10326
21
-1.78048
0
LINE
8
BLACK
6
CONTINUOUS
10
4.10326
20
-1.78048
11
4.10273
21
-1.78119
0
LINE
8
BLACK
6
CONTINUOUS
10
4.10273
20
-1.78119
11
4.10271
21
-1.78124
0
LINE
8
BLACK
6
CONTINUOUS
10
4.10271
20
-1.78124
11
4.10083
21
-1.78312
0
LINE
8
BLACK
6
CONTINUOUS
10
4.10083
20
-1.78312
11
4.10011
21
-1.78363
0
LINE
8
BLACK
6
CONTINUOUS
10
4.10011
20
-1.78363
11
4.10006
21
-1.78367
0
LINE
8
BLACK
6
CONTINUOUS
10
4.10006
20
-1.78367
11
4.09631
21
-1.78555
0
LINE
8
BLACK
6
CONTINUOUS
10
4.09631
20
-1.78555
11
4.09533
21
-1.78584
0
LINE
8
BLACK
6
CONTINUOUS
10
4.09533
20
-1.78584
11
4.09516
21
-1.7858
0
LINE
8
BLACK
6
CONTINUOUS
10
4.09516
20
-1.7858
11
4.09499
21
-1.78586
0
LINE
8
BLACK
6
CONTINUOUS
10
4.09499
20
-1.78586
11
4.08375
21
-1.78586
0
LINE
8
BLACK
6
CONTINUOUS
10
4.08375
20
-1.78586
11
4.08274
21
-1.78568
0
LINE
8
BLACK
6
CONTINUOUS
10
4.08274
20
-1.78568
11
4.0826
21
-1.78557
0
LINE
8
BLACK
6
CONTINUOUS
10
4.0826
20
-1.78557
11
4.08243
21
-1.78555
0
LINE
8
BLACK
6
CONTINUOUS
10
4.08243
20
-1.78555
11
4.07868
21
-1.78367
0
LINE
8
BLACK
6
CONTINUOUS
10
4.07868
20
-1.78367
11
4.07797
21
-1.78315
0
LINE
8
BLACK
6
CONTINUOUS
10
4.07797
20
-1.78315
11
4.07791
21
-1.78312
0
LINE
8
BLACK
6
CONTINUOUS
10
4.07791
20
-1.78312
11
4.07603
21
-1.78124
0
LINE
8
BLACK
6
CONTINUOUS
10
4.07603
20
-1.78124
11
4.07545
21
-1.7804
0
LINE
8
BLACK
6
CONTINUOUS
10
4.07545
20
-1.7804
11
4.07527
21
-1.77839
0
LINE
8
BLACK
6
CONTINUOUS
10
4.07527
20
-1.77839
11
4.07643
21
-1.77674
0
LINE
8
BLACK
6
CONTINUOUS
10
4.07643
20
-1.77674
11
4.07838
21
-1.77622
0
LINE
8
BLACK
6
CONTINUOUS
10
4.07838
20
-1.77622
11
4.08021
21
-1.77707
0
LINE
8
BLACK
6
CONTINUOUS
10
4.08021
20
-1.77707
11
4.08175
21
-1.7786
0
LINE
8
BLACK
6
CONTINUOUS
10
4.08175
20
-1.7786
11
4.08444
21
-1.77995
0
LINE
8
BLACK
6
CONTINUOUS
10
4.08444
20
-1.77995
11
4.0943
21
-1.77995
0
LINE
8
BLACK
6
CONTINUOUS
10
4.0943
20
-1.77995
11
4.09699
21
-1.7786
0
LINE
8
BLACK
6
CONTINUOUS
10
4.09699
20
-1.7786
11
4.09819
21
-1.77741
0
LINE
8
BLACK
6
CONTINUOUS
10
4.09819
20
-1.77741
11
4.09954
21
-1.77471
0
LINE
8
BLACK
6
CONTINUOUS
10
4.09954
20
-1.77471
11
4.09954
21
-1.76673
0
LINE
8
BLACK
6
CONTINUOUS
10
4.09954
20
-1.76673
11
4.09819
21
-1.76403
0
LINE
8
BLACK
6
CONTINUOUS
10
4.09819
20
-1.76403
11
4.09699
21
-1.76284
0
LINE
8
BLACK
6
CONTINUOUS
10
4.09699
20
-1.76284
11
4.0943
21
-1.76149
0
LINE
8
BLACK
6
CONTINUOUS
10
4.0943
20
-1.76149
11
4.08937
21
-1.76149
0
LINE
8
BLACK
6
CONTINUOUS
10
4.08937
20
-1.76149
11
4.08893
21
-1.76141
0
LINE
8
BLACK
6
CONTINUOUS
10
4.08893
20
-1.76141
11
4.0888
21
-1.76143
0
LINE
8
BLACK
6
CONTINUOUS
10
4.0888
20
-1.76143
11
4.08869
21
-1.76137
0
LINE
8
BLACK
6
CONTINUOUS
10
4.08869
20
-1.76137
11
4.08836
21
-1.76131
0
LINE
8
BLACK
6
CONTINUOUS
10
4.08836
20
-1.76131
11
4.08775
21
-1.7608
0
LINE
8
BLACK
6
CONTINUOUS
10
4.08775
20
-1.7608
11
4.08707
21
-1.76039
0
LINE
8
BLACK
6
CONTINUOUS
10
4.08707
20
-1.76039
11
4.08699
21
-1.76016
0
LINE
8
BLACK
6
CONTINUOUS
10
4.08699
20
-1.76016
11
4.08681
21
-1.76001
0
LINE
8
BLACK
6
CONTINUOUS
10
4.08681
20
-1.76001
11
4.08667
21
-1.75923
0
LINE
8
BLACK
6
CONTINUOUS
10
4.08667
20
-1.75923
11
4.08642
21
-1.75847
0
LINE
8
BLACK
6
CONTINUOUS
10
4.08642
20
-1.75847
11
4.0865
21
-1.75825
0
LINE
8
BLACK
6
CONTINUOUS
10
4.0865
20
-1.75825
11
4.08646
21
-1.75802
0
LINE
8
BLACK
6
CONTINUOUS
10
4.08646
20
-1.75802
11
4.08686
21
-1.75733
0
LINE
8
BLACK
6
CONTINUOUS
10
4.08686
20
-1.75733
11
4.08715
21
-1.75659
0
LINE
8
BLACK
6
CONTINUOUS
10
4.08715
20
-1.75659
11
4.09599
21
-1.74649
0
LINE
8
BLACK
6
CONTINUOUS
10
4.09599
20
-1.74649
11
4.07812
21
-1.74649
0
LINE
8
BLACK
6
CONTINUOUS
10
4.07812
20
-1.74649
11
4.07711
21
-1.74631
0
LINE
8
BLACK
6
CONTINUOUS
10
4.07711
20
-1.74631
11
4.07556
21
-1.74501
0
LINE
8
BLACK
6
CONTINUOUS
10
4.07556
20
-1.74501
11
4.07521
21
-1.74302
0
LINE
8
BLACK
6
CONTINUOUS
10
4.07521
20
-1.74302
11
4.07622
21
-1.74127
0
LINE
8
BLACK
6
CONTINUOUS
10
4.07622
20
-1.74127
11
4.07812
21
-1.74058
0
LINE
8
BLACK
6
CONTINUOUS
10
4.07812
20
-1.74058
11
4.10249
21
-1.74058
0
LINE
8
BLACK
6
CONTINUOUS
10
4.10249
20
-1.74058
11
4.10293
21
-1.74066
0
LINE
8
BLACK
6
CONTINUOUS
10
4.76525
20
-1.74074
11
4.76531
21
-1.74073
0
LINE
8
BLACK
6
CONTINUOUS
10
4.76531
20
-1.74073
11
4.77094
21
-1.74261
0
LINE
8
BLACK
6
CONTINUOUS
10
4.77094
20
-1.74261
11
4.77184
21
-1.7431
0
LINE
8
BLACK
6
CONTINUOUS
10
4.77184
20
-1.7431
11
4.7729
21
-1.74482
0
LINE
8
BLACK
6
CONTINUOUS
10
4.7729
20
-1.74482
11
4.7726
21
-1.74682
0
LINE
8
BLACK
6
CONTINUOUS
10
4.7726
20
-1.74682
11
4.77109
21
-1.74816
0
LINE
8
BLACK
6
CONTINUOUS
10
4.77109
20
-1.74816
11
4.76907
21
-1.74821
0
LINE
8
BLACK
6
CONTINUOUS
10
4.76907
20
-1.74821
11
4.7639
21
-1.74649
0
LINE
8
BLACK
6
CONTINUOUS
10
4.7639
20
-1.74649
11
4.7557
21
-1.74649
0
LINE
8
BLACK
6
CONTINUOUS
10
4.7557
20
-1.74649
11
4.75301
21
-1.74784
0
LINE
8
BLACK
6
CONTINUOUS
10
4.75301
20
-1.74784
11
4.75181
21
-1.74903
0
LINE
8
BLACK
6
CONTINUOUS
10
4.75181
20
-1.74903
11
4.75046
21
-1.75173
0
LINE
8
BLACK
6
CONTINUOUS
10
4.75046
20
-1.75173
11
4.75046
21
-1.75409
0
LINE
8
BLACK
6
CONTINUOUS
10
4.75046
20
-1.75409
11
4.75181
21
-1.75679
0
LINE
8
BLACK
6
CONTINUOUS
10
4.75181
20
-1.75679
11
4.75301
21
-1.75798
0
LINE
8
BLACK
6
CONTINUOUS
10
4.75301
20
-1.75798
11
4.75604
21
-1.7595
0
LINE
8
BLACK
6
CONTINUOUS
10
4.75604
20
-1.7595
11
4.76322
21
-1.76129
0
LINE
8
BLACK
6
CONTINUOUS
10
4.76322
20
-1.76129
11
4.76369
21
-1.7615
0
LINE
8
BLACK
6
CONTINUOUS
10
4.76369
20
-1.7615
11
4.76383
21
-1.76152
0
LINE
8
BLACK
6
CONTINUOUS
10
4.76383
20
-1.76152
11
4.76757
21
-1.76339
0
LINE
8
BLACK
6
CONTINUOUS
10
4.76757
20
-1.76339
11
4.76828
21
-1.76392
0
LINE
8
BLACK
6
CONTINUOUS
10
4.76828
20
-1.76392
11
4.76834
21
-1.76395
0
LINE
8
BLACK
6
CONTINUOUS
10
4.76834
20
-1.76395
11
4.77022
21
-1.76582
0
LINE
8
BLACK
6
CONTINUOUS
10
4.77022
20
-1.76582
11
4.77072
21
-1.76654
0
LINE
8
BLACK
6
CONTINUOUS
10
4.77072
20
-1.76654
11
4.77077
21
-1.76659
0
LINE
8
BLACK
6
CONTINUOUS
10
4.77077
20
-1.76659
11
4.77264
21
-1.77034
0
LINE
8
BLACK
6
CONTINUOUS
10
4.77264
20
-1.77034
11
4.77294
21
-1.77132
0
LINE
8
BLACK
6
CONTINUOUS
10
4.77294
20
-1.77132
11
4.7729
21
-1.77149
0
LINE
8
BLACK
6
CONTINUOUS
10
4.7729
20
-1.77149
11
4.77296
21
-1.77166
0
LINE
8
BLACK
6
CONTINUOUS
10
4.77296
20
-1.77166
11
4.77296
21
-1.77541
0
LINE
8
BLACK
6
CONTINUOUS
10
4.77296
20
-1.77541
11
4.77278
21
-1.77642
0
LINE
8
BLACK
6
CONTINUOUS
10
4.77278
20
-1.77642
11
4.77266
21
-1.77655
0
LINE
8
BLACK
6
CONTINUOUS
10
4.77266
20
-1.77655
11
4.77264
21
-1.77673
0
LINE
8
BLACK
6
CONTINUOUS
10
4.77264
20
-1.77673
11
4.77077
21
-1.78048
0
LINE
8
BLACK
6
CONTINUOUS
10
4.77077
20
-1.78048
11
4.77024
21
-1.78119
0
LINE
8
BLACK
6
CONTINUOUS
10
4.77024
20
-1.78119
11
4.77022
21
-1.78124
0
LINE
8
BLACK
6
CONTINUOUS
10
4.77022
20
-1.78124
11
4.76834
21
-1.78312
0
LINE
8
BLACK
6
CONTINUOUS
10
4.76834
20
-1.78312
11
4.76762
21
-1.78363
0
LINE
8
BLACK
6
CONTINUOUS
10
4.76762
20
-1.78363
11
4.76757
21
-1.78367
0
LINE
8
BLACK
6
CONTINUOUS
10
4.76757
20
-1.78367
11
4.76383
21
-1.78555
0
LINE
8
BLACK
6
CONTINUOUS
10
4.76383
20
-1.78555
11
4.76284
21
-1.78584
0
LINE
8
BLACK
6
CONTINUOUS
10
4.76284
20
-1.78584
11
4.76267
21
-1.7858
0
LINE
8
BLACK
6
CONTINUOUS
10
4.76267
20
-1.7858
11
4.7625
21
-1.78586
0
LINE
8
BLACK
6
CONTINUOUS
10
4.7625
20
-1.78586
11
4.75313
21
-1.78586
0
LINE
8
BLACK
6
CONTINUOUS
10
4.75313
20
-1.78586
11
4.75226
21
-1.78571
0
LINE
8
BLACK
6
CONTINUOUS
10
4.75226
20
-1.78571
11
4.7522
21
-1.78571
0
LINE
8
BLACK
6
CONTINUOUS
10
4.7522
20
-1.78571
11
4.74657
21
-1.78383
0
LINE
8
BLACK
6
CONTINUOUS
10
4.74657
20
-1.78383
11
4.74567
21
-1.78334
0
LINE
8
BLACK
6
CONTINUOUS
10
4.74567
20
-1.78334
11
4.74461
21
-1.78162
0
LINE
8
BLACK
6
CONTINUOUS
10
4.74461
20
-1.78162
11
4.74491
21
-1.77963
0
LINE
8
BLACK
6
CONTINUOUS
10
4.74491
20
-1.77963
11
4.74642
21
-1.77829
0
LINE
8
BLACK
6
CONTINUOUS
10
4.74642
20
-1.77829
11
4.74844
21
-1.77823
0
LINE
8
BLACK
6
CONTINUOUS
10
4.74844
20
-1.77823
11
4.75361
21
-1.77995
0
LINE
8
BLACK
6
CONTINUOUS
10
4.75361
20
-1.77995
11
4.76181
21
-1.77995
0
LINE
8
BLACK
6
CONTINUOUS
10
4.76181
20
-1.77995
11
4.76451
21
-1.7786
0
LINE
8
BLACK
6
CONTINUOUS
10
4.76451
20
-1.7786
11
4.7657
21
-1.77741
0
LINE
8
BLACK
6
CONTINUOUS
10
4.7657
20
-1.77741
11
4.76705
21
-1.77471
0
LINE
8
BLACK
6
CONTINUOUS
10
4.76705
20
-1.77471
11
4.76705
21
-1.77235
0
LINE
8
BLACK
6
CONTINUOUS
10
4.76705
20
-1.77235
11
4.7657
21
-1.76966
0
LINE
8
BLACK
6
CONTINUOUS
10
4.7657
20
-1.76966
11
4.76451
21
-1.76846
0
LINE
8
BLACK
6
CONTINUOUS
10
4.76451
20
-1.76846
11
4.76147
21
-1.76694
0
LINE
8
BLACK
6
CONTINUOUS
10
4.76147
20
-1.76694
11
4.75429
21
-1.76515
0
LINE
8
BLACK
6
CONTINUOUS
10
4.75429
20
-1.76515
11
4.75382
21
-1.76494
0
LINE
8
BLACK
6
CONTINUOUS
10
4.75382
20
-1.76494
11
4.75369
21
-1.76492
0
LINE
8
BLACK
6
CONTINUOUS
10
4.75369
20
-1.76492
11
4.74994
21
-1.76305
0
LINE
8
BLACK
6
CONTINUOUS
10
4.74994
20
-1.76305
11
4.74923
21
-1.76252
0
LINE
8
BLACK
6
CONTINUOUS
10
4.74923
20
-1.76252
11
4.74917
21
-1.7625
0
LINE
8
BLACK
6
CONTINUOUS
10
4.74917
20
-1.7625
11
4.74729
21
-1.76062
0
LINE
8
BLACK
6
CONTINUOUS
10
4.74729
20
-1.76062
11
4.74679
21
-1.7599
0
LINE
8
BLACK
6
CONTINUOUS
10
4.74679
20
-1.7599
11
4.74674
21
-1.75985
0
LINE
8
BLACK
6
CONTINUOUS
10
4.74674
20
-1.75985
11
4.74487
21
-1.75611
0
LINE
8
BLACK
6
CONTINUOUS
10
4.74487
20
-1.75611
11
4.74457
21
-1.75512
0
LINE
8
BLACK
6
CONTINUOUS
10
4.74457
20
-1.75512
11
4.74461
21
-1.75495
0
LINE
8
BLACK
6
CONTINUOUS
10
4.74461
20
-1.75495
11
4.74455
21
-1.75478
0
LINE
8
BLACK
6
CONTINUOUS
10
4.74455
20
-1.75478
11
4.74455
21
-1.75104
0
LINE
8
BLACK
6
CONTINUOUS
10
4.74455
20
-1.75104
11
4.74473
21
-1.75003
0
LINE
8
BLACK
6
CONTINUOUS
10
4.74473
20
-1.75003
11
4.74485
21
-1.74989
0
LINE
8
BLACK
6
CONTINUOUS
10
4.74485
20
-1.74989
11
4.74487
21
-1.74971
0
LINE
8
BLACK
6
CONTINUOUS
10
4.74487
20
-1.74971
11
4.74674
21
-1.74597
0
LINE
8
BLACK
6
CONTINUOUS
10
4.74674
20
-1.74597
11
4.74727
21
-1.74526
0
LINE
8
BLACK
6
CONTINUOUS
10
4.74727
20
-1.74526
11
4.74729
21
-1.7452
0
LINE
8
BLACK
6
CONTINUOUS
10
4.74729
20
-1.7452
11
4.74917
21
-1.74332
0
LINE
8
BLACK
6
CONTINUOUS
10
4.74917
20
-1.74332
11
4.74989
21
-1.74282
0
LINE
8
BLACK
6
CONTINUOUS
10
4.74989
20
-1.74282
11
4.74994
21
-1.74277
0
LINE
8
BLACK
6
CONTINUOUS
10
4.74994
20
-1.74277
11
4.75369
21
-1.7409
0
LINE
8
BLACK
6
CONTINUOUS
10
4.75369
20
-1.7409
11
4.75467
21
-1.7406
0
LINE
8
BLACK
6
CONTINUOUS
10
4.75467
20
-1.7406
11
4.75484
21
-1.74064
0
LINE
8
BLACK
6
CONTINUOUS
10
4.75484
20
-1.74064
11
4.75501
21
-1.74058
0
LINE
8
BLACK
6
CONTINUOUS
10
4.75501
20
-1.74058
11
4.76438
21
-1.74058
0
LINE
8
BLACK
6
CONTINUOUS
10
4.76438
20
-1.74058
11
4.76525
21
-1.74074
0
LINE
8
BLACK
6
CONTINUOUS
10
4.846
20
-1.74076
11
4.84614
21
-1.74087
0
LINE
8
BLACK
6
CONTINUOUS
10
4.84614
20
-1.74087
11
4.84631
21
-1.7409
0
LINE
8
BLACK
6
CONTINUOUS
10
4.84631
20
-1.7409
11
4.85006
21
-1.74277
0
LINE
8
BLACK
6
CONTINUOUS
10
4.85006
20
-1.74277
11
4.85077
21
-1.7433
0
LINE
8
BLACK
6
CONTINUOUS
10
4.85077
20
-1.7433
11
4.85083
21
-1.74332
0
LINE
8
BLACK
6
CONTINUOUS
10
4.85083
20
-1.74332
11
4.85271
21
-1.7452
0
LINE
8
BLACK
6
CONTINUOUS
10
4.85271
20
-1.7452
11
4.85321
21
-1.74592
0
LINE
8
BLACK
6
CONTINUOUS
10
4.85321
20
-1.74592
11
4.85326
21
-1.74597
0
LINE
8
BLACK
6
CONTINUOUS
10
4.85326
20
-1.74597
11
4.85513
21
-1.74971
0
LINE
8
BLACK
6
CONTINUOUS
10
4.85513
20
-1.74971
11
4.85543
21
-1.7507
0
LINE
8
BLACK
6
CONTINUOUS
10
4.85543
20
-1.7507
11
4.85539
21
-1.75087
0
LINE
8
BLACK
6
CONTINUOUS
10
4.85539
20
-1.75087
11
4.85545
21
-1.75104
0
LINE
8
BLACK
6
CONTINUOUS
10
4.85545
20
-1.75104
11
4.85545
21
-1.75478
0
LINE
8
BLACK
6
CONTINUOUS
10
4.85545
20
-1.75478
11
4.85529
21
-1.75565
0
LINE
8
BLACK
6
CONTINUOUS
10
4.85529
20
-1.75565
11
4.85529
21
-1.75572
0
LINE
8
BLACK
6
CONTINUOUS
10
4.85529
20
-1.75572
11
4.85342
21
-1.76134
0
LINE
8
BLACK
6
CONTINUOUS
10
4.85342
20
-1.76134
11
4.85293
21
-1.76224
0
LINE
8
BLACK
6
CONTINUOUS
10
4.85293
20
-1.76224
11
4.85278
21
-1.76234
0
LINE
8
BLACK
6
CONTINUOUS
10
4.85278
20
-1.76234
11
4.85271
21
-1.7625
0
LINE
8
BLACK
6
CONTINUOUS
10
4.85271
20
-1.7625
11
4.83525
21
-1.77995
0
LINE
8
BLACK
6
CONTINUOUS
10
4.83525
20
-1.77995
11
4.85249
21
-1.77995
0
LINE
8
BLACK
6
CONTINUOUS
10
4.85249
20
-1.77995
11
4.8535
21
-1.78013
0
LINE
8
BLACK
6
CONTINUOUS
10
4.8535
20
-1.78013
11
4.85505
21
-1.78143
0
LINE
8
BLACK
6
CONTINUOUS
10
4.85505
20
-1.78143
11
4.8554
21
-1.78342
0
LINE
8
BLACK
6
CONTINUOUS
10
4.8554
20
-1.78342
11
4.85439
21
-1.78517
0
LINE
8
BLACK
6
CONTINUOUS
10
4.85439
20
-1.78517
11
4.85249
21
-1.78586
0
LINE
8
BLACK
6
CONTINUOUS
10
4.85249
20
-1.78586
11
4.82812
21
-1.78586
0
LINE
8
BLACK
6
CONTINUOUS
10
4.82812
20
-1.78586
11
4.82749
21
-1.78575
0
LINE
8
BLACK
6
CONTINUOUS
10
4.82749
20
-1.78575
11
4.82736
21
-1.78576
0
LINE
8
BLACK
6
CONTINUOUS
10
4.82736
20
-1.78576
11
4.82729
21
-1.78571
0
LINE
8
BLACK
6
CONTINUOUS
10
4.82729
20
-1.78571
11
4.82711
21
-1.78568
0
LINE
8
BLACK
6
CONTINUOUS
10
4.82711
20
-1.78568
11
4.82643
21
-1.78511
0
LINE
8
BLACK
6
CONTINUOUS
10
4.82643
20
-1.78511
11
4.8257
21
-1.7846
0
LINE
8
BLACK
6
CONTINUOUS
10
4.8257
20
-1.7846
11
4.82567
21
-1.78447
0
LINE
8
BLACK
6
CONTINUOUS
10
4.82567
20
-1.78447
11
4.82556
21
-1.78438
0
LINE
8
BLACK
6
CONTINUOUS
10
4.82556
20
-1.78438
11
4.82541
21
-1.78351
0
LINE
8
BLACK
6
CONTINUOUS
10
4.82541
20
-1.78351
11
4.82518
21
-1.78265
0
LINE
8
BLACK
6
CONTINUOUS
10
4.82518
20
-1.78265
11
4.82524
21
-1.78253
0
LINE
8
BLACK
6
CONTINUOUS
10
4.82524
20
-1.78253
11
4.82521
21
-1.78239
0
LINE
8
BLACK
6
CONTINUOUS
10
4.82521
20
-1.78239
11
4.82566
21
-1.78162
0
LINE
8
BLACK
6
CONTINUOUS
10
4.82566
20
-1.78162
11
4.82603
21
-1.78082
0
LINE
8
BLACK
6
CONTINUOUS
10
4.82603
20
-1.78082
11
4.84804
21
-1.75881
0
LINE
8
BLACK
6
CONTINUOUS
10
4.84804
20
-1.75881
11
4.84954
21
-1.75431
0
LINE
8
BLACK
6
CONTINUOUS
10
4.84954
20
-1.75431
11
4.84954
21
-1.75173
0
LINE
8
BLACK
6
CONTINUOUS
10
4.84954
20
-1.75173
11
4.84819
21
-1.74903
0
LINE
8
BLACK
6
CONTINUOUS
10
4.84819
20
-1.74903
11
4.84699
21
-1.74784
0
LINE
8
BLACK
6
CONTINUOUS
10
4.84699
20
-1.74784
11
4.8443
21
-1.74649
0
LINE
8
BLACK
6
CONTINUOUS
10
4.8443
20
-1.74649
11
4.83632
21
-1.74649
0
LINE
8
BLACK
6
CONTINUOUS
10
4.83632
20
-1.74649
11
4.83362
21
-1.74784
0
LINE
8
BLACK
6
CONTINUOUS
10
4.83362
20
-1.74784
11
4.83208
21
-1.74937
0
LINE
8
BLACK
6
CONTINUOUS
10
4.83208
20
-1.74937
11
4.83124
21
-1.74996
0
LINE
8
BLACK
6
CONTINUOUS
10
4.83124
20
-1.74996
11
4.82923
21
-1.75014
0
LINE
8
BLACK
6
CONTINUOUS
10
4.82923
20
-1.75014
11
4.82758
21
-1.74898
0
LINE
8
BLACK
6
CONTINUOUS
10
4.82758
20
-1.74898
11
4.82705
21
-1.74703
0
LINE
8
BLACK
6
CONTINUOUS
10
4.82705
20
-1.74703
11
4.82791
21
-1.7452
0
LINE
8
BLACK
6
CONTINUOUS
10
4.82791
20
-1.7452
11
4.82978
21
-1.74332
0
LINE
8
BLACK
6
CONTINUOUS
10
4.82978
20
-1.74332
11
4.83051
21
-1.74282
0
LINE
8
BLACK
6
CONTINUOUS
10
4.83051
20
-1.74282
11
4.83055
21
-1.74277
0
LINE
8
BLACK
6
CONTINUOUS
10
4.83055
20
-1.74277
11
4.8343
21
-1.7409
0
LINE
8
BLACK
6
CONTINUOUS
10
4.8343
20
-1.7409
11
4.83528
21
-1.7406
0
LINE
8
BLACK
6
CONTINUOUS
10
4.83528
20
-1.7406
11
4.83545
21
-1.74064
0
LINE
8
BLACK
6
CONTINUOUS
10
4.83545
20
-1.74064
11
4.83562
21
-1.74058
0
LINE
8
BLACK
6
CONTINUOUS
10
4.83562
20
-1.74058
11
4.84499
21
-1.74058
0
LINE
8
BLACK
6
CONTINUOUS
10
4.84499
20
-1.74058
11
4.846
21
-1.74076
0
LINE
8
BLACK
6
CONTINUOUS
10
3.28489
20
-1.74117
11
3.286
21
-1.74285
0
LINE
8
BLACK
6
CONTINUOUS
10
3.286
20
-1.74285
11
3.29266
21
-1.77084
0
LINE
8
BLACK
6
CONTINUOUS
10
3.29266
20
-1.77084
11
3.29715
21
-1.75402
0
LINE
8
BLACK
6
CONTINUOUS
10
3.29715
20
-1.75402
11
3.29758
21
-1.75309
0
LINE
8
BLACK
6
CONTINUOUS
10
3.29758
20
-1.75309
11
3.2978
21
-1.75294
0
LINE
8
BLACK
6
CONTINUOUS
10
3.2978
20
-1.75294
11
3.29791
21
-1.75269
0
LINE
8
BLACK
6
CONTINUOUS
10
3.29791
20
-1.75269
11
3.29861
21
-1.75237
0
LINE
8
BLACK
6
CONTINUOUS
10
3.29861
20
-1.75237
11
3.29923
21
-1.75193
0
LINE
8
BLACK
6
CONTINUOUS
10
3.29923
20
-1.75193
11
3.2995
21
-1.75196
0
LINE
8
BLACK
6
CONTINUOUS
10
3.2995
20
-1.75196
11
3.29975
21
-1.75184
0
LINE
8
BLACK
6
CONTINUOUS
10
3.29975
20
-1.75184
11
3.30048
21
-1.75204
0
LINE
8
BLACK
6
CONTINUOUS
10
3.30048
20
-1.75204
11
3.30124
21
-1.75211
0
LINE
8
BLACK
6
CONTINUOUS
10
3.30124
20
-1.75211
11
3.30144
21
-1.7523
0
LINE
8
BLACK
6
CONTINUOUS
10
3.30144
20
-1.7523
11
3.3017
21
-1.75237
0
LINE
8
BLACK
6
CONTINUOUS
10
3.3017
20
-1.75237
11
3.30213
21
-1.75299
0
LINE
8
BLACK
6
CONTINUOUS
10
3.30213
20
-1.75299
11
3.30267
21
-1.75353
0
LINE
8
BLACK
6
CONTINUOUS
10
3.30267
20
-1.75353
11
3.3027
21
-1.7538
0
LINE
8
BLACK
6
CONTINUOUS
10
3.3027
20
-1.7538
11
3.30285
21
-1.75402
0
LINE
8
BLACK
6
CONTINUOUS
10
3.30285
20
-1.75402
11
3.30734
21
-1.77084
0
LINE
8
BLACK
6
CONTINUOUS
10
3.30734
20
-1.77084
11
3.314
21
-1.74285
0
LINE
8
BLACK
6
CONTINUOUS
10
3.314
20
-1.74285
11
3.31441
21
-1.74191
0
LINE
8
BLACK
6
CONTINUOUS
10
3.31441
20
-1.74191
11
3.31603
21
-1.74071
0
LINE
8
BLACK
6
CONTINUOUS
10
3.31603
20
-1.74071
11
3.31805
21
-1.74083
0
LINE
8
BLACK
6
CONTINUOUS
10
3.31805
20
-1.74083
11
3.31951
21
-1.74221
0
LINE
8
BLACK
6
CONTINUOUS
10
3.31951
20
-1.74221
11
3.31975
21
-1.74422
0
LINE
8
BLACK
6
CONTINUOUS
10
3.31975
20
-1.74422
11
3.31037
21
-1.78359
0
LINE
8
BLACK
6
CONTINUOUS
10
3.31037
20
-1.78359
11
3.30996
21
-1.78453
0
LINE
8
BLACK
6
CONTINUOUS
10
3.30996
20
-1.78453
11
3.30972
21
-1.78472
0
LINE
8
BLACK
6
CONTINUOUS
10
3.30972
20
-1.78472
11
3.30958
21
-1.785
0
LINE
8
BLACK
6
CONTINUOUS
10
3.30958
20
-1.785
11
3.30893
21
-1.7853
0
LINE
8
BLACK
6
CONTINUOUS
10
3.30893
20
-1.7853
11
3.30834
21
-1.78574
0
LINE
8
BLACK
6
CONTINUOUS
10
3.30834
20
-1.78574
11
3.30803
21
-1.78572
0
LINE
8
BLACK
6
CONTINUOUS
10
3.30803
20
-1.78572
11
3.30775
21
-1.78585
0
LINE
8
BLACK
6
CONTINUOUS
10
3.30775
20
-1.78585
11
3.30705
21
-1.78566
0
LINE
8
BLACK
6
CONTINUOUS
10
3.30705
20
-1.78566
11
3.30633
21
-1.78562
0
LINE
8
BLACK
6
CONTINUOUS
10
3.30633
20
-1.78562
11
3.3061
21
-1.7854
0
LINE
8
BLACK
6
CONTINUOUS
10
3.3061
20
-1.7854
11
3.3058
21
-1.78532
0
LINE
8
BLACK
6
CONTINUOUS
10
3.3058
20
-1.78532
11
3.30539
21
-1.78473
0
LINE
8
BLACK
6
CONTINUOUS
10
3.30539
20
-1.78473
11
3.30486
21
-1.78423
0
LINE
8
BLACK
6
CONTINUOUS
10
3.30486
20
-1.78423
11
3.30482
21
-1.78392
0
LINE
8
BLACK
6
CONTINUOUS
10
3.30482
20
-1.78392
11
3.30465
21
-1.78367
0
LINE
8
BLACK
6
CONTINUOUS
10
3.30465
20
-1.78367
11
3.3
21
-1.76624
0
LINE
8
BLACK
6
CONTINUOUS
10
3.3
20
-1.76624
11
3.29535
21
-1.78367
0
LINE
8
BLACK
6
CONTINUOUS
10
3.29535
20
-1.78367
11
3.29492
21
-1.7846
0
LINE
8
BLACK
6
CONTINUOUS
10
3.29492
20
-1.7846
11
3.29467
21
-1.78477
0
LINE
8
BLACK
6
CONTINUOUS
10
3.29467
20
-1.78477
11
3.29453
21
-1.78505
0
LINE
8
BLACK
6
CONTINUOUS
10
3.29453
20
-1.78505
11
3.29386
21
-1.78534
0
LINE
8
BLACK
6
CONTINUOUS
10
3.29386
20
-1.78534
11
3.29327
21
-1.78576
0
LINE
8
BLACK
6
CONTINUOUS
10
3.29327
20
-1.78576
11
3.29296
21
-1.78573
0
LINE
8
BLACK
6
CONTINUOUS
10
3.29296
20
-1.78573
11
3.29268
21
-1.78585
0
LINE
8
BLACK
6
CONTINUOUS
10
3.29268
20
-1.78585
11
3.29198
21
-1.78565
0
LINE
8
BLACK
6
CONTINUOUS
10
3.29198
20
-1.78565
11
3.29126
21
-1.78558
0
LINE
8
BLACK
6
CONTINUOUS
10
3.29126
20
-1.78558
11
3.29104
21
-1.78537
0
LINE
8
BLACK
6
CONTINUOUS
10
3.29104
20
-1.78537
11
3.29074
21
-1.78528
0
LINE
8
BLACK
6
CONTINUOUS
10
3.29074
20
-1.78528
11
3.29034
21
-1.78467
0
LINE
8
BLACK
6
CONTINUOUS
10
3.29034
20
-1.78467
11
3.28983
21
-1.78416
0
LINE
8
BLACK
6
CONTINUOUS
10
3.28983
20
-1.78416
11
3.2898
21
-1.78385
0
LINE
8
BLACK
6
CONTINUOUS
10
3.2898
20
-1.78385
11
3.28963
21
-1.78359
0
LINE
8
BLACK
6
CONTINUOUS
10
3.28963
20
-1.78359
11
3.28025
21
-1.74422
0
LINE
8
BLACK
6
CONTINUOUS
10
3.28025
20
-1.74422
11
3.28019
21
-1.7432
0
LINE
8
BLACK
6
CONTINUOUS
10
3.28019
20
-1.7432
11
3.2811
21
-1.74139
0
LINE
8
BLACK
6
CONTINUOUS
10
3.2811
20
-1.74139
11
3.28295
21
-1.74059
0
LINE
8
BLACK
6
CONTINUOUS
10
3.28295
20
-1.74059
11
3.28489
21
-1.74117
0
LINE
8
BLACK
6
CONTINUOUS
10
4.03489
20
-1.74117
11
4.036
21
-1.74285
0
LINE
8
BLACK
6
CONTINUOUS
10
4.036
20
-1.74285
11
4.04266
21
-1.77084
0
LINE
8
BLACK
6
CONTINUOUS
10
4.04266
20
-1.77084
11
4.04715
21
-1.75402
0
LINE
8
BLACK
6
CONTINUOUS
10
4.04715
20
-1.75402
11
4.04758
21
-1.75309
0
LINE
8
BLACK
6
CONTINUOUS
10
4.04758
20
-1.75309
11
4.0478
21
-1.75294
0
LINE
8
BLACK
6
CONTINUOUS
10
4.0478
20
-1.75294
11
4.04791
21
-1.75269
0
LINE
8
BLACK
6
CONTINUOUS
10
4.04791
20
-1.75269
11
4.04861
21
-1.75237
0
LINE
8
BLACK
6
CONTINUOUS
10
4.04861
20
-1.75237
11
4.04923
21
-1.75193
0
LINE
8
BLACK
6
CONTINUOUS
10
4.04923
20
-1.75193
11
4.0495
21
-1.75196
0
LINE
8
BLACK
6
CONTINUOUS
10
4.0495
20
-1.75196
11
4.04975
21
-1.75184
0
LINE
8
BLACK
6
CONTINUOUS
10
4.04975
20
-1.75184
11
4.05048
21
-1.75204
0
LINE
8
BLACK
6
CONTINUOUS
10
4.05048
20
-1.75204
11
4.05124
21
-1.75211
0
LINE
8
BLACK
6
CONTINUOUS
10
4.05124
20
-1.75211
11
4.05144
21
-1.7523
0
LINE
8
BLACK
6
CONTINUOUS
10
4.05144
20
-1.7523
11
4.0517
21
-1.75237
0
LINE
8
BLACK
6
CONTINUOUS
10
4.0517
20
-1.75237
11
4.05213
21
-1.75299
0
LINE
8
BLACK
6
CONTINUOUS
10
4.05213
20
-1.75299
11
4.05267
21
-1.75353
0
LINE
8
BLACK
6
CONTINUOUS
10
4.05267
20
-1.75353
11
4.0527
21
-1.7538
0
LINE
8
BLACK
6
CONTINUOUS
10
4.0527
20
-1.7538
11
4.05285
21
-1.75402
0
LINE
8
BLACK
6
CONTINUOUS
10
4.05285
20
-1.75402
11
4.05734
21
-1.77084
0
LINE
8
BLACK
6
CONTINUOUS
10
4.05734
20
-1.77084
11
4.064
21
-1.74285
0
LINE
8
BLACK
6
CONTINUOUS
10
4.064
20
-1.74285
11
4.06441
21
-1.74191
0
LINE
8
BLACK
6
CONTINUOUS
10
4.06441
20
-1.74191
11
4.06603
21
-1.74071
0
LINE
8
BLACK
6
CONTINUOUS
10
4.06603
20
-1.74071
11
4.06805
21
-1.74083
0
LINE
8
BLACK
6
CONTINUOUS
10
4.06805
20
-1.74083
11
4.06951
21
-1.74221
0
LINE
8
BLACK
6
CONTINUOUS
10
4.06951
20
-1.74221
11
4.06975
21
-1.74422
0
LINE
8
BLACK
6
CONTINUOUS
10
4.06975
20
-1.74422
11
4.06037
21
-1.78359
0
LINE
8
BLACK
6
CONTINUOUS
10
4.06037
20
-1.78359
11
4.05996
21
-1.78453
0
LINE
8
BLACK
6
CONTINUOUS
10
4.05996
20
-1.78453
11
4.05972
21
-1.78472
0
LINE
8
BLACK
6
CONTINUOUS
10
4.05972
20
-1.78472
11
4.05958
21
-1.785
0
LINE
8
BLACK
6
CONTINUOUS
10
4.05958
20
-1.785
11
4.05893
21
-1.7853
0
LINE
8
BLACK
6
CONTINUOUS
10
4.05893
20
-1.7853
11
4.05834
21
-1.78574
0
LINE
8
BLACK
6
CONTINUOUS
10
4.05834
20
-1.78574
11
4.05803
21
-1.78572
0
LINE
8
BLACK
6
CONTINUOUS
10
4.05803
20
-1.78572
11
4.05775
21
-1.78585
0
LINE
8
BLACK
6
CONTINUOUS
10
4.05775
20
-1.78585
11
4.05705
21
-1.78566
0
LINE
8
BLACK
6
CONTINUOUS
10
4.05705
20
-1.78566
11
4.05633
21
-1.78562
0
LINE
8
BLACK
6
CONTINUOUS
10
4.05633
20
-1.78562
11
4.0561
21
-1.7854
0
LINE
8
BLACK
6
CONTINUOUS
10
4.0561
20
-1.7854
11
4.0558
21
-1.78532
0
LINE
8
BLACK
6
CONTINUOUS
10
4.0558
20
-1.78532
11
4.05539
21
-1.78473
0
LINE
8
BLACK
6
CONTINUOUS
10
4.05539
20
-1.78473
11
4.05486
21
-1.78423
0
LINE
8
BLACK
6
CONTINUOUS
10
4.05486
20
-1.78423
11
4.05482
21
-1.78392
0
LINE
8
BLACK
6
CONTINUOUS
10
4.05482
20
-1.78392
11
4.05465
21
-1.78367
0
LINE
8
BLACK
6
CONTINUOUS
10
4.05465
20
-1.78367
11
4.05
21
-1.76624
0
LINE
8
BLACK
6
CONTINUOUS
10
4.05
20
-1.76624
11
4.04535
21
-1.78367
0
LINE
8
BLACK
6
CONTINUOUS
10
4.04535
20
-1.78367
11
4.04492
21
-1.7846
0
LINE
8
BLACK
6
CONTINUOUS
10
4.04492
20
-1.7846
11
4.04467
21
-1.78477
0
LINE
8
BLACK
6
CONTINUOUS
10
4.04467
20
-1.78477
11
4.04453
21
-1.78505
0
LINE
8
BLACK
6
CONTINUOUS
10
4.04453
20
-1.78505
11
4.04386
21
-1.78534
0
LINE
8
BLACK
6
CONTINUOUS
10
4.04386
20
-1.78534
11
4.04327
21
-1.78576
0
LINE
8
BLACK
6
CONTINUOUS
10
4.04327
20
-1.78576
11
4.04296
21
-1.78573
0
LINE
8
BLACK
6
CONTINUOUS
10
4.04296
20
-1.78573
11
4.04268
21
-1.78585
0
LINE
8
BLACK
6
CONTINUOUS
10
4.04268
20
-1.78585
11
4.04198
21
-1.78565
0
LINE
8
BLACK
6
CONTINUOUS
10
4.04198
20
-1.78565
11
4.04126
21
-1.78558
0
LINE
8
BLACK
6
CONTINUOUS
10
4.04126
20
-1.78558
11
4.04104
21
-1.78537
0
LINE
8
BLACK
6
CONTINUOUS
10
4.04104
20
-1.78537
11
4.04074
21
-1.78528
0
LINE
8
BLACK
6
CONTINUOUS
10
4.04074
20
-1.78528
11
4.04034
21
-1.78467
0
LINE
8
BLACK
6
CONTINUOUS
10
4.04034
20
-1.78467
11
4.03983
21
-1.78416
0
LINE
8
BLACK
6
CONTINUOUS
10
4.03983
20
-1.78416
11
4.0398
21
-1.78385
0
LINE
8
BLACK
6
CONTINUOUS
10
4.0398
20
-1.78385
11
4.03963
21
-1.78359
0
LINE
8
BLACK
6
CONTINUOUS
10
4.03963
20
-1.78359
11
4.03025
21
-1.74422
0
LINE
8
BLACK
6
CONTINUOUS
10
4.03025
20
-1.74422
11
4.03019
21
-1.7432
0
LINE
8
BLACK
6
CONTINUOUS
10
4.03019
20
-1.7432
11
4.0311
21
-1.74139
0
LINE
8
BLACK
6
CONTINUOUS
10
4.0311
20
-1.74139
11
4.03295
21
-1.74059
0
LINE
8
BLACK
6
CONTINUOUS
10
4.03295
20
-1.74059
11
4.03489
21
-1.74117
0
LINE
8
BLACK
6
CONTINUOUS
10
4.78489
20
-1.74117
11
4.786
21
-1.74285
0
LINE
8
BLACK
6
CONTINUOUS
10
4.786
20
-1.74285
11
4.79266
21
-1.77084
0
LINE
8
BLACK
6
CONTINUOUS
10
4.79266
20
-1.77084
11
4.79715
21
-1.75402
0
LINE
8
BLACK
6
CONTINUOUS
10
4.79715
20
-1.75402
11
4.79758
21
-1.75309
0
LINE
8
BLACK
6
CONTINUOUS
10
4.79758
20
-1.75309
11
4.7978
21
-1.75294
0
LINE
8
BLACK
6
CONTINUOUS
10
4.7978
20
-1.75294
11
4.79791
21
-1.75269
0
LINE
8
BLACK
6
CONTINUOUS
10
4.79791
20
-1.75269
11
4.79861
21
-1.75237
0
LINE
8
BLACK
6
CONTINUOUS
10
4.79861
20
-1.75237
11
4.79923
21
-1.75193
0
LINE
8
BLACK
6
CONTINUOUS
10
4.79923
20
-1.75193
11
4.7995
21
-1.75196
0
LINE
8
BLACK
6
CONTINUOUS
10
4.7995
20
-1.75196
11
4.79975
21
-1.75184
0
LINE
8
BLACK
6
CONTINUOUS
10
4.79975
20
-1.75184
11
4.80048
21
-1.75204
0
LINE
8
BLACK
6
CONTINUOUS
10
4.80048
20
-1.75204
11
4.80124
21
-1.75211
0
LINE
8
BLACK
6
CONTINUOUS
10
4.80124
20
-1.75211
11
4.80144
21
-1.7523
0
LINE
8
BLACK
6
CONTINUOUS
10
4.80144
20
-1.7523
11
4.8017
21
-1.75237
0
LINE
8
BLACK
6
CONTINUOUS
10
4.8017
20
-1.75237
11
4.80213
21
-1.75299
0
LINE
8
BLACK
6
CONTINUOUS
10
4.80213
20
-1.75299
11
4.80267
21
-1.75353
0
LINE
8
BLACK
6
CONTINUOUS
10
4.80267
20
-1.75353
11
4.8027
21
-1.7538
0
LINE
8
BLACK
6
CONTINUOUS
10
4.8027
20
-1.7538
11
4.80285
21
-1.75402
0
LINE
8
BLACK
6
CONTINUOUS
10
4.80285
20
-1.75402
11
4.80734
21
-1.77084
0
LINE
8
BLACK
6
CONTINUOUS
10
4.80734
20
-1.77084
11
4.814
21
-1.74285
0
LINE
8
BLACK
6
CONTINUOUS
10
4.814
20
-1.74285
11
4.81441
21
-1.74191
0
LINE
8
BLACK
6
CONTINUOUS
10
4.81441
20
-1.74191
11
4.81603
21
-1.74071
0
LINE
8
BLACK
6
CONTINUOUS
10
4.81603
20
-1.74071
11
4.81805
21
-1.74083
0
LINE
8
BLACK
6
CONTINUOUS
10
4.81805
20
-1.74083
11
4.81951
21
-1.74221
0
LINE
8
BLACK
6
CONTINUOUS
10
4.81951
20
-1.74221
11
4.81975
21
-1.74422
0
LINE
8
BLACK
6
CONTINUOUS
10
4.81975
20
-1.74422
11
4.81037
21
-1.78359
0
LINE
8
BLACK
6
CONTINUOUS
10
4.81037
20
-1.78359
11
4.80996
21
-1.78453
0
LINE
8
BLACK
6
CONTINUOUS
10
4.80996
20
-1.78453
11
4.80972
21
-1.78472
0
LINE
8
BLACK
6
CONTINUOUS
10
4.80972
20
-1.78472
11
4.80958
21
-1.785
0
LINE
8
BLACK
6
CONTINUOUS
10
4.80958
20
-1.785
11
4.80893
21
-1.7853
0
LINE
8
BLACK
6
CONTINUOUS
10
4.80893
20
-1.7853
11
4.80834
21
-1.78574
0
LINE
8
BLACK
6
CONTINUOUS
10
4.80834
20
-1.78574
11
4.80803
21
-1.78572
0
LINE
8
BLACK
6
CONTINUOUS
10
4.80803
20
-1.78572
11
4.80775
21
-1.78585
0
LINE
8
BLACK
6
CONTINUOUS
10
4.80775
20
-1.78585
11
4.80705
21
-1.78566
0
LINE
8
BLACK
6
CONTINUOUS
10
4.80705
20
-1.78566
11
4.80633
21
-1.78562
0
LINE
8
BLACK
6
CONTINUOUS
10
4.80633
20
-1.78562
11
4.8061
21
-1.7854
0
LINE
8
BLACK
6
CONTINUOUS
10
4.8061
20
-1.7854
11
4.8058
21
-1.78532
0
LINE
8
BLACK
6
CONTINUOUS
10
4.8058
20
-1.78532
11
4.80539
21
-1.78473
0
LINE
8
BLACK
6
CONTINUOUS
10
4.80539
20
-1.78473
11
4.80486
21
-1.78423
0
LINE
8
BLACK
6
CONTINUOUS
10
4.80486
20
-1.78423
11
4.80482
21
-1.78392
0
LINE
8
BLACK
6
CONTINUOUS
10
4.80482
20
-1.78392
11
4.80465
21
-1.78367
0
LINE
8
BLACK
6
CONTINUOUS
10
4.80465
20
-1.78367
11
4.8
21
-1.76624
0
LINE
8
BLACK
6
CONTINUOUS
10
4.8
20
-1.76624
11
4.79535
21
-1.78367
0
LINE
8
BLACK
6
CONTINUOUS
10
4.79535
20
-1.78367
11
4.79492
21
-1.7846
0
LINE
8
BLACK
6
CONTINUOUS
10
4.79492
20
-1.7846
11
4.79467
21
-1.78477
0
LINE
8
BLACK
6
CONTINUOUS
10
4.79467
20
-1.78477
11
4.79453
21
-1.78505
0
LINE
8
BLACK
6
CONTINUOUS
10
4.79453
20
-1.78505
11
4.79386
21
-1.78534
0
LINE
8
BLACK
6
CONTINUOUS
10
4.79386
20
-1.78534
11
4.79327
21
-1.78576
0
LINE
8
BLACK
6
CONTINUOUS
10
4.79327
20
-1.78576
11
4.79296
21
-1.78573
0
LINE
8
BLACK
6
CONTINUOUS
10
4.79296
20
-1.78573
11
4.79268
21
-1.78585
0
LINE
8
BLACK
6
CONTINUOUS
10
4.79268
20
-1.78585
11
4.79198
21
-1.78565
0
LINE
8
BLACK
6
CONTINUOUS
10
4.79198
20
-1.78565
11
4.79126
21
-1.78558
0
LINE
8
BLACK
6
CONTINUOUS
10
4.79126
20
-1.78558
11
4.79104
21
-1.78537
0
LINE
8
BLACK
6
CONTINUOUS
10
4.79104
20
-1.78537
11
4.79074
21
-1.78528
0
LINE
8
BLACK
6
CONTINUOUS
10
4.79074
20
-1.78528
11
4.79034
21
-1.78467
0
LINE
8
BLACK
6
CONTINUOUS
10
4.79034
20
-1.78467
11
4.78983
21
-1.78416
0
LINE
8
BLACK
6
CONTINUOUS
10
4.78983
20
-1.78416
11
4.7898
21
-1.78385
0
LINE
8
BLACK
6
CONTINUOUS
10
4.7898
20
-1.78385
11
4.78963
21
-1.78359
0
LINE
8
BLACK
6
CONTINUOUS
10
4.78963
20
-1.78359
11
4.78025
21
-1.74422
0
LINE
8
BLACK
6
CONTINUOUS
10
4.78025
20
-1.74422
11
4.78019
21
-1.7432
0
LINE
8
BLACK
6
CONTINUOUS
10
4.78019
20
-1.7432
11
4.7811
21
-1.74139
0
LINE
8
BLACK
6
CONTINUOUS
10
4.7811
20
-1.74139
11
4.78295
21
-1.74059
0
LINE
8
BLACK
6
CONTINUOUS
10
4.78295
20
-1.74059
11
4.78489
21
-1.74117
0
LINE
8
BLACK
6
CONTINUOUS
10
3.34078
20
-1.73906
11
3.34212
21
-1.74058
0
LINE
8
BLACK
6
CONTINUOUS
10
3.34212
20
-1.74058
11
3.34217
21
-1.7426
0
LINE
8
BLACK
6
CONTINUOUS
10
3.34217
20
-1.7426
11
3.33409
21
-1.76683
0
LINE
8
BLACK
6
CONTINUOUS
10
3.33409
20
-1.76683
11
3.34579
21
-1.76683
0
LINE
8
BLACK
6
CONTINUOUS
10
3.34579
20
-1.76683
11
3.34579
21
-1.75666
0
LINE
8
BLACK
6
CONTINUOUS
10
3.34579
20
-1.75666
11
3.34597
21
-1.75565
0
LINE
8
BLACK
6
CONTINUOUS
10
3.34597
20
-1.75565
11
3.34727
21
-1.7541
0
LINE
8
BLACK
6
CONTINUOUS
10
3.34727
20
-1.7541
11
3.34926
21
-1.75375
0
LINE
8
BLACK
6
CONTINUOUS
10
3.34926
20
-1.75375
11
3.35101
21
-1.75476
0
LINE
8
BLACK
6
CONTINUOUS
10
3.35101
20
-1.75476
11
3.3517
21
-1.75666
0
LINE
8
BLACK
6
CONTINUOUS
10
3.3517
20
-1.75666
11
3.3517
21
-1.76683
0
LINE
8
BLACK
6
CONTINUOUS
10
3.3517
20
-1.76683
11
3.35437
21
-1.76683
0
LINE
8
BLACK
6
CONTINUOUS
10
3.35437
20
-1.76683
11
3.35538
21
-1.76701
0
LINE
8
BLACK
6
CONTINUOUS
10
3.35538
20
-1.76701
11
3.35693
21
-1.76831
0
LINE
8
BLACK
6
CONTINUOUS
10
3.35693
20
-1.76831
11
3.35728
21
-1.7703
0
LINE
8
BLACK
6
CONTINUOUS
10
3.35728
20
-1.7703
11
3.35627
21
-1.77204
0
LINE
8
BLACK
6
CONTINUOUS
10
3.35627
20
-1.77204
11
3.35437
21
-1.77274
0
LINE
8
BLACK
6
CONTINUOUS
10
3.35437
20
-1.77274
11
3.3517
21
-1.77274
0
LINE
8
BLACK
6
CONTINUOUS
10
3.3517
20
-1.77274
11
3.3517
21
-1.78291
0
LINE
8
BLACK
6
CONTINUOUS
10
3.3517
20
-1.78291
11
3.35152
21
-1.78392
0
LINE
8
BLACK
6
CONTINUOUS
10
3.35152
20
-1.78392
11
3.35022
21
-1.78546
0
LINE
8
BLACK
6
CONTINUOUS
10
3.35022
20
-1.78546
11
3.34823
21
-1.78581
0
LINE
8
BLACK
6
CONTINUOUS
10
3.34823
20
-1.78581
11
3.34648
21
-1.7848
0
LINE
8
BLACK
6
CONTINUOUS
10
3.34648
20
-1.7848
11
3.34579
21
-1.78291
0
LINE
8
BLACK
6
CONTINUOUS
10
3.34579
20
-1.78291
11
3.34579
21
-1.77274
0
LINE
8
BLACK
6
CONTINUOUS
10
3.34579
20
-1.77274
11
3.33
21
-1.77274
0
LINE
8
BLACK
6
CONTINUOUS
10
3.33
20
-1.77274
11
3.32899
21
-1.77256
0
LINE
8
BLACK
6
CONTINUOUS
10
3.32899
20
-1.77256
11
3.32881
21
-1.77241
0
LINE
8
BLACK
6
CONTINUOUS
10
3.32881
20
-1.77241
11
3.32859
21
-1.77238
0
LINE
8
BLACK
6
CONTINUOUS
10
3.32859
20
-1.77238
11
3.32806
21
-1.77178
0
LINE
8
BLACK
6
CONTINUOUS
10
3.32806
20
-1.77178
11
3.32744
21
-1.77126
0
LINE
8
BLACK
6
CONTINUOUS
10
3.32744
20
-1.77126
11
3.3274
21
-1.77104
0
LINE
8
BLACK
6
CONTINUOUS
10
3.3274
20
-1.77104
11
3.32725
21
-1.77087
0
LINE
8
BLACK
6
CONTINUOUS
10
3.32725
20
-1.77087
11
3.32723
21
-1.77006
0
LINE
8
BLACK
6
CONTINUOUS
10
3.32723
20
-1.77006
11
3.32709
21
-1.76927
0
LINE
8
BLACK
6
CONTINUOUS
10
3.32709
20
-1.76927
11
3.3272
21
-1.76907
0
LINE
8
BLACK
6
CONTINUOUS
10
3.3272
20
-1.76907
11
3.3272
21
-1.76885
0
LINE
8
BLACK
6
CONTINUOUS
10
3.3272
20
-1.76885
11
3.33657
21
-1.74073
0
LINE
8
BLACK
6
CONTINUOUS
10
3.33657
20
-1.74073
11
3.33706
21
-1.73983
0
LINE
8
BLACK
6
CONTINUOUS
10
3.33706
20
-1.73983
11
3.33878
21
-1.73877
0
LINE
8
BLACK
6
CONTINUOUS
10
3.33878
20
-1.73877
11
3.34078
21
-1.73906
0
LINE
8
BLACK
6
CONTINUOUS
10
2.85038
20
-1.43797
11
2.85052
21
-1.43808
0
LINE
8
BLACK
6
CONTINUOUS
10
2.85052
20
-1.43808
11
2.85069
21
-1.4381
0
LINE
8
BLACK
6
CONTINUOUS
10
2.85069
20
-1.4381
11
2.85444
21
-1.43997
0
LINE
8
BLACK
6
CONTINUOUS
10
2.85444
20
-1.43997
11
2.85515
21
-1.4405
0
LINE
8
BLACK
6
CONTINUOUS
10
2.85515
20
-1.4405
11
2.85521
21
-1.44053
0
LINE
8
BLACK
6
CONTINUOUS
10
2.85521
20
-1.44053
11
2.85708
21
-1.4424
0
LINE
8
BLACK
6
CONTINUOUS
10
2.85708
20
-1.4424
11
2.85759
21
-1.44313
0
LINE
8
BLACK
6
CONTINUOUS
10
2.85759
20
-1.44313
11
2.85764
21
-1.44317
0
LINE
8
BLACK
6
CONTINUOUS
10
2.85764
20
-1.44317
11
2.85951
21
-1.44692
0
LINE
8
BLACK
6
CONTINUOUS
10
2.85951
20
-1.44692
11
2.8598
21
-1.4479
0
LINE
8
BLACK
6
CONTINUOUS
10
2.8598
20
-1.4479
11
2.85976
21
-1.44807
0
LINE
8
BLACK
6
CONTINUOUS
10
2.85976
20
-1.44807
11
2.85982
21
-1.44824
0
LINE
8
BLACK
6
CONTINUOUS
10
2.85982
20
-1.44824
11
2.85982
21
-1.45199
0
LINE
8
BLACK
6
CONTINUOUS
10
2.85982
20
-1.45199
11
2.85967
21
-1.45286
0
LINE
8
BLACK
6
CONTINUOUS
10
2.85967
20
-1.45286
11
2.85967
21
-1.45292
0
LINE
8
BLACK
6
CONTINUOUS
10
2.85967
20
-1.45292
11
2.8578
21
-1.45855
0
LINE
8
BLACK
6
CONTINUOUS
10
2.8578
20
-1.45855
11
2.85731
21
-1.45945
0
LINE
8
BLACK
6
CONTINUOUS
10
2.85731
20
-1.45945
11
2.85716
21
-1.45954
0
LINE
8
BLACK
6
CONTINUOUS
10
2.85716
20
-1.45954
11
2.85708
21
-1.4597
0
LINE
8
BLACK
6
CONTINUOUS
10
2.85708
20
-1.4597
11
2.83963
21
-1.47716
0
LINE
8
BLACK
6
CONTINUOUS
10
2.83963
20
-1.47716
11
2.85687
21
-1.47716
0
LINE
8
BLACK
6
CONTINUOUS
10
2.85687
20
-1.47716
11
2.85788
21
-1.47734
0
LINE
8
BLACK
6
CONTINUOUS
10
2.85788
20
-1.47734
11
2.85943
21
-1.47863
0
LINE
8
BLACK
6
CONTINUOUS
10
2.85943
20
-1.47863
11
2.85978
21
-1.48062
0
LINE
8
BLACK
6
CONTINUOUS
10
2.85978
20
-1.48062
11
2.85877
21
-1.48237
0
LINE
8
BLACK
6
CONTINUOUS
10
2.85877
20
-1.48237
11
2.85687
21
-1.48306
0
LINE
8
BLACK
6
CONTINUOUS
10
2.85687
20
-1.48306
11
2.8325
21
-1.48306
0
LINE
8
BLACK
6
CONTINUOUS
10
2.8325
20
-1.48306
11
2.83186
21
-1.48295
0
LINE
8
BLACK
6
CONTINUOUS
10
2.83186
20
-1.48295
11
2.83173
21
-1.48296
0
LINE
8
BLACK
6
CONTINUOUS
10
2.83173
20
-1.48296
11
2.83167
21
-1.48292
0
LINE
8
BLACK
6
CONTINUOUS
10
2.83167
20
-1.48292
11
2.83149
21
-1.48289
0
LINE
8
BLACK
6
CONTINUOUS
10
2.83149
20
-1.48289
11
2.83081
21
-1.48231
0
LINE
8
BLACK
6
CONTINUOUS
10
2.83081
20
-1.48231
11
2.83008
21
-1.4818
0
LINE
8
BLACK
6
CONTINUOUS
10
2.83008
20
-1.4818
11
2.83005
21
-1.48167
0
LINE
8
BLACK
6
CONTINUOUS
10
2.83005
20
-1.48167
11
2.82994
21
-1.48159
0
LINE
8
BLACK
6
CONTINUOUS
10
2.82994
20
-1.48159
11
2.82979
21
-1.48071
0
LINE
8
BLACK
6
CONTINUOUS
10
2.82979
20
-1.48071
11
2.82956
21
-1.47985
0
LINE
8
BLACK
6
CONTINUOUS
10
2.82956
20
-1.47985
11
2.82961
21
-1.47973
0
LINE
8
BLACK
6
CONTINUOUS
10
2.82961
20
-1.47973
11
2.82959
21
-1.4796
0
LINE
8
BLACK
6
CONTINUOUS
10
2.82959
20
-1.4796
11
2.83004
21
-1.47883
0
LINE
8
BLACK
6
CONTINUOUS
10
2.83004
20
-1.47883
11
2.83041
21
-1.47802
0
LINE
8
BLACK
6
CONTINUOUS
10
2.83041
20
-1.47802
11
2.85242
21
-1.45602
0
LINE
8
BLACK
6
CONTINUOUS
10
2.85242
20
-1.45602
11
2.85392
21
-1.45151
0
LINE
8
BLACK
6
CONTINUOUS
10
2.85392
20
-1.45151
11
2.85392
21
-1.44894
0
LINE
8
BLACK
6
CONTINUOUS
10
2.85392
20
-1.44894
11
2.85257
21
-1.44624
0
LINE
8
BLACK
6
CONTINUOUS
10
2.85257
20
-1.44624
11
2.85137
21
-1.44504
0
LINE
8
BLACK
6
CONTINUOUS
10
2.85137
20
-1.44504
11
2.84867
21
-1.44369
0
LINE
8
BLACK
6
CONTINUOUS
10
2.84867
20
-1.44369
11
2.8407
21
-1.44369
0
LINE
8
BLACK
6
CONTINUOUS
10
2.8407
20
-1.44369
11
2.838
21
-1.44504
0
LINE
8
BLACK
6
CONTINUOUS
10
2.838
20
-1.44504
11
2.83646
21
-1.44658
0
LINE
8
BLACK
6
CONTINUOUS
10
2.83646
20
-1.44658
11
2.83562
21
-1.44717
0
LINE
8
BLACK
6
CONTINUOUS
10
2.83562
20
-1.44717
11
2.83361
21
-1.44734
0
LINE
8
BLACK
6
CONTINUOUS
10
2.83361
20
-1.44734
11
2.83196
21
-1.44618
0
LINE
8
BLACK
6
CONTINUOUS
10
2.83196
20
-1.44618
11
2.83143
21
-1.44423
0
LINE
8
BLACK
6
CONTINUOUS
10
2.83143
20
-1.44423
11
2.83229
21
-1.4424
0
LINE
8
BLACK
6
CONTINUOUS
10
2.83229
20
-1.4424
11
2.83416
21
-1.44053
0
LINE
8
BLACK
6
CONTINUOUS
10
2.83416
20
-1.44053
11
2.83488
21
-1.44002
0
LINE
8
BLACK
6
CONTINUOUS
10
2.83488
20
-1.44002
11
2.83493
21
-1.43997
0
LINE
8
BLACK
6
CONTINUOUS
10
2.83493
20
-1.43997
11
2.83868
21
-1.4381
0
LINE
8
BLACK
6
CONTINUOUS
10
2.83868
20
-1.4381
11
2.83966
21
-1.43781
0
LINE
8
BLACK
6
CONTINUOUS
10
2.83966
20
-1.43781
11
2.83983
21
-1.43785
0
LINE
8
BLACK
6
CONTINUOUS
10
2.83983
20
-1.43785
11
2.84
21
-1.43779
0
LINE
8
BLACK
6
CONTINUOUS
10
2.84
20
-1.43779
11
2.84937
21
-1.43779
0
LINE
8
BLACK
6
CONTINUOUS
10
2.84937
20
-1.43779
11
2.85038
21
-1.43797
0
LINE
8
BLACK
6
CONTINUOUS
10
5.29597
20
-1.43786
11
5.29614
21
-1.43783
0
LINE
8
BLACK
6
CONTINUOUS
10
5.29614
20
-1.43783
11
5.29688
21
-1.43826
0
LINE
8
BLACK
6
CONTINUOUS
10
5.29688
20
-1.43826
11
5.29766
21
-1.43861
0
LINE
8
BLACK
6
CONTINUOUS
10
5.29766
20
-1.43861
11
5.29774
21
-1.43876
0
LINE
8
BLACK
6
CONTINUOUS
10
5.29774
20
-1.43876
11
5.29788
21
-1.43884
0
LINE
8
BLACK
6
CONTINUOUS
10
5.29788
20
-1.43884
11
5.29818
21
-1.43965
0
LINE
8
BLACK
6
CONTINUOUS
10
5.29818
20
-1.43965
11
5.29856
21
-1.44042
0
LINE
8
BLACK
6
CONTINUOUS
10
5.29856
20
-1.44042
11
5.29852
21
-1.44058
0
LINE
8
BLACK
6
CONTINUOUS
10
5.29852
20
-1.44058
11
5.29858
21
-1.44074
0
LINE
8
BLACK
6
CONTINUOUS
10
5.29858
20
-1.44074
11
5.29858
21
-1.47716
0
LINE
8
BLACK
6
CONTINUOUS
10
5.29858
20
-1.47716
11
5.30687
21
-1.47716
0
LINE
8
BLACK
6
CONTINUOUS
10
5.30687
20
-1.47716
11
5.30788
21
-1.47734
0
LINE
8
BLACK
6
CONTINUOUS
10
5.30788
20
-1.47734
11
5.30943
21
-1.47863
0
LINE
8
BLACK
6
CONTINUOUS
10
5.30943
20
-1.47863
11
5.30978
21
-1.48062
0
LINE
8
BLACK
6
CONTINUOUS
10
5.30978
20
-1.48062
11
5.30877
21
-1.48237
0
LINE
8
BLACK
6
CONTINUOUS
10
5.30877
20
-1.48237
11
5.30687
21
-1.48306
0
LINE
8
BLACK
6
CONTINUOUS
10
5.30687
20
-1.48306
11
5.28437
21
-1.48306
0
LINE
8
BLACK
6
CONTINUOUS
10
5.28437
20
-1.48306
11
5.28336
21
-1.48289
0
LINE
8
BLACK
6
CONTINUOUS
10
5.28336
20
-1.48289
11
5.28182
21
-1.48159
0
LINE
8
BLACK
6
CONTINUOUS
10
5.28182
20
-1.48159
11
5.28147
21
-1.4796
0
LINE
8
BLACK
6
CONTINUOUS
10
5.28147
20
-1.4796
11
5.28248
21
-1.47785
0
LINE
8
BLACK
6
CONTINUOUS
10
5.28248
20
-1.47785
11
5.28437
21
-1.47716
0
LINE
8
BLACK
6
CONTINUOUS
10
5.28437
20
-1.47716
11
5.29267
21
-1.47716
0
LINE
8
BLACK
6
CONTINUOUS
10
5.29267
20
-1.47716
11
5.29267
21
-1.44974
0
LINE
8
BLACK
6
CONTINUOUS
10
5.29267
20
-1.44974
11
5.29021
21
-1.4522
0
LINE
8
BLACK
6
CONTINUOUS
10
5.29021
20
-1.4522
11
5.28949
21
-1.45271
0
LINE
8
BLACK
6
CONTINUOUS
10
5.28949
20
-1.45271
11
5.28944
21
-1.45276
0
LINE
8
BLACK
6
CONTINUOUS
10
5.28944
20
-1.45276
11
5.28569
21
-1.45463
0
LINE
8
BLACK
6
CONTINUOUS
10
5.28569
20
-1.45463
11
5.28471
21
-1.45492
0
LINE
8
BLACK
6
CONTINUOUS
10
5.28471
20
-1.45492
11
5.28275
21
-1.45445
0
LINE
8
BLACK
6
CONTINUOUS
10
5.28275
20
-1.45445
11
5.28154
21
-1.45283
0
LINE
8
BLACK
6
CONTINUOUS
10
5.28154
20
-1.45283
11
5.28166
21
-1.45082
0
LINE
8
BLACK
6
CONTINUOUS
10
5.28166
20
-1.45082
11
5.28305
21
-1.44935
0
LINE
8
BLACK
6
CONTINUOUS
10
5.28305
20
-1.44935
11
5.28637
21
-1.44769
0
LINE
8
BLACK
6
CONTINUOUS
10
5.28637
20
-1.44769
11
5.28958
21
-1.44448
0
LINE
8
BLACK
6
CONTINUOUS
10
5.28958
20
-1.44448
11
5.29317
21
-1.4391
0
LINE
8
BLACK
6
CONTINUOUS
10
5.29317
20
-1.4391
11
5.29387
21
-1.43836
0
LINE
8
BLACK
6
CONTINUOUS
10
5.29387
20
-1.43836
11
5.29404
21
-1.43831
0
LINE
8
BLACK
6
CONTINUOUS
10
5.29404
20
-1.43831
11
5.29415
21
-1.43818
0
LINE
8
BLACK
6
CONTINUOUS
10
5.29415
20
-1.43818
11
5.29499
21
-1.43803
0
LINE
8
BLACK
6
CONTINUOUS
10
5.29499
20
-1.43803
11
5.29581
21
-1.43779
0
LINE
8
BLACK
6
CONTINUOUS
10
5.29581
20
-1.43779
11
5.29597
21
-1.43786
0
LINE
8
BLACK
6
CONTINUOUS
10
2.81976
20
-1.43884
11
2.82045
21
-1.44074
0
LINE
8
BLACK
6
CONTINUOUS
10
2.82045
20
-1.44074
11
2.82045
21
-1.48011
0
LINE
8
BLACK
6
CONTINUOUS
10
2.82045
20
-1.48011
11
2.82028
21
-1.48112
0
LINE
8
BLACK
6
CONTINUOUS
10
2.82028
20
-1.48112
11
2.81898
21
-1.48267
0
LINE
8
BLACK
6
CONTINUOUS
10
2.81898
20
-1.48267
11
2.81699
21
-1.48302
0
LINE
8
BLACK
6
CONTINUOUS
10
2.81699
20
-1.48302
11
2.81524
21
-1.48201
0
LINE
8
BLACK
6
CONTINUOUS
10
2.81524
20
-1.48201
11
2.81455
21
-1.48011
0
LINE
8
BLACK
6
CONTINUOUS
10
2.81455
20
-1.48011
11
2.81455
21
-1.46244
0
LINE
8
BLACK
6
CONTINUOUS
10
2.81455
20
-1.46244
11
2.79796
21
-1.46244
0
LINE
8
BLACK
6
CONTINUOUS
10
2.79796
20
-1.46244
11
2.79796
21
-1.48011
0
LINE
8
BLACK
6
CONTINUOUS
10
2.79796
20
-1.48011
11
2.79778
21
-1.48112
0
LINE
8
BLACK
6
CONTINUOUS
10
2.79778
20
-1.48112
11
2.79648
21
-1.48267
0
LINE
8
BLACK
6
CONTINUOUS
10
2.79648
20
-1.48267
11
2.79449
21
-1.48302
0
LINE
8
BLACK
6
CONTINUOUS
10
2.79449
20
-1.48302
11
2.79274
21
-1.48201
0
LINE
8
BLACK
6
CONTINUOUS
10
2.79274
20
-1.48201
11
2.79205
21
-1.48011
0
LINE
8
BLACK
6
CONTINUOUS
10
2.79205
20
-1.48011
11
2.79205
21
-1.44074
0
LINE
8
BLACK
6
CONTINUOUS
10
2.79205
20
-1.44074
11
2.79223
21
-1.43973
0
LINE
8
BLACK
6
CONTINUOUS
10
2.79223
20
-1.43973
11
2.79353
21
-1.43818
0
LINE
8
BLACK
6
CONTINUOUS
10
2.79353
20
-1.43818
11
2.79552
21
-1.43783
0
LINE
8
BLACK
6
CONTINUOUS
10
2.79552
20
-1.43783
11
2.79727
21
-1.43884
0
LINE
8
BLACK
6
CONTINUOUS
10
2.79727
20
-1.43884
11
2.79796
21
-1.44074
0
LINE
8
BLACK
6
CONTINUOUS
10
2.79796
20
-1.44074
11
2.79796
21
-1.45654
0
LINE
8
BLACK
6
CONTINUOUS
10
2.79796
20
-1.45654
11
2.81455
21
-1.45654
0
LINE
8
BLACK
6
CONTINUOUS
10
2.81455
20
-1.45654
11
2.81455
21
-1.44074
0
LINE
8
BLACK
6
CONTINUOUS
10
2.81455
20
-1.44074
11
2.81473
21
-1.43973
0
LINE
8
BLACK
6
CONTINUOUS
10
2.81473
20
-1.43973
11
2.81602
21
-1.43818
0
LINE
8
BLACK
6
CONTINUOUS
10
2.81602
20
-1.43818
11
2.81801
21
-1.43783
0
LINE
8
BLACK
6
CONTINUOUS
10
2.81801
20
-1.43783
11
2.81976
21
-1.43884
0
LINE
8
BLACK
6
CONTINUOUS
10
5.26976
20
-1.43884
11
5.27045
21
-1.44074
0
LINE
8
BLACK
6
CONTINUOUS
10
5.27045
20
-1.44074
11
5.27045
21
-1.48011
0
LINE
8
BLACK
6
CONTINUOUS
10
5.27045
20
-1.48011
11
5.27028
21
-1.48112
0
LINE
8
BLACK
6
CONTINUOUS
10
5.27028
20
-1.48112
11
5.26898
21
-1.48267
0
LINE
8
BLACK
6
CONTINUOUS
10
5.26898
20
-1.48267
11
5.26699
21
-1.48302
0
LINE
8
BLACK
6
CONTINUOUS
10
5.26699
20
-1.48302
11
5.26524
21
-1.48201
0
LINE
8
BLACK
6
CONTINUOUS
10
5.26524
20
-1.48201
11
5.26455
21
-1.48011
0
LINE
8
BLACK
6
CONTINUOUS
10
5.26455
20
-1.48011
11
5.26455
21
-1.46244
0
LINE
8
BLACK
6
CONTINUOUS
10
5.26455
20
-1.46244
11
5.24796
21
-1.46244
0
LINE
8
BLACK
6
CONTINUOUS
10
5.24796
20
-1.46244
11
5.24796
21
-1.48011
0
LINE
8
BLACK
6
CONTINUOUS
10
5.24796
20
-1.48011
11
5.24778
21
-1.48112
0
LINE
8
BLACK
6
CONTINUOUS
10
5.24778
20
-1.48112
11
5.24648
21
-1.48267
0
LINE
8
BLACK
6
CONTINUOUS
10
5.24648
20
-1.48267
11
5.24449
21
-1.48302
0
LINE
8
BLACK
6
CONTINUOUS
10
5.24449
20
-1.48302
11
5.24274
21
-1.48201
0
LINE
8
BLACK
6
CONTINUOUS
10
5.24274
20
-1.48201
11
5.24205
21
-1.48011
0
LINE
8
BLACK
6
CONTINUOUS
10
5.24205
20
-1.48011
11
5.24205
21
-1.44074
0
LINE
8
BLACK
6
CONTINUOUS
10
5.24205
20
-1.44074
11
5.24223
21
-1.43973
0
LINE
8
BLACK
6
CONTINUOUS
10
5.24223
20
-1.43973
11
5.24353
21
-1.43818
0
LINE
8
BLACK
6
CONTINUOUS
10
5.24353
20
-1.43818
11
5.24552
21
-1.43783
0
LINE
8
BLACK
6
CONTINUOUS
10
5.24552
20
-1.43783
11
5.24727
21
-1.43884
0
LINE
8
BLACK
6
CONTINUOUS
10
5.24727
20
-1.43884
11
5.24796
21
-1.44074
0
LINE
8
BLACK
6
CONTINUOUS
10
5.24796
20
-1.44074
11
5.24796
21
-1.45654
0
LINE
8
BLACK
6
CONTINUOUS
10
5.24796
20
-1.45654
11
5.26455
21
-1.45654
0
LINE
8
BLACK
6
CONTINUOUS
10
5.26455
20
-1.45654
11
5.26455
21
-1.44074
0
LINE
8
BLACK
6
CONTINUOUS
10
5.26455
20
-1.44074
11
5.26473
21
-1.43973
0
LINE
8
BLACK
6
CONTINUOUS
10
5.26473
20
-1.43973
11
5.26602
21
-1.43818
0
LINE
8
BLACK
6
CONTINUOUS
10
5.26602
20
-1.43818
11
5.26801
21
-1.43783
0
LINE
8
BLACK
6
CONTINUOUS
10
5.26801
20
-1.43783
11
5.26976
21
-1.43884
  0
ENDSEC
  0
EOF
